<?xml version="1.0" encoding="UTF-8"?>
<svg width="576px" height="576px" viewBox="0 0 576 576" version="1.1" xmlns="http://www.w3.org/2000/svg" xmlns:xlink="http://www.w3.org/1999/xlink">
    <title>logo</title>
    <defs>
        <path d="M256.860781,2.85159098 C264.703858,-0.949943189 280.38759,-0.951117416 288.23309,2.85159098 C288.482164,2.97231722 288.723126,3.0969709 288.955995,3.22529949 L540.191947,129.40589 C547.948294,133.165385 547.837506,140.733485 540.449586,144.484215 L288.23309,270.185284 C280.591117,273.889343 264.703858,273.986818 256.860781,270.185284 L256.681862,270.097226 L5.61496564,144.479444 C-1.95973311,140.636211 -1.870619,133.163728 5.88230795,129.40589 C6.62309745,129.046829 7.43383392,128.721673 8.30130623,128.430422 L256.361343,3.104328 C256.52413,3.01834449 256.690609,2.93407293 256.860781,2.85159098 Z" id="path-1"></path>
        <linearGradient x1="42.2687072%" y1="76.4375603%" x2="57.9667093%" y2="76.4375603%" id="linearGradient-3">
            <stop stop-color="#363636" offset="0%"></stop>
            <stop stop-color="#111111" offset="100%"></stop>
        </linearGradient>
    </defs>
    <g id="logo" stroke="none" stroke-width="1" fill="none" fill-rule="evenodd">
        <g id="grid-+-grid-small-Mask" opacity="0.5" transform="translate(16.000000, 151.000000)">
            <mask id="mask-2" fill="white">
                <use xlink:href="#path-1"></use>
            </mask>
            <g id="Mask"></g>
            <g id="grid" mask="url(#mask-2)" stroke-linecap="square">
                <g transform="translate(-16.000000, -151.000000)">
                    <g id="x">
                        <line x1="0" y1="32" x2="576" y2="320" id="Line" stroke="#7579E7"></line>
                        <line x1="0" y1="0" x2="576" y2="288" id="Line-Copy-9" stroke="#7579E7"></line>
                        <line x1="0" y1="64" x2="576" y2="352" id="Line-Copy" stroke="#7579E7"></line>
                        <line x1="0" y1="96" x2="576" y2="384" id="Line-Copy-2" stroke="#7579E7"></line>
                        <line x1="0" y1="128" x2="576" y2="416" id="Line-Copy-3" stroke="#7579E7"></line>
                        <line x1="0" y1="160" x2="576" y2="448" id="Line-Copy-4" stroke="#7579E7"></line>
                        <line x1="0" y1="192" x2="576" y2="480" id="Line-Copy-5" stroke="#7579E7"></line>
                        <line x1="0" y1="224" x2="576" y2="512" id="Line-Copy-6" stroke="#7579E7"></line>
                        <line x1="0" y1="256" x2="576" y2="544" id="Line-Copy-7" stroke="#7579E7"></line>
                        <line x1="0" y1="288" x2="576" y2="576" id="Line-Copy-8" stroke="#7579E7"></line>
                    </g>
                    <g id="y" transform="translate(288.000000, 288.000000) scale(-1, 1) translate(-288.000000, -288.000000) ">
                        <line x1="0" y1="32" x2="576" y2="320" id="Line" stroke="#7579E7"></line>
                        <line x1="0" y1="0" x2="576" y2="288" id="Line-Copy-10" stroke="#7579E7"></line>
                        <line x1="0" y1="64" x2="576" y2="352" id="Line-Copy" stroke="#7579E7"></line>
                        <line x1="0" y1="96" x2="576" y2="384" id="Line-Copy-2" stroke="#7579E7"></line>
                        <line x1="0" y1="128" x2="576" y2="416" id="Line-Copy-3" stroke="#7579E7"></line>
                        <line x1="0" y1="160" x2="576" y2="448" id="Line-Copy-4" stroke="#7579E7"></line>
                        <line x1="0" y1="192" x2="576" y2="480" id="Line-Copy-5" stroke="#7579E7"></line>
                        <line x1="0" y1="224" x2="576" y2="512" id="Line-Copy-6" stroke="#7579E7"></line>
                        <line x1="0" y1="256" x2="576" y2="544" id="Line-Copy-7" stroke="#7579E7"></line>
                        <line x1="0" y1="288" x2="576" y2="576" id="Line-Copy-8" stroke="#7579E7"></line>
                    </g>
                </g>
            </g>
            <g id="grid-small" mask="url(#mask-2)" stroke-linecap="square">
                <g transform="translate(-16.000000, -135.000000)">
                    <g id="x">
                        <line x1="0" y1="0" x2="576" y2="288" id="Line" stroke="#7579E7"></line>
                        <line x1="0" y1="32" x2="576" y2="320" id="Line-Copy" stroke="#7579E7"></line>
                        <line x1="0" y1="64" x2="576" y2="352" id="Line-Copy-2" stroke="#7579E7"></line>
                        <line x1="0" y1="96" x2="576" y2="384" id="Line-Copy-3" stroke="#7579E7"></line>
                        <line x1="0" y1="128" x2="576" y2="416" id="Line-Copy-4" stroke="#7579E7"></line>
                        <line x1="0" y1="160" x2="576" y2="448" id="Line-Copy-5" stroke="#7579E7"></line>
                        <line x1="0" y1="192" x2="576" y2="480" id="Line-Copy-6" stroke="#7579E7"></line>
                        <line x1="0" y1="224" x2="576" y2="512" id="Line-Copy-7" stroke="#7579E7"></line>
                        <line x1="0" y1="256" x2="576" y2="544" id="Line-Copy-8" stroke="#7579E7"></line>
                    </g>
                    <g id="y" transform="translate(288.000000, 272.000000) scale(-1, 1) translate(-288.000000, -272.000000) ">
                        <line x1="0" y1="0" x2="576" y2="288" id="Line" stroke="#7579E7"></line>
                        <line x1="0" y1="32" x2="576" y2="320" id="Line-Copy" stroke="#7579E7"></line>
                        <line x1="0" y1="64" x2="576" y2="352" id="Line-Copy-2" stroke="#7579E7"></line>
                        <line x1="0" y1="96" x2="576" y2="384" id="Line-Copy-3" stroke="#7579E7"></line>
                        <line x1="0" y1="128" x2="576" y2="416" id="Line-Copy-4" stroke="#7579E7"></line>
                        <line x1="0" y1="160" x2="576" y2="448" id="Line-Copy-5" stroke="#7579E7"></line>
                        <line x1="0" y1="192" x2="576" y2="480" id="Line-Copy-6" stroke="#7579E7"></line>
                        <line x1="0" y1="224" x2="576" y2="512" id="Line-Copy-7" stroke="#7579E7"></line>
                        <line x1="0" y1="256" x2="576" y2="544" id="Line-Copy-8" stroke="#7579E7"></line>
                    </g>
                </g>
            </g>
        </g>
        <g id="Group" transform="translate(83.810618, 169.760874)">
            <path d="M172.689382,13.7391262 C188.319209,5.98673237 219.965023,6.18784416 235.189382,13.7391262 L363.189382,78.7391262 C378.261498,86.2148954 378.804887,101.675967 363.653326,109.504258 L363.189382,109.739126 L235.189382,173.739126 C219.728856,181.407547 188.970546,181.488267 173.187961,173.981287 L172.689382,173.739126 L45.2253184,109.504317 C30.217444,101.758192 30.2143851,86.718571 45.2297735,78.9716346 L45.6893823,78.7391262 L172.040119,14.070289 C172.253457,13.9584024 172.469878,13.8480005 172.689382,13.7391262 Z" id="Path" fill="#000000"></path>
            <path d="M40.1893823,74.2390638 L40.244133,74.2390638 C30.5540837,82.3320681 32.0875022,94.4938711 44.8355803,101.299728 L45.2253184,101.504317 L172.689382,165.739126 L173.187961,165.981287 C188.802646,173.408406 219.076119,173.408406 234.690804,165.981287 L235.189382,165.739126 L363.189382,101.739126 L363.653326,101.504258 C375.191897,95.5426742 377.628208,85.1544724 371.477328,77.2374697 L371.689382,77.2391262 L401.108716,105.339212 C402.265819,106.256771 403.283187,107.23331 404.159755,108.25447 L405.189382,109.239126 L404.949291,109.236459 C410.654711,116.82996 408.94981,126.527876 399.429976,132.867936 L238.189382,214.239126 L237.643245,213.96529 C237.174405,214.23081 236.689796,214.488919 236.189382,214.739126 C219.939382,222.864126 187.439382,222.864126 171.189382,214.739126 L11.7067558,133.492956 C-1.74686451,126.49304 -3.60637837,113.812047 6.13729328,105.243144 L5.68938232,105.239126 L40.1893823,74.2390638 Z" id="Path" fill="url(#linearGradient-3)"></path>
            <path d="M125.689382,70.2391262 L221.189382,118.239126 C236.779126,126.033998 237.189382,142.239126 221.189382,150.239126 C205.354658,158.156488 173.848777,158.238273 157.690296,150.484479 L157.189382,150.239126 L61.1893823,102.239126 L77.6893823,94.2391262 L173.582957,142.438669 C181.578659,146.363018 196.943481,146.296503 204.689382,142.239126 C212.313831,138.245368 212.367132,130.28577 205.399056,126.135648 L205.189382,126.239126 L109.189382,78.2391262 L125.689382,70.2391262 Z M220.689382,21.7391262 L252.584382,70.5941262 L348.689382,86.2391262 L333.189382,94.2391262 L260.087382,82.0871262 L283.689382,118.239126 L268.189382,126.239126 L236.096382,78.0991262 L140.689382,62.2391262 L155.189382,54.7391262 L228.476382,66.6691262 L204.189382,30.2391262 L220.689382,21.7391262 Z" id="Shape" fill="#393939"></path>
            <path d="M235.189382,5.73912621 L363.189382,70.7391262 C378.261498,78.2148954 378.804887,93.6759666 363.653326,101.504258 L363.189382,101.739126 L235.189382,165.739126 C219.728856,173.407547 188.970546,173.488267 173.187961,165.981287 L172.689382,165.739126 L45.2253184,101.504317 C30.217444,93.7581923 30.2143851,78.718571 45.2297735,70.9716346 L45.6893823,70.7391262 L172.040119,6.07028896 C172.253457,5.95840237 172.469878,5.84800049 172.689382,5.73912621 C188.319209,-2.01326763 219.965023,-1.81215584 235.189382,5.73912621 Z M125.689382,62.2391262 L109.189382,70.2391262 L205.189382,118.239126 L205.399056,118.135648 C212.367132,122.28577 212.313831,130.245368 204.689382,134.239126 C196.943481,138.296503 181.578659,138.363018 173.582957,134.438669 L173.582957,134.438669 L77.6893823,86.2391262 L61.1893823,94.2391262 L157.189382,142.239126 L157.690296,142.484479 C173.848777,150.238273 205.354658,150.156488 221.189382,142.239126 C237.189382,134.239126 236.779126,118.033998 221.189382,110.239126 L221.189382,110.239126 L125.689382,62.2391262 Z M220.689382,13.7391262 L204.189382,22.2391262 L228.476382,58.6691262 L155.189382,46.7391262 L140.689382,54.2391262 L236.096382,70.0991262 L268.189382,118.239126 L283.689382,110.239126 L260.087382,74.0871262 L333.189382,86.2391262 L348.689382,78.2391262 L252.584382,62.5941262 L220.689382,13.7391262 Z" id="Combined-Shape" fill="#424242"></path>
        </g>
    </g>
</svg>