<?xml version="1.0" encoding="UTF-8"?>
<svg width="576px" height="425px" viewBox="0 0 576 425" version="1.1" xmlns="http://www.w3.org/2000/svg" xmlns:xlink="http://www.w3.org/1999/xlink">
    <title>buttons-example</title>
    <g id="buttons-example" stroke="none" stroke-width="1" fill="none" fill-rule="evenodd">
        <rect id="Rectangle" fill="#EEEEEE" x="0" y="0" width="576" height="425" rx="8"></rect>
        <path d="M376.242188,178.222656 C378.445312,178.222656 380.150391,177.701172 381.357422,176.658203 C382.564453,175.615234 383.167969,174.304688 383.167969,172.726562 C383.167969,171.1875 382.652344,170.011719 381.621094,169.199219 C380.957031,168.675781 379.972656,168.257812 378.667969,167.945312 L378.667969,167.945312 L375.691406,167.230469 C374.542969,166.957031 373.792969,166.71875 373.441406,166.515625 C372.894531,166.210938 372.621094,165.75 372.621094,165.132812 C372.621094,164.460938 372.898438,163.9375 373.453125,163.5625 C374.007812,163.1875 374.75,163 375.679688,163 C376.515625,163 377.214844,163.144531 377.777344,163.433594 C378.621094,163.871094 379.074219,164.609375 379.136719,165.648438 L379.136719,165.648438 L382.605469,165.648438 C382.542969,163.8125 381.869141,162.412109 380.583984,161.447266 C379.298828,160.482422 377.746094,160 375.925781,160 C373.746094,160 372.09375,160.511719 370.96875,161.535156 C369.84375,162.558594 369.28125,163.84375 369.28125,165.390625 C369.28125,167.085938 369.863281,168.332031 371.027344,169.128906 C371.714844,169.605469 372.957031,170.046875 374.753906,170.453125 L374.753906,170.453125 L376.582031,170.863281 C377.652344,171.097656 378.4375,171.367188 378.9375,171.671875 C379.4375,171.984375 379.6875,172.425781 379.6875,172.996094 C379.6875,173.972656 379.183594,174.640625 378.175781,175 C377.644531,175.1875 376.953125,175.28125 376.101562,175.28125 C374.679688,175.28125 373.675781,174.925781 373.089844,174.214844 C372.769531,173.824219 372.554688,173.234375 372.445312,172.445312 L372.445312,172.445312 L369,172.445312 C369,174.242188 369.644531,175.654297 370.933594,176.681641 C372.222656,177.708984 373.992188,178.222656 376.242188,178.222656 Z M389.545898,177.959534 L389.835938,177.953125 L391.417969,177.894531 L391.417969,175.398438 C391.308594,175.40625 391.197266,175.412109 391.083984,175.416016 C390.970703,175.419922 390.863281,175.421875 390.761719,175.421875 C390.082031,175.421875 389.675781,175.357422 389.542969,175.228516 C389.410156,175.099609 389.34375,174.773438 389.34375,174.25 L389.34375,174.25 L389.34375,167.5 L391.417969,167.5 L391.417969,165.121094 L389.34375,165.121094 L389.34375,161.558594 L386.039062,161.558594 L386.039062,165.121094 L384.257812,165.121094 L384.257812,167.5 L386.039062,167.5 L386.039062,175.363281 C386.039062,176.160156 386.226562,176.75 386.601562,177.132812 C387.179688,177.734375 388.257812,178.007812 389.835938,177.953125 L389.545898,177.959534 Z M396.691406,178.175781 C397.597656,178.175781 398.410156,177.96875 399.128906,177.554688 C399.730469,177.203125 400.261719,176.777344 400.722656,176.277344 C400.746094,176.566406 400.777344,176.824219 400.816406,177.050781 C400.855469,177.277344 400.925781,177.519531 401.027344,177.777344 L401.027344,177.777344 L404.660156,177.777344 L404.660156,177.285156 C404.441406,177.183594 404.277344,177.054688 404.167969,176.898438 C404.058594,176.742188 403.992188,176.445312 403.96875,176.007812 C403.953125,175.429688 403.945312,174.9375 403.945312,174.53125 L403.945312,174.53125 L403.945312,168.671875 C403.945312,167.132812 403.402344,166.085938 402.316406,165.53125 C401.230469,164.976562 399.988281,164.699219 398.589844,164.699219 C396.441406,164.699219 394.925781,165.261719 394.042969,166.386719 C393.488281,167.105469 393.175781,168.023438 393.105469,169.140625 L393.105469,169.140625 L396.328125,169.140625 C396.40625,168.648438 396.5625,168.257812 396.796875,167.96875 C397.125,167.578125 397.683594,167.382812 398.472656,167.382812 C399.175781,167.382812 399.708984,167.482422 400.072266,167.681641 C400.435547,167.880859 400.617188,168.242188 400.617188,168.765625 C400.617188,169.195312 400.378906,169.511719 399.902344,169.714844 C399.636719,169.832031 399.195312,169.929688 398.578125,170.007812 L398.578125,170.007812 L397.441406,170.148438 C396.152344,170.3125 395.175781,170.585938 394.511719,170.96875 C393.300781,171.671875 392.695312,172.808594 392.695312,174.378906 C392.695312,175.589844 393.072266,176.525391 393.826172,177.185547 C394.580078,177.845703 395.535156,178.175781 396.691406,178.175781 Z M397.675781,175.75 C397.222656,175.75 396.837891,175.623047 396.521484,175.369141 C396.205078,175.115234 396.046875,174.703125 396.046875,174.132812 C396.046875,173.492188 396.304688,173.019531 396.820312,172.714844 C397.125,172.535156 397.628906,172.382812 398.332031,172.257812 L398.332031,172.257812 L399.082031,172.117188 C399.457031,172.046875 399.751953,171.970703 399.966797,171.888672 C400.181641,171.806641 400.394531,171.699219 400.605469,171.566406 L400.605469,171.566406 L400.605469,172.808594 C400.582031,173.925781 400.267578,174.695312 399.662109,175.117188 C399.056641,175.539062 398.394531,175.75 397.675781,175.75 Z M410.261719,177.777344 L410.261719,170.863281 C410.261719,170.074219 410.371094,169.425781 410.589844,168.917969 C411.011719,167.957031 411.789062,167.476562 412.921875,167.476562 C413.84375,167.476562 414.46875,167.804688 414.796875,168.460938 C414.976562,168.820312 415.066406,169.335938 415.066406,170.007812 L415.066406,170.007812 L415.066406,177.777344 L418.488281,177.777344 L418.488281,169.175781 C418.488281,167.574219 418.068359,166.427734 417.228516,165.736328 C416.388672,165.044922 415.308594,164.699219 413.988281,164.699219 C412.933594,164.699219 412.0625,164.957031 411.375,165.472656 C410.992188,165.761719 410.585938,166.234375 410.15625,166.890625 L410.15625,166.890625 L410.15625,165.027344 L406.933594,165.027344 L406.933594,177.777344 L410.261719,177.777344 Z M426.046875,178.175781 C426.953125,178.175781 427.710938,178.003906 428.320312,177.660156 C428.929688,177.316406 429.472656,176.765625 429.949219,176.007812 L429.949219,176.007812 L429.949219,177.777344 L433.195312,177.777344 L433.195312,160.527344 L429.808594,160.527344 L429.808594,166.621094 C429.433594,166.019531 428.945312,165.548828 428.34375,165.208984 C427.742188,164.869141 427.054688,164.699219 426.28125,164.699219 C424.601562,164.699219 423.259766,165.324219 422.255859,166.574219 C421.251953,167.824219 420.75,169.539062 420.75,171.71875 C420.75,173.609375 421.259766,175.158203 422.279297,176.365234 C423.298828,177.572266 424.554688,178.175781 426.046875,178.175781 Z M427.007812,175.363281 C426.0625,175.363281 425.357422,175.009766 424.892578,174.302734 C424.427734,173.595703 424.195312,172.652344 424.195312,171.472656 C424.195312,170.378906 424.423828,169.462891 424.880859,168.724609 C425.337891,167.986328 426.054688,167.617188 427.03125,167.617188 C427.671875,167.617188 428.234375,167.820312 428.71875,168.226562 C429.507812,168.898438 429.902344,170.015625 429.902344,171.578125 C429.902344,172.695312 429.65625,173.605469 429.164062,174.308594 C428.671875,175.011719 427.953125,175.363281 427.007812,175.363281 Z M443.167969,178.117188 C444.847656,178.117188 446.15625,177.464844 447.09375,176.160156 C448.03125,174.855469 448.5,173.210938 448.5,171.226562 C448.5,169.3125 448.025391,167.75 447.076172,166.539062 C446.126953,165.328125 444.8125,164.722656 443.132812,164.722656 C442.203125,164.722656 441.4375,164.917969 440.835938,165.308594 C440.328125,165.621094 439.863281,166.074219 439.441406,166.667969 L439.441406,166.667969 L439.441406,160.527344 L436.113281,160.527344 L436.113281,177.777344 L439.382812,177.777344 L439.382812,176.171875 C439.828125,176.796875 440.242188,177.234375 440.625,177.484375 C441.265625,177.90625 442.113281,178.117188 443.167969,178.117188 Z M442.277344,175.363281 C441.285156,175.363281 440.546875,175.003906 440.0625,174.285156 C439.578125,173.566406 439.335938,172.660156 439.335938,171.566406 C439.335938,170.636719 439.453125,169.878906 439.6875,169.292969 C440.140625,168.191406 440.972656,167.640625 442.183594,167.640625 C443.378906,167.640625 444.199219,168.203125 444.644531,169.328125 C444.878906,169.921875 444.996094,170.671875 444.996094,171.578125 C444.996094,172.710938 444.757812,173.625 444.28125,174.320312 C443.804688,175.015625 443.136719,175.363281 442.277344,175.363281 Z M452.929688,182.945312 C454.40625,182.945312 455.390625,182.654297 455.882812,182.072266 C456.375,181.490234 457.042969,179.988281 457.886719,177.566406 L457.886719,177.566406 L462.269531,165.003906 L458.71875,165.003906 L456.082031,174.425781 L453.292969,165.003906 L449.578125,165.003906 L454.265625,178.339844 C454.296875,178.433594 454.228516,178.691406 454.060547,179.113281 C453.892578,179.535156 453.710938,179.8125 453.515625,179.945312 C453.3125,180.085938 453.0625,180.175781 452.765625,180.214844 C452.46875,180.253906 452.15625,180.265625 451.828125,180.25 L451.828125,180.25 L451.40625,180.226562 L451.40625,182.898438 C451.765625,182.921875 452.035156,182.935547 452.214844,182.939453 C452.322656,182.941797 452.451562,182.943438 452.601562,182.944375 L452.929688,182.945312 Z" id="Standby" fill="#9E9E9E" fill-rule="nonzero"></path>
        <g id="Group-Copy-2" transform="translate(64.000000, 64.000000)">
            <rect id="Rectangle" fill="#BDBDBD" x="0" y="0" width="192" height="64" rx="8"></rect>
            <path d="M45.4375,43 L45.4375,32.984375 C45.4375,31.6822917 45.671875,30.6640625 46.140625,29.9296875 C46.609375,29.1953125 47.2604167,28.828125 48.09375,28.828125 C48.90625,28.828125 49.4921875,29.0989583 49.8515625,29.640625 C50.2109375,30.1822917 50.390625,31.0833333 50.390625,32.34375 L50.390625,32.34375 L50.390625,43 L54.9375,43 L54.9375,31.640625 C54.9375,29.4635417 54.515625,27.8255208 53.671875,26.7265625 C52.828125,25.6276042 51.578125,25.078125 49.921875,25.078125 C48.8177083,25.078125 47.875,25.34375 47.09375,25.875 C46.3125,26.40625 45.7604167,27.15625 45.4375,28.125 L45.4375,28.125 L45.4375,18.6875 L40.890625,18.6875 L40.890625,43 L45.4375,43 Z M67.9375,43.453125 C69.1666667,43.453125 70.3333333,43.34375 71.4375,43.125 C72.5416667,42.90625 73.625,42.578125 74.6875,42.140625 L74.6875,42.140625 L74.6875,37.9375 C73.5729167,38.59375 72.5052083,39.0729167 71.484375,39.375 C70.4635417,39.6770833 69.4270833,39.828125 68.375,39.828125 C66.78125,39.828125 65.5833333,39.4895833 64.78125,38.8125 C63.9791667,38.1354167 63.5729167,37.109375 63.5625,35.734375 L63.5625,35.734375 L75.421875,35.734375 L75.421875,33.875 C75.421875,31.0833333 74.7057292,28.9192708 73.2734375,27.3828125 C71.8411458,25.8463542 69.828125,25.078125 67.234375,25.078125 C64.6614583,25.078125 62.6302083,25.90625 61.140625,27.5625 C59.6510417,29.21875 58.90625,31.4739583 58.90625,34.328125 C58.90625,37.2760417 59.6796875,39.5338542 61.2265625,41.1015625 C62.7734375,42.6692708 65.0104167,43.453125 67.9375,43.453125 Z M63.609375,32.3125 C63.7239583,31.1354167 64.09375,30.2265625 64.71875,29.5859375 C65.34375,28.9453125 66.1822917,28.625 67.234375,28.625 C68.4010417,28.625 69.2838542,28.9348958 69.8828125,29.5546875 C70.4817708,30.1744792 70.7916667,31.0885417 70.8125,32.296875 L70.8125,32.296875 L63.609375,32.3125 Z M93.828125,43 L93.828125,39.484375 L90.171875,39.484375 C89.1510417,39.484375 88.4270833,39.1979167 88,38.625 C87.5729167,38.0520833 87.359375,37.078125 87.359375,35.703125 L87.359375,35.703125 L87.359375,18.6875 L78.140625,18.6875 L78.140625,22.203125 L82.78125,22.203125 L82.78125,35.703125 C82.78125,38.3177083 83.2552083,40.1875 84.203125,41.3125 C85.1510417,42.4375 86.7135417,43 88.890625,43 L88.890625,43 L93.828125,43 Z M113.09375,43 L113.09375,39.484375 L109.4375,39.484375 C108.416667,39.484375 107.692708,39.1979167 107.265625,38.625 C106.838542,38.0520833 106.625,37.078125 106.625,35.703125 L106.625,35.703125 L106.625,18.6875 L97.40625,18.6875 L97.40625,22.203125 L102.046875,22.203125 L102.046875,35.703125 C102.046875,38.3177083 102.520833,40.1875 103.46875,41.3125 C104.416667,42.4375 105.979167,43 108.15625,43 L108.15625,43 L113.09375,43 Z M124.890625,43.453125 C127.369792,43.453125 129.341146,42.6276042 130.804688,40.9765625 C132.268229,39.3255208 133,37.0885417 133,34.265625 C133,31.4427083 132.268229,29.2057292 130.804688,27.5546875 C129.341146,25.9036458 127.369792,25.078125 124.890625,25.078125 C122.421875,25.078125 120.455729,25.9036458 118.992188,27.5546875 C117.528646,29.2057292 116.796875,31.4427083 116.796875,34.265625 C116.796875,37.0885417 117.528646,39.3255208 118.992188,40.9765625 C120.455729,42.6276042 122.421875,43.453125 124.890625,43.453125 Z M124.890625,39.734375 C123.796875,39.734375 122.9375,39.2526042 122.3125,38.2890625 C121.6875,37.3255208 121.375,35.984375 121.375,34.265625 C121.375,32.546875 121.6875,31.2057292 122.3125,30.2421875 C122.9375,29.2786458 123.796875,28.796875 124.890625,28.796875 C125.994792,28.796875 126.859375,29.2786458 127.484375,30.2421875 C128.109375,31.2057292 128.421875,32.546875 128.421875,34.265625 C128.421875,35.984375 128.109375,37.3255208 127.484375,38.2890625 C126.859375,39.2526042 125.994792,39.734375 124.890625,39.734375 Z M142.046875,43 L144.15625,33.90625 L146.28125,43 L150.625,43 L153.796875,25.5 L149.984375,25.5 L147.875,38.90625 L146.015625,30.078125 L142.3125,30.078125 L140.421875,38.90625 L138.34375,25.5 L134.53125,25.5 L137.703125,43 L142.046875,43 Z" id="hellow" fill="#FFFFFF" fill-rule="nonzero"></path>
        </g>
        <g id="Group-Copy-3" transform="translate(320.000000, 64.000000)">
            <rect id="Rectangle" fill="#1089FF" x="0" y="0" width="192" height="64" rx="8"></rect>
            <path d="M45.4375,43 L45.4375,32.984375 C45.4375,31.6822917 45.671875,30.6640625 46.140625,29.9296875 C46.609375,29.1953125 47.2604167,28.828125 48.09375,28.828125 C48.90625,28.828125 49.4921875,29.0989583 49.8515625,29.640625 C50.2109375,30.1822917 50.390625,31.0833333 50.390625,32.34375 L50.390625,32.34375 L50.390625,43 L54.9375,43 L54.9375,31.640625 C54.9375,29.4635417 54.515625,27.8255208 53.671875,26.7265625 C52.828125,25.6276042 51.578125,25.078125 49.921875,25.078125 C48.8177083,25.078125 47.875,25.34375 47.09375,25.875 C46.3125,26.40625 45.7604167,27.15625 45.4375,28.125 L45.4375,28.125 L45.4375,18.6875 L40.890625,18.6875 L40.890625,43 L45.4375,43 Z M67.9375,43.453125 C69.1666667,43.453125 70.3333333,43.34375 71.4375,43.125 C72.5416667,42.90625 73.625,42.578125 74.6875,42.140625 L74.6875,42.140625 L74.6875,37.9375 C73.5729167,38.59375 72.5052083,39.0729167 71.484375,39.375 C70.4635417,39.6770833 69.4270833,39.828125 68.375,39.828125 C66.78125,39.828125 65.5833333,39.4895833 64.78125,38.8125 C63.9791667,38.1354167 63.5729167,37.109375 63.5625,35.734375 L63.5625,35.734375 L75.421875,35.734375 L75.421875,33.875 C75.421875,31.0833333 74.7057292,28.9192708 73.2734375,27.3828125 C71.8411458,25.8463542 69.828125,25.078125 67.234375,25.078125 C64.6614583,25.078125 62.6302083,25.90625 61.140625,27.5625 C59.6510417,29.21875 58.90625,31.4739583 58.90625,34.328125 C58.90625,37.2760417 59.6796875,39.5338542 61.2265625,41.1015625 C62.7734375,42.6692708 65.0104167,43.453125 67.9375,43.453125 Z M63.609375,32.3125 C63.7239583,31.1354167 64.09375,30.2265625 64.71875,29.5859375 C65.34375,28.9453125 66.1822917,28.625 67.234375,28.625 C68.4010417,28.625 69.2838542,28.9348958 69.8828125,29.5546875 C70.4817708,30.1744792 70.7916667,31.0885417 70.8125,32.296875 L70.8125,32.296875 L63.609375,32.3125 Z M93.828125,43 L93.828125,39.484375 L90.171875,39.484375 C89.1510417,39.484375 88.4270833,39.1979167 88,38.625 C87.5729167,38.0520833 87.359375,37.078125 87.359375,35.703125 L87.359375,35.703125 L87.359375,18.6875 L78.140625,18.6875 L78.140625,22.203125 L82.78125,22.203125 L82.78125,35.703125 C82.78125,38.3177083 83.2552083,40.1875 84.203125,41.3125 C85.1510417,42.4375 86.7135417,43 88.890625,43 L88.890625,43 L93.828125,43 Z M113.09375,43 L113.09375,39.484375 L109.4375,39.484375 C108.416667,39.484375 107.692708,39.1979167 107.265625,38.625 C106.838542,38.0520833 106.625,37.078125 106.625,35.703125 L106.625,35.703125 L106.625,18.6875 L97.40625,18.6875 L97.40625,22.203125 L102.046875,22.203125 L102.046875,35.703125 C102.046875,38.3177083 102.520833,40.1875 103.46875,41.3125 C104.416667,42.4375 105.979167,43 108.15625,43 L108.15625,43 L113.09375,43 Z M124.890625,43.453125 C127.369792,43.453125 129.341146,42.6276042 130.804688,40.9765625 C132.268229,39.3255208 133,37.0885417 133,34.265625 C133,31.4427083 132.268229,29.2057292 130.804688,27.5546875 C129.341146,25.9036458 127.369792,25.078125 124.890625,25.078125 C122.421875,25.078125 120.455729,25.9036458 118.992188,27.5546875 C117.528646,29.2057292 116.796875,31.4427083 116.796875,34.265625 C116.796875,37.0885417 117.528646,39.3255208 118.992188,40.9765625 C120.455729,42.6276042 122.421875,43.453125 124.890625,43.453125 Z M124.890625,39.734375 C123.796875,39.734375 122.9375,39.2526042 122.3125,38.2890625 C121.6875,37.3255208 121.375,35.984375 121.375,34.265625 C121.375,32.546875 121.6875,31.2057292 122.3125,30.2421875 C122.9375,29.2786458 123.796875,28.796875 124.890625,28.796875 C125.994792,28.796875 126.859375,29.2786458 127.484375,30.2421875 C128.109375,31.2057292 128.421875,32.546875 128.421875,34.265625 C128.421875,35.984375 128.109375,37.3255208 127.484375,38.2890625 C126.859375,39.2526042 125.994792,39.734375 124.890625,39.734375 Z M142.046875,43 L144.15625,33.90625 L146.28125,43 L150.625,43 L153.796875,25.5 L149.984375,25.5 L147.875,38.90625 L146.015625,30.078125 L142.3125,30.078125 L140.421875,38.90625 L138.34375,25.5 L134.53125,25.5 L137.703125,43 L142.046875,43 Z" id="hellow" fill="#FFFFFF" fill-rule="nonzero"></path>
        </g>
        <g id="Group-Copy-4" transform="translate(52.000000, 238.000000)">
            <rect id="Rectangle" fill="#1089FF" x="0" y="0" width="216" height="72" rx="9"></rect>
            <path d="M51.1171875,48.375 L51.1171875,37.1074219 C51.1171875,35.6425781 51.3808594,34.4970703 51.9082031,33.6708984 C52.4355469,32.8447266 53.1679688,32.4316406 54.1054688,32.4316406 C55.0195312,32.4316406 55.6787109,32.7363281 56.0830078,33.3457031 C56.4873047,33.9550781 56.6894531,34.96875 56.6894531,36.3867188 L56.6894531,36.3867188 L56.6894531,48.375 L61.8046875,48.375 L61.8046875,35.5957031 C61.8046875,33.1464844 61.3300781,31.3037109 60.3808594,30.0673828 C59.4316406,28.8310547 58.0253906,28.2128906 56.1621094,28.2128906 C54.9199219,28.2128906 53.859375,28.5117188 52.9804688,29.109375 C52.1015625,29.7070312 51.4804688,30.5507812 51.1171875,31.640625 L51.1171875,31.640625 L51.1171875,21.0234375 L46.0019531,21.0234375 L46.0019531,48.375 L51.1171875,48.375 Z M76.4296875,48.8847656 C77.8125,48.8847656 79.125,48.7617188 80.3671875,48.515625 C81.609375,48.2695312 82.828125,47.9003906 84.0234375,47.4082031 L84.0234375,47.4082031 L84.0234375,42.6796875 C82.7695312,43.4179688 81.5683594,43.9570312 80.4199219,44.296875 C79.2714844,44.6367188 78.1054688,44.8066406 76.921875,44.8066406 C75.1289062,44.8066406 73.78125,44.4257812 72.8789062,43.6640625 C71.9765625,42.9023438 71.5195312,41.7480469 71.5078125,40.2011719 L71.5078125,40.2011719 L84.8496094,40.2011719 L84.8496094,38.109375 C84.8496094,34.96875 84.0439453,32.5341797 82.4326172,30.8056641 C80.8212891,29.0771484 78.5566406,28.2128906 75.6386719,28.2128906 C72.7441406,28.2128906 70.4589844,29.1445312 68.7832031,31.0078125 C67.1074219,32.8710938 66.2695312,35.4082031 66.2695312,38.6191406 C66.2695312,41.9355469 67.1396484,44.4755859 68.8798828,46.2392578 C70.6201172,48.0029297 73.1367188,48.8847656 76.4296875,48.8847656 Z M71.5605469,36.3515625 C71.6894531,35.0273438 72.1054688,34.0048828 72.8085938,33.2841797 C73.5117188,32.5634766 74.4550781,32.203125 75.6386719,32.203125 C76.9511719,32.203125 77.9443359,32.5517578 78.6181641,33.2490234 C79.2919922,33.9462891 79.640625,34.9746094 79.6640625,36.3339844 L79.6640625,36.3339844 L71.5605469,36.3515625 Z M105.556641,48.375 L105.556641,44.4199219 L101.443359,44.4199219 C100.294922,44.4199219 99.4804688,44.0976562 99,43.453125 C98.5195312,42.8085938 98.2792969,41.7128906 98.2792969,40.1660156 L98.2792969,40.1660156 L98.2792969,21.0234375 L87.9082031,21.0234375 L87.9082031,24.9785156 L93.1289062,24.9785156 L93.1289062,40.1660156 C93.1289062,43.1074219 93.6621094,45.2109375 94.7285156,46.4765625 C95.7949219,47.7421875 97.5527344,48.375 100.001953,48.375 L100.001953,48.375 L105.556641,48.375 Z M127.230469,48.375 L127.230469,44.4199219 L123.117188,44.4199219 C121.96875,44.4199219 121.154297,44.0976562 120.673828,43.453125 C120.193359,42.8085938 119.953125,41.7128906 119.953125,40.1660156 L119.953125,40.1660156 L119.953125,21.0234375 L109.582031,21.0234375 L109.582031,24.9785156 L114.802734,24.9785156 L114.802734,40.1660156 C114.802734,43.1074219 115.335938,45.2109375 116.402344,46.4765625 C117.46875,47.7421875 119.226562,48.375 121.675781,48.375 L121.675781,48.375 L127.230469,48.375 Z M140.501953,48.8847656 C143.291016,48.8847656 145.508789,47.9560547 147.155273,46.0986328 C148.801758,44.2412109 149.625,41.7246094 149.625,38.5488281 C149.625,35.3730469 148.801758,32.8564453 147.155273,30.9990234 C145.508789,29.1416016 143.291016,28.2128906 140.501953,28.2128906 C137.724609,28.2128906 135.512695,29.1416016 133.866211,30.9990234 C132.219727,32.8564453 131.396484,35.3730469 131.396484,38.5488281 C131.396484,41.7246094 132.219727,44.2412109 133.866211,46.0986328 C135.512695,47.9560547 137.724609,48.8847656 140.501953,48.8847656 Z M140.501953,44.7011719 C139.271484,44.7011719 138.304688,44.1591797 137.601562,43.0751953 C136.898438,41.9912109 136.546875,40.4824219 136.546875,38.5488281 C136.546875,36.6152344 136.898438,35.1064453 137.601562,34.0224609 C138.304688,32.9384766 139.271484,32.3964844 140.501953,32.3964844 C141.744141,32.3964844 142.716797,32.9384766 143.419922,34.0224609 C144.123047,35.1064453 144.474609,36.6152344 144.474609,38.5488281 C144.474609,40.4824219 144.123047,41.9912109 143.419922,43.0751953 C142.716797,44.1591797 141.744141,44.7011719 140.501953,44.7011719 Z M159.802734,48.375 L162.175781,38.1445312 L164.566406,48.375 L169.453125,48.375 L173.021484,28.6875 L168.732422,28.6875 L166.359375,43.7695312 L164.267578,33.8378906 L160.101562,33.8378906 L157.974609,43.7695312 L155.636719,28.6875 L151.347656,28.6875 L154.916016,48.375 L159.802734,48.375 Z" id="hellow" fill="#FFFFFF" fill-rule="nonzero"></path>
        </g>
        <g id="Group-Copy-5" transform="translate(296.000000, 234.000000)">
            <rect id="Rectangle" fill="#1089FF" x="0" y="0" width="240" height="80" rx="10"></rect>
            <path d="M56.796875,53.75 L56.796875,41.2304688 C56.796875,39.6028646 57.0898438,38.3300781 57.6757812,37.4121094 C58.2617188,36.4941406 59.0755208,36.0351562 60.1171875,36.0351562 C61.1328125,36.0351562 61.8652344,36.3736979 62.3144531,37.0507812 C62.7636719,37.7278646 62.9882812,38.8541667 62.9882812,40.4296875 L62.9882812,40.4296875 L62.9882812,53.75 L68.671875,53.75 L68.671875,39.5507812 C68.671875,36.8294271 68.1445312,34.781901 67.0898438,33.4082031 C66.0351562,32.0345052 64.4726562,31.3476562 62.4023438,31.3476562 C61.0221354,31.3476562 59.84375,31.6796875 58.8671875,32.34375 C57.890625,33.0078125 57.2005208,33.9453125 56.796875,35.15625 L56.796875,35.15625 L56.796875,23.359375 L51.1132812,23.359375 L51.1132812,53.75 L56.796875,53.75 Z M84.921875,54.3164062 C86.4583333,54.3164062 87.9166667,54.1796875 89.296875,53.90625 C90.6770833,53.6328125 92.03125,53.2226562 93.359375,52.6757812 L93.359375,52.6757812 L93.359375,47.421875 C91.9661458,48.2421875 90.6315104,48.8411458 89.3554688,49.21875 C88.0794271,49.5963542 86.7838542,49.7851562 85.46875,49.7851562 C83.4765625,49.7851562 81.9791667,49.3619792 80.9765625,48.515625 C79.9739583,47.6692708 79.4661458,46.3867188 79.453125,44.6679688 L79.453125,44.6679688 L94.2773438,44.6679688 L94.2773438,42.34375 C94.2773438,38.8541667 93.3821615,36.1490885 91.5917969,34.2285156 C89.8014323,32.3079427 87.2851562,31.3476562 84.0429688,31.3476562 C80.8268229,31.3476562 78.2877604,32.3828125 76.4257812,34.453125 C74.5638021,36.5234375 73.6328125,39.3424479 73.6328125,42.9101562 C73.6328125,46.5950521 74.5996094,49.4173177 76.5332031,51.3769531 C78.4667969,53.3365885 81.2630208,54.3164062 84.921875,54.3164062 Z M79.5117188,40.390625 C79.6549479,38.9192708 80.1171875,37.7832031 80.8984375,36.9824219 C81.6796875,36.1816406 82.7278646,35.78125 84.0429688,35.78125 C85.5013021,35.78125 86.6048177,36.1686198 87.3535156,36.9433594 C88.1022135,37.718099 88.4895833,38.8606771 88.515625,40.3710938 L88.515625,40.3710938 L79.5117188,40.390625 Z M117.285156,53.75 L117.285156,49.3554688 L112.714844,49.3554688 C111.438802,49.3554688 110.533854,48.9973958 110,48.28125 C109.466146,47.5651042 109.199219,46.3476562 109.199219,44.6289062 L109.199219,44.6289062 L109.199219,23.359375 L97.6757812,23.359375 L97.6757812,27.7539062 L103.476562,27.7539062 L103.476562,44.6289062 C103.476562,47.8971354 104.06901,50.234375 105.253906,51.640625 C106.438802,53.046875 108.391927,53.75 111.113281,53.75 L111.113281,53.75 L117.285156,53.75 Z M141.367188,53.75 L141.367188,49.3554688 L136.796875,49.3554688 C135.520833,49.3554688 134.615885,48.9973958 134.082031,48.28125 C133.548177,47.5651042 133.28125,46.3476562 133.28125,44.6289062 L133.28125,44.6289062 L133.28125,23.359375 L121.757812,23.359375 L121.757812,27.7539062 L127.558594,27.7539062 L127.558594,44.6289062 C127.558594,47.8971354 128.151042,50.234375 129.335938,51.640625 C130.520833,53.046875 132.473958,53.75 135.195312,53.75 L135.195312,53.75 L141.367188,53.75 Z M156.113281,54.3164062 C159.21224,54.3164062 161.676432,53.2845052 163.505859,51.2207031 C165.335286,49.156901 166.25,46.3606771 166.25,42.8320312 C166.25,39.3033854 165.335286,36.5071615 163.505859,34.4433594 C161.676432,32.3795573 159.21224,31.3476562 156.113281,31.3476562 C153.027344,31.3476562 150.569661,32.3795573 148.740234,34.4433594 C146.910807,36.5071615 145.996094,39.3033854 145.996094,42.8320312 C145.996094,46.3606771 146.910807,49.156901 148.740234,51.2207031 C150.569661,53.2845052 153.027344,54.3164062 156.113281,54.3164062 Z M156.113281,49.6679688 C154.746094,49.6679688 153.671875,49.0657552 152.890625,47.8613281 C152.109375,46.656901 151.71875,44.9804688 151.71875,42.8320312 C151.71875,40.6835938 152.109375,39.0071615 152.890625,37.8027344 C153.671875,36.5983073 154.746094,35.9960938 156.113281,35.9960938 C157.49349,35.9960938 158.574219,36.5983073 159.355469,37.8027344 C160.136719,39.0071615 160.527344,40.6835938 160.527344,42.8320312 C160.527344,44.9804688 160.136719,46.656901 159.355469,47.8613281 C158.574219,49.0657552 157.49349,49.6679688 156.113281,49.6679688 Z M177.558594,53.75 L180.195312,42.3828125 L182.851562,53.75 L188.28125,53.75 L192.246094,31.875 L187.480469,31.875 L184.84375,48.6328125 L182.519531,37.5976562 L177.890625,37.5976562 L175.527344,48.6328125 L172.929688,31.875 L168.164062,31.875 L172.128906,53.75 L177.558594,53.75 Z" id="hellow" fill="#FFFFFF" fill-rule="nonzero"></path>
        </g>
        <path d="M119.441406,177.378906 C122.050781,177.378906 123.980469,176.304688 125.230469,174.15625 C126.152344,172.5625 126.613281,170.617188 126.613281,168.320312 C126.613281,167.414062 126.503906,166.460938 126.285156,165.460938 C126.066406,164.460938 125.65625,163.53125 125.054688,162.671875 C124.304688,161.609375 123.324219,160.878906 122.113281,160.480469 C121.402344,160.246094 120.511719,160.121094 119.441406,160.105469 L119.441406,160.105469 L112,160.105469 L112,177.378906 L119.441406,177.378906 Z M118.832031,174.378906 L115.503906,174.378906 L115.503906,163.105469 L118.832031,163.105469 C120.472656,163.105469 121.568359,163.576172 122.119141,164.517578 C122.669922,165.458984 122.945312,166.808594 122.945312,168.566406 C122.945312,169.839844 122.761719,170.9375 122.394531,171.859375 C121.722656,173.539062 120.535156,174.378906 118.832031,174.378906 L118.832031,174.378906 Z M132.496094,163.082031 L132.496094,160 L129.109375,160 L129.109375,163.082031 L132.496094,163.082031 Z M132.496094,177.378906 L132.496094,164.605469 L129.109375,164.605469 L129.109375,177.378906 L132.496094,177.378906 Z M140.828125,177.8125 C142.796875,177.8125 144.251953,177.412109 145.193359,176.611328 C146.134766,175.810547 146.605469,174.777344 146.605469,173.511719 C146.605469,172.550781 146.277344,171.75 145.621094,171.109375 C144.957031,170.476562 143.960938,170.003906 142.632812,169.691406 C140.640625,169.253906 139.480469,168.945312 139.152344,168.765625 C138.824219,168.59375 138.660156,168.316406 138.660156,167.933594 C138.660156,167.628906 138.814453,167.363281 139.123047,167.136719 C139.431641,166.910156 139.949219,166.796875 140.675781,166.796875 C141.558594,166.796875 142.183594,167.023438 142.550781,167.476562 C142.746094,167.726562 142.867188,168.066406 142.914062,168.496094 L142.914062,168.496094 L146.253906,168.496094 C146.105469,166.933594 145.529297,165.833984 144.525391,165.197266 C143.521484,164.560547 142.222656,164.242188 140.628906,164.242188 C138.949219,164.242188 137.646484,164.666016 136.720703,165.513672 C135.794922,166.361328 135.332031,167.375 135.332031,168.554688 C135.332031,169.554688 135.628906,170.320312 136.222656,170.851562 C136.816406,171.390625 137.835938,171.839844 139.28125,172.199219 C141.289062,172.675781 142.449219,173.011719 142.761719,173.207031 C143.074219,173.402344 143.230469,173.6875 143.230469,174.0625 C143.230469,174.453125 143.037109,174.746094 142.650391,174.941406 C142.263672,175.136719 141.742188,175.234375 141.085938,175.234375 C139.96875,175.234375 139.203125,175.011719 138.789062,174.566406 C138.554688,174.316406 138.402344,173.894531 138.332031,173.300781 L138.332031,173.300781 L134.945312,173.300781 C134.945312,174.613281 135.423828,175.693359 136.380859,176.541016 C137.337891,177.388672 138.820312,177.8125 140.828125,177.8125 Z M152.207031,177.777344 C153.113281,177.777344 153.925781,177.570312 154.644531,177.15625 C155.246094,176.804688 155.777344,176.378906 156.238281,175.878906 C156.261719,176.167969 156.292969,176.425781 156.332031,176.652344 C156.371094,176.878906 156.441406,177.121094 156.542969,177.378906 L156.542969,177.378906 L160.175781,177.378906 L160.175781,176.886719 C159.957031,176.785156 159.792969,176.65625 159.683594,176.5 C159.574219,176.34375 159.507812,176.046875 159.484375,175.609375 C159.46875,175.03125 159.460938,174.539062 159.460938,174.132812 L159.460938,174.132812 L159.460938,168.273438 C159.460938,166.734375 158.917969,165.6875 157.832031,165.132812 C156.746094,164.578125 155.503906,164.300781 154.105469,164.300781 C151.957031,164.300781 150.441406,164.863281 149.558594,165.988281 C149.003906,166.707031 148.691406,167.625 148.621094,168.742188 L148.621094,168.742188 L151.84375,168.742188 C151.921875,168.25 152.078125,167.859375 152.3125,167.570312 C152.640625,167.179688 153.199219,166.984375 153.988281,166.984375 C154.691406,166.984375 155.224609,167.083984 155.587891,167.283203 C155.951172,167.482422 156.132812,167.84375 156.132812,168.367188 C156.132812,168.796875 155.894531,169.113281 155.417969,169.316406 C155.152344,169.433594 154.710938,169.53125 154.09375,169.609375 L154.09375,169.609375 L152.957031,169.75 C151.667969,169.914062 150.691406,170.1875 150.027344,170.570312 C148.816406,171.273438 148.210938,172.410156 148.210938,173.980469 C148.210938,175.191406 148.587891,176.126953 149.341797,176.787109 C150.095703,177.447266 151.050781,177.777344 152.207031,177.777344 Z M153.191406,175.351562 C152.738281,175.351562 152.353516,175.224609 152.037109,174.970703 C151.720703,174.716797 151.5625,174.304688 151.5625,173.734375 C151.5625,173.09375 151.820312,172.621094 152.335938,172.316406 C152.640625,172.136719 153.144531,171.984375 153.847656,171.859375 L153.847656,171.859375 L154.597656,171.71875 C154.972656,171.648438 155.267578,171.572266 155.482422,171.490234 C155.697266,171.408203 155.910156,171.300781 156.121094,171.167969 L156.121094,171.167969 L156.121094,172.410156 C156.097656,173.527344 155.783203,174.296875 155.177734,174.71875 C154.572266,175.140625 153.910156,175.351562 153.191406,175.351562 Z M169.363281,177.71875 C171.042969,177.71875 172.351562,177.066406 173.289062,175.761719 C174.226562,174.457031 174.695312,172.8125 174.695312,170.828125 C174.695312,168.914062 174.220703,167.351562 173.271484,166.140625 C172.322266,164.929688 171.007812,164.324219 169.328125,164.324219 C168.398438,164.324219 167.632812,164.519531 167.03125,164.910156 C166.523438,165.222656 166.058594,165.675781 165.636719,166.269531 L165.636719,166.269531 L165.636719,160.128906 L162.308594,160.128906 L162.308594,177.378906 L165.578125,177.378906 L165.578125,175.773438 C166.023438,176.398438 166.4375,176.835938 166.820312,177.085938 C167.460938,177.507812 168.308594,177.71875 169.363281,177.71875 Z M168.472656,174.964844 C167.480469,174.964844 166.742188,174.605469 166.257812,173.886719 C165.773438,173.167969 165.53125,172.261719 165.53125,171.167969 C165.53125,170.238281 165.648438,169.480469 165.882812,168.894531 C166.335938,167.792969 167.167969,167.242188 168.378906,167.242188 C169.574219,167.242188 170.394531,167.804688 170.839844,168.929688 C171.074219,169.523438 171.191406,170.273438 171.191406,171.179688 C171.191406,172.3125 170.953125,173.226562 170.476562,173.921875 C170,174.617188 169.332031,174.964844 168.472656,174.964844 Z M180.496094,177.378906 L180.496094,160.105469 L177.15625,160.105469 L177.15625,177.378906 L180.496094,177.378906 Z M188.910156,177.800781 C190.878906,177.800781 192.410156,177.179688 193.503906,175.9375 C194.207031,175.15625 194.601562,174.386719 194.6875,173.628906 L194.6875,173.628906 L191.277344,173.628906 C191.097656,174.003906 190.890625,174.296875 190.65625,174.507812 C190.226562,174.898438 189.667969,175.09375 188.980469,175.09375 C188.332031,175.09375 187.777344,174.933594 187.316406,174.613281 C186.558594,174.097656 186.15625,173.199219 186.109375,171.917969 L186.109375,171.917969 L194.851562,171.917969 C194.867188,170.816406 194.832031,169.972656 194.746094,169.386719 C194.597656,168.386719 194.273438,167.507812 193.773438,166.75 C193.21875,165.890625 192.515625,165.261719 191.664062,164.863281 C190.8125,164.464844 189.855469,164.265625 188.792969,164.265625 C187.003906,164.265625 185.548828,164.855469 184.427734,166.035156 C183.306641,167.214844 182.746094,168.910156 182.746094,171.121094 C182.746094,173.480469 183.367188,175.183594 184.609375,176.230469 C185.851562,177.277344 187.285156,177.800781 188.910156,177.800781 Z M191.382812,169.714844 L186.191406,169.714844 C186.300781,168.886719 186.568359,168.230469 186.994141,167.746094 C187.419922,167.261719 188.019531,167.019531 188.792969,167.019531 C189.503906,167.019531 190.099609,167.248047 190.580078,167.705078 C191.060547,168.162109 191.328125,168.832031 191.382812,169.714844 L191.382812,169.714844 Z M201.578125,177.777344 C202.484375,177.777344 203.242188,177.605469 203.851562,177.261719 C204.460938,176.917969 205.003906,176.367188 205.480469,175.609375 L205.480469,175.609375 L205.480469,177.378906 L208.726562,177.378906 L208.726562,160.128906 L205.339844,160.128906 L205.339844,166.222656 C204.964844,165.621094 204.476562,165.150391 203.875,164.810547 C203.273438,164.470703 202.585938,164.300781 201.8125,164.300781 C200.132812,164.300781 198.791016,164.925781 197.787109,166.175781 C196.783203,167.425781 196.28125,169.140625 196.28125,171.320312 C196.28125,173.210938 196.791016,174.759766 197.810547,175.966797 C198.830078,177.173828 200.085938,177.777344 201.578125,177.777344 Z M202.539062,174.964844 C201.59375,174.964844 200.888672,174.611328 200.423828,173.904297 C199.958984,173.197266 199.726562,172.253906 199.726562,171.074219 C199.726562,169.980469 199.955078,169.064453 200.412109,168.326172 C200.869141,167.587891 201.585938,167.21875 202.5625,167.21875 C203.203125,167.21875 203.765625,167.421875 204.25,167.828125 C205.039062,168.5 205.433594,169.617188 205.433594,171.179688 C205.433594,172.296875 205.1875,173.207031 204.695312,173.910156 C204.203125,174.613281 203.484375,174.964844 202.539062,174.964844 Z" id="Disabled" fill="#9E9E9E" fill-rule="nonzero"></path>
        <path d="M104.585937,355.378906 L104.585937,338.105469 L101,338.105469 L101,355.378906 L104.585937,355.378906 Z M111.03125,355.378906 L111.03125,348.464844 C111.03125,347.675781 111.140625,347.027344 111.359375,346.519531 C111.78125,345.558594 112.558594,345.078125 113.691406,345.078125 C114.613281,345.078125 115.238281,345.40625 115.566406,346.0625 C115.746094,346.421875 115.835937,346.9375 115.835937,347.609375 L115.835937,347.609375 L115.835937,355.378906 L119.257812,355.378906 L119.257812,346.777344 C119.257812,345.175781 118.837891,344.029297 117.998047,343.337891 C117.158203,342.646484 116.078125,342.300781 114.757812,342.300781 C113.703125,342.300781 112.832031,342.558594 112.144531,343.074219 C111.761719,343.363281 111.355469,343.835938 110.925781,344.492188 L110.925781,344.492188 L110.925781,342.628906 L107.703125,342.628906 L107.703125,355.378906 L111.03125,355.378906 Z M126.31543,355.561096 L126.605469,355.554688 L128.1875,355.496094 L128.1875,353 C128.078125,353.007812 127.966797,353.013672 127.853516,353.017578 C127.740234,353.021484 127.632812,353.023438 127.53125,353.023438 C126.851562,353.023438 126.445312,352.958984 126.3125,352.830078 C126.179687,352.701172 126.113281,352.375 126.113281,351.851562 L126.113281,351.851562 L126.113281,345.101562 L128.1875,345.101562 L128.1875,342.722656 L126.113281,342.722656 L126.113281,339.160156 L122.808594,339.160156 L122.808594,342.722656 L121.027344,342.722656 L121.027344,345.101562 L122.808594,345.101562 L122.808594,352.964844 C122.808594,353.761719 122.996094,354.351562 123.371094,354.734375 C123.949219,355.335938 125.027344,355.609375 126.605469,355.554688 L126.31543,355.561096 Z M135.488281,355.800781 C137.457031,355.800781 138.988281,355.179688 140.082031,353.9375 C140.785156,353.15625 141.179687,352.386719 141.265625,351.628906 L141.265625,351.628906 L137.855469,351.628906 C137.675781,352.003906 137.46875,352.296875 137.234375,352.507812 C136.804687,352.898438 136.246094,353.09375 135.558594,353.09375 C134.910156,353.09375 134.355469,352.933594 133.894531,352.613281 C133.136719,352.097656 132.734375,351.199219 132.6875,349.917969 L132.6875,349.917969 L141.429687,349.917969 C141.445312,348.816406 141.410156,347.972656 141.324219,347.386719 C141.175781,346.386719 140.851562,345.507812 140.351562,344.75 C139.796875,343.890625 139.09375,343.261719 138.242187,342.863281 C137.390625,342.464844 136.433594,342.265625 135.371094,342.265625 C133.582031,342.265625 132.126953,342.855469 131.005859,344.035156 C129.884766,345.214844 129.324219,346.910156 129.324219,349.121094 C129.324219,351.480469 129.945312,353.183594 131.1875,354.230469 C132.429687,355.277344 133.863281,355.800781 135.488281,355.800781 Z M137.960937,347.714844 L132.769531,347.714844 C132.878906,346.886719 133.146484,346.230469 133.572266,345.746094 C133.998047,345.261719 134.597656,345.019531 135.371094,345.019531 C136.082031,345.019531 136.677734,345.248047 137.158203,345.705078 C137.638672,346.162109 137.90625,346.832031 137.960937,347.714844 L137.960937,347.714844 Z M147.007812,355.378906 L147.007812,349.273438 C147.007812,348.25 147.136719,347.492188 147.394531,347 C147.855469,346.125 148.757812,345.6875 150.101562,345.6875 C150.203125,345.6875 150.335937,345.691406 150.5,345.699219 C150.664062,345.707031 150.851562,345.722656 151.0625,345.746094 L151.0625,345.746094 L151.0625,342.324219 C150.914062,342.316406 150.818359,342.310547 150.775391,342.306641 C150.732422,342.302734 150.679687,342.300781 150.617187,342.300781 C149.617187,342.300781 148.804687,342.5625 148.179687,343.085938 C147.796875,343.398438 147.347656,343.980469 146.832031,344.832031 L146.832031,344.832031 L146.832031,342.605469 L143.644531,342.605469 L143.644531,355.378906 L147.007812,355.378906 Z M156.148437,355.777344 C157.054687,355.777344 157.867187,355.570312 158.585937,355.15625 C159.1875,354.804688 159.71875,354.378906 160.179687,353.878906 C160.203125,354.167969 160.234375,354.425781 160.273437,354.652344 C160.3125,354.878906 160.382812,355.121094 160.484375,355.378906 L160.484375,355.378906 L164.117187,355.378906 L164.117187,354.886719 C163.898437,354.785156 163.734375,354.65625 163.625,354.5 C163.515625,354.34375 163.449219,354.046875 163.425781,353.609375 C163.410156,353.03125 163.402344,352.539062 163.402344,352.132812 L163.402344,352.132812 L163.402344,346.273438 C163.402344,344.734375 162.859375,343.6875 161.773437,343.132812 C160.6875,342.578125 159.445312,342.300781 158.046875,342.300781 C155.898437,342.300781 154.382812,342.863281 153.5,343.988281 C152.945312,344.707031 152.632812,345.625 152.5625,346.742188 L152.5625,346.742188 L155.785156,346.742188 C155.863281,346.25 156.019531,345.859375 156.253906,345.570312 C156.582031,345.179688 157.140625,344.984375 157.929687,344.984375 C158.632812,344.984375 159.166016,345.083984 159.529297,345.283203 C159.892578,345.482422 160.074219,345.84375 160.074219,346.367188 C160.074219,346.796875 159.835937,347.113281 159.359375,347.316406 C159.09375,347.433594 158.652344,347.53125 158.035156,347.609375 L158.035156,347.609375 L156.898437,347.75 C155.609375,347.914062 154.632812,348.1875 153.96875,348.570312 C152.757812,349.273438 152.152344,350.410156 152.152344,351.980469 C152.152344,353.191406 152.529297,354.126953 153.283203,354.787109 C154.037109,355.447266 154.992187,355.777344 156.148437,355.777344 Z M157.132812,353.351562 C156.679687,353.351562 156.294922,353.224609 155.978516,352.970703 C155.662109,352.716797 155.503906,352.304688 155.503906,351.734375 C155.503906,351.09375 155.761719,350.621094 156.277344,350.316406 C156.582031,350.136719 157.085937,349.984375 157.789062,349.859375 L157.789062,349.859375 L158.539062,349.71875 C158.914062,349.648438 159.208984,349.572266 159.423828,349.490234 C159.638672,349.408203 159.851562,349.300781 160.0625,349.167969 L160.0625,349.167969 L160.0625,350.410156 C160.039062,351.527344 159.724609,352.296875 159.119141,352.71875 C158.513672,353.140625 157.851562,353.351562 157.132812,353.351562 Z M171.628906,355.824219 C173.683594,355.824219 175.234375,355.09375 176.28125,353.632812 C176.9375,352.726562 177.304687,351.765625 177.382812,350.75 L177.382812,350.75 L173.972656,350.75 C173.902344,351.421875 173.703125,351.96875 173.375,352.390625 C173.046875,352.8125 172.492187,353.023438 171.710937,353.023438 C170.609375,353.023438 169.859375,352.492188 169.460937,351.429688 C169.242187,350.859375 169.132812,350.105469 169.132812,349.167969 C169.132812,348.183594 169.242187,347.394531 169.460937,346.800781 C169.875,345.683594 170.644531,345.125 171.769531,345.125 C172.558594,345.125 173.140625,345.382812 173.515625,345.898438 C173.773437,346.28125 173.933594,346.710938 173.996094,347.1875 L173.996094,347.1875 L177.417969,347.1875 C177.230469,345.367188 176.626953,344.097656 175.607422,343.378906 C174.587891,342.660156 173.277344,342.300781 171.675781,342.300781 C169.792969,342.300781 168.316406,342.910156 167.246094,344.128906 C166.175781,345.347656 165.640625,347.054688 165.640625,349.25 C165.640625,351.195312 166.125,352.777344 167.09375,353.996094 C168.0625,355.214844 169.574219,355.824219 171.628906,355.824219 Z M183.69043,355.561096 L183.980469,355.554688 L185.5625,355.496094 L185.5625,353 C185.453125,353.007812 185.341797,353.013672 185.228516,353.017578 C185.115234,353.021484 185.007812,353.023438 184.90625,353.023438 C184.226562,353.023438 183.820312,352.958984 183.6875,352.830078 C183.554687,352.701172 183.488281,352.375 183.488281,351.851562 L183.488281,351.851562 L183.488281,345.101562 L185.5625,345.101562 L185.5625,342.722656 L183.488281,342.722656 L183.488281,339.160156 L180.183594,339.160156 L180.183594,342.722656 L178.402344,342.722656 L178.402344,345.101562 L180.183594,345.101562 L180.183594,352.964844 C180.183594,353.761719 180.371094,354.351562 180.746094,354.734375 C181.324219,355.335938 182.402344,355.609375 183.980469,355.554688 L183.69043,355.561096 Z M191.140625,341.082031 L191.140625,338 L187.753906,338 L187.753906,341.082031 L191.140625,341.082031 Z M191.140625,355.378906 L191.140625,342.605469 L187.753906,342.605469 L187.753906,355.378906 L191.140625,355.378906 Z M201.230469,355.378906 L205.835937,342.605469 L202.25,342.605469 L199.53125,352.027344 L196.871094,342.605469 L193.121094,342.605469 L197.703125,355.378906 L201.230469,355.378906 Z M212.878906,355.800781 C214.847656,355.800781 216.378906,355.179688 217.472656,353.9375 C218.175781,353.15625 218.570312,352.386719 218.65625,351.628906 L218.65625,351.628906 L215.246094,351.628906 C215.066406,352.003906 214.859375,352.296875 214.625,352.507812 C214.195312,352.898438 213.636719,353.09375 212.949219,353.09375 C212.300781,353.09375 211.746094,352.933594 211.285156,352.613281 C210.527344,352.097656 210.125,351.199219 210.078125,349.917969 L210.078125,349.917969 L218.820312,349.917969 C218.835937,348.816406 218.800781,347.972656 218.714844,347.386719 C218.566406,346.386719 218.242187,345.507812 217.742187,344.75 C217.1875,343.890625 216.484375,343.261719 215.632812,342.863281 C214.78125,342.464844 213.824219,342.265625 212.761719,342.265625 C210.972656,342.265625 209.517578,342.855469 208.396484,344.035156 C207.275391,345.214844 206.714844,346.910156 206.714844,349.121094 C206.714844,351.480469 207.335937,353.183594 208.578125,354.230469 C209.820312,355.277344 211.253906,355.800781 212.878906,355.800781 Z M215.351562,347.714844 L210.160156,347.714844 C210.269531,346.886719 210.537109,346.230469 210.962891,345.746094 C211.388672,345.261719 211.988281,345.019531 212.761719,345.019531 C213.472656,345.019531 214.068359,345.248047 214.548828,345.705078 C215.029297,346.162109 215.296875,346.832031 215.351562,347.714844 L215.351562,347.714844 Z" id="Interactive" fill="#9E9E9E" fill-rule="nonzero"></path>
        <path d="M342.527344,355.800781 L342.527344,349.027344 L346.253906,349.027344 C347.316406,349.027344 348.041016,349.210938 348.427734,349.578125 C348.814453,349.945312 349.015625,350.679688 349.03125,351.78125 L349.03125,351.78125 L349.054688,353.386719 C349.0625,353.894531 349.113281,354.390625 349.207031,354.875 C349.253906,355.109375 349.332031,355.417969 349.441406,355.800781 L349.441406,355.800781 L353.414062,355.800781 L353.414062,355.367188 C353.070312,355.15625 352.851562,354.828125 352.757812,354.382812 C352.695312,354.101562 352.664062,353.566406 352.664062,352.777344 L352.664062,352.777344 L352.664062,351.617188 C352.664062,350.40625 352.498047,349.505859 352.166016,348.916016 C351.833984,348.326172 351.269531,347.871094 350.472656,347.550781 C351.425781,347.222656 352.109375,346.662109 352.523438,345.869141 C352.9375,345.076172 353.144531,344.269531 353.144531,343.449219 C353.144531,342.769531 353.035156,342.164062 352.816406,341.632812 C352.597656,341.101562 352.300781,340.617188 351.925781,340.179688 C351.472656,339.648438 350.919922,339.246094 350.267578,338.972656 C349.615234,338.699219 348.683594,338.550781 347.472656,338.527344 L347.472656,338.527344 L339,338.527344 L339,355.800781 L342.527344,355.800781 Z M346.617188,346.167969 L342.527344,346.167969 L342.527344,341.527344 L346.722656,341.527344 C347.503906,341.527344 348.089844,341.628906 348.480469,341.832031 C349.175781,342.191406 349.523438,342.894531 349.523438,343.941406 C349.523438,344.910156 349.164062,345.558594 348.445312,345.886719 C348.039062,346.074219 347.429688,346.167969 346.617188,346.167969 L346.617188,346.167969 Z M361.136719,356.222656 C363.105469,356.222656 364.636719,355.601562 365.730469,354.359375 C366.433594,353.578125 366.828125,352.808594 366.914062,352.050781 L366.914062,352.050781 L363.503906,352.050781 C363.324219,352.425781 363.117188,352.71875 362.882812,352.929688 C362.453125,353.320312 361.894531,353.515625 361.207031,353.515625 C360.558594,353.515625 360.003906,353.355469 359.542969,353.035156 C358.785156,352.519531 358.382812,351.621094 358.335938,350.339844 L358.335938,350.339844 L367.078125,350.339844 C367.09375,349.238281 367.058594,348.394531 366.972656,347.808594 C366.824219,346.808594 366.5,345.929688 366,345.171875 C365.445312,344.3125 364.742188,343.683594 363.890625,343.285156 C363.039062,342.886719 362.082031,342.6875 361.019531,342.6875 C359.230469,342.6875 357.775391,343.277344 356.654297,344.457031 C355.533203,345.636719 354.972656,347.332031 354.972656,349.542969 C354.972656,351.902344 355.59375,353.605469 356.835938,354.652344 C358.078125,355.699219 359.511719,356.222656 361.136719,356.222656 Z M363.609375,348.136719 L358.417969,348.136719 C358.527344,347.308594 358.794922,346.652344 359.220703,346.167969 C359.646484,345.683594 360.246094,345.441406 361.019531,345.441406 C361.730469,345.441406 362.326172,345.669922 362.806641,346.126953 C363.287109,346.583984 363.554688,347.253906 363.609375,348.136719 L363.609375,348.136719 Z M372.457031,356.199219 C373.363281,356.199219 374.175781,355.992188 374.894531,355.578125 C375.496094,355.226562 376.027344,354.800781 376.488281,354.300781 C376.511719,354.589844 376.542969,354.847656 376.582031,355.074219 C376.621094,355.300781 376.691406,355.542969 376.792969,355.800781 L376.792969,355.800781 L380.425781,355.800781 L380.425781,355.308594 C380.207031,355.207031 380.042969,355.078125 379.933594,354.921875 C379.824219,354.765625 379.757812,354.46875 379.734375,354.03125 C379.71875,353.453125 379.710938,352.960938 379.710938,352.554688 L379.710938,352.554688 L379.710938,346.695312 C379.710938,345.15625 379.167969,344.109375 378.082031,343.554688 C376.996094,343 375.753906,342.722656 374.355469,342.722656 C372.207031,342.722656 370.691406,343.285156 369.808594,344.410156 C369.253906,345.128906 368.941406,346.046875 368.871094,347.164062 L368.871094,347.164062 L372.09375,347.164062 C372.171875,346.671875 372.328125,346.28125 372.5625,345.992188 C372.890625,345.601562 373.449219,345.40625 374.238281,345.40625 C374.941406,345.40625 375.474609,345.505859 375.837891,345.705078 C376.201172,345.904297 376.382812,346.265625 376.382812,346.789062 C376.382812,347.21875 376.144531,347.535156 375.667969,347.738281 C375.402344,347.855469 374.960938,347.953125 374.34375,348.03125 L374.34375,348.03125 L373.207031,348.171875 C371.917969,348.335938 370.941406,348.609375 370.277344,348.992188 C369.066406,349.695312 368.460938,350.832031 368.460938,352.402344 C368.460938,353.613281 368.837891,354.548828 369.591797,355.208984 C370.345703,355.869141 371.300781,356.199219 372.457031,356.199219 Z M373.441406,353.773438 C372.988281,353.773438 372.603516,353.646484 372.287109,353.392578 C371.970703,353.138672 371.8125,352.726562 371.8125,352.15625 C371.8125,351.515625 372.070312,351.042969 372.585938,350.738281 C372.890625,350.558594 373.394531,350.40625 374.097656,350.28125 L374.097656,350.28125 L374.847656,350.140625 C375.222656,350.070312 375.517578,349.994141 375.732422,349.912109 C375.947266,349.830078 376.160156,349.722656 376.371094,349.589844 L376.371094,349.589844 L376.371094,350.832031 C376.347656,351.949219 376.033203,352.71875 375.427734,353.140625 C374.822266,353.5625 374.160156,353.773438 373.441406,353.773438 Z M387.9375,356.246094 C389.992188,356.246094 391.542969,355.515625 392.589844,354.054688 C393.246094,353.148438 393.613281,352.1875 393.691406,351.171875 L393.691406,351.171875 L390.28125,351.171875 C390.210938,351.84375 390.011719,352.390625 389.683594,352.8125 C389.355469,353.234375 388.800781,353.445312 388.019531,353.445312 C386.917969,353.445312 386.167969,352.914062 385.769531,351.851562 C385.550781,351.28125 385.441406,350.527344 385.441406,349.589844 C385.441406,348.605469 385.550781,347.816406 385.769531,347.222656 C386.183594,346.105469 386.953125,345.546875 388.078125,345.546875 C388.867188,345.546875 389.449219,345.804688 389.824219,346.320312 C390.082031,346.703125 390.242188,347.132812 390.304688,347.609375 L390.304688,347.609375 L393.726562,347.609375 C393.539062,345.789062 392.935547,344.519531 391.916016,343.800781 C390.896484,343.082031 389.585938,342.722656 387.984375,342.722656 C386.101562,342.722656 384.625,343.332031 383.554688,344.550781 C382.484375,345.769531 381.949219,347.476562 381.949219,349.671875 C381.949219,351.617188 382.433594,353.199219 383.402344,354.417969 C384.371094,355.636719 385.882812,356.246094 387.9375,356.246094 Z M399.375,355.800781 L399.375,348.886719 C399.375,347.792969 399.603516,346.951172 400.060547,346.361328 C400.517578,345.771484 401.1875,345.476562 402.070312,345.476562 C402.921875,345.476562 403.5,345.773438 403.804688,346.367188 C404.039062,346.789062 404.15625,347.34375 404.15625,348.03125 L404.15625,348.03125 L404.15625,355.800781 L407.566406,355.800781 L407.566406,348.300781 C407.566406,347.160156 407.527344,346.337891 407.449219,345.833984 C407.371094,345.330078 407.15625,344.839844 406.804688,344.363281 C406.390625,343.800781 405.861328,343.382812 405.216797,343.109375 C404.572266,342.835938 403.855469,342.699219 403.066406,342.699219 C402.363281,342.699219 401.693359,342.845703 401.056641,343.138672 C400.419922,343.431641 399.859375,343.949219 399.375,344.691406 L399.375,344.691406 L399.375,338.585938 L396.046875,338.585938 L396.046875,355.800781 L399.375,355.800781 Z M414.117188,341.503906 L414.117188,338.421875 L410.730469,338.421875 L410.730469,341.503906 L414.117188,341.503906 Z M414.117188,355.800781 L414.117188,343.027344 L410.730469,343.027344 L410.730469,355.800781 L414.117188,355.800781 Z M420.703125,355.800781 L420.703125,348.886719 C420.703125,348.097656 420.8125,347.449219 421.03125,346.941406 C421.453125,345.980469 422.230469,345.5 423.363281,345.5 C424.285156,345.5 424.910156,345.828125 425.238281,346.484375 C425.417969,346.84375 425.507812,347.359375 425.507812,348.03125 L425.507812,348.03125 L425.507812,355.800781 L428.929688,355.800781 L428.929688,347.199219 C428.929688,345.597656 428.509766,344.451172 427.669922,343.759766 C426.830078,343.068359 425.75,342.722656 424.429688,342.722656 C423.375,342.722656 422.503906,342.980469 421.816406,343.496094 C421.433594,343.785156 421.027344,344.257812 420.597656,344.914062 L420.597656,344.914062 L420.597656,343.050781 L417.375,343.050781 L417.375,355.800781 L420.703125,355.800781 Z M437.238281,361.027344 C439.941406,361.027344 441.769531,360.308594 442.722656,358.871094 C443.277344,358.035156 443.554688,356.792969 443.554688,355.144531 L443.554688,355.144531 L443.554688,343.027344 L440.308594,343.027344 L440.308594,344.867188 C439.808594,343.96875 439.152344,343.351562 438.339844,343.015625 C437.863281,342.820312 437.304688,342.722656 436.664062,342.722656 C434.929688,342.722656 433.589844,343.369141 432.644531,344.662109 C431.699219,345.955078 431.226562,347.550781 431.226562,349.449219 C431.226562,351.417969 431.716797,352.978516 432.697266,354.130859 C433.677734,355.283203 434.988281,355.859375 436.628906,355.859375 C437.691406,355.859375 438.554688,355.605469 439.21875,355.097656 C439.585938,354.824219 439.929688,354.414062 440.25,353.867188 L440.25,353.867188 L440.25,354.6875 C440.25,355.90625 440.117188,356.773438 439.851562,357.289062 C439.445312,358.09375 438.640625,358.496094 437.4375,358.496094 C436.585938,358.496094 435.980469,358.34375 435.621094,358.039062 C435.410156,357.867188 435.257812,357.585938 435.164062,357.195312 L435.164062,357.195312 L431.53125,357.195312 C431.640625,358.46875 432.210938,359.425781 433.242188,360.066406 C434.273438,360.707031 435.605469,361.027344 437.238281,361.027344 Z M437.496094,353.058594 C436.324219,353.058594 435.511719,352.519531 435.058594,351.441406 C434.808594,350.863281 434.683594,350.203125 434.683594,349.460938 C434.683594,348.601562 434.800781,347.878906 435.035156,347.292969 C435.480469,346.191406 436.289062,345.640625 437.460938,345.640625 C438.320312,345.640625 439.005859,345.957031 439.517578,346.589844 C440.029297,347.222656 440.285156,348.144531 440.285156,349.355469 C440.285156,350.644531 440.015625,351.583984 439.476562,352.173828 C438.9375,352.763672 438.277344,353.058594 437.496094,353.058594 Z M461.25,356.28125 C463.71875,356.28125 465.605469,355.609375 466.910156,354.265625 C468.652344,352.617188 469.523438,350.242188 469.523438,347.140625 C469.523438,343.976562 468.652344,341.601562 466.910156,340.015625 C465.605469,338.671875 463.71875,338 461.25,338 C458.78125,338 456.894531,338.671875 455.589844,340.015625 C453.839844,341.601562 452.964844,343.976562 452.964844,347.140625 C452.964844,350.242188 453.839844,352.617188 455.589844,354.265625 C456.894531,355.609375 458.78125,356.28125 461.25,356.28125 Z M461.25,353.222656 C459.820312,353.222656 458.679688,352.695312 457.828125,351.640625 C456.976562,350.585938 456.550781,349.085938 456.550781,347.140625 C456.550781,345.195312 456.976562,343.695312 457.828125,342.640625 C458.679688,341.585938 459.820312,341.058594 461.25,341.058594 C462.679688,341.058594 463.814453,341.587891 464.654297,342.646484 C465.494141,343.705078 465.914062,345.203125 465.914062,347.140625 C465.914062,349.085938 465.494141,350.585938 464.654297,351.640625 C463.814453,352.695312 462.679688,353.222656 461.25,353.222656 Z M476.285156,356.082031 C476.941406,356.082031 477.513672,355.996094 478.001953,355.824219 C478.490234,355.652344 478.996094,355.332031 479.519531,354.863281 C479.691406,354.714844 479.839844,354.542969 479.964844,354.347656 C480.089844,354.152344 480.167969,354.035156 480.199219,353.996094 L480.199219,353.996094 L480.199219,355.800781 L483.445312,355.800781 L483.445312,343.027344 L480.058594,343.027344 L480.058594,349.976562 C480.058594,350.796875 479.949219,351.457031 479.730469,351.957031 C479.308594,352.878906 478.527344,353.339844 477.386719,353.339844 C476.496094,353.339844 475.898438,353.015625 475.59375,352.367188 C475.421875,352 475.335938,351.453125 475.335938,350.726562 L475.335938,350.726562 L475.335938,343.027344 L471.914062,343.027344 L471.914062,350.726562 C471.914062,352.1875 472.097656,353.292969 472.464844,354.042969 C473.121094,355.402344 474.394531,356.082031 476.285156,356.082031 Z M490.643555,355.982971 L490.933594,355.976562 L492.515625,355.917969 L492.515625,353.421875 C492.40625,353.429688 492.294922,353.435547 492.181641,353.439453 C492.068359,353.443359 491.960938,353.445312 491.859375,353.445312 C491.179688,353.445312 490.773438,353.380859 490.640625,353.251953 C490.507812,353.123047 490.441406,352.796875 490.441406,352.273438 L490.441406,352.273438 L490.441406,345.523438 L492.515625,345.523438 L492.515625,343.144531 L490.441406,343.144531 L490.441406,339.582031 L487.136719,339.582031 L487.136719,343.144531 L485.355469,343.144531 L485.355469,345.523438 L487.136719,345.523438 L487.136719,353.386719 C487.136719,354.183594 487.324219,354.773438 487.699219,355.15625 C488.277344,355.757812 489.355469,356.03125 490.933594,355.976562 L490.643555,355.982971 Z" id="ReachingOut" fill="#9E9E9E" fill-rule="nonzero"></path>
    </g>
</svg>