<?xml version="1.0" encoding="UTF-8"?>
<svg width="992px" height="183px" viewBox="0 0 992 183" version="1.1" xmlns="http://www.w3.org/2000/svg" xmlns:xlink="http://www.w3.org/1999/xlink">
    <title>buttons-example</title>
    <g id="buttons-example" stroke="none" stroke-width="1" fill="none" fill-rule="evenodd">
        <g id="Group-Copy-2" transform="translate(32.000000, 32.000000)">
            <rect id="Rectangle" fill="#BDBDBD" x="0" y="0" width="192" height="64" rx="8"></rect>
            <path d="M45.4375,43 L45.4375,32.984375 C45.4375,31.6822917 45.671875,30.6640625 46.140625,29.9296875 C46.609375,29.1953125 47.2604167,28.828125 48.09375,28.828125 C48.90625,28.828125 49.4921875,29.0989583 49.8515625,29.640625 C50.2109375,30.1822917 50.390625,31.0833333 50.390625,32.34375 L50.390625,32.34375 L50.390625,43 L54.9375,43 L54.9375,31.640625 C54.9375,29.4635417 54.515625,27.8255208 53.671875,26.7265625 C52.828125,25.6276042 51.578125,25.078125 49.921875,25.078125 C48.8177083,25.078125 47.875,25.34375 47.09375,25.875 C46.3125,26.40625 45.7604167,27.15625 45.4375,28.125 L45.4375,28.125 L45.4375,18.6875 L40.890625,18.6875 L40.890625,43 L45.4375,43 Z M67.9375,43.453125 C69.1666667,43.453125 70.3333333,43.34375 71.4375,43.125 C72.5416667,42.90625 73.625,42.578125 74.6875,42.140625 L74.6875,42.140625 L74.6875,37.9375 C73.5729167,38.59375 72.5052083,39.0729167 71.484375,39.375 C70.4635417,39.6770833 69.4270833,39.828125 68.375,39.828125 C66.78125,39.828125 65.5833333,39.4895833 64.78125,38.8125 C63.9791667,38.1354167 63.5729167,37.109375 63.5625,35.734375 L63.5625,35.734375 L75.421875,35.734375 L75.421875,33.875 C75.421875,31.0833333 74.7057292,28.9192708 73.2734375,27.3828125 C71.8411458,25.8463542 69.828125,25.078125 67.234375,25.078125 C64.6614583,25.078125 62.6302083,25.90625 61.140625,27.5625 C59.6510417,29.21875 58.90625,31.4739583 58.90625,34.328125 C58.90625,37.2760417 59.6796875,39.5338542 61.2265625,41.1015625 C62.7734375,42.6692708 65.0104167,43.453125 67.9375,43.453125 Z M63.609375,32.3125 C63.7239583,31.1354167 64.09375,30.2265625 64.71875,29.5859375 C65.34375,28.9453125 66.1822917,28.625 67.234375,28.625 C68.4010417,28.625 69.2838542,28.9348958 69.8828125,29.5546875 C70.4817708,30.1744792 70.7916667,31.0885417 70.8125,32.296875 L70.8125,32.296875 L63.609375,32.3125 Z M93.828125,43 L93.828125,39.484375 L90.171875,39.484375 C89.1510417,39.484375 88.4270833,39.1979167 88,38.625 C87.5729167,38.0520833 87.359375,37.078125 87.359375,35.703125 L87.359375,35.703125 L87.359375,18.6875 L78.140625,18.6875 L78.140625,22.203125 L82.78125,22.203125 L82.78125,35.703125 C82.78125,38.3177083 83.2552083,40.1875 84.203125,41.3125 C85.1510417,42.4375 86.7135417,43 88.890625,43 L88.890625,43 L93.828125,43 Z M113.09375,43 L113.09375,39.484375 L109.4375,39.484375 C108.416667,39.484375 107.692708,39.1979167 107.265625,38.625 C106.838542,38.0520833 106.625,37.078125 106.625,35.703125 L106.625,35.703125 L106.625,18.6875 L97.40625,18.6875 L97.40625,22.203125 L102.046875,22.203125 L102.046875,35.703125 C102.046875,38.3177083 102.520833,40.1875 103.46875,41.3125 C104.416667,42.4375 105.979167,43 108.15625,43 L108.15625,43 L113.09375,43 Z M124.890625,43.453125 C127.369792,43.453125 129.341146,42.6276042 130.804688,40.9765625 C132.268229,39.3255208 133,37.0885417 133,34.265625 C133,31.4427083 132.268229,29.2057292 130.804688,27.5546875 C129.341146,25.9036458 127.369792,25.078125 124.890625,25.078125 C122.421875,25.078125 120.455729,25.9036458 118.992188,27.5546875 C117.528646,29.2057292 116.796875,31.4427083 116.796875,34.265625 C116.796875,37.0885417 117.528646,39.3255208 118.992188,40.9765625 C120.455729,42.6276042 122.421875,43.453125 124.890625,43.453125 Z M124.890625,39.734375 C123.796875,39.734375 122.9375,39.2526042 122.3125,38.2890625 C121.6875,37.3255208 121.375,35.984375 121.375,34.265625 C121.375,32.546875 121.6875,31.2057292 122.3125,30.2421875 C122.9375,29.2786458 123.796875,28.796875 124.890625,28.796875 C125.994792,28.796875 126.859375,29.2786458 127.484375,30.2421875 C128.109375,31.2057292 128.421875,32.546875 128.421875,34.265625 C128.421875,35.984375 128.109375,37.3255208 127.484375,38.2890625 C126.859375,39.2526042 125.994792,39.734375 124.890625,39.734375 Z M142.046875,43 L144.15625,33.90625 L146.28125,43 L150.625,43 L153.796875,25.5 L149.984375,25.5 L147.875,38.90625 L146.015625,30.078125 L142.3125,30.078125 L140.421875,38.90625 L138.34375,25.5 L134.53125,25.5 L137.703125,43 L142.046875,43 Z" id="hellow" fill="#FFFFFF" fill-rule="nonzero"></path>
        </g>
        <g id="Group-Copy-3" transform="translate(272.000000, 32.000000)">
            <rect id="Rectangle" fill="#1089FF" x="0" y="0" width="192" height="64" rx="8"></rect>
            <path d="M45.4375,43 L45.4375,32.984375 C45.4375,31.6822917 45.671875,30.6640625 46.140625,29.9296875 C46.609375,29.1953125 47.2604167,28.828125 48.09375,28.828125 C48.90625,28.828125 49.4921875,29.0989583 49.8515625,29.640625 C50.2109375,30.1822917 50.390625,31.0833333 50.390625,32.34375 L50.390625,32.34375 L50.390625,43 L54.9375,43 L54.9375,31.640625 C54.9375,29.4635417 54.515625,27.8255208 53.671875,26.7265625 C52.828125,25.6276042 51.578125,25.078125 49.921875,25.078125 C48.8177083,25.078125 47.875,25.34375 47.09375,25.875 C46.3125,26.40625 45.7604167,27.15625 45.4375,28.125 L45.4375,28.125 L45.4375,18.6875 L40.890625,18.6875 L40.890625,43 L45.4375,43 Z M67.9375,43.453125 C69.1666667,43.453125 70.3333333,43.34375 71.4375,43.125 C72.5416667,42.90625 73.625,42.578125 74.6875,42.140625 L74.6875,42.140625 L74.6875,37.9375 C73.5729167,38.59375 72.5052083,39.0729167 71.484375,39.375 C70.4635417,39.6770833 69.4270833,39.828125 68.375,39.828125 C66.78125,39.828125 65.5833333,39.4895833 64.78125,38.8125 C63.9791667,38.1354167 63.5729167,37.109375 63.5625,35.734375 L63.5625,35.734375 L75.421875,35.734375 L75.421875,33.875 C75.421875,31.0833333 74.7057292,28.9192708 73.2734375,27.3828125 C71.8411458,25.8463542 69.828125,25.078125 67.234375,25.078125 C64.6614583,25.078125 62.6302083,25.90625 61.140625,27.5625 C59.6510417,29.21875 58.90625,31.4739583 58.90625,34.328125 C58.90625,37.2760417 59.6796875,39.5338542 61.2265625,41.1015625 C62.7734375,42.6692708 65.0104167,43.453125 67.9375,43.453125 Z M63.609375,32.3125 C63.7239583,31.1354167 64.09375,30.2265625 64.71875,29.5859375 C65.34375,28.9453125 66.1822917,28.625 67.234375,28.625 C68.4010417,28.625 69.2838542,28.9348958 69.8828125,29.5546875 C70.4817708,30.1744792 70.7916667,31.0885417 70.8125,32.296875 L70.8125,32.296875 L63.609375,32.3125 Z M93.828125,43 L93.828125,39.484375 L90.171875,39.484375 C89.1510417,39.484375 88.4270833,39.1979167 88,38.625 C87.5729167,38.0520833 87.359375,37.078125 87.359375,35.703125 L87.359375,35.703125 L87.359375,18.6875 L78.140625,18.6875 L78.140625,22.203125 L82.78125,22.203125 L82.78125,35.703125 C82.78125,38.3177083 83.2552083,40.1875 84.203125,41.3125 C85.1510417,42.4375 86.7135417,43 88.890625,43 L88.890625,43 L93.828125,43 Z M113.09375,43 L113.09375,39.484375 L109.4375,39.484375 C108.416667,39.484375 107.692708,39.1979167 107.265625,38.625 C106.838542,38.0520833 106.625,37.078125 106.625,35.703125 L106.625,35.703125 L106.625,18.6875 L97.40625,18.6875 L97.40625,22.203125 L102.046875,22.203125 L102.046875,35.703125 C102.046875,38.3177083 102.520833,40.1875 103.46875,41.3125 C104.416667,42.4375 105.979167,43 108.15625,43 L108.15625,43 L113.09375,43 Z M124.890625,43.453125 C127.369792,43.453125 129.341146,42.6276042 130.804688,40.9765625 C132.268229,39.3255208 133,37.0885417 133,34.265625 C133,31.4427083 132.268229,29.2057292 130.804688,27.5546875 C129.341146,25.9036458 127.369792,25.078125 124.890625,25.078125 C122.421875,25.078125 120.455729,25.9036458 118.992188,27.5546875 C117.528646,29.2057292 116.796875,31.4427083 116.796875,34.265625 C116.796875,37.0885417 117.528646,39.3255208 118.992188,40.9765625 C120.455729,42.6276042 122.421875,43.453125 124.890625,43.453125 Z M124.890625,39.734375 C123.796875,39.734375 122.9375,39.2526042 122.3125,38.2890625 C121.6875,37.3255208 121.375,35.984375 121.375,34.265625 C121.375,32.546875 121.6875,31.2057292 122.3125,30.2421875 C122.9375,29.2786458 123.796875,28.796875 124.890625,28.796875 C125.994792,28.796875 126.859375,29.2786458 127.484375,30.2421875 C128.109375,31.2057292 128.421875,32.546875 128.421875,34.265625 C128.421875,35.984375 128.109375,37.3255208 127.484375,38.2890625 C126.859375,39.2526042 125.994792,39.734375 124.890625,39.734375 Z M142.046875,43 L144.15625,33.90625 L146.28125,43 L150.625,43 L153.796875,25.5 L149.984375,25.5 L147.875,38.90625 L146.015625,30.078125 L142.3125,30.078125 L140.421875,38.90625 L138.34375,25.5 L134.53125,25.5 L137.703125,43 L142.046875,43 Z" id="hellow" fill="#FFFFFF" fill-rule="nonzero"></path>
        </g>
        <g id="Group-Copy-4" transform="translate(500.000000, 28.000000)">
            <rect id="Rectangle" fill="#1089FF" x="0" y="0" width="216" height="72" rx="9"></rect>
            <path d="M51.1171875,48.375 L51.1171875,37.1074219 C51.1171875,35.6425781 51.3808594,34.4970703 51.9082031,33.6708984 C52.4355469,32.8447266 53.1679688,32.4316406 54.1054688,32.4316406 C55.0195312,32.4316406 55.6787109,32.7363281 56.0830078,33.3457031 C56.4873047,33.9550781 56.6894531,34.96875 56.6894531,36.3867188 L56.6894531,36.3867188 L56.6894531,48.375 L61.8046875,48.375 L61.8046875,35.5957031 C61.8046875,33.1464844 61.3300781,31.3037109 60.3808594,30.0673828 C59.4316406,28.8310547 58.0253906,28.2128906 56.1621094,28.2128906 C54.9199219,28.2128906 53.859375,28.5117188 52.9804688,29.109375 C52.1015625,29.7070312 51.4804688,30.5507812 51.1171875,31.640625 L51.1171875,31.640625 L51.1171875,21.0234375 L46.0019531,21.0234375 L46.0019531,48.375 L51.1171875,48.375 Z M76.4296875,48.8847656 C77.8125,48.8847656 79.125,48.7617188 80.3671875,48.515625 C81.609375,48.2695312 82.828125,47.9003906 84.0234375,47.4082031 L84.0234375,47.4082031 L84.0234375,42.6796875 C82.7695312,43.4179688 81.5683594,43.9570312 80.4199219,44.296875 C79.2714844,44.6367188 78.1054688,44.8066406 76.921875,44.8066406 C75.1289062,44.8066406 73.78125,44.4257812 72.8789062,43.6640625 C71.9765625,42.9023438 71.5195312,41.7480469 71.5078125,40.2011719 L71.5078125,40.2011719 L84.8496094,40.2011719 L84.8496094,38.109375 C84.8496094,34.96875 84.0439453,32.5341797 82.4326172,30.8056641 C80.8212891,29.0771484 78.5566406,28.2128906 75.6386719,28.2128906 C72.7441406,28.2128906 70.4589844,29.1445312 68.7832031,31.0078125 C67.1074219,32.8710938 66.2695312,35.4082031 66.2695312,38.6191406 C66.2695312,41.9355469 67.1396484,44.4755859 68.8798828,46.2392578 C70.6201172,48.0029297 73.1367188,48.8847656 76.4296875,48.8847656 Z M71.5605469,36.3515625 C71.6894531,35.0273438 72.1054688,34.0048828 72.8085938,33.2841797 C73.5117188,32.5634766 74.4550781,32.203125 75.6386719,32.203125 C76.9511719,32.203125 77.9443359,32.5517578 78.6181641,33.2490234 C79.2919922,33.9462891 79.640625,34.9746094 79.6640625,36.3339844 L79.6640625,36.3339844 L71.5605469,36.3515625 Z M105.556641,48.375 L105.556641,44.4199219 L101.443359,44.4199219 C100.294922,44.4199219 99.4804688,44.0976562 99,43.453125 C98.5195312,42.8085938 98.2792969,41.7128906 98.2792969,40.1660156 L98.2792969,40.1660156 L98.2792969,21.0234375 L87.9082031,21.0234375 L87.9082031,24.9785156 L93.1289062,24.9785156 L93.1289062,40.1660156 C93.1289062,43.1074219 93.6621094,45.2109375 94.7285156,46.4765625 C95.7949219,47.7421875 97.5527344,48.375 100.001953,48.375 L100.001953,48.375 L105.556641,48.375 Z M127.230469,48.375 L127.230469,44.4199219 L123.117188,44.4199219 C121.96875,44.4199219 121.154297,44.0976562 120.673828,43.453125 C120.193359,42.8085938 119.953125,41.7128906 119.953125,40.1660156 L119.953125,40.1660156 L119.953125,21.0234375 L109.582031,21.0234375 L109.582031,24.9785156 L114.802734,24.9785156 L114.802734,40.1660156 C114.802734,43.1074219 115.335938,45.2109375 116.402344,46.4765625 C117.46875,47.7421875 119.226562,48.375 121.675781,48.375 L121.675781,48.375 L127.230469,48.375 Z M140.501953,48.8847656 C143.291016,48.8847656 145.508789,47.9560547 147.155273,46.0986328 C148.801758,44.2412109 149.625,41.7246094 149.625,38.5488281 C149.625,35.3730469 148.801758,32.8564453 147.155273,30.9990234 C145.508789,29.1416016 143.291016,28.2128906 140.501953,28.2128906 C137.724609,28.2128906 135.512695,29.1416016 133.866211,30.9990234 C132.219727,32.8564453 131.396484,35.3730469 131.396484,38.5488281 C131.396484,41.7246094 132.219727,44.2412109 133.866211,46.0986328 C135.512695,47.9560547 137.724609,48.8847656 140.501953,48.8847656 Z M140.501953,44.7011719 C139.271484,44.7011719 138.304688,44.1591797 137.601562,43.0751953 C136.898438,41.9912109 136.546875,40.4824219 136.546875,38.5488281 C136.546875,36.6152344 136.898438,35.1064453 137.601562,34.0224609 C138.304688,32.9384766 139.271484,32.3964844 140.501953,32.3964844 C141.744141,32.3964844 142.716797,32.9384766 143.419922,34.0224609 C144.123047,35.1064453 144.474609,36.6152344 144.474609,38.5488281 C144.474609,40.4824219 144.123047,41.9912109 143.419922,43.0751953 C142.716797,44.1591797 141.744141,44.7011719 140.501953,44.7011719 Z M159.802734,48.375 L162.175781,38.1445312 L164.566406,48.375 L169.453125,48.375 L173.021484,28.6875 L168.732422,28.6875 L166.359375,43.7695312 L164.267578,33.8378906 L160.101562,33.8378906 L157.974609,43.7695312 L155.636719,28.6875 L151.347656,28.6875 L154.916016,48.375 L159.802734,48.375 Z" id="hellow" fill="#FFFFFF" fill-rule="nonzero"></path>
        </g>
        <g id="Group-Copy-5" transform="translate(728.000000, 24.000000)">
            <rect id="Rectangle" fill="#1089FF" x="0" y="0" width="240" height="80" rx="10"></rect>
            <path d="M56.796875,53.75 L56.796875,41.2304688 C56.796875,39.6028646 57.0898438,38.3300781 57.6757812,37.4121094 C58.2617188,36.4941406 59.0755208,36.0351562 60.1171875,36.0351562 C61.1328125,36.0351562 61.8652344,36.3736979 62.3144531,37.0507812 C62.7636719,37.7278646 62.9882812,38.8541667 62.9882812,40.4296875 L62.9882812,40.4296875 L62.9882812,53.75 L68.671875,53.75 L68.671875,39.5507812 C68.671875,36.8294271 68.1445312,34.781901 67.0898438,33.4082031 C66.0351562,32.0345052 64.4726562,31.3476562 62.4023438,31.3476562 C61.0221354,31.3476562 59.84375,31.6796875 58.8671875,32.34375 C57.890625,33.0078125 57.2005208,33.9453125 56.796875,35.15625 L56.796875,35.15625 L56.796875,23.359375 L51.1132812,23.359375 L51.1132812,53.75 L56.796875,53.75 Z M84.921875,54.3164062 C86.4583333,54.3164062 87.9166667,54.1796875 89.296875,53.90625 C90.6770833,53.6328125 92.03125,53.2226562 93.359375,52.6757812 L93.359375,52.6757812 L93.359375,47.421875 C91.9661458,48.2421875 90.6315104,48.8411458 89.3554688,49.21875 C88.0794271,49.5963542 86.7838542,49.7851562 85.46875,49.7851562 C83.4765625,49.7851562 81.9791667,49.3619792 80.9765625,48.515625 C79.9739583,47.6692708 79.4661458,46.3867188 79.453125,44.6679688 L79.453125,44.6679688 L94.2773438,44.6679688 L94.2773438,42.34375 C94.2773438,38.8541667 93.3821615,36.1490885 91.5917969,34.2285156 C89.8014323,32.3079427 87.2851562,31.3476562 84.0429688,31.3476562 C80.8268229,31.3476562 78.2877604,32.3828125 76.4257812,34.453125 C74.5638021,36.5234375 73.6328125,39.3424479 73.6328125,42.9101562 C73.6328125,46.5950521 74.5996094,49.4173177 76.5332031,51.3769531 C78.4667969,53.3365885 81.2630208,54.3164062 84.921875,54.3164062 Z M79.5117188,40.390625 C79.6549479,38.9192708 80.1171875,37.7832031 80.8984375,36.9824219 C81.6796875,36.1816406 82.7278646,35.78125 84.0429688,35.78125 C85.5013021,35.78125 86.6048177,36.1686198 87.3535156,36.9433594 C88.1022135,37.718099 88.4895833,38.8606771 88.515625,40.3710938 L88.515625,40.3710938 L79.5117188,40.390625 Z M117.285156,53.75 L117.285156,49.3554688 L112.714844,49.3554688 C111.438802,49.3554688 110.533854,48.9973958 110,48.28125 C109.466146,47.5651042 109.199219,46.3476562 109.199219,44.6289062 L109.199219,44.6289062 L109.199219,23.359375 L97.6757812,23.359375 L97.6757812,27.7539062 L103.476562,27.7539062 L103.476562,44.6289062 C103.476562,47.8971354 104.06901,50.234375 105.253906,51.640625 C106.438802,53.046875 108.391927,53.75 111.113281,53.75 L111.113281,53.75 L117.285156,53.75 Z M141.367188,53.75 L141.367188,49.3554688 L136.796875,49.3554688 C135.520833,49.3554688 134.615885,48.9973958 134.082031,48.28125 C133.548177,47.5651042 133.28125,46.3476562 133.28125,44.6289062 L133.28125,44.6289062 L133.28125,23.359375 L121.757812,23.359375 L121.757812,27.7539062 L127.558594,27.7539062 L127.558594,44.6289062 C127.558594,47.8971354 128.151042,50.234375 129.335938,51.640625 C130.520833,53.046875 132.473958,53.75 135.195312,53.75 L135.195312,53.75 L141.367188,53.75 Z M156.113281,54.3164062 C159.21224,54.3164062 161.676432,53.2845052 163.505859,51.2207031 C165.335286,49.156901 166.25,46.3606771 166.25,42.8320312 C166.25,39.3033854 165.335286,36.5071615 163.505859,34.4433594 C161.676432,32.3795573 159.21224,31.3476562 156.113281,31.3476562 C153.027344,31.3476562 150.569661,32.3795573 148.740234,34.4433594 C146.910807,36.5071615 145.996094,39.3033854 145.996094,42.8320312 C145.996094,46.3606771 146.910807,49.156901 148.740234,51.2207031 C150.569661,53.2845052 153.027344,54.3164062 156.113281,54.3164062 Z M156.113281,49.6679688 C154.746094,49.6679688 153.671875,49.0657552 152.890625,47.8613281 C152.109375,46.656901 151.71875,44.9804688 151.71875,42.8320312 C151.71875,40.6835938 152.109375,39.0071615 152.890625,37.8027344 C153.671875,36.5983073 154.746094,35.9960938 156.113281,35.9960938 C157.49349,35.9960938 158.574219,36.5983073 159.355469,37.8027344 C160.136719,39.0071615 160.527344,40.6835938 160.527344,42.8320312 C160.527344,44.9804688 160.136719,46.656901 159.355469,47.8613281 C158.574219,49.0657552 157.49349,49.6679688 156.113281,49.6679688 Z M177.558594,53.75 L180.195312,42.3828125 L182.851562,53.75 L188.28125,53.75 L192.246094,31.875 L187.480469,31.875 L184.84375,48.6328125 L182.519531,37.5976562 L177.890625,37.5976562 L175.527344,48.6328125 L172.929688,31.875 L168.164062,31.875 L172.128906,53.75 L177.558594,53.75 Z" id="hellow" fill="#FFFFFF" fill-rule="nonzero"></path>
        </g>
        <path d="M87.2539062,145.378906 C89.8632812,145.378906 91.7929688,144.304688 93.0429688,142.15625 C93.9648438,140.5625 94.4257812,138.617188 94.4257812,136.320312 C94.4257812,135.414062 94.3164062,134.460938 94.0976562,133.460938 C93.8789062,132.460938 93.46875,131.53125 92.8671875,130.671875 C92.1171875,129.609375 91.1367188,128.878906 89.9257812,128.480469 C89.2148438,128.246094 88.3242188,128.121094 87.2539062,128.105469 L87.2539062,128.105469 L79.8125,128.105469 L79.8125,145.378906 L87.2539062,145.378906 Z M86.6445312,142.378906 L83.3164062,142.378906 L83.3164062,131.105469 L86.6445312,131.105469 C88.2851562,131.105469 89.3808594,131.576172 89.9316406,132.517578 C90.4824219,133.458984 90.7578125,134.808594 90.7578125,136.566406 C90.7578125,137.839844 90.5742188,138.9375 90.2070312,139.859375 C89.5351562,141.539062 88.3476562,142.378906 86.6445312,142.378906 L86.6445312,142.378906 Z M100.308594,131.082031 L100.308594,128 L96.921875,128 L96.921875,131.082031 L100.308594,131.082031 Z M100.308594,145.378906 L100.308594,132.605469 L96.921875,132.605469 L96.921875,145.378906 L100.308594,145.378906 Z M108.640625,145.8125 C110.609375,145.8125 112.064453,145.412109 113.005859,144.611328 C113.947266,143.810547 114.417969,142.777344 114.417969,141.511719 C114.417969,140.550781 114.089844,139.75 113.433594,139.109375 C112.769531,138.476562 111.773438,138.003906 110.445312,137.691406 C108.453125,137.253906 107.292969,136.945312 106.964844,136.765625 C106.636719,136.59375 106.472656,136.316406 106.472656,135.933594 C106.472656,135.628906 106.626953,135.363281 106.935547,135.136719 C107.244141,134.910156 107.761719,134.796875 108.488281,134.796875 C109.371094,134.796875 109.996094,135.023438 110.363281,135.476562 C110.558594,135.726562 110.679688,136.066406 110.726562,136.496094 L110.726562,136.496094 L114.066406,136.496094 C113.917969,134.933594 113.341797,133.833984 112.337891,133.197266 C111.333984,132.560547 110.035156,132.242188 108.441406,132.242188 C106.761719,132.242188 105.458984,132.666016 104.533203,133.513672 C103.607422,134.361328 103.144531,135.375 103.144531,136.554688 C103.144531,137.554688 103.441406,138.320312 104.035156,138.851562 C104.628906,139.390625 105.648438,139.839844 107.09375,140.199219 C109.101562,140.675781 110.261719,141.011719 110.574219,141.207031 C110.886719,141.402344 111.042969,141.6875 111.042969,142.0625 C111.042969,142.453125 110.849609,142.746094 110.462891,142.941406 C110.076172,143.136719 109.554688,143.234375 108.898438,143.234375 C107.78125,143.234375 107.015625,143.011719 106.601562,142.566406 C106.367188,142.316406 106.214844,141.894531 106.144531,141.300781 L106.144531,141.300781 L102.757812,141.300781 C102.757812,142.613281 103.236328,143.693359 104.193359,144.541016 C105.150391,145.388672 106.632812,145.8125 108.640625,145.8125 Z M120.019531,145.777344 C120.925781,145.777344 121.738281,145.570312 122.457031,145.15625 C123.058594,144.804688 123.589844,144.378906 124.050781,143.878906 C124.074219,144.167969 124.105469,144.425781 124.144531,144.652344 C124.183594,144.878906 124.253906,145.121094 124.355469,145.378906 L124.355469,145.378906 L127.988281,145.378906 L127.988281,144.886719 C127.769531,144.785156 127.605469,144.65625 127.496094,144.5 C127.386719,144.34375 127.320312,144.046875 127.296875,143.609375 C127.28125,143.03125 127.273438,142.539062 127.273438,142.132812 L127.273438,142.132812 L127.273438,136.273438 C127.273438,134.734375 126.730469,133.6875 125.644531,133.132812 C124.558594,132.578125 123.316406,132.300781 121.917969,132.300781 C119.769531,132.300781 118.253906,132.863281 117.371094,133.988281 C116.816406,134.707031 116.503906,135.625 116.433594,136.742188 L116.433594,136.742188 L119.65625,136.742188 C119.734375,136.25 119.890625,135.859375 120.125,135.570312 C120.453125,135.179688 121.011719,134.984375 121.800781,134.984375 C122.503906,134.984375 123.037109,135.083984 123.400391,135.283203 C123.763672,135.482422 123.945312,135.84375 123.945312,136.367188 C123.945312,136.796875 123.707031,137.113281 123.230469,137.316406 C122.964844,137.433594 122.523438,137.53125 121.90625,137.609375 L121.90625,137.609375 L120.769531,137.75 C119.480469,137.914062 118.503906,138.1875 117.839844,138.570312 C116.628906,139.273438 116.023438,140.410156 116.023438,141.980469 C116.023438,143.191406 116.400391,144.126953 117.154297,144.787109 C117.908203,145.447266 118.863281,145.777344 120.019531,145.777344 Z M121.003906,143.351562 C120.550781,143.351562 120.166016,143.224609 119.849609,142.970703 C119.533203,142.716797 119.375,142.304688 119.375,141.734375 C119.375,141.09375 119.632812,140.621094 120.148438,140.316406 C120.453125,140.136719 120.957031,139.984375 121.660156,139.859375 L121.660156,139.859375 L122.410156,139.71875 C122.785156,139.648438 123.080078,139.572266 123.294922,139.490234 C123.509766,139.408203 123.722656,139.300781 123.933594,139.167969 L123.933594,139.167969 L123.933594,140.410156 C123.910156,141.527344 123.595703,142.296875 122.990234,142.71875 C122.384766,143.140625 121.722656,143.351562 121.003906,143.351562 Z M137.175781,145.71875 C138.855469,145.71875 140.164062,145.066406 141.101562,143.761719 C142.039062,142.457031 142.507812,140.8125 142.507812,138.828125 C142.507812,136.914062 142.033203,135.351562 141.083984,134.140625 C140.134766,132.929688 138.820312,132.324219 137.140625,132.324219 C136.210938,132.324219 135.445312,132.519531 134.84375,132.910156 C134.335938,133.222656 133.871094,133.675781 133.449219,134.269531 L133.449219,134.269531 L133.449219,128.128906 L130.121094,128.128906 L130.121094,145.378906 L133.390625,145.378906 L133.390625,143.773438 C133.835938,144.398438 134.25,144.835938 134.632812,145.085938 C135.273438,145.507812 136.121094,145.71875 137.175781,145.71875 Z M136.285156,142.964844 C135.292969,142.964844 134.554688,142.605469 134.070312,141.886719 C133.585938,141.167969 133.34375,140.261719 133.34375,139.167969 C133.34375,138.238281 133.460938,137.480469 133.695312,136.894531 C134.148438,135.792969 134.980469,135.242188 136.191406,135.242188 C137.386719,135.242188 138.207031,135.804688 138.652344,136.929688 C138.886719,137.523438 139.003906,138.273438 139.003906,139.179688 C139.003906,140.3125 138.765625,141.226562 138.289062,141.921875 C137.8125,142.617188 137.144531,142.964844 136.285156,142.964844 Z M148.308594,145.378906 L148.308594,128.105469 L144.96875,128.105469 L144.96875,145.378906 L148.308594,145.378906 Z M156.722656,145.800781 C158.691406,145.800781 160.222656,145.179688 161.316406,143.9375 C162.019531,143.15625 162.414062,142.386719 162.5,141.628906 L162.5,141.628906 L159.089844,141.628906 C158.910156,142.003906 158.703125,142.296875 158.46875,142.507812 C158.039062,142.898438 157.480469,143.09375 156.792969,143.09375 C156.144531,143.09375 155.589844,142.933594 155.128906,142.613281 C154.371094,142.097656 153.96875,141.199219 153.921875,139.917969 L153.921875,139.917969 L162.664062,139.917969 C162.679688,138.816406 162.644531,137.972656 162.558594,137.386719 C162.410156,136.386719 162.085938,135.507812 161.585938,134.75 C161.03125,133.890625 160.328125,133.261719 159.476562,132.863281 C158.625,132.464844 157.667969,132.265625 156.605469,132.265625 C154.816406,132.265625 153.361328,132.855469 152.240234,134.035156 C151.119141,135.214844 150.558594,136.910156 150.558594,139.121094 C150.558594,141.480469 151.179688,143.183594 152.421875,144.230469 C153.664062,145.277344 155.097656,145.800781 156.722656,145.800781 Z M159.195312,137.714844 L154.003906,137.714844 C154.113281,136.886719 154.380859,136.230469 154.806641,135.746094 C155.232422,135.261719 155.832031,135.019531 156.605469,135.019531 C157.316406,135.019531 157.912109,135.248047 158.392578,135.705078 C158.873047,136.162109 159.140625,136.832031 159.195312,137.714844 L159.195312,137.714844 Z M169.390625,145.777344 C170.296875,145.777344 171.054688,145.605469 171.664062,145.261719 C172.273438,144.917969 172.816406,144.367188 173.292969,143.609375 L173.292969,143.609375 L173.292969,145.378906 L176.539062,145.378906 L176.539062,128.128906 L173.152344,128.128906 L173.152344,134.222656 C172.777344,133.621094 172.289062,133.150391 171.6875,132.810547 C171.085938,132.470703 170.398438,132.300781 169.625,132.300781 C167.945312,132.300781 166.603516,132.925781 165.599609,134.175781 C164.595703,135.425781 164.09375,137.140625 164.09375,139.320312 C164.09375,141.210938 164.603516,142.759766 165.623047,143.966797 C166.642578,145.173828 167.898438,145.777344 169.390625,145.777344 Z M170.351562,142.964844 C169.40625,142.964844 168.701172,142.611328 168.236328,141.904297 C167.771484,141.197266 167.539062,140.253906 167.539062,139.074219 C167.539062,137.980469 167.767578,137.064453 168.224609,136.326172 C168.681641,135.587891 169.398438,135.21875 170.375,135.21875 C171.015625,135.21875 171.578125,135.421875 172.0625,135.828125 C172.851562,136.5 173.246094,137.617188 173.246094,139.179688 C173.246094,140.296875 173,141.207031 172.507812,141.910156 C172.015625,142.613281 171.296875,142.964844 170.351562,142.964844 Z" id="Disabled" fill="#9E9E9E" fill-rule="nonzero"></path>
        <path d="M328.900391,146.222656 C331.103516,146.222656 332.808594,145.701172 334.015625,144.658203 C335.222656,143.615234 335.826172,142.304688 335.826172,140.726562 C335.826172,139.1875 335.310547,138.011719 334.279297,137.199219 C333.615234,136.675781 332.630859,136.257812 331.326172,135.945312 L331.326172,135.945312 L328.349609,135.230469 C327.201172,134.957031 326.451172,134.71875 326.099609,134.515625 C325.552734,134.210938 325.279297,133.75 325.279297,133.132812 C325.279297,132.460938 325.556641,131.9375 326.111328,131.5625 C326.666016,131.1875 327.408203,131 328.337891,131 C329.173828,131 329.873047,131.144531 330.435547,131.433594 C331.279297,131.871094 331.732422,132.609375 331.794922,133.648438 L331.794922,133.648438 L335.263672,133.648438 C335.201172,131.8125 334.527344,130.412109 333.242188,129.447266 C331.957031,128.482422 330.404297,128 328.583984,128 C326.404297,128 324.751953,128.511719 323.626953,129.535156 C322.501953,130.558594 321.939453,131.84375 321.939453,133.390625 C321.939453,135.085938 322.521484,136.332031 323.685547,137.128906 C324.373047,137.605469 325.615234,138.046875 327.412109,138.453125 L327.412109,138.453125 L329.240234,138.863281 C330.310547,139.097656 331.095703,139.367188 331.595703,139.671875 C332.095703,139.984375 332.345703,140.425781 332.345703,140.996094 C332.345703,141.972656 331.841797,142.640625 330.833984,143 C330.302734,143.1875 329.611328,143.28125 328.759766,143.28125 C327.337891,143.28125 326.333984,142.925781 325.748047,142.214844 C325.427734,141.824219 325.212891,141.234375 325.103516,140.445312 L325.103516,140.445312 L321.658203,140.445312 C321.658203,142.242188 322.302734,143.654297 323.591797,144.681641 C324.880859,145.708984 326.650391,146.222656 328.900391,146.222656 Z M342.204102,145.959534 L342.494141,145.953125 L344.076172,145.894531 L344.076172,143.398438 C343.966797,143.40625 343.855469,143.412109 343.742188,143.416016 C343.628906,143.419922 343.521484,143.421875 343.419922,143.421875 C342.740234,143.421875 342.333984,143.357422 342.201172,143.228516 C342.068359,143.099609 342.001953,142.773438 342.001953,142.25 L342.001953,142.25 L342.001953,135.5 L344.076172,135.5 L344.076172,133.121094 L342.001953,133.121094 L342.001953,129.558594 L338.697266,129.558594 L338.697266,133.121094 L336.916016,133.121094 L336.916016,135.5 L338.697266,135.5 L338.697266,143.363281 C338.697266,144.160156 338.884766,144.75 339.259766,145.132812 C339.837891,145.734375 340.916016,146.007812 342.494141,145.953125 L342.204102,145.959534 Z M349.349609,146.175781 C350.255859,146.175781 351.068359,145.96875 351.787109,145.554688 C352.388672,145.203125 352.919922,144.777344 353.380859,144.277344 C353.404297,144.566406 353.435547,144.824219 353.474609,145.050781 C353.513672,145.277344 353.583984,145.519531 353.685547,145.777344 L353.685547,145.777344 L357.318359,145.777344 L357.318359,145.285156 C357.099609,145.183594 356.935547,145.054688 356.826172,144.898438 C356.716797,144.742188 356.650391,144.445312 356.626953,144.007812 C356.611328,143.429688 356.603516,142.9375 356.603516,142.53125 L356.603516,142.53125 L356.603516,136.671875 C356.603516,135.132812 356.060547,134.085938 354.974609,133.53125 C353.888672,132.976562 352.646484,132.699219 351.248047,132.699219 C349.099609,132.699219 347.583984,133.261719 346.701172,134.386719 C346.146484,135.105469 345.833984,136.023438 345.763672,137.140625 L345.763672,137.140625 L348.986328,137.140625 C349.064453,136.648438 349.220703,136.257812 349.455078,135.96875 C349.783203,135.578125 350.341797,135.382812 351.130859,135.382812 C351.833984,135.382812 352.367188,135.482422 352.730469,135.681641 C353.09375,135.880859 353.275391,136.242188 353.275391,136.765625 C353.275391,137.195312 353.037109,137.511719 352.560547,137.714844 C352.294922,137.832031 351.853516,137.929688 351.236328,138.007812 L351.236328,138.007812 L350.099609,138.148438 C348.810547,138.3125 347.833984,138.585938 347.169922,138.96875 C345.958984,139.671875 345.353516,140.808594 345.353516,142.378906 C345.353516,143.589844 345.730469,144.525391 346.484375,145.185547 C347.238281,145.845703 348.193359,146.175781 349.349609,146.175781 Z M350.333984,143.75 C349.880859,143.75 349.496094,143.623047 349.179688,143.369141 C348.863281,143.115234 348.705078,142.703125 348.705078,142.132812 C348.705078,141.492188 348.962891,141.019531 349.478516,140.714844 C349.783203,140.535156 350.287109,140.382812 350.990234,140.257812 L350.990234,140.257812 L351.740234,140.117188 C352.115234,140.046875 352.410156,139.970703 352.625,139.888672 C352.839844,139.806641 353.052734,139.699219 353.263672,139.566406 L353.263672,139.566406 L353.263672,140.808594 C353.240234,141.925781 352.925781,142.695312 352.320312,143.117188 C351.714844,143.539062 351.052734,143.75 350.333984,143.75 Z M362.919922,145.777344 L362.919922,138.863281 C362.919922,138.074219 363.029297,137.425781 363.248047,136.917969 C363.669922,135.957031 364.447266,135.476562 365.580078,135.476562 C366.501953,135.476562 367.126953,135.804688 367.455078,136.460938 C367.634766,136.820312 367.724609,137.335938 367.724609,138.007812 L367.724609,138.007812 L367.724609,145.777344 L371.146484,145.777344 L371.146484,137.175781 C371.146484,135.574219 370.726562,134.427734 369.886719,133.736328 C369.046875,133.044922 367.966797,132.699219 366.646484,132.699219 C365.591797,132.699219 364.720703,132.957031 364.033203,133.472656 C363.650391,133.761719 363.244141,134.234375 362.814453,134.890625 L362.814453,134.890625 L362.814453,133.027344 L359.591797,133.027344 L359.591797,145.777344 L362.919922,145.777344 Z M378.705078,146.175781 C379.611328,146.175781 380.369141,146.003906 380.978516,145.660156 C381.587891,145.316406 382.130859,144.765625 382.607422,144.007812 L382.607422,144.007812 L382.607422,145.777344 L385.853516,145.777344 L385.853516,128.527344 L382.466797,128.527344 L382.466797,134.621094 C382.091797,134.019531 381.603516,133.548828 381.001953,133.208984 C380.400391,132.869141 379.712891,132.699219 378.939453,132.699219 C377.259766,132.699219 375.917969,133.324219 374.914062,134.574219 C373.910156,135.824219 373.408203,137.539062 373.408203,139.71875 C373.408203,141.609375 373.917969,143.158203 374.9375,144.365234 C375.957031,145.572266 377.212891,146.175781 378.705078,146.175781 Z M379.666016,143.363281 C378.720703,143.363281 378.015625,143.009766 377.550781,142.302734 C377.085938,141.595703 376.853516,140.652344 376.853516,139.472656 C376.853516,138.378906 377.082031,137.462891 377.539062,136.724609 C377.996094,135.986328 378.712891,135.617188 379.689453,135.617188 C380.330078,135.617188 380.892578,135.820312 381.376953,136.226562 C382.166016,136.898438 382.560547,138.015625 382.560547,139.578125 C382.560547,140.695312 382.314453,141.605469 381.822266,142.308594 C381.330078,143.011719 380.611328,143.363281 379.666016,143.363281 Z M395.826172,146.117188 C397.505859,146.117188 398.814453,145.464844 399.751953,144.160156 C400.689453,142.855469 401.158203,141.210938 401.158203,139.226562 C401.158203,137.3125 400.683594,135.75 399.734375,134.539062 C398.785156,133.328125 397.470703,132.722656 395.791016,132.722656 C394.861328,132.722656 394.095703,132.917969 393.494141,133.308594 C392.986328,133.621094 392.521484,134.074219 392.099609,134.667969 L392.099609,134.667969 L392.099609,128.527344 L388.771484,128.527344 L388.771484,145.777344 L392.041016,145.777344 L392.041016,144.171875 C392.486328,144.796875 392.900391,145.234375 393.283203,145.484375 C393.923828,145.90625 394.771484,146.117188 395.826172,146.117188 Z M394.935547,143.363281 C393.943359,143.363281 393.205078,143.003906 392.720703,142.285156 C392.236328,141.566406 391.994141,140.660156 391.994141,139.566406 C391.994141,138.636719 392.111328,137.878906 392.345703,137.292969 C392.798828,136.191406 393.630859,135.640625 394.841797,135.640625 C396.037109,135.640625 396.857422,136.203125 397.302734,137.328125 C397.537109,137.921875 397.654297,138.671875 397.654297,139.578125 C397.654297,140.710938 397.416016,141.625 396.939453,142.320312 C396.462891,143.015625 395.794922,143.363281 394.935547,143.363281 Z M405.587891,150.945312 C407.064453,150.945312 408.048828,150.654297 408.541016,150.072266 C409.033203,149.490234 409.701172,147.988281 410.544922,145.566406 L410.544922,145.566406 L414.927734,133.003906 L411.376953,133.003906 L408.740234,142.425781 L405.951172,133.003906 L402.236328,133.003906 L406.923828,146.339844 C406.955078,146.433594 406.886719,146.691406 406.71875,147.113281 C406.550781,147.535156 406.369141,147.8125 406.173828,147.945312 C405.970703,148.085938 405.720703,148.175781 405.423828,148.214844 C405.126953,148.253906 404.814453,148.265625 404.486328,148.25 L404.486328,148.25 L404.064453,148.226562 L404.064453,150.898438 C404.423828,150.921875 404.693359,150.935547 404.873047,150.939453 C404.980859,150.941797 405.109766,150.943438 405.259766,150.944375 L405.587891,150.945312 Z" id="Standby" fill="#9E9E9E" fill-rule="nonzero"></path>
        <path d="M553.103516,145.378906 L553.103516,128.105469 L549.517578,128.105469 L549.517578,145.378906 L553.103516,145.378906 Z M559.548828,145.378906 L559.548828,138.464844 C559.548828,137.675781 559.658203,137.027344 559.876953,136.519531 C560.298828,135.558594 561.076172,135.078125 562.208984,135.078125 C563.130859,135.078125 563.755859,135.40625 564.083984,136.0625 C564.263672,136.421875 564.353516,136.9375 564.353516,137.609375 L564.353516,137.609375 L564.353516,145.378906 L567.775391,145.378906 L567.775391,136.777344 C567.775391,135.175781 567.355469,134.029297 566.515625,133.337891 C565.675781,132.646484 564.595703,132.300781 563.275391,132.300781 C562.220703,132.300781 561.349609,132.558594 560.662109,133.074219 C560.279297,133.363281 559.873047,133.835938 559.443359,134.492188 L559.443359,134.492188 L559.443359,132.628906 L556.220703,132.628906 L556.220703,145.378906 L559.548828,145.378906 Z M574.833008,145.561096 L575.123047,145.554688 L576.705078,145.496094 L576.705078,143 C576.595703,143.007812 576.484375,143.013672 576.371094,143.017578 C576.257812,143.021484 576.150391,143.023438 576.048828,143.023438 C575.369141,143.023438 574.962891,142.958984 574.830078,142.830078 C574.697266,142.701172 574.630859,142.375 574.630859,141.851562 L574.630859,141.851562 L574.630859,135.101562 L576.705078,135.101562 L576.705078,132.722656 L574.630859,132.722656 L574.630859,129.160156 L571.326172,129.160156 L571.326172,132.722656 L569.544922,132.722656 L569.544922,135.101562 L571.326172,135.101562 L571.326172,142.964844 C571.326172,143.761719 571.513672,144.351562 571.888672,144.734375 C572.466797,145.335938 573.544922,145.609375 575.123047,145.554688 L574.833008,145.561096 Z M584.005859,145.800781 C585.974609,145.800781 587.505859,145.179688 588.599609,143.9375 C589.302734,143.15625 589.697266,142.386719 589.783203,141.628906 L589.783203,141.628906 L586.373047,141.628906 C586.193359,142.003906 585.986328,142.296875 585.751953,142.507812 C585.322266,142.898438 584.763672,143.09375 584.076172,143.09375 C583.427734,143.09375 582.873047,142.933594 582.412109,142.613281 C581.654297,142.097656 581.251953,141.199219 581.205078,139.917969 L581.205078,139.917969 L589.947266,139.917969 C589.962891,138.816406 589.927734,137.972656 589.841797,137.386719 C589.693359,136.386719 589.369141,135.507812 588.869141,134.75 C588.314453,133.890625 587.611328,133.261719 586.759766,132.863281 C585.908203,132.464844 584.951172,132.265625 583.888672,132.265625 C582.099609,132.265625 580.644531,132.855469 579.523438,134.035156 C578.402344,135.214844 577.841797,136.910156 577.841797,139.121094 C577.841797,141.480469 578.462891,143.183594 579.705078,144.230469 C580.947266,145.277344 582.380859,145.800781 584.005859,145.800781 Z M586.478516,137.714844 L581.287109,137.714844 C581.396484,136.886719 581.664062,136.230469 582.089844,135.746094 C582.515625,135.261719 583.115234,135.019531 583.888672,135.019531 C584.599609,135.019531 585.195312,135.248047 585.675781,135.705078 C586.15625,136.162109 586.423828,136.832031 586.478516,137.714844 L586.478516,137.714844 Z M595.525391,145.378906 L595.525391,139.273438 C595.525391,138.25 595.654297,137.492188 595.912109,137 C596.373047,136.125 597.275391,135.6875 598.619141,135.6875 C598.720703,135.6875 598.853516,135.691406 599.017578,135.699219 C599.181641,135.707031 599.369141,135.722656 599.580078,135.746094 L599.580078,135.746094 L599.580078,132.324219 C599.431641,132.316406 599.335938,132.310547 599.292969,132.306641 C599.25,132.302734 599.197266,132.300781 599.134766,132.300781 C598.134766,132.300781 597.322266,132.5625 596.697266,133.085938 C596.314453,133.398438 595.865234,133.980469 595.349609,134.832031 L595.349609,134.832031 L595.349609,132.605469 L592.162109,132.605469 L592.162109,145.378906 L595.525391,145.378906 Z M604.666016,145.777344 C605.572266,145.777344 606.384766,145.570312 607.103516,145.15625 C607.705078,144.804688 608.236328,144.378906 608.697266,143.878906 C608.720703,144.167969 608.751953,144.425781 608.791016,144.652344 C608.830078,144.878906 608.900391,145.121094 609.001953,145.378906 L609.001953,145.378906 L612.634766,145.378906 L612.634766,144.886719 C612.416016,144.785156 612.251953,144.65625 612.142578,144.5 C612.033203,144.34375 611.966797,144.046875 611.943359,143.609375 C611.927734,143.03125 611.919922,142.539062 611.919922,142.132812 L611.919922,142.132812 L611.919922,136.273438 C611.919922,134.734375 611.376953,133.6875 610.291016,133.132812 C609.205078,132.578125 607.962891,132.300781 606.564453,132.300781 C604.416016,132.300781 602.900391,132.863281 602.017578,133.988281 C601.462891,134.707031 601.150391,135.625 601.080078,136.742188 L601.080078,136.742188 L604.302734,136.742188 C604.380859,136.25 604.537109,135.859375 604.771484,135.570312 C605.099609,135.179688 605.658203,134.984375 606.447266,134.984375 C607.150391,134.984375 607.683594,135.083984 608.046875,135.283203 C608.410156,135.482422 608.591797,135.84375 608.591797,136.367188 C608.591797,136.796875 608.353516,137.113281 607.876953,137.316406 C607.611328,137.433594 607.169922,137.53125 606.552734,137.609375 L606.552734,137.609375 L605.416016,137.75 C604.126953,137.914062 603.150391,138.1875 602.486328,138.570312 C601.275391,139.273438 600.669922,140.410156 600.669922,141.980469 C600.669922,143.191406 601.046875,144.126953 601.800781,144.787109 C602.554688,145.447266 603.509766,145.777344 604.666016,145.777344 Z M605.650391,143.351562 C605.197266,143.351562 604.8125,143.224609 604.496094,142.970703 C604.179688,142.716797 604.021484,142.304688 604.021484,141.734375 C604.021484,141.09375 604.279297,140.621094 604.794922,140.316406 C605.099609,140.136719 605.603516,139.984375 606.306641,139.859375 L606.306641,139.859375 L607.056641,139.71875 C607.431641,139.648438 607.726562,139.572266 607.941406,139.490234 C608.15625,139.408203 608.369141,139.300781 608.580078,139.167969 L608.580078,139.167969 L608.580078,140.410156 C608.556641,141.527344 608.242188,142.296875 607.636719,142.71875 C607.03125,143.140625 606.369141,143.351562 605.650391,143.351562 Z M620.146484,145.824219 C622.201172,145.824219 623.751953,145.09375 624.798828,143.632812 C625.455078,142.726562 625.822266,141.765625 625.900391,140.75 L625.900391,140.75 L622.490234,140.75 C622.419922,141.421875 622.220703,141.96875 621.892578,142.390625 C621.564453,142.8125 621.009766,143.023438 620.228516,143.023438 C619.126953,143.023438 618.376953,142.492188 617.978516,141.429688 C617.759766,140.859375 617.650391,140.105469 617.650391,139.167969 C617.650391,138.183594 617.759766,137.394531 617.978516,136.800781 C618.392578,135.683594 619.162109,135.125 620.287109,135.125 C621.076172,135.125 621.658203,135.382812 622.033203,135.898438 C622.291016,136.28125 622.451172,136.710938 622.513672,137.1875 L622.513672,137.1875 L625.935547,137.1875 C625.748047,135.367188 625.144531,134.097656 624.125,133.378906 C623.105469,132.660156 621.794922,132.300781 620.193359,132.300781 C618.310547,132.300781 616.833984,132.910156 615.763672,134.128906 C614.693359,135.347656 614.158203,137.054688 614.158203,139.25 C614.158203,141.195312 614.642578,142.777344 615.611328,143.996094 C616.580078,145.214844 618.091797,145.824219 620.146484,145.824219 Z M632.208008,145.561096 L632.498047,145.554688 L634.080078,145.496094 L634.080078,143 C633.970703,143.007812 633.859375,143.013672 633.746094,143.017578 C633.632812,143.021484 633.525391,143.023438 633.423828,143.023438 C632.744141,143.023438 632.337891,142.958984 632.205078,142.830078 C632.072266,142.701172 632.005859,142.375 632.005859,141.851562 L632.005859,141.851562 L632.005859,135.101562 L634.080078,135.101562 L634.080078,132.722656 L632.005859,132.722656 L632.005859,129.160156 L628.701172,129.160156 L628.701172,132.722656 L626.919922,132.722656 L626.919922,135.101562 L628.701172,135.101562 L628.701172,142.964844 C628.701172,143.761719 628.888672,144.351562 629.263672,144.734375 C629.841797,145.335938 630.919922,145.609375 632.498047,145.554688 L632.208008,145.561096 Z M639.658203,131.082031 L639.658203,128 L636.271484,128 L636.271484,131.082031 L639.658203,131.082031 Z M639.658203,145.378906 L639.658203,132.605469 L636.271484,132.605469 L636.271484,145.378906 L639.658203,145.378906 Z M649.748047,145.378906 L654.353516,132.605469 L650.767578,132.605469 L648.048828,142.027344 L645.388672,132.605469 L641.638672,132.605469 L646.220703,145.378906 L649.748047,145.378906 Z M661.396484,145.800781 C663.365234,145.800781 664.896484,145.179688 665.990234,143.9375 C666.693359,143.15625 667.087891,142.386719 667.173828,141.628906 L667.173828,141.628906 L663.763672,141.628906 C663.583984,142.003906 663.376953,142.296875 663.142578,142.507812 C662.712891,142.898438 662.154297,143.09375 661.466797,143.09375 C660.818359,143.09375 660.263672,142.933594 659.802734,142.613281 C659.044922,142.097656 658.642578,141.199219 658.595703,139.917969 L658.595703,139.917969 L667.337891,139.917969 C667.353516,138.816406 667.318359,137.972656 667.232422,137.386719 C667.083984,136.386719 666.759766,135.507812 666.259766,134.75 C665.705078,133.890625 665.001953,133.261719 664.150391,132.863281 C663.298828,132.464844 662.341797,132.265625 661.279297,132.265625 C659.490234,132.265625 658.035156,132.855469 656.914062,134.035156 C655.792969,135.214844 655.232422,136.910156 655.232422,139.121094 C655.232422,141.480469 655.853516,143.183594 657.095703,144.230469 C658.337891,145.277344 659.771484,145.800781 661.396484,145.800781 Z M663.869141,137.714844 L658.677734,137.714844 C658.787109,136.886719 659.054688,136.230469 659.480469,135.746094 C659.90625,135.261719 660.505859,135.019531 661.279297,135.019531 C661.990234,135.019531 662.585938,135.248047 663.066406,135.705078 C663.546875,136.162109 663.814453,136.832031 663.869141,137.714844 L663.869141,137.714844 Z" id="Interactive" fill="#9E9E9E" fill-rule="nonzero"></path>
        <path d="M774.527344,145.800781 L774.527344,139.027344 L778.253906,139.027344 C779.316406,139.027344 780.041016,139.210938 780.427734,139.578125 C780.814453,139.945312 781.015625,140.679688 781.03125,141.78125 L781.03125,141.78125 L781.054688,143.386719 C781.0625,143.894531 781.113281,144.390625 781.207031,144.875 C781.253906,145.109375 781.332031,145.417969 781.441406,145.800781 L781.441406,145.800781 L785.414062,145.800781 L785.414062,145.367188 C785.070312,145.15625 784.851562,144.828125 784.757812,144.382812 C784.695312,144.101562 784.664062,143.566406 784.664062,142.777344 L784.664062,142.777344 L784.664062,141.617188 C784.664062,140.40625 784.498047,139.505859 784.166016,138.916016 C783.833984,138.326172 783.269531,137.871094 782.472656,137.550781 C783.425781,137.222656 784.109375,136.662109 784.523438,135.869141 C784.9375,135.076172 785.144531,134.269531 785.144531,133.449219 C785.144531,132.769531 785.035156,132.164062 784.816406,131.632812 C784.597656,131.101562 784.300781,130.617188 783.925781,130.179688 C783.472656,129.648438 782.919922,129.246094 782.267578,128.972656 C781.615234,128.699219 780.683594,128.550781 779.472656,128.527344 L779.472656,128.527344 L771,128.527344 L771,145.800781 L774.527344,145.800781 Z M778.617188,136.167969 L774.527344,136.167969 L774.527344,131.527344 L778.722656,131.527344 C779.503906,131.527344 780.089844,131.628906 780.480469,131.832031 C781.175781,132.191406 781.523438,132.894531 781.523438,133.941406 C781.523438,134.910156 781.164062,135.558594 780.445312,135.886719 C780.039062,136.074219 779.429688,136.167969 778.617188,136.167969 L778.617188,136.167969 Z M793.136719,146.222656 C795.105469,146.222656 796.636719,145.601562 797.730469,144.359375 C798.433594,143.578125 798.828125,142.808594 798.914062,142.050781 L798.914062,142.050781 L795.503906,142.050781 C795.324219,142.425781 795.117188,142.71875 794.882812,142.929688 C794.453125,143.320312 793.894531,143.515625 793.207031,143.515625 C792.558594,143.515625 792.003906,143.355469 791.542969,143.035156 C790.785156,142.519531 790.382812,141.621094 790.335938,140.339844 L790.335938,140.339844 L799.078125,140.339844 C799.09375,139.238281 799.058594,138.394531 798.972656,137.808594 C798.824219,136.808594 798.5,135.929688 798,135.171875 C797.445312,134.3125 796.742188,133.683594 795.890625,133.285156 C795.039062,132.886719 794.082031,132.6875 793.019531,132.6875 C791.230469,132.6875 789.775391,133.277344 788.654297,134.457031 C787.533203,135.636719 786.972656,137.332031 786.972656,139.542969 C786.972656,141.902344 787.59375,143.605469 788.835938,144.652344 C790.078125,145.699219 791.511719,146.222656 793.136719,146.222656 Z M795.609375,138.136719 L790.417969,138.136719 C790.527344,137.308594 790.794922,136.652344 791.220703,136.167969 C791.646484,135.683594 792.246094,135.441406 793.019531,135.441406 C793.730469,135.441406 794.326172,135.669922 794.806641,136.126953 C795.287109,136.583984 795.554688,137.253906 795.609375,138.136719 L795.609375,138.136719 Z M804.457031,146.199219 C805.363281,146.199219 806.175781,145.992188 806.894531,145.578125 C807.496094,145.226562 808.027344,144.800781 808.488281,144.300781 C808.511719,144.589844 808.542969,144.847656 808.582031,145.074219 C808.621094,145.300781 808.691406,145.542969 808.792969,145.800781 L808.792969,145.800781 L812.425781,145.800781 L812.425781,145.308594 C812.207031,145.207031 812.042969,145.078125 811.933594,144.921875 C811.824219,144.765625 811.757812,144.46875 811.734375,144.03125 C811.71875,143.453125 811.710938,142.960938 811.710938,142.554688 L811.710938,142.554688 L811.710938,136.695312 C811.710938,135.15625 811.167969,134.109375 810.082031,133.554688 C808.996094,133 807.753906,132.722656 806.355469,132.722656 C804.207031,132.722656 802.691406,133.285156 801.808594,134.410156 C801.253906,135.128906 800.941406,136.046875 800.871094,137.164062 L800.871094,137.164062 L804.09375,137.164062 C804.171875,136.671875 804.328125,136.28125 804.5625,135.992188 C804.890625,135.601562 805.449219,135.40625 806.238281,135.40625 C806.941406,135.40625 807.474609,135.505859 807.837891,135.705078 C808.201172,135.904297 808.382812,136.265625 808.382812,136.789062 C808.382812,137.21875 808.144531,137.535156 807.667969,137.738281 C807.402344,137.855469 806.960938,137.953125 806.34375,138.03125 L806.34375,138.03125 L805.207031,138.171875 C803.917969,138.335938 802.941406,138.609375 802.277344,138.992188 C801.066406,139.695312 800.460938,140.832031 800.460938,142.402344 C800.460938,143.613281 800.837891,144.548828 801.591797,145.208984 C802.345703,145.869141 803.300781,146.199219 804.457031,146.199219 Z M805.441406,143.773438 C804.988281,143.773438 804.603516,143.646484 804.287109,143.392578 C803.970703,143.138672 803.8125,142.726562 803.8125,142.15625 C803.8125,141.515625 804.070312,141.042969 804.585938,140.738281 C804.890625,140.558594 805.394531,140.40625 806.097656,140.28125 L806.097656,140.28125 L806.847656,140.140625 C807.222656,140.070312 807.517578,139.994141 807.732422,139.912109 C807.947266,139.830078 808.160156,139.722656 808.371094,139.589844 L808.371094,139.589844 L808.371094,140.832031 C808.347656,141.949219 808.033203,142.71875 807.427734,143.140625 C806.822266,143.5625 806.160156,143.773438 805.441406,143.773438 Z M819.9375,146.246094 C821.992188,146.246094 823.542969,145.515625 824.589844,144.054688 C825.246094,143.148438 825.613281,142.1875 825.691406,141.171875 L825.691406,141.171875 L822.28125,141.171875 C822.210938,141.84375 822.011719,142.390625 821.683594,142.8125 C821.355469,143.234375 820.800781,143.445312 820.019531,143.445312 C818.917969,143.445312 818.167969,142.914062 817.769531,141.851562 C817.550781,141.28125 817.441406,140.527344 817.441406,139.589844 C817.441406,138.605469 817.550781,137.816406 817.769531,137.222656 C818.183594,136.105469 818.953125,135.546875 820.078125,135.546875 C820.867188,135.546875 821.449219,135.804688 821.824219,136.320312 C822.082031,136.703125 822.242188,137.132812 822.304688,137.609375 L822.304688,137.609375 L825.726562,137.609375 C825.539062,135.789062 824.935547,134.519531 823.916016,133.800781 C822.896484,133.082031 821.585938,132.722656 819.984375,132.722656 C818.101562,132.722656 816.625,133.332031 815.554688,134.550781 C814.484375,135.769531 813.949219,137.476562 813.949219,139.671875 C813.949219,141.617188 814.433594,143.199219 815.402344,144.417969 C816.371094,145.636719 817.882812,146.246094 819.9375,146.246094 Z M831.375,145.800781 L831.375,138.886719 C831.375,137.792969 831.603516,136.951172 832.060547,136.361328 C832.517578,135.771484 833.1875,135.476562 834.070312,135.476562 C834.921875,135.476562 835.5,135.773438 835.804688,136.367188 C836.039062,136.789062 836.15625,137.34375 836.15625,138.03125 L836.15625,138.03125 L836.15625,145.800781 L839.566406,145.800781 L839.566406,138.300781 C839.566406,137.160156 839.527344,136.337891 839.449219,135.833984 C839.371094,135.330078 839.15625,134.839844 838.804688,134.363281 C838.390625,133.800781 837.861328,133.382812 837.216797,133.109375 C836.572266,132.835938 835.855469,132.699219 835.066406,132.699219 C834.363281,132.699219 833.693359,132.845703 833.056641,133.138672 C832.419922,133.431641 831.859375,133.949219 831.375,134.691406 L831.375,134.691406 L831.375,128.585938 L828.046875,128.585938 L828.046875,145.800781 L831.375,145.800781 Z M846.117188,131.503906 L846.117188,128.421875 L842.730469,128.421875 L842.730469,131.503906 L846.117188,131.503906 Z M846.117188,145.800781 L846.117188,133.027344 L842.730469,133.027344 L842.730469,145.800781 L846.117188,145.800781 Z M852.703125,145.800781 L852.703125,138.886719 C852.703125,138.097656 852.8125,137.449219 853.03125,136.941406 C853.453125,135.980469 854.230469,135.5 855.363281,135.5 C856.285156,135.5 856.910156,135.828125 857.238281,136.484375 C857.417969,136.84375 857.507812,137.359375 857.507812,138.03125 L857.507812,138.03125 L857.507812,145.800781 L860.929688,145.800781 L860.929688,137.199219 C860.929688,135.597656 860.509766,134.451172 859.669922,133.759766 C858.830078,133.068359 857.75,132.722656 856.429688,132.722656 C855.375,132.722656 854.503906,132.980469 853.816406,133.496094 C853.433594,133.785156 853.027344,134.257812 852.597656,134.914062 L852.597656,134.914062 L852.597656,133.050781 L849.375,133.050781 L849.375,145.800781 L852.703125,145.800781 Z M869.238281,151.027344 C871.941406,151.027344 873.769531,150.308594 874.722656,148.871094 C875.277344,148.035156 875.554688,146.792969 875.554688,145.144531 L875.554688,145.144531 L875.554688,133.027344 L872.308594,133.027344 L872.308594,134.867188 C871.808594,133.96875 871.152344,133.351562 870.339844,133.015625 C869.863281,132.820312 869.304688,132.722656 868.664062,132.722656 C866.929688,132.722656 865.589844,133.369141 864.644531,134.662109 C863.699219,135.955078 863.226562,137.550781 863.226562,139.449219 C863.226562,141.417969 863.716797,142.978516 864.697266,144.130859 C865.677734,145.283203 866.988281,145.859375 868.628906,145.859375 C869.691406,145.859375 870.554688,145.605469 871.21875,145.097656 C871.585938,144.824219 871.929688,144.414062 872.25,143.867188 L872.25,143.867188 L872.25,144.6875 C872.25,145.90625 872.117188,146.773438 871.851562,147.289062 C871.445312,148.09375 870.640625,148.496094 869.4375,148.496094 C868.585938,148.496094 867.980469,148.34375 867.621094,148.039062 C867.410156,147.867188 867.257812,147.585938 867.164062,147.195312 L867.164062,147.195312 L863.53125,147.195312 C863.640625,148.46875 864.210938,149.425781 865.242188,150.066406 C866.273438,150.707031 867.605469,151.027344 869.238281,151.027344 Z M869.496094,143.058594 C868.324219,143.058594 867.511719,142.519531 867.058594,141.441406 C866.808594,140.863281 866.683594,140.203125 866.683594,139.460938 C866.683594,138.601562 866.800781,137.878906 867.035156,137.292969 C867.480469,136.191406 868.289062,135.640625 869.460938,135.640625 C870.320312,135.640625 871.005859,135.957031 871.517578,136.589844 C872.029297,137.222656 872.285156,138.144531 872.285156,139.355469 C872.285156,140.644531 872.015625,141.583984 871.476562,142.173828 C870.9375,142.763672 870.277344,143.058594 869.496094,143.058594 Z M893.25,146.28125 C895.71875,146.28125 897.605469,145.609375 898.910156,144.265625 C900.652344,142.617188 901.523438,140.242188 901.523438,137.140625 C901.523438,133.976562 900.652344,131.601562 898.910156,130.015625 C897.605469,128.671875 895.71875,128 893.25,128 C890.78125,128 888.894531,128.671875 887.589844,130.015625 C885.839844,131.601562 884.964844,133.976562 884.964844,137.140625 C884.964844,140.242188 885.839844,142.617188 887.589844,144.265625 C888.894531,145.609375 890.78125,146.28125 893.25,146.28125 Z M893.25,143.222656 C891.820312,143.222656 890.679688,142.695312 889.828125,141.640625 C888.976562,140.585938 888.550781,139.085938 888.550781,137.140625 C888.550781,135.195312 888.976562,133.695312 889.828125,132.640625 C890.679688,131.585938 891.820312,131.058594 893.25,131.058594 C894.679688,131.058594 895.814453,131.587891 896.654297,132.646484 C897.494141,133.705078 897.914062,135.203125 897.914062,137.140625 C897.914062,139.085938 897.494141,140.585938 896.654297,141.640625 C895.814453,142.695312 894.679688,143.222656 893.25,143.222656 Z M908.285156,146.082031 C908.941406,146.082031 909.513672,145.996094 910.001953,145.824219 C910.490234,145.652344 910.996094,145.332031 911.519531,144.863281 C911.691406,144.714844 911.839844,144.542969 911.964844,144.347656 C912.089844,144.152344 912.167969,144.035156 912.199219,143.996094 L912.199219,143.996094 L912.199219,145.800781 L915.445312,145.800781 L915.445312,133.027344 L912.058594,133.027344 L912.058594,139.976562 C912.058594,140.796875 911.949219,141.457031 911.730469,141.957031 C911.308594,142.878906 910.527344,143.339844 909.386719,143.339844 C908.496094,143.339844 907.898438,143.015625 907.59375,142.367188 C907.421875,142 907.335938,141.453125 907.335938,140.726562 L907.335938,140.726562 L907.335938,133.027344 L903.914062,133.027344 L903.914062,140.726562 C903.914062,142.1875 904.097656,143.292969 904.464844,144.042969 C905.121094,145.402344 906.394531,146.082031 908.285156,146.082031 Z M922.643555,145.982971 L922.933594,145.976562 L924.515625,145.917969 L924.515625,143.421875 C924.40625,143.429688 924.294922,143.435547 924.181641,143.439453 C924.068359,143.443359 923.960938,143.445312 923.859375,143.445312 C923.179688,143.445312 922.773438,143.380859 922.640625,143.251953 C922.507812,143.123047 922.441406,142.796875 922.441406,142.273438 L922.441406,142.273438 L922.441406,135.523438 L924.515625,135.523438 L924.515625,133.144531 L922.441406,133.144531 L922.441406,129.582031 L919.136719,129.582031 L919.136719,133.144531 L917.355469,133.144531 L917.355469,135.523438 L919.136719,135.523438 L919.136719,143.386719 C919.136719,144.183594 919.324219,144.773438 919.699219,145.15625 C920.277344,145.757812 921.355469,146.03125 922.933594,145.976562 L922.643555,145.982971 Z" id="ReachingOut" fill="#9E9E9E" fill-rule="nonzero"></path>
    </g>
</svg>