<?xml version="1.0" encoding="UTF-8"?>
<svg width="760px" height="325px" viewBox="0 0 760 325" version="1.1" xmlns="http://www.w3.org/2000/svg" xmlns:xlink="http://www.w3.org/1999/xlink">
    <title>consistency-example</title>
    <g id="consistency-example" stroke="none" stroke-width="1" fill="none" fill-rule="evenodd">
        <rect id="Rectangle" fill="#EEEEEE" x="0" y="0" width="760" height="325" rx="8"></rect>
        <line x1="96" y1="113" x2="664" y2="113" id="Line-2" stroke="#BDBDBD" stroke-linecap="square"></line>
        <line x1="96" y1="181" x2="664" y2="181" id="Line-2-Copy" stroke="#BDBDBD" stroke-linecap="square"></line>
        <path d="M105.386719,83.4960938 L105.386719,79.4882812 L101.953125,79.4882812 L101.953125,83.4960938 L105.386719,83.4960938 Z M109.652344,99 L109.652344,96.3632812 L105.386719,96.3632812 L105.386719,85.875 L98.5898438,85.875 L98.5898438,88.5117188 L101.953125,88.5117188 L101.953125,96.3632812 L97.6757812,96.3632812 L97.6757812,99 L109.652344,99 Z M115.875,99 L115.875,91.4882812 C115.875,90.5039062 116.052734,89.734375 116.408203,89.1796875 C116.763672,88.625 117.25,88.3476562 117.867188,88.3476562 C118.476562,88.3476562 118.916016,88.5527344 119.185547,88.9628906 C119.455078,89.3730469 119.589844,90.0546875 119.589844,91.0078125 L119.589844,91.0078125 L119.589844,99 L123,99 L123,90.4804688 C123,88.8476562 122.683594,87.6191406 122.050781,86.7949219 C121.417969,85.9707031 120.480469,85.5585938 119.238281,85.5585938 C118.410156,85.5585938 117.703125,85.7578125 117.117188,86.15625 C116.53125,86.5546875 116.117188,87.1171875 115.875,87.84375 L115.875,87.84375 L115.875,85.875 L112.464844,85.875 L112.464844,99 L115.875,99 Z M130.078125,103.992188 L130.078125,97.1484375 C130.5,97.8828125 130.990234,98.4316406 131.548828,98.7949219 C132.107422,99.1582031 132.738281,99.3398438 133.441406,99.3398438 C134.996094,99.3398438 136.193359,98.7460938 137.033203,97.5585938 C137.873047,96.3710938 138.292969,94.6679688 138.292969,92.4492188 C138.292969,90.2617188 137.878906,88.5664062 137.050781,87.3632812 C136.222656,86.1601562 135.058594,85.5585938 133.558594,85.5585938 C132.769531,85.5585938 132.082031,85.75 131.496094,86.1328125 C130.910156,86.515625 130.4375,87.0859375 130.078125,87.84375 L130.078125,87.84375 L130.078125,85.875 L126.65625,85.875 L126.65625,103.992188 L130.078125,103.992188 Z M132.480469,96.4804688 C131.738281,96.4804688 131.152344,96.1210938 130.722656,95.4023438 C130.292969,94.6835938 130.078125,93.6914062 130.078125,92.4257812 C130.078125,91.1601562 130.292969,90.1679688 130.722656,89.4492188 C131.152344,88.7304688 131.738281,88.3710938 132.480469,88.3710938 C133.222656,88.3710938 133.804688,88.7304688 134.226562,89.4492188 C134.648438,90.1679688 134.859375,91.1601562 134.859375,92.4257812 C134.859375,93.6914062 134.648438,94.6835938 134.226562,95.4023438 C133.804688,96.1210938 133.222656,96.4804688 132.480469,96.4804688 Z M145.007812,99.3398438 C145.828125,99.3398438 146.529297,99.140625 147.111328,98.7421875 C147.693359,98.34375 148.105469,97.78125 148.347656,97.0546875 L148.347656,97.0546875 L148.347656,99 L151.78125,99 L151.78125,85.875 L148.347656,85.875 L148.347656,93.4101562 C148.347656,94.3945312 148.173828,95.1601562 147.826172,95.7070312 C147.478516,96.2539062 146.996094,96.5273438 146.378906,96.5273438 C145.761719,96.5273438 145.320312,96.3242188 145.054688,95.9179688 C144.789062,95.5117188 144.65625,94.8359375 144.65625,93.890625 L144.65625,93.890625 L144.65625,85.875 L141.222656,85.875 L141.222656,94.4179688 C141.222656,96.0429688 141.541016,97.2695312 142.177734,98.0976562 C142.814453,98.9257812 143.757812,99.3398438 145.007812,99.3398438 Z M166.371094,99 L166.371094,96.3632812 L163.734375,96.3632812 C163.070312,96.3632812 162.595703,96.2363281 162.310547,95.9824219 C162.025391,95.7285156 161.882812,95.3085938 161.882812,94.7226562 L161.882812,94.7226562 L161.882812,88.5117188 L166.371094,88.5117188 L166.371094,85.875 L161.882812,85.875 L161.882812,82.1484375 L158.449219,82.1484375 L158.449219,85.875 L155.097656,85.875 L155.097656,88.5117188 L158.449219,88.5117188 L158.449219,94.5585938 C158.449219,96.2617188 158.796875,97.4277344 159.492188,98.0566406 C160.1875,98.6855469 161.519531,99 163.488281,99 L163.488281,99 L166.371094,99 Z M192.035156,99 L196.207031,85.875 L192.726562,85.875 L189.914062,96.1171875 L187.113281,85.875 L183.632812,85.875 L187.804688,99 L192.035156,99 Z M202.980469,99.3398438 C203.761719,99.3398438 204.476562,99.1835938 205.125,98.8710938 C205.773438,98.5585938 206.304688,98.1132812 206.71875,97.5351562 L206.71875,97.5351562 L206.71875,99 L210.128906,99 L210.128906,91.5117188 C210.128906,89.2773438 209.697266,87.7265625 208.833984,86.859375 C207.970703,85.9921875 206.472656,85.5585938 204.339844,85.5585938 C203.464844,85.5585938 202.636719,85.6328125 201.855469,85.78125 C201.074219,85.9296875 200.304688,86.1601562 199.546875,86.4726562 L199.546875,86.4726562 L199.546875,89.4023438 C200.382812,88.9492188 201.185547,88.6191406 201.955078,88.4121094 C202.724609,88.2050781 203.519531,88.1015625 204.339844,88.1015625 C205.121094,88.1015625 205.712891,88.2441406 206.115234,88.5292969 C206.517578,88.8144531 206.71875,89.234375 206.71875,89.7890625 L206.71875,89.7890625 L206.71875,90.3632812 L204.339844,90.3632812 C202.261719,90.3632812 200.726562,90.7285156 199.734375,91.4589844 C198.742188,92.1894531 198.246094,93.3203125 198.246094,94.8515625 C198.246094,96.265625 198.662109,97.3671875 199.494141,98.15625 C200.326172,98.9453125 201.488281,99.3398438 202.980469,99.3398438 Z M203.859375,96.9609375 C203.257812,96.9609375 202.78125,96.7851562 202.429688,96.4335938 C202.078125,96.0820312 201.902344,95.609375 201.902344,95.015625 C201.902344,94.21875 202.15625,93.65625 202.664062,93.328125 C203.171875,93 204.066406,92.8359375 205.347656,92.8359375 L205.347656,92.8359375 L206.71875,92.8359375 L206.71875,93.0703125 C206.71875,94.296875 206.46875,95.2519531 205.96875,95.9355469 C205.46875,96.6191406 204.765625,96.9609375 203.859375,96.9609375 Z M224.414062,99 L224.414062,96.3632812 L221.671875,96.3632812 C220.90625,96.3632812 220.363281,96.1484375 220.042969,95.71875 C219.722656,95.2890625 219.5625,94.5585938 219.5625,93.5273438 L219.5625,93.5273438 L219.5625,80.765625 L212.648438,80.765625 L212.648438,83.4023438 L216.128906,83.4023438 L216.128906,93.5273438 C216.128906,95.4882812 216.484375,96.890625 217.195312,97.734375 C217.90625,98.578125 219.078125,99 220.710938,99 L220.710938,99 L224.414062,99 Z M231.703125,99.3398438 C232.523438,99.3398438 233.224609,99.140625 233.806641,98.7421875 C234.388672,98.34375 234.800781,97.78125 235.042969,97.0546875 L235.042969,97.0546875 L235.042969,99 L238.476562,99 L238.476562,85.875 L235.042969,85.875 L235.042969,93.4101562 C235.042969,94.3945312 234.869141,95.1601562 234.521484,95.7070312 C234.173828,96.2539062 233.691406,96.5273438 233.074219,96.5273438 C232.457031,96.5273438 232.015625,96.3242188 231.75,95.9179688 C231.484375,95.5117188 231.351562,94.8359375 231.351562,93.890625 L231.351562,93.890625 L231.351562,85.875 L227.917969,85.875 L227.917969,94.4179688 C227.917969,96.0429688 228.236328,97.2695312 228.873047,98.0976562 C229.509766,98.9257812 230.453125,99.3398438 231.703125,99.3398438 Z M248.34375,99.3398438 C249.265625,99.3398438 250.140625,99.2578125 250.96875,99.09375 C251.796875,98.9296875 252.609375,98.6835938 253.40625,98.3554688 L253.40625,98.3554688 L253.40625,95.203125 C252.570312,95.6953125 251.769531,96.0546875 251.003906,96.28125 C250.238281,96.5078125 249.460938,96.6210938 248.671875,96.6210938 C247.476562,96.6210938 246.578125,96.3671875 245.976562,95.859375 C245.375,95.3515625 245.070312,94.5820312 245.0625,93.5507812 L245.0625,93.5507812 L253.957031,93.5507812 L253.957031,92.15625 C253.957031,90.0625 253.419922,88.4394531 252.345703,87.2871094 C251.271484,86.1347656 249.761719,85.5585938 247.816406,85.5585938 C245.886719,85.5585938 244.363281,86.1796875 243.246094,87.421875 C242.128906,88.6640625 241.570312,90.3554688 241.570312,92.4960938 C241.570312,94.7070312 242.150391,96.4003906 243.310547,97.5761719 C244.470703,98.7519531 246.148438,99.3398438 248.34375,99.3398438 Z M245.097656,90.984375 C245.183594,90.1015625 245.460938,89.4199219 245.929688,88.9394531 C246.398438,88.4589844 247.027344,88.21875 247.816406,88.21875 C248.691406,88.21875 249.353516,88.4511719 249.802734,88.9160156 C250.251953,89.3808594 250.484375,90.0664062 250.5,90.9726562 L250.5,90.9726562 L245.097656,90.984375 Z" id="inputvalue" fill="#000000" fill-rule="nonzero"></path>
        <path d="M108.574219,167 L108.574219,164.363281 L105.9375,164.363281 C105.273438,164.363281 104.798828,164.236328 104.513672,163.982422 C104.228516,163.728516 104.085938,163.308594 104.085938,162.722656 L104.085938,162.722656 L104.085938,156.511719 L108.574219,156.511719 L108.574219,153.875 L104.085938,153.875 L104.085938,150.148438 L100.652344,150.148438 L100.652344,153.875 L97.3007812,153.875 L97.3007812,156.511719 L100.652344,156.511719 L100.652344,162.558594 C100.652344,164.261719 101,165.427734 101.695312,166.056641 C102.390625,166.685547 103.722656,167 105.691406,167 L105.691406,167 L108.574219,167 Z M114.773438,171.96875 C115.695312,171.96875 116.478516,171.685547 117.123047,171.119141 C117.767578,170.552734 118.320312,169.652344 118.78125,168.417969 L118.78125,168.417969 L124.230469,153.875 L120.621094,153.875 L117.75,162.394531 L114.75,153.875 L111.140625,153.875 L116.132812,166.636719 L115.875,167.339844 C115.539062,168.207031 115.207031,168.759766 114.878906,168.998047 C114.550781,169.236328 114.035156,169.355469 113.332031,169.355469 L113.332031,169.355469 L111.9375,169.355469 L111.9375,171.96875 L114.773438,171.96875 Z M130.078125,171.992188 L130.078125,165.148438 C130.5,165.882812 130.990234,166.431641 131.548828,166.794922 C132.107422,167.158203 132.738281,167.339844 133.441406,167.339844 C134.996094,167.339844 136.193359,166.746094 137.033203,165.558594 C137.873047,164.371094 138.292969,162.667969 138.292969,160.449219 C138.292969,158.261719 137.878906,156.566406 137.050781,155.363281 C136.222656,154.160156 135.058594,153.558594 133.558594,153.558594 C132.769531,153.558594 132.082031,153.75 131.496094,154.132812 C130.910156,154.515625 130.4375,155.085938 130.078125,155.84375 L130.078125,155.84375 L130.078125,153.875 L126.65625,153.875 L126.65625,171.992188 L130.078125,171.992188 Z M132.480469,164.480469 C131.738281,164.480469 131.152344,164.121094 130.722656,163.402344 C130.292969,162.683594 130.078125,161.691406 130.078125,160.425781 C130.078125,159.160156 130.292969,158.167969 130.722656,157.449219 C131.152344,156.730469 131.738281,156.371094 132.480469,156.371094 C133.222656,156.371094 133.804688,156.730469 134.226562,157.449219 C134.648438,158.167969 134.859375,159.160156 134.859375,160.425781 C134.859375,161.691406 134.648438,162.683594 134.226562,163.402344 C133.804688,164.121094 133.222656,164.480469 132.480469,164.480469 Z M147.199219,167.339844 C148.121094,167.339844 148.996094,167.257812 149.824219,167.09375 C150.652344,166.929688 151.464844,166.683594 152.261719,166.355469 L152.261719,166.355469 L152.261719,163.203125 C151.425781,163.695312 150.625,164.054688 149.859375,164.28125 C149.09375,164.507812 148.316406,164.621094 147.527344,164.621094 C146.332031,164.621094 145.433594,164.367188 144.832031,163.859375 C144.230469,163.351562 143.925781,162.582031 143.917969,161.550781 L143.917969,161.550781 L152.8125,161.550781 L152.8125,160.15625 C152.8125,158.0625 152.275391,156.439453 151.201172,155.287109 C150.126953,154.134766 148.617188,153.558594 146.671875,153.558594 C144.742188,153.558594 143.21875,154.179688 142.101562,155.421875 C140.984375,156.664062 140.425781,158.355469 140.425781,160.496094 C140.425781,162.707031 141.005859,164.400391 142.166016,165.576172 C143.326172,166.751953 145.003906,167.339844 147.199219,167.339844 Z M143.953125,158.984375 C144.039062,158.101562 144.316406,157.419922 144.785156,156.939453 C145.253906,156.458984 145.882812,156.21875 146.671875,156.21875 C147.546875,156.21875 148.208984,156.451172 148.658203,156.916016 C149.107422,157.380859 149.339844,158.066406 149.355469,158.972656 L149.355469,158.972656 L143.953125,158.984375 Z M175.417969,167.339844 C177.199219,167.339844 178.533203,167.001953 179.419922,166.326172 C180.306641,165.650391 180.75,164.636719 180.75,163.285156 C180.75,162.160156 180.458984,161.267578 179.876953,160.607422 C179.294922,159.947266 178.378906,159.46875 177.128906,159.171875 L177.128906,159.171875 L176.144531,158.9375 L176.015625,158.902344 C174.34375,158.511719 173.507812,158.003906 173.507812,157.378906 C173.507812,156.941406 173.703125,156.611328 174.09375,156.388672 C174.484375,156.166016 175.0625,156.054688 175.828125,156.054688 C176.515625,156.054688 177.201172,156.158203 177.884766,156.365234 C178.568359,156.572266 179.226562,156.878906 179.859375,157.285156 L179.859375,157.285156 L179.859375,154.285156 C179.164062,154.042969 178.447266,153.861328 177.708984,153.740234 C176.970703,153.619141 176.230469,153.558594 175.488281,153.558594 C173.832031,153.558594 172.546875,153.910156 171.632812,154.613281 C170.71875,155.316406 170.261719,156.300781 170.261719,157.566406 C170.261719,158.628906 170.5625,159.476562 171.164062,160.109375 C171.765625,160.742188 172.722656,161.207031 174.035156,161.503906 L174.035156,161.503906 L174.984375,161.714844 C176.085938,161.980469 176.783203,162.230469 177.076172,162.464844 C177.369141,162.699219 177.515625,163.035156 177.515625,163.472656 C177.515625,163.917969 177.308594,164.257812 176.894531,164.492188 C176.480469,164.726562 175.871094,164.84375 175.066406,164.84375 C174.332031,164.84375 173.572266,164.730469 172.787109,164.503906 C172.001953,164.277344 171.230469,163.949219 170.472656,163.519531 L170.472656,163.519531 L170.472656,166.519531 C171.324219,166.792969 172.164062,166.998047 172.992188,167.134766 C173.820312,167.271484 174.628906,167.339844 175.417969,167.339844 Z M189.914062,167.339844 C191.773438,167.339844 193.251953,166.720703 194.349609,165.482422 C195.447266,164.244141 195.996094,162.566406 195.996094,160.449219 C195.996094,158.332031 195.447266,156.654297 194.349609,155.416016 C193.251953,154.177734 191.773438,153.558594 189.914062,153.558594 C188.0625,153.558594 186.587891,154.177734 185.490234,155.416016 C184.392578,156.654297 183.84375,158.332031 183.84375,160.449219 C183.84375,162.566406 184.392578,164.244141 185.490234,165.482422 C186.587891,166.720703 188.0625,167.339844 189.914062,167.339844 Z M189.914062,164.550781 C189.09375,164.550781 188.449219,164.189453 187.980469,163.466797 C187.511719,162.744141 187.277344,161.738281 187.277344,160.449219 C187.277344,159.160156 187.511719,158.154297 187.980469,157.431641 C188.449219,156.708984 189.09375,156.347656 189.914062,156.347656 C190.742188,156.347656 191.390625,156.708984 191.859375,157.431641 C192.328125,158.154297 192.5625,159.160156 192.5625,160.449219 C192.5625,161.738281 192.328125,162.744141 191.859375,163.466797 C191.390625,164.189453 190.742188,164.550781 189.914062,164.550781 Z M200.917969,167 L200.917969,158.574219 C200.917969,157.597656 200.992188,156.945312 201.140625,156.617188 C201.289062,156.289062 201.558594,156.125 201.949219,156.125 C202.339844,156.125 202.613281,156.292969 202.769531,156.628906 C202.925781,156.964844 203.003906,157.613281 203.003906,158.574219 L203.003906,158.574219 L203.003906,167 L205.78125,167 L205.78125,158.574219 C205.78125,157.613281 205.859375,156.964844 206.015625,156.628906 C206.171875,156.292969 206.445312,156.125 206.835938,156.125 C207.226562,156.125 207.496094,156.289062 207.644531,156.617188 C207.792969,156.945312 207.867188,157.597656 207.867188,158.574219 L207.867188,158.574219 L207.867188,167 L210.679688,167 L210.679688,159.605469 C210.679688,157.136719 210.462891,155.511719 210.029297,154.730469 C209.595703,153.949219 208.8125,153.558594 207.679688,153.558594 C207.101562,153.558594 206.613281,153.691406 206.214844,153.957031 C205.816406,154.222656 205.488281,154.632812 205.230469,155.1875 C205.136719,154.734375 204.871094,154.349609 204.433594,154.033203 C203.996094,153.716797 203.511719,153.558594 202.980469,153.558594 C202.449219,153.558594 201.96875,153.708984 201.539062,154.009766 C201.109375,154.310547 200.796875,154.71875 200.601562,155.234375 L200.601562,155.234375 L200.601562,153.875 L198.105469,153.875 L198.105469,167 L200.917969,167 Z M219.445312,167.339844 C220.367188,167.339844 221.242188,167.257812 222.070312,167.09375 C222.898438,166.929688 223.710938,166.683594 224.507812,166.355469 L224.507812,166.355469 L224.507812,163.203125 C223.671875,163.695312 222.871094,164.054688 222.105469,164.28125 C221.339844,164.507812 220.5625,164.621094 219.773438,164.621094 C218.578125,164.621094 217.679688,164.367188 217.078125,163.859375 C216.476562,163.351562 216.171875,162.582031 216.164062,161.550781 L216.164062,161.550781 L225.058594,161.550781 L225.058594,160.15625 C225.058594,158.0625 224.521484,156.439453 223.447266,155.287109 C222.373047,154.134766 220.863281,153.558594 218.917969,153.558594 C216.988281,153.558594 215.464844,154.179688 214.347656,155.421875 C213.230469,156.664062 212.671875,158.355469 212.671875,160.496094 C212.671875,162.707031 213.251953,164.400391 214.412109,165.576172 C215.572266,166.751953 217.25,167.339844 219.445312,167.339844 Z M216.199219,158.984375 C216.285156,158.101562 216.5625,157.419922 217.03125,156.939453 C217.5,156.458984 218.128906,156.21875 218.917969,156.21875 C219.792969,156.21875 220.455078,156.451172 220.904297,156.916016 C221.353516,157.380859 221.585938,158.066406 221.601562,158.972656 L221.601562,158.972656 L216.199219,158.984375 Z M238.617188,167 L238.617188,164.363281 L235.980469,164.363281 C235.316406,164.363281 234.841797,164.236328 234.556641,163.982422 C234.271484,163.728516 234.128906,163.308594 234.128906,162.722656 L234.128906,162.722656 L234.128906,156.511719 L238.617188,156.511719 L238.617188,153.875 L234.128906,153.875 L234.128906,150.148438 L230.695312,150.148438 L230.695312,153.875 L227.34375,153.875 L227.34375,156.511719 L230.695312,156.511719 L230.695312,162.558594 C230.695312,164.261719 231.042969,165.427734 231.738281,166.056641 C232.433594,166.685547 233.765625,167 235.734375,167 L235.734375,167 L238.617188,167 Z M245.917969,167 L245.917969,159.488281 C245.917969,158.511719 246.09375,157.748047 246.445312,157.197266 C246.796875,156.646484 247.285156,156.371094 247.910156,156.371094 C248.519531,156.371094 248.958984,156.574219 249.228516,156.980469 C249.498047,157.386719 249.632812,158.0625 249.632812,159.007812 L249.632812,159.007812 L249.632812,167 L253.042969,167 L253.042969,158.480469 C253.042969,156.847656 252.726562,155.619141 252.09375,154.794922 C251.460938,153.970703 250.523438,153.558594 249.28125,153.558594 C248.453125,153.558594 247.746094,153.757812 247.160156,154.15625 C246.574219,154.554688 246.160156,155.117188 245.917969,155.84375 L245.917969,155.84375 L245.917969,148.765625 L242.507812,148.765625 L242.507812,167 L245.917969,167 Z M264.328125,151.496094 L264.328125,147.488281 L260.894531,147.488281 L260.894531,151.496094 L264.328125,151.496094 Z M268.59375,167 L268.59375,164.363281 L264.328125,164.363281 L264.328125,153.875 L257.53125,153.875 L257.53125,156.511719 L260.894531,156.511719 L260.894531,164.363281 L256.617188,164.363281 L256.617188,167 L268.59375,167 Z M274.816406,167 L274.816406,159.488281 C274.816406,158.503906 274.994141,157.734375 275.349609,157.179688 C275.705078,156.625 276.191406,156.347656 276.808594,156.347656 C277.417969,156.347656 277.857422,156.552734 278.126953,156.962891 C278.396484,157.373047 278.53125,158.054688 278.53125,159.007812 L278.53125,159.007812 L278.53125,167 L281.941406,167 L281.941406,158.480469 C281.941406,156.847656 281.625,155.619141 280.992188,154.794922 C280.359375,153.970703 279.421875,153.558594 278.179688,153.558594 C277.351562,153.558594 276.644531,153.757812 276.058594,154.15625 C275.472656,154.554688 275.058594,155.117188 274.816406,155.84375 L274.816406,155.84375 L274.816406,153.875 L271.40625,153.875 L271.40625,167 L274.816406,167 Z M290.636719,171.96875 C292.769531,171.96875 294.310547,171.501953 295.259766,170.568359 C296.208984,169.634766 296.683594,168.117188 296.683594,166.015625 L296.683594,166.015625 L296.683594,153.875 L293.25,153.875 L293.25,155.550781 C292.914062,154.910156 292.453125,154.414062 291.867188,154.0625 C291.28125,153.710938 290.613281,153.535156 289.863281,153.535156 C288.378906,153.535156 287.195312,154.144531 286.3125,155.363281 C285.429688,156.582031 284.988281,158.230469 284.988281,160.308594 C284.988281,162.316406 285.429688,163.90625 286.3125,165.078125 C287.195312,166.25 288.386719,166.835938 289.886719,166.835938 C290.683594,166.835938 291.359375,166.683594 291.914062,166.378906 C292.46875,166.074219 292.914062,165.609375 293.25,164.984375 L293.25,164.984375 L293.25,166.402344 C293.25,167.371094 293.019531,168.083984 292.558594,168.541016 C292.097656,168.998047 291.382812,169.226562 290.414062,169.226562 C289.703125,169.226562 289.011719,169.140625 288.339844,168.96875 C287.667969,168.796875 287.007812,168.53125 286.359375,168.171875 L286.359375,168.171875 L286.359375,171.324219 C287.085938,171.542969 287.800781,171.705078 288.503906,171.810547 C289.207031,171.916016 289.917969,171.96875 290.636719,171.96875 Z M290.824219,164.117188 C290.105469,164.117188 289.525391,163.765625 289.083984,163.0625 C288.642578,162.359375 288.421875,161.414062 288.421875,160.226562 C288.421875,159.046875 288.642578,158.105469 289.083984,157.402344 C289.525391,156.699219 290.105469,156.347656 290.824219,156.347656 C291.550781,156.347656 292.136719,156.701172 292.582031,157.408203 C293.027344,158.115234 293.25,159.054688 293.25,160.226562 C293.25,161.40625 293.027344,162.349609 292.582031,163.056641 C292.136719,163.763672 291.550781,164.117188 290.824219,164.117188 Z M326.519531,167 L326.519531,162.699219 L323.0625,162.699219 L323.0625,167 L326.519531,167 Z M321.691406,167 L321.691406,162.699219 L318.234375,162.699219 L318.234375,167 L321.691406,167 Z M316.863281,167 L316.863281,162.699219 L313.40625,162.699219 L313.40625,167 L316.863281,167 Z" id="typesomething…" fill="#BDBDBD" fill-rule="nonzero"></path>
        <path d="M108.546875,63 L108.546875,61.2421875 L106.71875,61.2421875 C106.208333,61.2421875 105.846354,61.0989583 105.632812,60.8125 C105.419271,60.5260417 105.3125,60.0390625 105.3125,59.3515625 L105.3125,59.3515625 L105.3125,50.84375 L100.703125,50.84375 L100.703125,52.6015625 L103.023438,52.6015625 L103.023438,59.3515625 C103.023438,60.6588542 103.260417,61.59375 103.734375,62.15625 C104.208333,62.71875 104.989583,63 106.078125,63 L106.078125,63 L108.546875,63 Z M113.523438,63.2265625 C114.044271,63.2265625 114.520833,63.1223958 114.953125,62.9140625 C115.385417,62.7057292 115.739583,62.4088542 116.015625,62.0234375 L116.015625,62.0234375 L116.015625,63 L118.289062,63 L118.289062,58.0078125 C118.289062,56.5182292 118.001302,55.484375 117.425781,54.90625 C116.85026,54.328125 115.851562,54.0390625 114.429688,54.0390625 C113.846354,54.0390625 113.294271,54.0885417 112.773438,54.1875 C112.252604,54.2864583 111.739583,54.4401042 111.234375,54.6484375 L111.234375,54.6484375 L111.234375,56.6015625 C111.791667,56.2994792 112.326823,56.0794271 112.839844,55.9414062 C113.352865,55.8033854 113.882812,55.734375 114.429688,55.734375 C114.950521,55.734375 115.345052,55.8294271 115.613281,56.0195312 C115.88151,56.2096354 116.015625,56.4895833 116.015625,56.859375 L116.015625,56.859375 L116.015625,57.2421875 L114.429688,57.2421875 C113.044271,57.2421875 112.020833,57.4856771 111.359375,57.9726562 C110.697917,58.4596354 110.367188,59.2135417 110.367188,60.234375 C110.367188,61.1770833 110.644531,61.9114583 111.199219,62.4375 C111.753906,62.9635417 112.528646,63.2265625 113.523438,63.2265625 Z M114.109375,61.640625 C113.708333,61.640625 113.390625,61.5234375 113.15625,61.2890625 C112.921875,61.0546875 112.804688,60.7395833 112.804688,60.34375 C112.804688,59.8125 112.973958,59.4375 113.3125,59.21875 C113.651042,59 114.247396,58.890625 115.101562,58.890625 L115.101562,58.890625 L116.015625,58.890625 L116.015625,59.046875 C116.015625,59.8645833 115.848958,60.5013021 115.515625,60.9570312 C115.182292,61.4127604 114.713542,61.640625 114.109375,61.640625 Z M125.039062,63.2265625 C126.039062,63.2265625 126.815104,62.8255208 127.367188,62.0234375 C127.919271,61.2213542 128.195312,60.0911458 128.195312,58.6328125 C128.195312,57.1536458 127.915365,56.0182292 127.355469,55.2265625 C126.795573,54.4348958 125.997396,54.0390625 124.960938,54.0390625 C124.492188,54.0390625 124.071615,54.1601562 123.699219,54.4023438 C123.326823,54.6445312 123,55.0078125 122.71875,55.4921875 L122.71875,55.4921875 L122.71875,50.84375 L120.4375,50.84375 L120.4375,63 L122.71875,63 L122.71875,61.703125 C122.958333,62.2083333 123.273438,62.5885417 123.664062,62.84375 C124.054688,63.0989583 124.513021,63.2265625 125.039062,63.2265625 Z M124.320312,61.3515625 C123.825521,61.3515625 123.434896,61.1119792 123.148438,60.6328125 C122.861979,60.1536458 122.71875,59.4921875 122.71875,58.6484375 C122.71875,57.8046875 122.861979,57.1432292 123.148438,56.6640625 C123.434896,56.1848958 123.825521,55.9453125 124.320312,55.9453125 C124.815104,55.9453125 125.203125,56.1848958 125.484375,56.6640625 C125.765625,57.1432292 125.90625,57.8046875 125.90625,58.6484375 C125.90625,59.4921875 125.765625,60.1536458 125.484375,60.6328125 C125.203125,61.1119792 124.815104,61.3515625 124.320312,61.3515625 Z M134.132812,63.2265625 C134.747396,63.2265625 135.330729,63.171875 135.882812,63.0625 C136.434896,62.953125 136.976562,62.7890625 137.507812,62.5703125 L137.507812,62.5703125 L137.507812,60.46875 C136.950521,60.796875 136.416667,61.0364583 135.90625,61.1875 C135.395833,61.3385417 134.877604,61.4140625 134.351562,61.4140625 C133.554688,61.4140625 132.955729,61.2447917 132.554688,60.90625 C132.153646,60.5677083 131.950521,60.0546875 131.945312,59.3671875 L131.945312,59.3671875 L137.875,59.3671875 L137.875,58.4375 C137.875,57.0416667 137.516927,55.9596354 136.800781,55.1914062 C136.084635,54.4231771 135.078125,54.0390625 133.78125,54.0390625 C132.494792,54.0390625 131.479167,54.453125 130.734375,55.28125 C129.989583,56.109375 129.617188,57.2369792 129.617188,58.6640625 C129.617188,60.1380208 130.003906,61.2669271 130.777344,62.0507812 C131.550781,62.8346354 132.669271,63.2265625 134.132812,63.2265625 Z M131.96875,57.65625 C132.026042,57.0677083 132.210938,56.6132812 132.523438,56.2929688 C132.835938,55.9726562 133.255208,55.8125 133.78125,55.8125 C134.364583,55.8125 134.80599,55.9674479 135.105469,56.2773438 C135.404948,56.5872396 135.559896,57.0442708 135.570312,57.6484375 L135.570312,57.6484375 L131.96875,57.65625 Z M147.078125,63 L147.078125,61.2421875 L145.25,61.2421875 C144.739583,61.2421875 144.377604,61.0989583 144.164062,60.8125 C143.950521,60.5260417 143.84375,60.0390625 143.84375,59.3515625 L143.84375,59.3515625 L143.84375,50.84375 L139.234375,50.84375 L139.234375,52.6015625 L141.554688,52.6015625 L141.554688,59.3515625 C141.554688,60.6588542 141.791667,61.59375 142.265625,62.15625 C142.739583,62.71875 143.520833,63 144.609375,63 L144.609375,63 L147.078125,63 Z" id="label" fill="#BDBDBD" fill-rule="nonzero"></path>
        <rect id="Rectangle" fill="#1089FF" x="536" y="229" width="128" height="48" rx="4"></rect>
        <text id="submit" font-family="Menlo-Bold, Menlo" font-size="24" font-weight="bold" fill="#FFFFFF">
            <tspan x="556.652344" y="261">submit</tspan>
        </text>
    </g>
</svg>