<?xml version="1.0" encoding="UTF-8"?>
<svg width="1152px" height="189px" viewBox="0 0 1152 189" version="1.1" xmlns="http://www.w3.org/2000/svg" xmlns:xlink="http://www.w3.org/1999/xlink">
    <title>degrees-of-interactivity</title>
    <g id="degrees-of-interactivity" stroke="none" stroke-width="1" fill="none" fill-rule="evenodd">
        <g id="Group" transform="translate(32.000000, 32.000000)">
            <rect id="Rectangle" x="0" y="0" width="192" height="64" rx="8"></rect>
            <path d="M45.4375,43 L45.4375,32.984375 C45.4375,31.6822917 45.671875,30.6640625 46.140625,29.9296875 C46.609375,29.1953125 47.2604167,28.828125 48.09375,28.828125 C48.90625,28.828125 49.4921875,29.0989583 49.8515625,29.640625 C50.2109375,30.1822917 50.390625,31.0833333 50.390625,32.34375 L50.390625,32.34375 L50.390625,43 L54.9375,43 L54.9375,31.640625 C54.9375,29.4635417 54.515625,27.8255208 53.671875,26.7265625 C52.828125,25.6276042 51.578125,25.078125 49.921875,25.078125 C48.8177083,25.078125 47.875,25.34375 47.09375,25.875 C46.3125,26.40625 45.7604167,27.15625 45.4375,28.125 L45.4375,28.125 L45.4375,18.6875 L40.890625,18.6875 L40.890625,43 L45.4375,43 Z M67.9375,43.453125 C69.1666667,43.453125 70.3333333,43.34375 71.4375,43.125 C72.5416667,42.90625 73.625,42.578125 74.6875,42.140625 L74.6875,42.140625 L74.6875,37.9375 C73.5729167,38.59375 72.5052083,39.0729167 71.484375,39.375 C70.4635417,39.6770833 69.4270833,39.828125 68.375,39.828125 C66.78125,39.828125 65.5833333,39.4895833 64.78125,38.8125 C63.9791667,38.1354167 63.5729167,37.109375 63.5625,35.734375 L63.5625,35.734375 L75.421875,35.734375 L75.421875,33.875 C75.421875,31.0833333 74.7057292,28.9192708 73.2734375,27.3828125 C71.8411458,25.8463542 69.828125,25.078125 67.234375,25.078125 C64.6614583,25.078125 62.6302083,25.90625 61.140625,27.5625 C59.6510417,29.21875 58.90625,31.4739583 58.90625,34.328125 C58.90625,37.2760417 59.6796875,39.5338542 61.2265625,41.1015625 C62.7734375,42.6692708 65.0104167,43.453125 67.9375,43.453125 Z M63.609375,32.3125 C63.7239583,31.1354167 64.09375,30.2265625 64.71875,29.5859375 C65.34375,28.9453125 66.1822917,28.625 67.234375,28.625 C68.4010417,28.625 69.2838542,28.9348958 69.8828125,29.5546875 C70.4817708,30.1744792 70.7916667,31.0885417 70.8125,32.296875 L70.8125,32.296875 L63.609375,32.3125 Z M93.828125,43 L93.828125,39.484375 L90.171875,39.484375 C89.1510417,39.484375 88.4270833,39.1979167 88,38.625 C87.5729167,38.0520833 87.359375,37.078125 87.359375,35.703125 L87.359375,35.703125 L87.359375,18.6875 L78.140625,18.6875 L78.140625,22.203125 L82.78125,22.203125 L82.78125,35.703125 C82.78125,38.3177083 83.2552083,40.1875 84.203125,41.3125 C85.1510417,42.4375 86.7135417,43 88.890625,43 L88.890625,43 L93.828125,43 Z M113.09375,43 L113.09375,39.484375 L109.4375,39.484375 C108.416667,39.484375 107.692708,39.1979167 107.265625,38.625 C106.838542,38.0520833 106.625,37.078125 106.625,35.703125 L106.625,35.703125 L106.625,18.6875 L97.40625,18.6875 L97.40625,22.203125 L102.046875,22.203125 L102.046875,35.703125 C102.046875,38.3177083 102.520833,40.1875 103.46875,41.3125 C104.416667,42.4375 105.979167,43 108.15625,43 L108.15625,43 L113.09375,43 Z M124.890625,43.453125 C127.369792,43.453125 129.341146,42.6276042 130.804688,40.9765625 C132.268229,39.3255208 133,37.0885417 133,34.265625 C133,31.4427083 132.268229,29.2057292 130.804688,27.5546875 C129.341146,25.9036458 127.369792,25.078125 124.890625,25.078125 C122.421875,25.078125 120.455729,25.9036458 118.992188,27.5546875 C117.528646,29.2057292 116.796875,31.4427083 116.796875,34.265625 C116.796875,37.0885417 117.528646,39.3255208 118.992188,40.9765625 C120.455729,42.6276042 122.421875,43.453125 124.890625,43.453125 Z M124.890625,39.734375 C123.796875,39.734375 122.9375,39.2526042 122.3125,38.2890625 C121.6875,37.3255208 121.375,35.984375 121.375,34.265625 C121.375,32.546875 121.6875,31.2057292 122.3125,30.2421875 C122.9375,29.2786458 123.796875,28.796875 124.890625,28.796875 C125.994792,28.796875 126.859375,29.2786458 127.484375,30.2421875 C128.109375,31.2057292 128.421875,32.546875 128.421875,34.265625 C128.421875,35.984375 128.109375,37.3255208 127.484375,38.2890625 C126.859375,39.2526042 125.994792,39.734375 124.890625,39.734375 Z M142.046875,43 L144.15625,33.90625 L146.28125,43 L150.625,43 L153.796875,25.5 L149.984375,25.5 L147.875,38.90625 L146.015625,30.078125 L142.3125,30.078125 L140.421875,38.90625 L138.34375,25.5 L134.53125,25.5 L137.703125,43 L142.046875,43 Z" id="hellow" fill="#BDBDBD" fill-rule="nonzero"></path>
        </g>
        <g id="Group-Copy" transform="translate(256.000000, 32.000000)">
            <rect id="Rectangle" stroke-opacity="0.5" stroke="#BDBDBD" stroke-width="2" x="0" y="0" width="192" height="64" rx="8"></rect>
            <path d="M45.4375,43 L45.4375,32.984375 C45.4375,31.6822917 45.671875,30.6640625 46.140625,29.9296875 C46.609375,29.1953125 47.2604167,28.828125 48.09375,28.828125 C48.90625,28.828125 49.4921875,29.0989583 49.8515625,29.640625 C50.2109375,30.1822917 50.390625,31.0833333 50.390625,32.34375 L50.390625,32.34375 L50.390625,43 L54.9375,43 L54.9375,31.640625 C54.9375,29.4635417 54.515625,27.8255208 53.671875,26.7265625 C52.828125,25.6276042 51.578125,25.078125 49.921875,25.078125 C48.8177083,25.078125 47.875,25.34375 47.09375,25.875 C46.3125,26.40625 45.7604167,27.15625 45.4375,28.125 L45.4375,28.125 L45.4375,18.6875 L40.890625,18.6875 L40.890625,43 L45.4375,43 Z M67.9375,43.453125 C69.1666667,43.453125 70.3333333,43.34375 71.4375,43.125 C72.5416667,42.90625 73.625,42.578125 74.6875,42.140625 L74.6875,42.140625 L74.6875,37.9375 C73.5729167,38.59375 72.5052083,39.0729167 71.484375,39.375 C70.4635417,39.6770833 69.4270833,39.828125 68.375,39.828125 C66.78125,39.828125 65.5833333,39.4895833 64.78125,38.8125 C63.9791667,38.1354167 63.5729167,37.109375 63.5625,35.734375 L63.5625,35.734375 L75.421875,35.734375 L75.421875,33.875 C75.421875,31.0833333 74.7057292,28.9192708 73.2734375,27.3828125 C71.8411458,25.8463542 69.828125,25.078125 67.234375,25.078125 C64.6614583,25.078125 62.6302083,25.90625 61.140625,27.5625 C59.6510417,29.21875 58.90625,31.4739583 58.90625,34.328125 C58.90625,37.2760417 59.6796875,39.5338542 61.2265625,41.1015625 C62.7734375,42.6692708 65.0104167,43.453125 67.9375,43.453125 Z M63.609375,32.3125 C63.7239583,31.1354167 64.09375,30.2265625 64.71875,29.5859375 C65.34375,28.9453125 66.1822917,28.625 67.234375,28.625 C68.4010417,28.625 69.2838542,28.9348958 69.8828125,29.5546875 C70.4817708,30.1744792 70.7916667,31.0885417 70.8125,32.296875 L70.8125,32.296875 L63.609375,32.3125 Z M93.828125,43 L93.828125,39.484375 L90.171875,39.484375 C89.1510417,39.484375 88.4270833,39.1979167 88,38.625 C87.5729167,38.0520833 87.359375,37.078125 87.359375,35.703125 L87.359375,35.703125 L87.359375,18.6875 L78.140625,18.6875 L78.140625,22.203125 L82.78125,22.203125 L82.78125,35.703125 C82.78125,38.3177083 83.2552083,40.1875 84.203125,41.3125 C85.1510417,42.4375 86.7135417,43 88.890625,43 L88.890625,43 L93.828125,43 Z M113.09375,43 L113.09375,39.484375 L109.4375,39.484375 C108.416667,39.484375 107.692708,39.1979167 107.265625,38.625 C106.838542,38.0520833 106.625,37.078125 106.625,35.703125 L106.625,35.703125 L106.625,18.6875 L97.40625,18.6875 L97.40625,22.203125 L102.046875,22.203125 L102.046875,35.703125 C102.046875,38.3177083 102.520833,40.1875 103.46875,41.3125 C104.416667,42.4375 105.979167,43 108.15625,43 L108.15625,43 L113.09375,43 Z M124.890625,43.453125 C127.369792,43.453125 129.341146,42.6276042 130.804688,40.9765625 C132.268229,39.3255208 133,37.0885417 133,34.265625 C133,31.4427083 132.268229,29.2057292 130.804688,27.5546875 C129.341146,25.9036458 127.369792,25.078125 124.890625,25.078125 C122.421875,25.078125 120.455729,25.9036458 118.992188,27.5546875 C117.528646,29.2057292 116.796875,31.4427083 116.796875,34.265625 C116.796875,37.0885417 117.528646,39.3255208 118.992188,40.9765625 C120.455729,42.6276042 122.421875,43.453125 124.890625,43.453125 Z M124.890625,39.734375 C123.796875,39.734375 122.9375,39.2526042 122.3125,38.2890625 C121.6875,37.3255208 121.375,35.984375 121.375,34.265625 C121.375,32.546875 121.6875,31.2057292 122.3125,30.2421875 C122.9375,29.2786458 123.796875,28.796875 124.890625,28.796875 C125.994792,28.796875 126.859375,29.2786458 127.484375,30.2421875 C128.109375,31.2057292 128.421875,32.546875 128.421875,34.265625 C128.421875,35.984375 128.109375,37.3255208 127.484375,38.2890625 C126.859375,39.2526042 125.994792,39.734375 124.890625,39.734375 Z M142.046875,43 L144.15625,33.90625 L146.28125,43 L150.625,43 L153.796875,25.5 L149.984375,25.5 L147.875,38.90625 L146.015625,30.078125 L142.3125,30.078125 L140.421875,38.90625 L138.34375,25.5 L134.53125,25.5 L137.703125,43 L142.046875,43 Z" id="hellow" fill="#BDBDBD" fill-rule="nonzero"></path>
        </g>
        <g id="Group-Copy-2" transform="translate(480.000000, 32.000000)">
            <rect id="Rectangle" stroke="#BDBDBD" stroke-width="2" x="0" y="0" width="192" height="64" rx="8"></rect>
            <path d="M45.4375,43 L45.4375,32.984375 C45.4375,31.6822917 45.671875,30.6640625 46.140625,29.9296875 C46.609375,29.1953125 47.2604167,28.828125 48.09375,28.828125 C48.90625,28.828125 49.4921875,29.0989583 49.8515625,29.640625 C50.2109375,30.1822917 50.390625,31.0833333 50.390625,32.34375 L50.390625,32.34375 L50.390625,43 L54.9375,43 L54.9375,31.640625 C54.9375,29.4635417 54.515625,27.8255208 53.671875,26.7265625 C52.828125,25.6276042 51.578125,25.078125 49.921875,25.078125 C48.8177083,25.078125 47.875,25.34375 47.09375,25.875 C46.3125,26.40625 45.7604167,27.15625 45.4375,28.125 L45.4375,28.125 L45.4375,18.6875 L40.890625,18.6875 L40.890625,43 L45.4375,43 Z M67.9375,43.453125 C69.1666667,43.453125 70.3333333,43.34375 71.4375,43.125 C72.5416667,42.90625 73.625,42.578125 74.6875,42.140625 L74.6875,42.140625 L74.6875,37.9375 C73.5729167,38.59375 72.5052083,39.0729167 71.484375,39.375 C70.4635417,39.6770833 69.4270833,39.828125 68.375,39.828125 C66.78125,39.828125 65.5833333,39.4895833 64.78125,38.8125 C63.9791667,38.1354167 63.5729167,37.109375 63.5625,35.734375 L63.5625,35.734375 L75.421875,35.734375 L75.421875,33.875 C75.421875,31.0833333 74.7057292,28.9192708 73.2734375,27.3828125 C71.8411458,25.8463542 69.828125,25.078125 67.234375,25.078125 C64.6614583,25.078125 62.6302083,25.90625 61.140625,27.5625 C59.6510417,29.21875 58.90625,31.4739583 58.90625,34.328125 C58.90625,37.2760417 59.6796875,39.5338542 61.2265625,41.1015625 C62.7734375,42.6692708 65.0104167,43.453125 67.9375,43.453125 Z M63.609375,32.3125 C63.7239583,31.1354167 64.09375,30.2265625 64.71875,29.5859375 C65.34375,28.9453125 66.1822917,28.625 67.234375,28.625 C68.4010417,28.625 69.2838542,28.9348958 69.8828125,29.5546875 C70.4817708,30.1744792 70.7916667,31.0885417 70.8125,32.296875 L70.8125,32.296875 L63.609375,32.3125 Z M93.828125,43 L93.828125,39.484375 L90.171875,39.484375 C89.1510417,39.484375 88.4270833,39.1979167 88,38.625 C87.5729167,38.0520833 87.359375,37.078125 87.359375,35.703125 L87.359375,35.703125 L87.359375,18.6875 L78.140625,18.6875 L78.140625,22.203125 L82.78125,22.203125 L82.78125,35.703125 C82.78125,38.3177083 83.2552083,40.1875 84.203125,41.3125 C85.1510417,42.4375 86.7135417,43 88.890625,43 L88.890625,43 L93.828125,43 Z M113.09375,43 L113.09375,39.484375 L109.4375,39.484375 C108.416667,39.484375 107.692708,39.1979167 107.265625,38.625 C106.838542,38.0520833 106.625,37.078125 106.625,35.703125 L106.625,35.703125 L106.625,18.6875 L97.40625,18.6875 L97.40625,22.203125 L102.046875,22.203125 L102.046875,35.703125 C102.046875,38.3177083 102.520833,40.1875 103.46875,41.3125 C104.416667,42.4375 105.979167,43 108.15625,43 L108.15625,43 L113.09375,43 Z M124.890625,43.453125 C127.369792,43.453125 129.341146,42.6276042 130.804688,40.9765625 C132.268229,39.3255208 133,37.0885417 133,34.265625 C133,31.4427083 132.268229,29.2057292 130.804688,27.5546875 C129.341146,25.9036458 127.369792,25.078125 124.890625,25.078125 C122.421875,25.078125 120.455729,25.9036458 118.992188,27.5546875 C117.528646,29.2057292 116.796875,31.4427083 116.796875,34.265625 C116.796875,37.0885417 117.528646,39.3255208 118.992188,40.9765625 C120.455729,42.6276042 122.421875,43.453125 124.890625,43.453125 Z M124.890625,39.734375 C123.796875,39.734375 122.9375,39.2526042 122.3125,38.2890625 C121.6875,37.3255208 121.375,35.984375 121.375,34.265625 C121.375,32.546875 121.6875,31.2057292 122.3125,30.2421875 C122.9375,29.2786458 123.796875,28.796875 124.890625,28.796875 C125.994792,28.796875 126.859375,29.2786458 127.484375,30.2421875 C128.109375,31.2057292 128.421875,32.546875 128.421875,34.265625 C128.421875,35.984375 128.109375,37.3255208 127.484375,38.2890625 C126.859375,39.2526042 125.994792,39.734375 124.890625,39.734375 Z M142.046875,43 L144.15625,33.90625 L146.28125,43 L150.625,43 L153.796875,25.5 L149.984375,25.5 L147.875,38.90625 L146.015625,30.078125 L142.3125,30.078125 L140.421875,38.90625 L138.34375,25.5 L134.53125,25.5 L137.703125,43 L142.046875,43 Z" id="hellow" fill="#BDBDBD" fill-rule="nonzero"></path>
        </g>
        <g id="Group-Copy-3" transform="translate(704.000000, 32.000000)">
            <rect id="Rectangle" stroke="#1089FF" stroke-width="2" x="0" y="0" width="192" height="64" rx="8"></rect>
            <path d="M45.4375,43 L45.4375,32.984375 C45.4375,31.6822917 45.671875,30.6640625 46.140625,29.9296875 C46.609375,29.1953125 47.2604167,28.828125 48.09375,28.828125 C48.90625,28.828125 49.4921875,29.0989583 49.8515625,29.640625 C50.2109375,30.1822917 50.390625,31.0833333 50.390625,32.34375 L50.390625,32.34375 L50.390625,43 L54.9375,43 L54.9375,31.640625 C54.9375,29.4635417 54.515625,27.8255208 53.671875,26.7265625 C52.828125,25.6276042 51.578125,25.078125 49.921875,25.078125 C48.8177083,25.078125 47.875,25.34375 47.09375,25.875 C46.3125,26.40625 45.7604167,27.15625 45.4375,28.125 L45.4375,28.125 L45.4375,18.6875 L40.890625,18.6875 L40.890625,43 L45.4375,43 Z M67.9375,43.453125 C69.1666667,43.453125 70.3333333,43.34375 71.4375,43.125 C72.5416667,42.90625 73.625,42.578125 74.6875,42.140625 L74.6875,42.140625 L74.6875,37.9375 C73.5729167,38.59375 72.5052083,39.0729167 71.484375,39.375 C70.4635417,39.6770833 69.4270833,39.828125 68.375,39.828125 C66.78125,39.828125 65.5833333,39.4895833 64.78125,38.8125 C63.9791667,38.1354167 63.5729167,37.109375 63.5625,35.734375 L63.5625,35.734375 L75.421875,35.734375 L75.421875,33.875 C75.421875,31.0833333 74.7057292,28.9192708 73.2734375,27.3828125 C71.8411458,25.8463542 69.828125,25.078125 67.234375,25.078125 C64.6614583,25.078125 62.6302083,25.90625 61.140625,27.5625 C59.6510417,29.21875 58.90625,31.4739583 58.90625,34.328125 C58.90625,37.2760417 59.6796875,39.5338542 61.2265625,41.1015625 C62.7734375,42.6692708 65.0104167,43.453125 67.9375,43.453125 Z M63.609375,32.3125 C63.7239583,31.1354167 64.09375,30.2265625 64.71875,29.5859375 C65.34375,28.9453125 66.1822917,28.625 67.234375,28.625 C68.4010417,28.625 69.2838542,28.9348958 69.8828125,29.5546875 C70.4817708,30.1744792 70.7916667,31.0885417 70.8125,32.296875 L70.8125,32.296875 L63.609375,32.3125 Z M93.828125,43 L93.828125,39.484375 L90.171875,39.484375 C89.1510417,39.484375 88.4270833,39.1979167 88,38.625 C87.5729167,38.0520833 87.359375,37.078125 87.359375,35.703125 L87.359375,35.703125 L87.359375,18.6875 L78.140625,18.6875 L78.140625,22.203125 L82.78125,22.203125 L82.78125,35.703125 C82.78125,38.3177083 83.2552083,40.1875 84.203125,41.3125 C85.1510417,42.4375 86.7135417,43 88.890625,43 L88.890625,43 L93.828125,43 Z M113.09375,43 L113.09375,39.484375 L109.4375,39.484375 C108.416667,39.484375 107.692708,39.1979167 107.265625,38.625 C106.838542,38.0520833 106.625,37.078125 106.625,35.703125 L106.625,35.703125 L106.625,18.6875 L97.40625,18.6875 L97.40625,22.203125 L102.046875,22.203125 L102.046875,35.703125 C102.046875,38.3177083 102.520833,40.1875 103.46875,41.3125 C104.416667,42.4375 105.979167,43 108.15625,43 L108.15625,43 L113.09375,43 Z M124.890625,43.453125 C127.369792,43.453125 129.341146,42.6276042 130.804688,40.9765625 C132.268229,39.3255208 133,37.0885417 133,34.265625 C133,31.4427083 132.268229,29.2057292 130.804688,27.5546875 C129.341146,25.9036458 127.369792,25.078125 124.890625,25.078125 C122.421875,25.078125 120.455729,25.9036458 118.992188,27.5546875 C117.528646,29.2057292 116.796875,31.4427083 116.796875,34.265625 C116.796875,37.0885417 117.528646,39.3255208 118.992188,40.9765625 C120.455729,42.6276042 122.421875,43.453125 124.890625,43.453125 Z M124.890625,39.734375 C123.796875,39.734375 122.9375,39.2526042 122.3125,38.2890625 C121.6875,37.3255208 121.375,35.984375 121.375,34.265625 C121.375,32.546875 121.6875,31.2057292 122.3125,30.2421875 C122.9375,29.2786458 123.796875,28.796875 124.890625,28.796875 C125.994792,28.796875 126.859375,29.2786458 127.484375,30.2421875 C128.109375,31.2057292 128.421875,32.546875 128.421875,34.265625 C128.421875,35.984375 128.109375,37.3255208 127.484375,38.2890625 C126.859375,39.2526042 125.994792,39.734375 124.890625,39.734375 Z M142.046875,43 L144.15625,33.90625 L146.28125,43 L150.625,43 L153.796875,25.5 L149.984375,25.5 L147.875,38.90625 L146.015625,30.078125 L142.3125,30.078125 L140.421875,38.90625 L138.34375,25.5 L134.53125,25.5 L137.703125,43 L142.046875,43 Z" id="hellow" fill="#1089FF" fill-rule="nonzero"></path>
        </g>
        <g id="Group-Copy-4" transform="translate(928.000000, 32.000000)">
            <rect id="Rectangle" stroke="#1089FF" stroke-width="2" fill="#1089FF" x="0" y="0" width="192" height="64" rx="8"></rect>
            <path d="M45.4375,43 L45.4375,32.984375 C45.4375,31.6822917 45.671875,30.6640625 46.140625,29.9296875 C46.609375,29.1953125 47.2604167,28.828125 48.09375,28.828125 C48.90625,28.828125 49.4921875,29.0989583 49.8515625,29.640625 C50.2109375,30.1822917 50.390625,31.0833333 50.390625,32.34375 L50.390625,32.34375 L50.390625,43 L54.9375,43 L54.9375,31.640625 C54.9375,29.4635417 54.515625,27.8255208 53.671875,26.7265625 C52.828125,25.6276042 51.578125,25.078125 49.921875,25.078125 C48.8177083,25.078125 47.875,25.34375 47.09375,25.875 C46.3125,26.40625 45.7604167,27.15625 45.4375,28.125 L45.4375,28.125 L45.4375,18.6875 L40.890625,18.6875 L40.890625,43 L45.4375,43 Z M67.9375,43.453125 C69.1666667,43.453125 70.3333333,43.34375 71.4375,43.125 C72.5416667,42.90625 73.625,42.578125 74.6875,42.140625 L74.6875,42.140625 L74.6875,37.9375 C73.5729167,38.59375 72.5052083,39.0729167 71.484375,39.375 C70.4635417,39.6770833 69.4270833,39.828125 68.375,39.828125 C66.78125,39.828125 65.5833333,39.4895833 64.78125,38.8125 C63.9791667,38.1354167 63.5729167,37.109375 63.5625,35.734375 L63.5625,35.734375 L75.421875,35.734375 L75.421875,33.875 C75.421875,31.0833333 74.7057292,28.9192708 73.2734375,27.3828125 C71.8411458,25.8463542 69.828125,25.078125 67.234375,25.078125 C64.6614583,25.078125 62.6302083,25.90625 61.140625,27.5625 C59.6510417,29.21875 58.90625,31.4739583 58.90625,34.328125 C58.90625,37.2760417 59.6796875,39.5338542 61.2265625,41.1015625 C62.7734375,42.6692708 65.0104167,43.453125 67.9375,43.453125 Z M63.609375,32.3125 C63.7239583,31.1354167 64.09375,30.2265625 64.71875,29.5859375 C65.34375,28.9453125 66.1822917,28.625 67.234375,28.625 C68.4010417,28.625 69.2838542,28.9348958 69.8828125,29.5546875 C70.4817708,30.1744792 70.7916667,31.0885417 70.8125,32.296875 L70.8125,32.296875 L63.609375,32.3125 Z M93.828125,43 L93.828125,39.484375 L90.171875,39.484375 C89.1510417,39.484375 88.4270833,39.1979167 88,38.625 C87.5729167,38.0520833 87.359375,37.078125 87.359375,35.703125 L87.359375,35.703125 L87.359375,18.6875 L78.140625,18.6875 L78.140625,22.203125 L82.78125,22.203125 L82.78125,35.703125 C82.78125,38.3177083 83.2552083,40.1875 84.203125,41.3125 C85.1510417,42.4375 86.7135417,43 88.890625,43 L88.890625,43 L93.828125,43 Z M113.09375,43 L113.09375,39.484375 L109.4375,39.484375 C108.416667,39.484375 107.692708,39.1979167 107.265625,38.625 C106.838542,38.0520833 106.625,37.078125 106.625,35.703125 L106.625,35.703125 L106.625,18.6875 L97.40625,18.6875 L97.40625,22.203125 L102.046875,22.203125 L102.046875,35.703125 C102.046875,38.3177083 102.520833,40.1875 103.46875,41.3125 C104.416667,42.4375 105.979167,43 108.15625,43 L108.15625,43 L113.09375,43 Z M124.890625,43.453125 C127.369792,43.453125 129.341146,42.6276042 130.804688,40.9765625 C132.268229,39.3255208 133,37.0885417 133,34.265625 C133,31.4427083 132.268229,29.2057292 130.804688,27.5546875 C129.341146,25.9036458 127.369792,25.078125 124.890625,25.078125 C122.421875,25.078125 120.455729,25.9036458 118.992188,27.5546875 C117.528646,29.2057292 116.796875,31.4427083 116.796875,34.265625 C116.796875,37.0885417 117.528646,39.3255208 118.992188,40.9765625 C120.455729,42.6276042 122.421875,43.453125 124.890625,43.453125 Z M124.890625,39.734375 C123.796875,39.734375 122.9375,39.2526042 122.3125,38.2890625 C121.6875,37.3255208 121.375,35.984375 121.375,34.265625 C121.375,32.546875 121.6875,31.2057292 122.3125,30.2421875 C122.9375,29.2786458 123.796875,28.796875 124.890625,28.796875 C125.994792,28.796875 126.859375,29.2786458 127.484375,30.2421875 C128.109375,31.2057292 128.421875,32.546875 128.421875,34.265625 C128.421875,35.984375 128.109375,37.3255208 127.484375,38.2890625 C126.859375,39.2526042 125.994792,39.734375 124.890625,39.734375 Z M142.046875,43 L144.15625,33.90625 L146.28125,43 L150.625,43 L153.796875,25.5 L149.984375,25.5 L147.875,38.90625 L146.015625,30.078125 L142.3125,30.078125 L140.421875,38.90625 L138.34375,25.5 L134.53125,25.5 L137.703125,43 L142.046875,43 Z" id="hellow" fill="#FFFFFF" fill-rule="nonzero"></path>
        </g>
        <path d="M49.7773438,151 L49.7773438,138.730469 L56.8320312,151 L60.4414062,151 L60.4414062,133.726562 L57.078125,133.726562 L57.078125,145.785156 L50.1992188,133.726562 L46.4140625,133.726562 L46.4140625,151 L49.7773438,151 Z M69.2773438,151.445312 C71.4726562,151.445312 73.109375,150.779297 74.1875,149.447266 C75.265625,148.115234 75.8046875,146.511719 75.8046875,144.636719 C75.8046875,142.792969 75.265625,141.195312 74.1875,139.84375 C73.109375,138.492188 71.4726562,137.816406 69.2773438,137.816406 C67.0820312,137.816406 65.4453125,138.492188 64.3671875,139.84375 C63.2890625,141.195312 62.75,142.792969 62.75,144.636719 C62.75,146.511719 63.2890625,148.115234 64.3671875,149.447266 C65.4453125,150.779297 67.0820312,151.445312 69.2773438,151.445312 Z M69.265625,148.644531 C68.2890625,148.644531 67.5371094,148.296875 67.0097656,147.601562 C66.4824219,146.90625 66.21875,145.917969 66.21875,144.636719 C66.21875,143.355469 66.4824219,142.369141 67.0097656,141.677734 C67.5371094,140.986328 68.2890625,140.640625 69.265625,140.640625 C70.2421875,140.640625 70.9921875,140.986328 71.515625,141.677734 C72.0390625,142.369141 72.3007812,143.355469 72.3007812,144.636719 C72.3007812,145.917969 72.0390625,146.90625 71.515625,147.601562 C70.9921875,148.296875 70.2421875,148.644531 69.265625,148.644531 Z M82.1708984,151.18219 L82.4609375,151.175781 L84.0429688,151.117188 L84.0429688,148.621094 C83.9335938,148.628906 83.8222656,148.634766 83.7089844,148.638672 C83.5957031,148.642578 83.4882812,148.644531 83.3867188,148.644531 C82.7070312,148.644531 82.3007812,148.580078 82.1679688,148.451172 C82.0351562,148.322266 81.96875,147.996094 81.96875,147.472656 L81.96875,147.472656 L81.96875,140.722656 L84.0429688,140.722656 L84.0429688,138.34375 L81.96875,138.34375 L81.96875,134.78125 L78.6640625,134.78125 L78.6640625,138.34375 L76.8828125,138.34375 L76.8828125,140.722656 L78.6640625,140.722656 L78.6640625,148.585938 C78.6640625,149.382812 78.8515625,149.972656 79.2265625,150.355469 C79.8046875,150.957031 80.8828125,151.230469 82.4609375,151.175781 L82.1708984,151.18219 Z M96.4296875,151 L96.4296875,133.726562 L92.84375,133.726562 L92.84375,151 L96.4296875,151 Z M102.875,151 L102.875,144.085938 C102.875,143.296875 102.984375,142.648438 103.203125,142.140625 C103.625,141.179688 104.402344,140.699219 105.535156,140.699219 C106.457031,140.699219 107.082031,141.027344 107.410156,141.683594 C107.589844,142.042969 107.679688,142.558594 107.679688,143.230469 L107.679688,143.230469 L107.679688,151 L111.101562,151 L111.101562,142.398438 C111.101562,140.796875 110.681641,139.650391 109.841797,138.958984 C109.001953,138.267578 107.921875,137.921875 106.601562,137.921875 C105.546875,137.921875 104.675781,138.179688 103.988281,138.695312 C103.605469,138.984375 103.199219,139.457031 102.769531,140.113281 L102.769531,140.113281 L102.769531,138.25 L99.546875,138.25 L99.546875,151 L102.875,151 Z M118.15918,151.18219 L118.449219,151.175781 L120.03125,151.117188 L120.03125,148.621094 C119.921875,148.628906 119.810547,148.634766 119.697266,148.638672 C119.583984,148.642578 119.476562,148.644531 119.375,148.644531 C118.695312,148.644531 118.289062,148.580078 118.15625,148.451172 C118.023438,148.322266 117.957031,147.996094 117.957031,147.472656 L117.957031,147.472656 L117.957031,140.722656 L120.03125,140.722656 L120.03125,138.34375 L117.957031,138.34375 L117.957031,134.78125 L114.652344,134.78125 L114.652344,138.34375 L112.871094,138.34375 L112.871094,140.722656 L114.652344,140.722656 L114.652344,148.585938 C114.652344,149.382812 114.839844,149.972656 115.214844,150.355469 C115.792969,150.957031 116.871094,151.230469 118.449219,151.175781 L118.15918,151.18219 Z M127.332031,151.421875 C129.300781,151.421875 130.832031,150.800781 131.925781,149.558594 C132.628906,148.777344 133.023438,148.007812 133.109375,147.25 L133.109375,147.25 L129.699219,147.25 C129.519531,147.625 129.3125,147.917969 129.078125,148.128906 C128.648438,148.519531 128.089844,148.714844 127.402344,148.714844 C126.753906,148.714844 126.199219,148.554688 125.738281,148.234375 C124.980469,147.71875 124.578125,146.820312 124.53125,145.539062 L124.53125,145.539062 L133.273438,145.539062 C133.289062,144.4375 133.253906,143.59375 133.167969,143.007812 C133.019531,142.007812 132.695312,141.128906 132.195312,140.371094 C131.640625,139.511719 130.9375,138.882812 130.085938,138.484375 C129.234375,138.085938 128.277344,137.886719 127.214844,137.886719 C125.425781,137.886719 123.970703,138.476562 122.849609,139.65625 C121.728516,140.835938 121.167969,142.53125 121.167969,144.742188 C121.167969,147.101562 121.789062,148.804688 123.03125,149.851562 C124.273438,150.898438 125.707031,151.421875 127.332031,151.421875 Z M129.804688,143.335938 L124.613281,143.335938 C124.722656,142.507812 124.990234,141.851562 125.416016,141.367188 C125.841797,140.882812 126.441406,140.640625 127.214844,140.640625 C127.925781,140.640625 128.521484,140.869141 129.001953,141.326172 C129.482422,141.783203 129.75,142.453125 129.804688,143.335938 L129.804688,143.335938 Z M138.851562,151 L138.851562,144.894531 C138.851562,143.871094 138.980469,143.113281 139.238281,142.621094 C139.699219,141.746094 140.601562,141.308594 141.945312,141.308594 C142.046875,141.308594 142.179688,141.3125 142.34375,141.320312 C142.507812,141.328125 142.695312,141.34375 142.90625,141.367188 L142.90625,141.367188 L142.90625,137.945312 C142.757812,137.9375 142.662109,137.931641 142.619141,137.927734 C142.576172,137.923828 142.523438,137.921875 142.460938,137.921875 C141.460938,137.921875 140.648438,138.183594 140.023438,138.707031 C139.640625,139.019531 139.191406,139.601562 138.675781,140.453125 L138.675781,140.453125 L138.675781,138.226562 L135.488281,138.226562 L135.488281,151 L138.851562,151 Z M147.992188,151.398438 C148.898438,151.398438 149.710938,151.191406 150.429688,150.777344 C151.03125,150.425781 151.5625,150 152.023438,149.5 C152.046875,149.789062 152.078125,150.046875 152.117188,150.273438 C152.15625,150.5 152.226562,150.742188 152.328125,151 L152.328125,151 L155.960938,151 L155.960938,150.507812 C155.742188,150.40625 155.578125,150.277344 155.46875,150.121094 C155.359375,149.964844 155.292969,149.667969 155.269531,149.230469 C155.253906,148.652344 155.246094,148.160156 155.246094,147.753906 L155.246094,147.753906 L155.246094,141.894531 C155.246094,140.355469 154.703125,139.308594 153.617188,138.753906 C152.53125,138.199219 151.289062,137.921875 149.890625,137.921875 C147.742188,137.921875 146.226562,138.484375 145.34375,139.609375 C144.789062,140.328125 144.476562,141.246094 144.40625,142.363281 L144.40625,142.363281 L147.628906,142.363281 C147.707031,141.871094 147.863281,141.480469 148.097656,141.191406 C148.425781,140.800781 148.984375,140.605469 149.773438,140.605469 C150.476562,140.605469 151.009766,140.705078 151.373047,140.904297 C151.736328,141.103516 151.917969,141.464844 151.917969,141.988281 C151.917969,142.417969 151.679688,142.734375 151.203125,142.9375 C150.9375,143.054688 150.496094,143.152344 149.878906,143.230469 L149.878906,143.230469 L148.742188,143.371094 C147.453125,143.535156 146.476562,143.808594 145.8125,144.191406 C144.601562,144.894531 143.996094,146.03125 143.996094,147.601562 C143.996094,148.8125 144.373047,149.748047 145.126953,150.408203 C145.880859,151.068359 146.835938,151.398438 147.992188,151.398438 Z M148.976562,148.972656 C148.523438,148.972656 148.138672,148.845703 147.822266,148.591797 C147.505859,148.337891 147.347656,147.925781 147.347656,147.355469 C147.347656,146.714844 147.605469,146.242188 148.121094,145.9375 C148.425781,145.757812 148.929688,145.605469 149.632812,145.480469 L149.632812,145.480469 L150.382812,145.339844 C150.757812,145.269531 151.052734,145.193359 151.267578,145.111328 C151.482422,145.029297 151.695312,144.921875 151.90625,144.789062 L151.90625,144.789062 L151.90625,146.03125 C151.882812,147.148438 151.568359,147.917969 150.962891,148.339844 C150.357422,148.761719 149.695312,148.972656 148.976562,148.972656 Z M163.472656,151.445312 C165.527344,151.445312 167.078125,150.714844 168.125,149.253906 C168.78125,148.347656 169.148438,147.386719 169.226562,146.371094 L169.226562,146.371094 L165.816406,146.371094 C165.746094,147.042969 165.546875,147.589844 165.21875,148.011719 C164.890625,148.433594 164.335938,148.644531 163.554688,148.644531 C162.453125,148.644531 161.703125,148.113281 161.304688,147.050781 C161.085938,146.480469 160.976562,145.726562 160.976562,144.789062 C160.976562,143.804688 161.085938,143.015625 161.304688,142.421875 C161.71875,141.304688 162.488281,140.746094 163.613281,140.746094 C164.402344,140.746094 164.984375,141.003906 165.359375,141.519531 C165.617188,141.902344 165.777344,142.332031 165.839844,142.808594 L165.839844,142.808594 L169.261719,142.808594 C169.074219,140.988281 168.470703,139.71875 167.451172,139 C166.431641,138.28125 165.121094,137.921875 163.519531,137.921875 C161.636719,137.921875 160.160156,138.53125 159.089844,139.75 C158.019531,140.96875 157.484375,142.675781 157.484375,144.871094 C157.484375,146.816406 157.96875,148.398438 158.9375,149.617188 C159.90625,150.835938 161.417969,151.445312 163.472656,151.445312 Z M175.53418,151.18219 L175.824219,151.175781 L177.40625,151.117188 L177.40625,148.621094 C177.296875,148.628906 177.185547,148.634766 177.072266,148.638672 C176.958984,148.642578 176.851562,148.644531 176.75,148.644531 C176.070312,148.644531 175.664062,148.580078 175.53125,148.451172 C175.398438,148.322266 175.332031,147.996094 175.332031,147.472656 L175.332031,147.472656 L175.332031,140.722656 L177.40625,140.722656 L177.40625,138.34375 L175.332031,138.34375 L175.332031,134.78125 L172.027344,134.78125 L172.027344,138.34375 L170.246094,138.34375 L170.246094,140.722656 L172.027344,140.722656 L172.027344,148.585938 C172.027344,149.382812 172.214844,149.972656 172.589844,150.355469 C173.167969,150.957031 174.246094,151.230469 175.824219,151.175781 L175.53418,151.18219 Z M182.984375,136.703125 L182.984375,133.621094 L179.597656,133.621094 L179.597656,136.703125 L182.984375,136.703125 Z M182.984375,151 L182.984375,138.226562 L179.597656,138.226562 L179.597656,151 L182.984375,151 Z M193.074219,151 L197.679688,138.226562 L194.09375,138.226562 L191.375,147.648438 L188.714844,138.226562 L184.964844,138.226562 L189.546875,151 L193.074219,151 Z M204.722656,151.421875 C206.691406,151.421875 208.222656,150.800781 209.316406,149.558594 C210.019531,148.777344 210.414062,148.007812 210.5,147.25 L210.5,147.25 L207.089844,147.25 C206.910156,147.625 206.703125,147.917969 206.46875,148.128906 C206.039062,148.519531 205.480469,148.714844 204.792969,148.714844 C204.144531,148.714844 203.589844,148.554688 203.128906,148.234375 C202.371094,147.71875 201.96875,146.820312 201.921875,145.539062 L201.921875,145.539062 L210.664062,145.539062 C210.679688,144.4375 210.644531,143.59375 210.558594,143.007812 C210.410156,142.007812 210.085938,141.128906 209.585938,140.371094 C209.03125,139.511719 208.328125,138.882812 207.476562,138.484375 C206.625,138.085938 205.667969,137.886719 204.605469,137.886719 C202.816406,137.886719 201.361328,138.476562 200.240234,139.65625 C199.119141,140.835938 198.558594,142.53125 198.558594,144.742188 C198.558594,147.101562 199.179688,148.804688 200.421875,149.851562 C201.664062,150.898438 203.097656,151.421875 204.722656,151.421875 Z M207.195312,143.335938 L202.003906,143.335938 C202.113281,142.507812 202.380859,141.851562 202.806641,141.367188 C203.232422,140.882812 203.832031,140.640625 204.605469,140.640625 C205.316406,140.640625 205.912109,140.869141 206.392578,141.326172 C206.873047,141.783203 207.140625,142.453125 207.195312,143.335938 L207.195312,143.335938 Z" id="NotInteractive" fill="#9E9E9E" fill-rule="nonzero"></path>
        <path d="M311.253906,151 C313.863281,151 315.792969,149.925781 317.042969,147.777344 C317.964844,146.183594 318.425781,144.238281 318.425781,141.941406 C318.425781,141.035156 318.316406,140.082031 318.097656,139.082031 C317.878906,138.082031 317.46875,137.152344 316.867188,136.292969 C316.117188,135.230469 315.136719,134.5 313.925781,134.101562 C313.214844,133.867188 312.324219,133.742188 311.253906,133.726562 L311.253906,133.726562 L303.8125,133.726562 L303.8125,151 L311.253906,151 Z M310.644531,148 L307.316406,148 L307.316406,136.726562 L310.644531,136.726562 C312.285156,136.726562 313.380859,137.197266 313.931641,138.138672 C314.482422,139.080078 314.757812,140.429688 314.757812,142.1875 C314.757812,143.460938 314.574219,144.558594 314.207031,145.480469 C313.535156,147.160156 312.347656,148 310.644531,148 L310.644531,148 Z M324.308594,136.703125 L324.308594,133.621094 L320.921875,133.621094 L320.921875,136.703125 L324.308594,136.703125 Z M324.308594,151 L324.308594,138.226562 L320.921875,138.226562 L320.921875,151 L324.308594,151 Z M332.640625,151.433594 C334.609375,151.433594 336.064453,151.033203 337.005859,150.232422 C337.947266,149.431641 338.417969,148.398438 338.417969,147.132812 C338.417969,146.171875 338.089844,145.371094 337.433594,144.730469 C336.769531,144.097656 335.773438,143.625 334.445312,143.3125 C332.453125,142.875 331.292969,142.566406 330.964844,142.386719 C330.636719,142.214844 330.472656,141.9375 330.472656,141.554688 C330.472656,141.25 330.626953,140.984375 330.935547,140.757812 C331.244141,140.53125 331.761719,140.417969 332.488281,140.417969 C333.371094,140.417969 333.996094,140.644531 334.363281,141.097656 C334.558594,141.347656 334.679688,141.6875 334.726562,142.117188 L334.726562,142.117188 L338.066406,142.117188 C337.917969,140.554688 337.341797,139.455078 336.337891,138.818359 C335.333984,138.181641 334.035156,137.863281 332.441406,137.863281 C330.761719,137.863281 329.458984,138.287109 328.533203,139.134766 C327.607422,139.982422 327.144531,140.996094 327.144531,142.175781 C327.144531,143.175781 327.441406,143.941406 328.035156,144.472656 C328.628906,145.011719 329.648438,145.460938 331.09375,145.820312 C333.101562,146.296875 334.261719,146.632812 334.574219,146.828125 C334.886719,147.023438 335.042969,147.308594 335.042969,147.683594 C335.042969,148.074219 334.849609,148.367188 334.462891,148.5625 C334.076172,148.757812 333.554688,148.855469 332.898438,148.855469 C331.78125,148.855469 331.015625,148.632812 330.601562,148.1875 C330.367188,147.9375 330.214844,147.515625 330.144531,146.921875 L330.144531,146.921875 L326.757812,146.921875 C326.757812,148.234375 327.236328,149.314453 328.193359,150.162109 C329.150391,151.009766 330.632812,151.433594 332.640625,151.433594 Z M344.019531,151.398438 C344.925781,151.398438 345.738281,151.191406 346.457031,150.777344 C347.058594,150.425781 347.589844,150 348.050781,149.5 C348.074219,149.789062 348.105469,150.046875 348.144531,150.273438 C348.183594,150.5 348.253906,150.742188 348.355469,151 L348.355469,151 L351.988281,151 L351.988281,150.507812 C351.769531,150.40625 351.605469,150.277344 351.496094,150.121094 C351.386719,149.964844 351.320312,149.667969 351.296875,149.230469 C351.28125,148.652344 351.273438,148.160156 351.273438,147.753906 L351.273438,147.753906 L351.273438,141.894531 C351.273438,140.355469 350.730469,139.308594 349.644531,138.753906 C348.558594,138.199219 347.316406,137.921875 345.917969,137.921875 C343.769531,137.921875 342.253906,138.484375 341.371094,139.609375 C340.816406,140.328125 340.503906,141.246094 340.433594,142.363281 L340.433594,142.363281 L343.65625,142.363281 C343.734375,141.871094 343.890625,141.480469 344.125,141.191406 C344.453125,140.800781 345.011719,140.605469 345.800781,140.605469 C346.503906,140.605469 347.037109,140.705078 347.400391,140.904297 C347.763672,141.103516 347.945312,141.464844 347.945312,141.988281 C347.945312,142.417969 347.707031,142.734375 347.230469,142.9375 C346.964844,143.054688 346.523438,143.152344 345.90625,143.230469 L345.90625,143.230469 L344.769531,143.371094 C343.480469,143.535156 342.503906,143.808594 341.839844,144.191406 C340.628906,144.894531 340.023438,146.03125 340.023438,147.601562 C340.023438,148.8125 340.400391,149.748047 341.154297,150.408203 C341.908203,151.068359 342.863281,151.398438 344.019531,151.398438 Z M345.003906,148.972656 C344.550781,148.972656 344.166016,148.845703 343.849609,148.591797 C343.533203,148.337891 343.375,147.925781 343.375,147.355469 C343.375,146.714844 343.632812,146.242188 344.148438,145.9375 C344.453125,145.757812 344.957031,145.605469 345.660156,145.480469 L345.660156,145.480469 L346.410156,145.339844 C346.785156,145.269531 347.080078,145.193359 347.294922,145.111328 C347.509766,145.029297 347.722656,144.921875 347.933594,144.789062 L347.933594,144.789062 L347.933594,146.03125 C347.910156,147.148438 347.595703,147.917969 346.990234,148.339844 C346.384766,148.761719 345.722656,148.972656 345.003906,148.972656 Z M361.175781,151.339844 C362.855469,151.339844 364.164062,150.6875 365.101562,149.382812 C366.039062,148.078125 366.507812,146.433594 366.507812,144.449219 C366.507812,142.535156 366.033203,140.972656 365.083984,139.761719 C364.134766,138.550781 362.820312,137.945312 361.140625,137.945312 C360.210938,137.945312 359.445312,138.140625 358.84375,138.53125 C358.335938,138.84375 357.871094,139.296875 357.449219,139.890625 L357.449219,139.890625 L357.449219,133.75 L354.121094,133.75 L354.121094,151 L357.390625,151 L357.390625,149.394531 C357.835938,150.019531 358.25,150.457031 358.632812,150.707031 C359.273438,151.128906 360.121094,151.339844 361.175781,151.339844 Z M360.285156,148.585938 C359.292969,148.585938 358.554688,148.226562 358.070312,147.507812 C357.585938,146.789062 357.34375,145.882812 357.34375,144.789062 C357.34375,143.859375 357.460938,143.101562 357.695312,142.515625 C358.148438,141.414062 358.980469,140.863281 360.191406,140.863281 C361.386719,140.863281 362.207031,141.425781 362.652344,142.550781 C362.886719,143.144531 363.003906,143.894531 363.003906,144.800781 C363.003906,145.933594 362.765625,146.847656 362.289062,147.542969 C361.8125,148.238281 361.144531,148.585938 360.285156,148.585938 Z M372.308594,151 L372.308594,133.726562 L368.96875,133.726562 L368.96875,151 L372.308594,151 Z M380.722656,151.421875 C382.691406,151.421875 384.222656,150.800781 385.316406,149.558594 C386.019531,148.777344 386.414062,148.007812 386.5,147.25 L386.5,147.25 L383.089844,147.25 C382.910156,147.625 382.703125,147.917969 382.46875,148.128906 C382.039062,148.519531 381.480469,148.714844 380.792969,148.714844 C380.144531,148.714844 379.589844,148.554688 379.128906,148.234375 C378.371094,147.71875 377.96875,146.820312 377.921875,145.539062 L377.921875,145.539062 L386.664062,145.539062 C386.679688,144.4375 386.644531,143.59375 386.558594,143.007812 C386.410156,142.007812 386.085938,141.128906 385.585938,140.371094 C385.03125,139.511719 384.328125,138.882812 383.476562,138.484375 C382.625,138.085938 381.667969,137.886719 380.605469,137.886719 C378.816406,137.886719 377.361328,138.476562 376.240234,139.65625 C375.119141,140.835938 374.558594,142.53125 374.558594,144.742188 C374.558594,147.101562 375.179688,148.804688 376.421875,149.851562 C377.664062,150.898438 379.097656,151.421875 380.722656,151.421875 Z M383.195312,143.335938 L378.003906,143.335938 C378.113281,142.507812 378.380859,141.851562 378.806641,141.367188 C379.232422,140.882812 379.832031,140.640625 380.605469,140.640625 C381.316406,140.640625 381.912109,140.869141 382.392578,141.326172 C382.873047,141.783203 383.140625,142.453125 383.195312,143.335938 L383.195312,143.335938 Z M393.390625,151.398438 C394.296875,151.398438 395.054688,151.226562 395.664062,150.882812 C396.273438,150.539062 396.816406,149.988281 397.292969,149.230469 L397.292969,149.230469 L397.292969,151 L400.539062,151 L400.539062,133.75 L397.152344,133.75 L397.152344,139.84375 C396.777344,139.242188 396.289062,138.771484 395.6875,138.431641 C395.085938,138.091797 394.398438,137.921875 393.625,137.921875 C391.945312,137.921875 390.603516,138.546875 389.599609,139.796875 C388.595703,141.046875 388.09375,142.761719 388.09375,144.941406 C388.09375,146.832031 388.603516,148.380859 389.623047,149.587891 C390.642578,150.794922 391.898438,151.398438 393.390625,151.398438 Z M394.351562,148.585938 C393.40625,148.585938 392.701172,148.232422 392.236328,147.525391 C391.771484,146.818359 391.539062,145.875 391.539062,144.695312 C391.539062,143.601562 391.767578,142.685547 392.224609,141.947266 C392.681641,141.208984 393.398438,140.839844 394.375,140.839844 C395.015625,140.839844 395.578125,141.042969 396.0625,141.449219 C396.851562,142.121094 397.246094,143.238281 397.246094,144.800781 C397.246094,145.917969 397,146.828125 396.507812,147.53125 C396.015625,148.234375 395.296875,148.585938 394.351562,148.585938 Z" id="Disabled" fill="#9E9E9E" fill-rule="nonzero"></path>
        <path d="M536.900391,151.445312 C539.103516,151.445312 540.808594,150.923828 542.015625,149.880859 C543.222656,148.837891 543.826172,147.527344 543.826172,145.949219 C543.826172,144.410156 543.310547,143.234375 542.279297,142.421875 C541.615234,141.898438 540.630859,141.480469 539.326172,141.167969 L539.326172,141.167969 L536.349609,140.453125 C535.201172,140.179688 534.451172,139.941406 534.099609,139.738281 C533.552734,139.433594 533.279297,138.972656 533.279297,138.355469 C533.279297,137.683594 533.556641,137.160156 534.111328,136.785156 C534.666016,136.410156 535.408203,136.222656 536.337891,136.222656 C537.173828,136.222656 537.873047,136.367188 538.435547,136.65625 C539.279297,137.09375 539.732422,137.832031 539.794922,138.871094 L539.794922,138.871094 L543.263672,138.871094 C543.201172,137.035156 542.527344,135.634766 541.242188,134.669922 C539.957031,133.705078 538.404297,133.222656 536.583984,133.222656 C534.404297,133.222656 532.751953,133.734375 531.626953,134.757812 C530.501953,135.78125 529.939453,137.066406 529.939453,138.613281 C529.939453,140.308594 530.521484,141.554688 531.685547,142.351562 C532.373047,142.828125 533.615234,143.269531 535.412109,143.675781 L535.412109,143.675781 L537.240234,144.085938 C538.310547,144.320312 539.095703,144.589844 539.595703,144.894531 C540.095703,145.207031 540.345703,145.648438 540.345703,146.21875 C540.345703,147.195312 539.841797,147.863281 538.833984,148.222656 C538.302734,148.410156 537.611328,148.503906 536.759766,148.503906 C535.337891,148.503906 534.333984,148.148438 533.748047,147.4375 C533.427734,147.046875 533.212891,146.457031 533.103516,145.667969 L533.103516,145.667969 L529.658203,145.667969 C529.658203,147.464844 530.302734,148.876953 531.591797,149.904297 C532.880859,150.931641 534.650391,151.445312 536.900391,151.445312 Z M550.204102,151.18219 L550.494141,151.175781 L552.076172,151.117188 L552.076172,148.621094 C551.966797,148.628906 551.855469,148.634766 551.742188,148.638672 C551.628906,148.642578 551.521484,148.644531 551.419922,148.644531 C550.740234,148.644531 550.333984,148.580078 550.201172,148.451172 C550.068359,148.322266 550.001953,147.996094 550.001953,147.472656 L550.001953,147.472656 L550.001953,140.722656 L552.076172,140.722656 L552.076172,138.34375 L550.001953,138.34375 L550.001953,134.78125 L546.697266,134.78125 L546.697266,138.34375 L544.916016,138.34375 L544.916016,140.722656 L546.697266,140.722656 L546.697266,148.585938 C546.697266,149.382812 546.884766,149.972656 547.259766,150.355469 C547.837891,150.957031 548.916016,151.230469 550.494141,151.175781 L550.204102,151.18219 Z M557.349609,151.398438 C558.255859,151.398438 559.068359,151.191406 559.787109,150.777344 C560.388672,150.425781 560.919922,150 561.380859,149.5 C561.404297,149.789062 561.435547,150.046875 561.474609,150.273438 C561.513672,150.5 561.583984,150.742188 561.685547,151 L561.685547,151 L565.318359,151 L565.318359,150.507812 C565.099609,150.40625 564.935547,150.277344 564.826172,150.121094 C564.716797,149.964844 564.650391,149.667969 564.626953,149.230469 C564.611328,148.652344 564.603516,148.160156 564.603516,147.753906 L564.603516,147.753906 L564.603516,141.894531 C564.603516,140.355469 564.060547,139.308594 562.974609,138.753906 C561.888672,138.199219 560.646484,137.921875 559.248047,137.921875 C557.099609,137.921875 555.583984,138.484375 554.701172,139.609375 C554.146484,140.328125 553.833984,141.246094 553.763672,142.363281 L553.763672,142.363281 L556.986328,142.363281 C557.064453,141.871094 557.220703,141.480469 557.455078,141.191406 C557.783203,140.800781 558.341797,140.605469 559.130859,140.605469 C559.833984,140.605469 560.367188,140.705078 560.730469,140.904297 C561.09375,141.103516 561.275391,141.464844 561.275391,141.988281 C561.275391,142.417969 561.037109,142.734375 560.560547,142.9375 C560.294922,143.054688 559.853516,143.152344 559.236328,143.230469 L559.236328,143.230469 L558.099609,143.371094 C556.810547,143.535156 555.833984,143.808594 555.169922,144.191406 C553.958984,144.894531 553.353516,146.03125 553.353516,147.601562 C553.353516,148.8125 553.730469,149.748047 554.484375,150.408203 C555.238281,151.068359 556.193359,151.398438 557.349609,151.398438 Z M558.333984,148.972656 C557.880859,148.972656 557.496094,148.845703 557.179688,148.591797 C556.863281,148.337891 556.705078,147.925781 556.705078,147.355469 C556.705078,146.714844 556.962891,146.242188 557.478516,145.9375 C557.783203,145.757812 558.287109,145.605469 558.990234,145.480469 L558.990234,145.480469 L559.740234,145.339844 C560.115234,145.269531 560.410156,145.193359 560.625,145.111328 C560.839844,145.029297 561.052734,144.921875 561.263672,144.789062 L561.263672,144.789062 L561.263672,146.03125 C561.240234,147.148438 560.925781,147.917969 560.320312,148.339844 C559.714844,148.761719 559.052734,148.972656 558.333984,148.972656 Z M570.919922,151 L570.919922,144.085938 C570.919922,143.296875 571.029297,142.648438 571.248047,142.140625 C571.669922,141.179688 572.447266,140.699219 573.580078,140.699219 C574.501953,140.699219 575.126953,141.027344 575.455078,141.683594 C575.634766,142.042969 575.724609,142.558594 575.724609,143.230469 L575.724609,143.230469 L575.724609,151 L579.146484,151 L579.146484,142.398438 C579.146484,140.796875 578.726562,139.650391 577.886719,138.958984 C577.046875,138.267578 575.966797,137.921875 574.646484,137.921875 C573.591797,137.921875 572.720703,138.179688 572.033203,138.695312 C571.650391,138.984375 571.244141,139.457031 570.814453,140.113281 L570.814453,140.113281 L570.814453,138.25 L567.591797,138.25 L567.591797,151 L570.919922,151 Z M586.705078,151.398438 C587.611328,151.398438 588.369141,151.226562 588.978516,150.882812 C589.587891,150.539062 590.130859,149.988281 590.607422,149.230469 L590.607422,149.230469 L590.607422,151 L593.853516,151 L593.853516,133.75 L590.466797,133.75 L590.466797,139.84375 C590.091797,139.242188 589.603516,138.771484 589.001953,138.431641 C588.400391,138.091797 587.712891,137.921875 586.939453,137.921875 C585.259766,137.921875 583.917969,138.546875 582.914062,139.796875 C581.910156,141.046875 581.408203,142.761719 581.408203,144.941406 C581.408203,146.832031 581.917969,148.380859 582.9375,149.587891 C583.957031,150.794922 585.212891,151.398438 586.705078,151.398438 Z M587.666016,148.585938 C586.720703,148.585938 586.015625,148.232422 585.550781,147.525391 C585.085938,146.818359 584.853516,145.875 584.853516,144.695312 C584.853516,143.601562 585.082031,142.685547 585.539062,141.947266 C585.996094,141.208984 586.712891,140.839844 587.689453,140.839844 C588.330078,140.839844 588.892578,141.042969 589.376953,141.449219 C590.166016,142.121094 590.560547,143.238281 590.560547,144.800781 C590.560547,145.917969 590.314453,146.828125 589.822266,147.53125 C589.330078,148.234375 588.611328,148.585938 587.666016,148.585938 Z M603.826172,151.339844 C605.505859,151.339844 606.814453,150.6875 607.751953,149.382812 C608.689453,148.078125 609.158203,146.433594 609.158203,144.449219 C609.158203,142.535156 608.683594,140.972656 607.734375,139.761719 C606.785156,138.550781 605.470703,137.945312 603.791016,137.945312 C602.861328,137.945312 602.095703,138.140625 601.494141,138.53125 C600.986328,138.84375 600.521484,139.296875 600.099609,139.890625 L600.099609,139.890625 L600.099609,133.75 L596.771484,133.75 L596.771484,151 L600.041016,151 L600.041016,149.394531 C600.486328,150.019531 600.900391,150.457031 601.283203,150.707031 C601.923828,151.128906 602.771484,151.339844 603.826172,151.339844 Z M602.935547,148.585938 C601.943359,148.585938 601.205078,148.226562 600.720703,147.507812 C600.236328,146.789062 599.994141,145.882812 599.994141,144.789062 C599.994141,143.859375 600.111328,143.101562 600.345703,142.515625 C600.798828,141.414062 601.630859,140.863281 602.841797,140.863281 C604.037109,140.863281 604.857422,141.425781 605.302734,142.550781 C605.537109,143.144531 605.654297,143.894531 605.654297,144.800781 C605.654297,145.933594 605.416016,146.847656 604.939453,147.542969 C604.462891,148.238281 603.794922,148.585938 602.935547,148.585938 Z M613.587891,156.167969 C615.064453,156.167969 616.048828,155.876953 616.541016,155.294922 C617.033203,154.712891 617.701172,153.210938 618.544922,150.789062 L618.544922,150.789062 L622.927734,138.226562 L619.376953,138.226562 L616.740234,147.648438 L613.951172,138.226562 L610.236328,138.226562 L614.923828,151.5625 C614.955078,151.65625 614.886719,151.914062 614.71875,152.335938 C614.550781,152.757812 614.369141,153.035156 614.173828,153.167969 C613.970703,153.308594 613.720703,153.398438 613.423828,153.4375 C613.126953,153.476562 612.814453,153.488281 612.486328,153.472656 L612.486328,153.472656 L612.064453,153.449219 L612.064453,156.121094 C612.423828,156.144531 612.693359,156.158203 612.873047,156.162109 C612.980859,156.164453 613.109766,156.166094 613.259766,156.167031 L613.587891,156.167969 Z" id="Standby" fill="#9E9E9E" fill-rule="nonzero"></path>
        <path d="M745.103516,151 L745.103516,133.726562 L741.517578,133.726562 L741.517578,151 L745.103516,151 Z M751.548828,151 L751.548828,144.085938 C751.548828,143.296875 751.658203,142.648438 751.876953,142.140625 C752.298828,141.179688 753.076172,140.699219 754.208984,140.699219 C755.130859,140.699219 755.755859,141.027344 756.083984,141.683594 C756.263672,142.042969 756.353516,142.558594 756.353516,143.230469 L756.353516,143.230469 L756.353516,151 L759.775391,151 L759.775391,142.398438 C759.775391,140.796875 759.355469,139.650391 758.515625,138.958984 C757.675781,138.267578 756.595703,137.921875 755.275391,137.921875 C754.220703,137.921875 753.349609,138.179688 752.662109,138.695312 C752.279297,138.984375 751.873047,139.457031 751.443359,140.113281 L751.443359,140.113281 L751.443359,138.25 L748.220703,138.25 L748.220703,151 L751.548828,151 Z M766.833008,151.18219 L767.123047,151.175781 L768.705078,151.117188 L768.705078,148.621094 C768.595703,148.628906 768.484375,148.634766 768.371094,148.638672 C768.257812,148.642578 768.150391,148.644531 768.048828,148.644531 C767.369141,148.644531 766.962891,148.580078 766.830078,148.451172 C766.697266,148.322266 766.630859,147.996094 766.630859,147.472656 L766.630859,147.472656 L766.630859,140.722656 L768.705078,140.722656 L768.705078,138.34375 L766.630859,138.34375 L766.630859,134.78125 L763.326172,134.78125 L763.326172,138.34375 L761.544922,138.34375 L761.544922,140.722656 L763.326172,140.722656 L763.326172,148.585938 C763.326172,149.382812 763.513672,149.972656 763.888672,150.355469 C764.466797,150.957031 765.544922,151.230469 767.123047,151.175781 L766.833008,151.18219 Z M776.005859,151.421875 C777.974609,151.421875 779.505859,150.800781 780.599609,149.558594 C781.302734,148.777344 781.697266,148.007812 781.783203,147.25 L781.783203,147.25 L778.373047,147.25 C778.193359,147.625 777.986328,147.917969 777.751953,148.128906 C777.322266,148.519531 776.763672,148.714844 776.076172,148.714844 C775.427734,148.714844 774.873047,148.554688 774.412109,148.234375 C773.654297,147.71875 773.251953,146.820312 773.205078,145.539062 L773.205078,145.539062 L781.947266,145.539062 C781.962891,144.4375 781.927734,143.59375 781.841797,143.007812 C781.693359,142.007812 781.369141,141.128906 780.869141,140.371094 C780.314453,139.511719 779.611328,138.882812 778.759766,138.484375 C777.908203,138.085938 776.951172,137.886719 775.888672,137.886719 C774.099609,137.886719 772.644531,138.476562 771.523438,139.65625 C770.402344,140.835938 769.841797,142.53125 769.841797,144.742188 C769.841797,147.101562 770.462891,148.804688 771.705078,149.851562 C772.947266,150.898438 774.380859,151.421875 776.005859,151.421875 Z M778.478516,143.335938 L773.287109,143.335938 C773.396484,142.507812 773.664062,141.851562 774.089844,141.367188 C774.515625,140.882812 775.115234,140.640625 775.888672,140.640625 C776.599609,140.640625 777.195312,140.869141 777.675781,141.326172 C778.15625,141.783203 778.423828,142.453125 778.478516,143.335938 L778.478516,143.335938 Z M787.525391,151 L787.525391,144.894531 C787.525391,143.871094 787.654297,143.113281 787.912109,142.621094 C788.373047,141.746094 789.275391,141.308594 790.619141,141.308594 C790.720703,141.308594 790.853516,141.3125 791.017578,141.320312 C791.181641,141.328125 791.369141,141.34375 791.580078,141.367188 L791.580078,141.367188 L791.580078,137.945312 C791.431641,137.9375 791.335938,137.931641 791.292969,137.927734 C791.25,137.923828 791.197266,137.921875 791.134766,137.921875 C790.134766,137.921875 789.322266,138.183594 788.697266,138.707031 C788.314453,139.019531 787.865234,139.601562 787.349609,140.453125 L787.349609,140.453125 L787.349609,138.226562 L784.162109,138.226562 L784.162109,151 L787.525391,151 Z M796.666016,151.398438 C797.572266,151.398438 798.384766,151.191406 799.103516,150.777344 C799.705078,150.425781 800.236328,150 800.697266,149.5 C800.720703,149.789062 800.751953,150.046875 800.791016,150.273438 C800.830078,150.5 800.900391,150.742188 801.001953,151 L801.001953,151 L804.634766,151 L804.634766,150.507812 C804.416016,150.40625 804.251953,150.277344 804.142578,150.121094 C804.033203,149.964844 803.966797,149.667969 803.943359,149.230469 C803.927734,148.652344 803.919922,148.160156 803.919922,147.753906 L803.919922,147.753906 L803.919922,141.894531 C803.919922,140.355469 803.376953,139.308594 802.291016,138.753906 C801.205078,138.199219 799.962891,137.921875 798.564453,137.921875 C796.416016,137.921875 794.900391,138.484375 794.017578,139.609375 C793.462891,140.328125 793.150391,141.246094 793.080078,142.363281 L793.080078,142.363281 L796.302734,142.363281 C796.380859,141.871094 796.537109,141.480469 796.771484,141.191406 C797.099609,140.800781 797.658203,140.605469 798.447266,140.605469 C799.150391,140.605469 799.683594,140.705078 800.046875,140.904297 C800.410156,141.103516 800.591797,141.464844 800.591797,141.988281 C800.591797,142.417969 800.353516,142.734375 799.876953,142.9375 C799.611328,143.054688 799.169922,143.152344 798.552734,143.230469 L798.552734,143.230469 L797.416016,143.371094 C796.126953,143.535156 795.150391,143.808594 794.486328,144.191406 C793.275391,144.894531 792.669922,146.03125 792.669922,147.601562 C792.669922,148.8125 793.046875,149.748047 793.800781,150.408203 C794.554688,151.068359 795.509766,151.398438 796.666016,151.398438 Z M797.650391,148.972656 C797.197266,148.972656 796.8125,148.845703 796.496094,148.591797 C796.179688,148.337891 796.021484,147.925781 796.021484,147.355469 C796.021484,146.714844 796.279297,146.242188 796.794922,145.9375 C797.099609,145.757812 797.603516,145.605469 798.306641,145.480469 L798.306641,145.480469 L799.056641,145.339844 C799.431641,145.269531 799.726562,145.193359 799.941406,145.111328 C800.15625,145.029297 800.369141,144.921875 800.580078,144.789062 L800.580078,144.789062 L800.580078,146.03125 C800.556641,147.148438 800.242188,147.917969 799.636719,148.339844 C799.03125,148.761719 798.369141,148.972656 797.650391,148.972656 Z M812.146484,151.445312 C814.201172,151.445312 815.751953,150.714844 816.798828,149.253906 C817.455078,148.347656 817.822266,147.386719 817.900391,146.371094 L817.900391,146.371094 L814.490234,146.371094 C814.419922,147.042969 814.220703,147.589844 813.892578,148.011719 C813.564453,148.433594 813.009766,148.644531 812.228516,148.644531 C811.126953,148.644531 810.376953,148.113281 809.978516,147.050781 C809.759766,146.480469 809.650391,145.726562 809.650391,144.789062 C809.650391,143.804688 809.759766,143.015625 809.978516,142.421875 C810.392578,141.304688 811.162109,140.746094 812.287109,140.746094 C813.076172,140.746094 813.658203,141.003906 814.033203,141.519531 C814.291016,141.902344 814.451172,142.332031 814.513672,142.808594 L814.513672,142.808594 L817.935547,142.808594 C817.748047,140.988281 817.144531,139.71875 816.125,139 C815.105469,138.28125 813.794922,137.921875 812.193359,137.921875 C810.310547,137.921875 808.833984,138.53125 807.763672,139.75 C806.693359,140.96875 806.158203,142.675781 806.158203,144.871094 C806.158203,146.816406 806.642578,148.398438 807.611328,149.617188 C808.580078,150.835938 810.091797,151.445312 812.146484,151.445312 Z M824.208008,151.18219 L824.498047,151.175781 L826.080078,151.117188 L826.080078,148.621094 C825.970703,148.628906 825.859375,148.634766 825.746094,148.638672 C825.632812,148.642578 825.525391,148.644531 825.423828,148.644531 C824.744141,148.644531 824.337891,148.580078 824.205078,148.451172 C824.072266,148.322266 824.005859,147.996094 824.005859,147.472656 L824.005859,147.472656 L824.005859,140.722656 L826.080078,140.722656 L826.080078,138.34375 L824.005859,138.34375 L824.005859,134.78125 L820.701172,134.78125 L820.701172,138.34375 L818.919922,138.34375 L818.919922,140.722656 L820.701172,140.722656 L820.701172,148.585938 C820.701172,149.382812 820.888672,149.972656 821.263672,150.355469 C821.841797,150.957031 822.919922,151.230469 824.498047,151.175781 L824.208008,151.18219 Z M831.658203,136.703125 L831.658203,133.621094 L828.271484,133.621094 L828.271484,136.703125 L831.658203,136.703125 Z M831.658203,151 L831.658203,138.226562 L828.271484,138.226562 L828.271484,151 L831.658203,151 Z M841.748047,151 L846.353516,138.226562 L842.767578,138.226562 L840.048828,147.648438 L837.388672,138.226562 L833.638672,138.226562 L838.220703,151 L841.748047,151 Z M853.396484,151.421875 C855.365234,151.421875 856.896484,150.800781 857.990234,149.558594 C858.693359,148.777344 859.087891,148.007812 859.173828,147.25 L859.173828,147.25 L855.763672,147.25 C855.583984,147.625 855.376953,147.917969 855.142578,148.128906 C854.712891,148.519531 854.154297,148.714844 853.466797,148.714844 C852.818359,148.714844 852.263672,148.554688 851.802734,148.234375 C851.044922,147.71875 850.642578,146.820312 850.595703,145.539062 L850.595703,145.539062 L859.337891,145.539062 C859.353516,144.4375 859.318359,143.59375 859.232422,143.007812 C859.083984,142.007812 858.759766,141.128906 858.259766,140.371094 C857.705078,139.511719 857.001953,138.882812 856.150391,138.484375 C855.298828,138.085938 854.341797,137.886719 853.279297,137.886719 C851.490234,137.886719 850.035156,138.476562 848.914062,139.65625 C847.792969,140.835938 847.232422,142.53125 847.232422,144.742188 C847.232422,147.101562 847.853516,148.804688 849.095703,149.851562 C850.337891,150.898438 851.771484,151.421875 853.396484,151.421875 Z M855.869141,143.335938 L850.677734,143.335938 C850.787109,142.507812 851.054688,141.851562 851.480469,141.367188 C851.90625,140.882812 852.505859,140.640625 853.279297,140.640625 C853.990234,140.640625 854.585938,140.869141 855.066406,141.326172 C855.546875,141.783203 855.814453,142.453125 855.869141,143.335938 L855.869141,143.335938 Z" id="Interactive" fill="#9E9E9E" fill-rule="nonzero"></path>
        <path d="M951.431641,151 L951.431641,144.226562 L955.158203,144.226562 C956.220703,144.226562 956.945312,144.410156 957.332031,144.777344 C957.71875,145.144531 957.919922,145.878906 957.935547,146.980469 L957.935547,146.980469 L957.958984,148.585938 C957.966797,149.09375 958.017578,149.589844 958.111328,150.074219 C958.158203,150.308594 958.236328,150.617188 958.345703,151 L958.345703,151 L962.318359,151 L962.318359,150.566406 C961.974609,150.355469 961.755859,150.027344 961.662109,149.582031 C961.599609,149.300781 961.568359,148.765625 961.568359,147.976562 L961.568359,147.976562 L961.568359,146.816406 C961.568359,145.605469 961.402344,144.705078 961.070312,144.115234 C960.738281,143.525391 960.173828,143.070312 959.376953,142.75 C960.330078,142.421875 961.013672,141.861328 961.427734,141.068359 C961.841797,140.275391 962.048828,139.46875 962.048828,138.648438 C962.048828,137.96875 961.939453,137.363281 961.720703,136.832031 C961.501953,136.300781 961.205078,135.816406 960.830078,135.378906 C960.376953,134.847656 959.824219,134.445312 959.171875,134.171875 C958.519531,133.898438 957.587891,133.75 956.376953,133.726562 L956.376953,133.726562 L947.904297,133.726562 L947.904297,151 L951.431641,151 Z M955.521484,141.367188 L951.431641,141.367188 L951.431641,136.726562 L955.626953,136.726562 C956.408203,136.726562 956.994141,136.828125 957.384766,137.03125 C958.080078,137.390625 958.427734,138.09375 958.427734,139.140625 C958.427734,140.109375 958.068359,140.757812 957.349609,141.085938 C956.943359,141.273438 956.333984,141.367188 955.521484,141.367188 L955.521484,141.367188 Z M970.041016,151.421875 C972.009766,151.421875 973.541016,150.800781 974.634766,149.558594 C975.337891,148.777344 975.732422,148.007812 975.818359,147.25 L975.818359,147.25 L972.408203,147.25 C972.228516,147.625 972.021484,147.917969 971.787109,148.128906 C971.357422,148.519531 970.798828,148.714844 970.111328,148.714844 C969.462891,148.714844 968.908203,148.554688 968.447266,148.234375 C967.689453,147.71875 967.287109,146.820312 967.240234,145.539062 L967.240234,145.539062 L975.982422,145.539062 C975.998047,144.4375 975.962891,143.59375 975.876953,143.007812 C975.728516,142.007812 975.404297,141.128906 974.904297,140.371094 C974.349609,139.511719 973.646484,138.882812 972.794922,138.484375 C971.943359,138.085938 970.986328,137.886719 969.923828,137.886719 C968.134766,137.886719 966.679688,138.476562 965.558594,139.65625 C964.4375,140.835938 963.876953,142.53125 963.876953,144.742188 C963.876953,147.101562 964.498047,148.804688 965.740234,149.851562 C966.982422,150.898438 968.416016,151.421875 970.041016,151.421875 Z M972.513672,143.335938 L967.322266,143.335938 C967.431641,142.507812 967.699219,141.851562 968.125,141.367188 C968.550781,140.882812 969.150391,140.640625 969.923828,140.640625 C970.634766,140.640625 971.230469,140.869141 971.710938,141.326172 C972.191406,141.783203 972.458984,142.453125 972.513672,143.335938 L972.513672,143.335938 Z M981.361328,151.398438 C982.267578,151.398438 983.080078,151.191406 983.798828,150.777344 C984.400391,150.425781 984.931641,150 985.392578,149.5 C985.416016,149.789062 985.447266,150.046875 985.486328,150.273438 C985.525391,150.5 985.595703,150.742188 985.697266,151 L985.697266,151 L989.330078,151 L989.330078,150.507812 C989.111328,150.40625 988.947266,150.277344 988.837891,150.121094 C988.728516,149.964844 988.662109,149.667969 988.638672,149.230469 C988.623047,148.652344 988.615234,148.160156 988.615234,147.753906 L988.615234,147.753906 L988.615234,141.894531 C988.615234,140.355469 988.072266,139.308594 986.986328,138.753906 C985.900391,138.199219 984.658203,137.921875 983.259766,137.921875 C981.111328,137.921875 979.595703,138.484375 978.712891,139.609375 C978.158203,140.328125 977.845703,141.246094 977.775391,142.363281 L977.775391,142.363281 L980.998047,142.363281 C981.076172,141.871094 981.232422,141.480469 981.466797,141.191406 C981.794922,140.800781 982.353516,140.605469 983.142578,140.605469 C983.845703,140.605469 984.378906,140.705078 984.742188,140.904297 C985.105469,141.103516 985.287109,141.464844 985.287109,141.988281 C985.287109,142.417969 985.048828,142.734375 984.572266,142.9375 C984.306641,143.054688 983.865234,143.152344 983.248047,143.230469 L983.248047,143.230469 L982.111328,143.371094 C980.822266,143.535156 979.845703,143.808594 979.181641,144.191406 C977.970703,144.894531 977.365234,146.03125 977.365234,147.601562 C977.365234,148.8125 977.742188,149.748047 978.496094,150.408203 C979.25,151.068359 980.205078,151.398438 981.361328,151.398438 Z M982.345703,148.972656 C981.892578,148.972656 981.507812,148.845703 981.191406,148.591797 C980.875,148.337891 980.716797,147.925781 980.716797,147.355469 C980.716797,146.714844 980.974609,146.242188 981.490234,145.9375 C981.794922,145.757812 982.298828,145.605469 983.001953,145.480469 L983.001953,145.480469 L983.751953,145.339844 C984.126953,145.269531 984.421875,145.193359 984.636719,145.111328 C984.851562,145.029297 985.064453,144.921875 985.275391,144.789062 L985.275391,144.789062 L985.275391,146.03125 C985.251953,147.148438 984.9375,147.917969 984.332031,148.339844 C983.726562,148.761719 983.064453,148.972656 982.345703,148.972656 Z M996.841797,151.445312 C998.896484,151.445312 1000.44727,150.714844 1001.49414,149.253906 C1002.15039,148.347656 1002.51758,147.386719 1002.5957,146.371094 L1002.5957,146.371094 L999.185547,146.371094 C999.115234,147.042969 998.916016,147.589844 998.587891,148.011719 C998.259766,148.433594 997.705078,148.644531 996.923828,148.644531 C995.822266,148.644531 995.072266,148.113281 994.673828,147.050781 C994.455078,146.480469 994.345703,145.726562 994.345703,144.789062 C994.345703,143.804688 994.455078,143.015625 994.673828,142.421875 C995.087891,141.304688 995.857422,140.746094 996.982422,140.746094 C997.771484,140.746094 998.353516,141.003906 998.728516,141.519531 C998.986328,141.902344 999.146484,142.332031 999.208984,142.808594 L999.208984,142.808594 L1002.63086,142.808594 C1002.44336,140.988281 1001.83984,139.71875 1000.82031,139 C999.800781,138.28125 998.490234,137.921875 996.888672,137.921875 C995.005859,137.921875 993.529297,138.53125 992.458984,139.75 C991.388672,140.96875 990.853516,142.675781 990.853516,144.871094 C990.853516,146.816406 991.337891,148.398438 992.306641,149.617188 C993.275391,150.835938 994.787109,151.445312 996.841797,151.445312 Z M1008.2793,151 L1008.2793,144.085938 C1008.2793,142.992188 1008.50781,142.150391 1008.96484,141.560547 C1009.42188,140.970703 1010.0918,140.675781 1010.97461,140.675781 C1011.82617,140.675781 1012.4043,140.972656 1012.70898,141.566406 C1012.94336,141.988281 1013.06055,142.542969 1013.06055,143.230469 L1013.06055,143.230469 L1013.06055,151 L1016.4707,151 L1016.4707,143.5 C1016.4707,142.359375 1016.43164,141.537109 1016.35352,141.033203 C1016.27539,140.529297 1016.06055,140.039062 1015.70898,139.5625 C1015.29492,139 1014.76562,138.582031 1014.12109,138.308594 C1013.47656,138.035156 1012.75977,137.898438 1011.9707,137.898438 C1011.26758,137.898438 1010.59766,138.044922 1009.96094,138.337891 C1009.32422,138.630859 1008.76367,139.148438 1008.2793,139.890625 L1008.2793,139.890625 L1008.2793,133.785156 L1004.95117,133.785156 L1004.95117,151 L1008.2793,151 Z M1023.02148,136.703125 L1023.02148,133.621094 L1019.63477,133.621094 L1019.63477,136.703125 L1023.02148,136.703125 Z M1023.02148,151 L1023.02148,138.226562 L1019.63477,138.226562 L1019.63477,151 L1023.02148,151 Z M1029.60742,151 L1029.60742,144.085938 C1029.60742,143.296875 1029.7168,142.648438 1029.93555,142.140625 C1030.35742,141.179688 1031.13477,140.699219 1032.26758,140.699219 C1033.18945,140.699219 1033.81445,141.027344 1034.14258,141.683594 C1034.32227,142.042969 1034.41211,142.558594 1034.41211,143.230469 L1034.41211,143.230469 L1034.41211,151 L1037.83398,151 L1037.83398,142.398438 C1037.83398,140.796875 1037.41406,139.650391 1036.57422,138.958984 C1035.73438,138.267578 1034.6543,137.921875 1033.33398,137.921875 C1032.2793,137.921875 1031.4082,138.179688 1030.7207,138.695312 C1030.33789,138.984375 1029.93164,139.457031 1029.50195,140.113281 L1029.50195,140.113281 L1029.50195,138.25 L1026.2793,138.25 L1026.2793,151 L1029.60742,151 Z M1046.14258,156.226562 C1048.8457,156.226562 1050.67383,155.507812 1051.62695,154.070312 C1052.18164,153.234375 1052.45898,151.992188 1052.45898,150.34375 L1052.45898,150.34375 L1052.45898,138.226562 L1049.21289,138.226562 L1049.21289,140.066406 C1048.71289,139.167969 1048.05664,138.550781 1047.24414,138.214844 C1046.76758,138.019531 1046.20898,137.921875 1045.56836,137.921875 C1043.83398,137.921875 1042.49414,138.568359 1041.54883,139.861328 C1040.60352,141.154297 1040.13086,142.75 1040.13086,144.648438 C1040.13086,146.617188 1040.62109,148.177734 1041.60156,149.330078 C1042.58203,150.482422 1043.89258,151.058594 1045.5332,151.058594 C1046.5957,151.058594 1047.45898,150.804688 1048.12305,150.296875 C1048.49023,150.023438 1048.83398,149.613281 1049.1543,149.066406 L1049.1543,149.066406 L1049.1543,149.886719 C1049.1543,151.105469 1049.02148,151.972656 1048.75586,152.488281 C1048.34961,153.292969 1047.54492,153.695312 1046.3418,153.695312 C1045.49023,153.695312 1044.88477,153.542969 1044.52539,153.238281 C1044.31445,153.066406 1044.16211,152.785156 1044.06836,152.394531 L1044.06836,152.394531 L1040.43555,152.394531 C1040.54492,153.667969 1041.11523,154.625 1042.14648,155.265625 C1043.17773,155.90625 1044.50977,156.226562 1046.14258,156.226562 Z M1046.40039,148.257812 C1045.22852,148.257812 1044.41602,147.71875 1043.96289,146.640625 C1043.71289,146.0625 1043.58789,145.402344 1043.58789,144.660156 C1043.58789,143.800781 1043.70508,143.078125 1043.93945,142.492188 C1044.38477,141.390625 1045.19336,140.839844 1046.36523,140.839844 C1047.22461,140.839844 1047.91016,141.15625 1048.42188,141.789062 C1048.93359,142.421875 1049.18945,143.34375 1049.18945,144.554688 C1049.18945,145.84375 1048.91992,146.783203 1048.38086,147.373047 C1047.8418,147.962891 1047.18164,148.257812 1046.40039,148.257812 Z M1070.1543,151.480469 C1072.62305,151.480469 1074.50977,150.808594 1075.81445,149.464844 C1077.55664,147.816406 1078.42773,145.441406 1078.42773,142.339844 C1078.42773,139.175781 1077.55664,136.800781 1075.81445,135.214844 C1074.50977,133.871094 1072.62305,133.199219 1070.1543,133.199219 C1067.68555,133.199219 1065.79883,133.871094 1064.49414,135.214844 C1062.74414,136.800781 1061.86914,139.175781 1061.86914,142.339844 C1061.86914,145.441406 1062.74414,147.816406 1064.49414,149.464844 C1065.79883,150.808594 1067.68555,151.480469 1070.1543,151.480469 Z M1070.1543,148.421875 C1068.72461,148.421875 1067.58398,147.894531 1066.73242,146.839844 C1065.88086,145.785156 1065.45508,144.285156 1065.45508,142.339844 C1065.45508,140.394531 1065.88086,138.894531 1066.73242,137.839844 C1067.58398,136.785156 1068.72461,136.257812 1070.1543,136.257812 C1071.58398,136.257812 1072.71875,136.787109 1073.55859,137.845703 C1074.39844,138.904297 1074.81836,140.402344 1074.81836,142.339844 C1074.81836,144.285156 1074.39844,145.785156 1073.55859,146.839844 C1072.71875,147.894531 1071.58398,148.421875 1070.1543,148.421875 Z M1085.18945,151.28125 C1085.8457,151.28125 1086.41797,151.195312 1086.90625,151.023438 C1087.39453,150.851562 1087.90039,150.53125 1088.42383,150.0625 C1088.5957,149.914062 1088.74414,149.742188 1088.86914,149.546875 C1088.99414,149.351562 1089.07227,149.234375 1089.10352,149.195312 L1089.10352,149.195312 L1089.10352,151 L1092.34961,151 L1092.34961,138.226562 L1088.96289,138.226562 L1088.96289,145.175781 C1088.96289,145.996094 1088.85352,146.65625 1088.63477,147.15625 C1088.21289,148.078125 1087.43164,148.539062 1086.29102,148.539062 C1085.40039,148.539062 1084.80273,148.214844 1084.49805,147.566406 C1084.32617,147.199219 1084.24023,146.652344 1084.24023,145.925781 L1084.24023,145.925781 L1084.24023,138.226562 L1080.81836,138.226562 L1080.81836,145.925781 C1080.81836,147.386719 1081.00195,148.492188 1081.36914,149.242188 C1082.02539,150.601562 1083.29883,151.28125 1085.18945,151.28125 Z M1099.54785,151.18219 L1099.83789,151.175781 L1101.41992,151.117188 L1101.41992,148.621094 C1101.31055,148.628906 1101.19922,148.634766 1101.08594,148.638672 C1100.97266,148.642578 1100.86523,148.644531 1100.76367,148.644531 C1100.08398,148.644531 1099.67773,148.580078 1099.54492,148.451172 C1099.41211,148.322266 1099.3457,147.996094 1099.3457,147.472656 L1099.3457,147.472656 L1099.3457,140.722656 L1101.41992,140.722656 L1101.41992,138.34375 L1099.3457,138.34375 L1099.3457,134.78125 L1096.04102,134.78125 L1096.04102,138.34375 L1094.25977,138.34375 L1094.25977,140.722656 L1096.04102,140.722656 L1096.04102,148.585938 C1096.04102,149.382812 1096.22852,149.972656 1096.60352,150.355469 C1097.18164,150.957031 1098.25977,151.230469 1099.83789,151.175781 L1099.54785,151.18219 Z" id="ReachingOut" fill="#9E9E9E" fill-rule="nonzero"></path>
    </g>
</svg>