<?xml version="1.0" encoding="UTF-8"?>
<svg width="992px" height="416px" viewBox="0 0 992 416" version="1.1" xmlns="http://www.w3.org/2000/svg" xmlns:xlink="http://www.w3.org/1999/xlink">
    <title>inputs-example</title>
    <defs>
        <rect id="path-1" x="0" y="0" width="742" height="64" rx="8"></rect>
        <filter x="-3.4%" y="-39.1%" width="106.7%" height="178.1%" filterUnits="objectBoundingBox" id="filter-2">
            <feMorphology radius="1" operator="dilate" in="SourceAlpha" result="shadowSpreadOuter1"></feMorphology>
            <feOffset dx="0" dy="0" in="shadowSpreadOuter1" result="shadowOffsetOuter1"></feOffset>
            <feGaussianBlur stdDeviation="8" in="shadowOffsetOuter1" result="shadowBlurOuter1"></feGaussianBlur>
            <feComposite in="shadowBlurOuter1" in2="SourceAlpha" operator="out" result="shadowBlurOuter1"></feComposite>
            <feColorMatrix values="0 0 0 0 0.062745098   0 0 0 0 0.537254902   0 0 0 0 1  0 0 0 1 0" type="matrix" in="shadowBlurOuter1"></feColorMatrix>
        </filter>
    </defs>
    <g id="inputs-example" stroke="none" stroke-width="1" fill="none" fill-rule="evenodd">
        <rect id="Rectangle" fill="#EEEEEE" x="0" y="0" width="806" height="416" rx="8"></rect>
        <g id="Group-Copy" transform="translate(32.000000, 32.000000)">
            <rect id="Rectangle" stroke="#BDBDBD" stroke-width="2" fill="#E0E0E0" x="0" y="0" width="742" height="64" rx="8"></rect>
            <path d="M33.265625,43 L33.265625,39.484375 L29.75,39.484375 C28.8645833,39.484375 28.2317708,39.3151042 27.8515625,38.9765625 C27.4713542,38.6380208 27.28125,38.078125 27.28125,37.296875 L27.28125,37.296875 L27.28125,29.015625 L33.265625,29.015625 L33.265625,25.5 L27.28125,25.5 L27.28125,20.53125 L22.703125,20.53125 L22.703125,25.5 L18.234375,25.5 L18.234375,29.015625 L22.703125,29.015625 L22.703125,37.078125 C22.703125,39.3489583 23.1666667,40.9036458 24.09375,41.7421875 C25.0208333,42.5807292 26.796875,43 29.421875,43 L29.421875,43 L33.265625,43 Z M41.53125,49.625 C42.7604167,49.625 43.8046875,49.2473958 44.6640625,48.4921875 C45.5234375,47.7369792 46.2604167,46.5364583 46.875,44.890625 L46.875,44.890625 L54.140625,25.5 L49.328125,25.5 L45.5,36.859375 L41.5,25.5 L36.6875,25.5 L43.34375,42.515625 L43,43.453125 C42.5520833,44.609375 42.109375,45.3463542 41.671875,45.6640625 C41.234375,45.9817708 40.546875,46.140625 39.609375,46.140625 L39.609375,46.140625 L37.75,46.140625 L37.75,49.625 L41.53125,49.625 Z M61.9375,49.65625 L61.9375,40.53125 C62.5,41.5104167 63.1536458,42.2421875 63.8984375,42.7265625 C64.6432292,43.2109375 65.484375,43.453125 66.421875,43.453125 C68.4947917,43.453125 70.0911458,42.6614583 71.2109375,41.078125 C72.3307292,39.4947917 72.890625,37.2239583 72.890625,34.265625 C72.890625,31.3489583 72.3385417,29.0885417 71.234375,27.484375 C70.1302083,25.8802083 68.578125,25.078125 66.578125,25.078125 C65.5260417,25.078125 64.609375,25.3333333 63.828125,25.84375 C63.046875,26.3541667 62.4166667,27.1145833 61.9375,28.125 L61.9375,28.125 L61.9375,25.5 L57.375,25.5 L57.375,49.65625 L61.9375,49.65625 Z M65.140625,39.640625 C64.1510417,39.640625 63.3697917,39.1614583 62.796875,38.203125 C62.2239583,37.2447917 61.9375,35.921875 61.9375,34.234375 C61.9375,32.546875 62.2239583,31.2239583 62.796875,30.265625 C63.3697917,29.3072917 64.1510417,28.828125 65.140625,28.828125 C66.1302083,28.828125 66.90625,29.3072917 67.46875,30.265625 C68.03125,31.2239583 68.3125,32.546875 68.3125,34.234375 C68.3125,35.921875 68.03125,37.2447917 67.46875,38.203125 C66.90625,39.1614583 66.1302083,39.640625 65.140625,39.640625 Z M84.765625,43.453125 C85.9947917,43.453125 87.1614583,43.34375 88.265625,43.125 C89.3697917,42.90625 90.453125,42.578125 91.515625,42.140625 L91.515625,42.140625 L91.515625,37.9375 C90.4010417,38.59375 89.3333333,39.0729167 88.3125,39.375 C87.2916667,39.6770833 86.2552083,39.828125 85.203125,39.828125 C83.609375,39.828125 82.4114583,39.4895833 81.609375,38.8125 C80.8072917,38.1354167 80.4010417,37.109375 80.390625,35.734375 L80.390625,35.734375 L92.25,35.734375 L92.25,33.875 C92.25,31.0833333 91.5338542,28.9192708 90.1015625,27.3828125 C88.6692708,25.8463542 86.65625,25.078125 84.0625,25.078125 C81.4895833,25.078125 79.4583333,25.90625 77.96875,27.5625 C76.4791667,29.21875 75.734375,31.4739583 75.734375,34.328125 C75.734375,37.2760417 76.5078125,39.5338542 78.0546875,41.1015625 C79.6015625,42.6692708 81.8385417,43.453125 84.765625,43.453125 Z M80.4375,32.3125 C80.5520833,31.1354167 80.921875,30.2265625 81.546875,29.5859375 C82.171875,28.9453125 83.0104167,28.625 84.0625,28.625 C85.2291667,28.625 86.1119792,28.9348958 86.7109375,29.5546875 C87.3098958,30.1744792 87.6197917,31.0885417 87.640625,32.296875 L87.640625,32.296875 L80.4375,32.3125 Z M122.390625,43.453125 C124.765625,43.453125 126.544271,43.0026042 127.726562,42.1015625 C128.908854,41.2005208 129.5,39.8489583 129.5,38.046875 C129.5,36.546875 129.111979,35.3567708 128.335938,34.4765625 C127.559896,33.5963542 126.338542,32.9583333 124.671875,32.5625 L124.671875,32.5625 L123.359375,32.25 L123.1875,32.203125 C120.958333,31.6822917 119.84375,31.0052083 119.84375,30.171875 C119.84375,29.5885417 120.104167,29.1484375 120.625,28.8515625 C121.145833,28.5546875 121.916667,28.40625 122.9375,28.40625 C123.854167,28.40625 124.768229,28.5442708 125.679688,28.8203125 C126.591146,29.0963542 127.46875,29.5052083 128.3125,30.046875 L128.3125,30.046875 L128.3125,26.046875 C127.385417,25.7239583 126.429688,25.4817708 125.445312,25.3203125 C124.460938,25.1588542 123.473958,25.078125 122.484375,25.078125 C120.276042,25.078125 118.5625,25.546875 117.34375,26.484375 C116.125,27.421875 115.515625,28.734375 115.515625,30.421875 C115.515625,31.8385417 115.916667,32.96875 116.71875,33.8125 C117.520833,34.65625 118.796875,35.2760417 120.546875,35.671875 L120.546875,35.671875 L121.8125,35.953125 C123.28125,36.3072917 124.210938,36.640625 124.601562,36.953125 C124.992188,37.265625 125.1875,37.7135417 125.1875,38.296875 C125.1875,38.890625 124.911458,39.34375 124.359375,39.65625 C123.807292,39.96875 122.994792,40.125 121.921875,40.125 C120.942708,40.125 119.929688,39.9739583 118.882812,39.671875 C117.835938,39.3697917 116.807292,38.9322917 115.796875,38.359375 L115.796875,38.359375 L115.796875,42.359375 C116.932292,42.7239583 118.052083,42.9973958 119.15625,43.1796875 C120.260417,43.3619792 121.338542,43.453125 122.390625,43.453125 Z M141.71875,43.453125 C144.197917,43.453125 146.169271,42.6276042 147.632812,40.9765625 C149.096354,39.3255208 149.828125,37.0885417 149.828125,34.265625 C149.828125,31.4427083 149.096354,29.2057292 147.632812,27.5546875 C146.169271,25.9036458 144.197917,25.078125 141.71875,25.078125 C139.25,25.078125 137.283854,25.9036458 135.820312,27.5546875 C134.356771,29.2057292 133.625,31.4427083 133.625,34.265625 C133.625,37.0885417 134.356771,39.3255208 135.820312,40.9765625 C137.283854,42.6276042 139.25,43.453125 141.71875,43.453125 Z M141.71875,39.734375 C140.625,39.734375 139.765625,39.2526042 139.140625,38.2890625 C138.515625,37.3255208 138.203125,35.984375 138.203125,34.265625 C138.203125,32.546875 138.515625,31.2057292 139.140625,30.2421875 C139.765625,29.2786458 140.625,28.796875 141.71875,28.796875 C142.822917,28.796875 143.6875,29.2786458 144.3125,30.2421875 C144.9375,31.2057292 145.25,32.546875 145.25,34.265625 C145.25,35.984375 144.9375,37.3255208 144.3125,38.2890625 C143.6875,39.2526042 142.822917,39.734375 141.71875,39.734375 Z M156.390625,43 L156.390625,31.765625 C156.390625,30.4635417 156.489583,29.59375 156.6875,29.15625 C156.885417,28.71875 157.244792,28.5 157.765625,28.5 C158.286458,28.5 158.651042,28.7239583 158.859375,29.171875 C159.067708,29.6197917 159.171875,30.484375 159.171875,31.765625 L159.171875,31.765625 L159.171875,43 L162.875,43 L162.875,31.765625 C162.875,30.484375 162.979167,29.6197917 163.1875,29.171875 C163.395833,28.7239583 163.760417,28.5 164.28125,28.5 C164.802083,28.5 165.161458,28.71875 165.359375,29.15625 C165.557292,29.59375 165.65625,30.4635417 165.65625,31.765625 L165.65625,31.765625 L165.65625,43 L169.40625,43 L169.40625,33.140625 C169.40625,29.8489583 169.117188,27.6822917 168.539062,26.640625 C167.960938,25.5989583 166.916667,25.078125 165.40625,25.078125 C164.635417,25.078125 163.984375,25.2552083 163.453125,25.609375 C162.921875,25.9635417 162.484375,26.5104167 162.140625,27.25 C162.015625,26.6458333 161.661458,26.1328125 161.078125,25.7109375 C160.494792,25.2890625 159.848958,25.078125 159.140625,25.078125 C158.432292,25.078125 157.791667,25.2786458 157.21875,25.6796875 C156.645833,26.0807292 156.229167,26.625 155.96875,27.3125 L155.96875,27.3125 L155.96875,25.5 L152.640625,25.5 L152.640625,43 L156.390625,43 Z M181.09375,43.453125 C182.322917,43.453125 183.489583,43.34375 184.59375,43.125 C185.697917,42.90625 186.78125,42.578125 187.84375,42.140625 L187.84375,42.140625 L187.84375,37.9375 C186.729167,38.59375 185.661458,39.0729167 184.640625,39.375 C183.619792,39.6770833 182.583333,39.828125 181.53125,39.828125 C179.9375,39.828125 178.739583,39.4895833 177.9375,38.8125 C177.135417,38.1354167 176.729167,37.109375 176.71875,35.734375 L176.71875,35.734375 L188.578125,35.734375 L188.578125,33.875 C188.578125,31.0833333 187.861979,28.9192708 186.429688,27.3828125 C184.997396,25.8463542 182.984375,25.078125 180.390625,25.078125 C177.817708,25.078125 175.786458,25.90625 174.296875,27.5625 C172.807292,29.21875 172.0625,31.4739583 172.0625,34.328125 C172.0625,37.2760417 172.835938,39.5338542 174.382812,41.1015625 C175.929688,42.6692708 178.166667,43.453125 181.09375,43.453125 Z M176.765625,32.3125 C176.880208,31.1354167 177.25,30.2265625 177.875,29.5859375 C178.5,28.9453125 179.338542,28.625 180.390625,28.625 C181.557292,28.625 182.440104,28.9348958 183.039062,29.5546875 C183.638021,30.1744792 183.947917,31.0885417 183.96875,32.296875 L183.96875,32.296875 L176.765625,32.3125 Z M206.65625,43 L206.65625,39.484375 L203.140625,39.484375 C202.255208,39.484375 201.622396,39.3151042 201.242188,38.9765625 C200.861979,38.6380208 200.671875,38.078125 200.671875,37.296875 L200.671875,37.296875 L200.671875,29.015625 L206.65625,29.015625 L206.65625,25.5 L200.671875,25.5 L200.671875,20.53125 L196.09375,20.53125 L196.09375,25.5 L191.625,25.5 L191.625,29.015625 L196.09375,29.015625 L196.09375,37.078125 C196.09375,39.3489583 196.557292,40.9036458 197.484375,41.7421875 C198.411458,42.5807292 200.1875,43 202.8125,43 L202.8125,43 L206.65625,43 Z M216.390625,43 L216.390625,32.984375 C216.390625,31.6822917 216.625,30.6640625 217.09375,29.9296875 C217.5625,29.1953125 218.213542,28.828125 219.046875,28.828125 C219.859375,28.828125 220.445312,29.0989583 220.804688,29.640625 C221.164062,30.1822917 221.34375,31.0833333 221.34375,32.34375 L221.34375,32.34375 L221.34375,43 L225.890625,43 L225.890625,31.640625 C225.890625,29.4635417 225.46875,27.8255208 224.625,26.7265625 C223.78125,25.6276042 222.53125,25.078125 220.875,25.078125 C219.770833,25.078125 218.828125,25.34375 218.046875,25.875 C217.265625,26.40625 216.713542,27.15625 216.390625,28.125 L216.390625,28.125 L216.390625,18.6875 L211.84375,18.6875 L211.84375,43 L216.390625,43 Z M240.9375,22.328125 L240.9375,16.984375 L236.359375,16.984375 L236.359375,22.328125 L240.9375,22.328125 Z M246.625,43 L246.625,39.484375 L240.9375,39.484375 L240.9375,25.5 L231.875,25.5 L231.875,29.015625 L236.359375,29.015625 L236.359375,39.484375 L230.65625,39.484375 L230.65625,43 L246.625,43 Z M254.921875,43 L254.921875,32.984375 C254.921875,31.671875 255.158854,30.6458333 255.632812,29.90625 C256.106771,29.1666667 256.755208,28.796875 257.578125,28.796875 C258.390625,28.796875 258.976562,29.0703125 259.335938,29.6171875 C259.695312,30.1640625 259.875,31.0729167 259.875,32.34375 L259.875,32.34375 L259.875,43 L264.421875,43 L264.421875,31.640625 C264.421875,29.4635417 264,27.8255208 263.15625,26.7265625 C262.3125,25.6276042 261.0625,25.078125 259.40625,25.078125 C258.302083,25.078125 257.359375,25.34375 256.578125,25.875 C255.796875,26.40625 255.244792,27.15625 254.921875,28.125 L254.921875,28.125 L254.921875,25.5 L250.375,25.5 L250.375,43 L254.921875,43 Z M276.015625,49.625 C278.859375,49.625 280.914062,49.0026042 282.179688,47.7578125 C283.445312,46.5130208 284.078125,44.4895833 284.078125,41.6875 L284.078125,41.6875 L284.078125,25.5 L279.5,25.5 L279.5,27.734375 C279.052083,26.8802083 278.4375,26.21875 277.65625,25.75 C276.875,25.28125 275.984375,25.046875 274.984375,25.046875 C273.005208,25.046875 271.427083,25.859375 270.25,27.484375 C269.072917,29.109375 268.484375,31.3072917 268.484375,34.078125 C268.484375,36.7552083 269.072917,38.875 270.25,40.4375 C271.427083,42 273.015625,42.78125 275.015625,42.78125 C276.078125,42.78125 276.979167,42.578125 277.71875,42.171875 C278.458333,41.765625 279.052083,41.1458333 279.5,40.3125 L279.5,40.3125 L279.5,42.203125 C279.5,43.4947917 279.192708,44.4453125 278.578125,45.0546875 C277.963542,45.6640625 277.010417,45.96875 275.71875,45.96875 C274.770833,45.96875 273.848958,45.8541667 272.953125,45.625 C272.057292,45.3958333 271.177083,45.0416667 270.3125,44.5625 L270.3125,44.5625 L270.3125,48.765625 C271.28125,49.0572917 272.234375,49.2734375 273.171875,49.4140625 C274.109375,49.5546875 275.057292,49.625 276.015625,49.625 Z M276.265625,39.15625 C275.307292,39.15625 274.533854,38.6875 273.945312,37.75 C273.356771,36.8125 273.0625,35.5520833 273.0625,33.96875 C273.0625,32.3958333 273.356771,31.140625 273.945312,30.203125 C274.533854,29.265625 275.307292,28.796875 276.265625,28.796875 C277.234375,28.796875 278.015625,29.2682292 278.609375,30.2109375 C279.203125,31.1536458 279.5,32.40625 279.5,33.96875 C279.5,35.5416667 279.203125,36.7994792 278.609375,37.7421875 C278.015625,38.6848958 277.234375,39.15625 276.265625,39.15625 Z M323.859375,43 L323.859375,37.265625 L319.25,37.265625 L319.25,43 L323.859375,43 Z M317.421875,43 L317.421875,37.265625 L312.8125,37.265625 L312.8125,43 L317.421875,43 Z M310.984375,43 L310.984375,37.265625 L306.375,37.265625 L306.375,43 L310.984375,43 Z" id="typesomething…" fill="#BDBDBD" fill-rule="nonzero"></path>
        </g>
        <g id="Group-Copy-2" transform="translate(32.000000, 128.000000)">
            <rect id="Rectangle" stroke="#BDBDBD" stroke-width="2" fill="#FFFFFF" x="0" y="0" width="742" height="64" rx="8"></rect>
            <path d="M33.265625,43 L33.265625,39.484375 L29.75,39.484375 C28.8645833,39.484375 28.2317708,39.3151042 27.8515625,38.9765625 C27.4713542,38.6380208 27.28125,38.078125 27.28125,37.296875 L27.28125,37.296875 L27.28125,29.015625 L33.265625,29.015625 L33.265625,25.5 L27.28125,25.5 L27.28125,20.53125 L22.703125,20.53125 L22.703125,25.5 L18.234375,25.5 L18.234375,29.015625 L22.703125,29.015625 L22.703125,37.078125 C22.703125,39.3489583 23.1666667,40.9036458 24.09375,41.7421875 C25.0208333,42.5807292 26.796875,43 29.421875,43 L29.421875,43 L33.265625,43 Z M41.53125,49.625 C42.7604167,49.625 43.8046875,49.2473958 44.6640625,48.4921875 C45.5234375,47.7369792 46.2604167,46.5364583 46.875,44.890625 L46.875,44.890625 L54.140625,25.5 L49.328125,25.5 L45.5,36.859375 L41.5,25.5 L36.6875,25.5 L43.34375,42.515625 L43,43.453125 C42.5520833,44.609375 42.109375,45.3463542 41.671875,45.6640625 C41.234375,45.9817708 40.546875,46.140625 39.609375,46.140625 L39.609375,46.140625 L37.75,46.140625 L37.75,49.625 L41.53125,49.625 Z M61.9375,49.65625 L61.9375,40.53125 C62.5,41.5104167 63.1536458,42.2421875 63.8984375,42.7265625 C64.6432292,43.2109375 65.484375,43.453125 66.421875,43.453125 C68.4947917,43.453125 70.0911458,42.6614583 71.2109375,41.078125 C72.3307292,39.4947917 72.890625,37.2239583 72.890625,34.265625 C72.890625,31.3489583 72.3385417,29.0885417 71.234375,27.484375 C70.1302083,25.8802083 68.578125,25.078125 66.578125,25.078125 C65.5260417,25.078125 64.609375,25.3333333 63.828125,25.84375 C63.046875,26.3541667 62.4166667,27.1145833 61.9375,28.125 L61.9375,28.125 L61.9375,25.5 L57.375,25.5 L57.375,49.65625 L61.9375,49.65625 Z M65.140625,39.640625 C64.1510417,39.640625 63.3697917,39.1614583 62.796875,38.203125 C62.2239583,37.2447917 61.9375,35.921875 61.9375,34.234375 C61.9375,32.546875 62.2239583,31.2239583 62.796875,30.265625 C63.3697917,29.3072917 64.1510417,28.828125 65.140625,28.828125 C66.1302083,28.828125 66.90625,29.3072917 67.46875,30.265625 C68.03125,31.2239583 68.3125,32.546875 68.3125,34.234375 C68.3125,35.921875 68.03125,37.2447917 67.46875,38.203125 C66.90625,39.1614583 66.1302083,39.640625 65.140625,39.640625 Z M84.765625,43.453125 C85.9947917,43.453125 87.1614583,43.34375 88.265625,43.125 C89.3697917,42.90625 90.453125,42.578125 91.515625,42.140625 L91.515625,42.140625 L91.515625,37.9375 C90.4010417,38.59375 89.3333333,39.0729167 88.3125,39.375 C87.2916667,39.6770833 86.2552083,39.828125 85.203125,39.828125 C83.609375,39.828125 82.4114583,39.4895833 81.609375,38.8125 C80.8072917,38.1354167 80.4010417,37.109375 80.390625,35.734375 L80.390625,35.734375 L92.25,35.734375 L92.25,33.875 C92.25,31.0833333 91.5338542,28.9192708 90.1015625,27.3828125 C88.6692708,25.8463542 86.65625,25.078125 84.0625,25.078125 C81.4895833,25.078125 79.4583333,25.90625 77.96875,27.5625 C76.4791667,29.21875 75.734375,31.4739583 75.734375,34.328125 C75.734375,37.2760417 76.5078125,39.5338542 78.0546875,41.1015625 C79.6015625,42.6692708 81.8385417,43.453125 84.765625,43.453125 Z M80.4375,32.3125 C80.5520833,31.1354167 80.921875,30.2265625 81.546875,29.5859375 C82.171875,28.9453125 83.0104167,28.625 84.0625,28.625 C85.2291667,28.625 86.1119792,28.9348958 86.7109375,29.5546875 C87.3098958,30.1744792 87.6197917,31.0885417 87.640625,32.296875 L87.640625,32.296875 L80.4375,32.3125 Z M122.390625,43.453125 C124.765625,43.453125 126.544271,43.0026042 127.726562,42.1015625 C128.908854,41.2005208 129.5,39.8489583 129.5,38.046875 C129.5,36.546875 129.111979,35.3567708 128.335938,34.4765625 C127.559896,33.5963542 126.338542,32.9583333 124.671875,32.5625 L124.671875,32.5625 L123.359375,32.25 L123.1875,32.203125 C120.958333,31.6822917 119.84375,31.0052083 119.84375,30.171875 C119.84375,29.5885417 120.104167,29.1484375 120.625,28.8515625 C121.145833,28.5546875 121.916667,28.40625 122.9375,28.40625 C123.854167,28.40625 124.768229,28.5442708 125.679688,28.8203125 C126.591146,29.0963542 127.46875,29.5052083 128.3125,30.046875 L128.3125,30.046875 L128.3125,26.046875 C127.385417,25.7239583 126.429688,25.4817708 125.445312,25.3203125 C124.460938,25.1588542 123.473958,25.078125 122.484375,25.078125 C120.276042,25.078125 118.5625,25.546875 117.34375,26.484375 C116.125,27.421875 115.515625,28.734375 115.515625,30.421875 C115.515625,31.8385417 115.916667,32.96875 116.71875,33.8125 C117.520833,34.65625 118.796875,35.2760417 120.546875,35.671875 L120.546875,35.671875 L121.8125,35.953125 C123.28125,36.3072917 124.210938,36.640625 124.601562,36.953125 C124.992188,37.265625 125.1875,37.7135417 125.1875,38.296875 C125.1875,38.890625 124.911458,39.34375 124.359375,39.65625 C123.807292,39.96875 122.994792,40.125 121.921875,40.125 C120.942708,40.125 119.929688,39.9739583 118.882812,39.671875 C117.835938,39.3697917 116.807292,38.9322917 115.796875,38.359375 L115.796875,38.359375 L115.796875,42.359375 C116.932292,42.7239583 118.052083,42.9973958 119.15625,43.1796875 C120.260417,43.3619792 121.338542,43.453125 122.390625,43.453125 Z M141.71875,43.453125 C144.197917,43.453125 146.169271,42.6276042 147.632812,40.9765625 C149.096354,39.3255208 149.828125,37.0885417 149.828125,34.265625 C149.828125,31.4427083 149.096354,29.2057292 147.632812,27.5546875 C146.169271,25.9036458 144.197917,25.078125 141.71875,25.078125 C139.25,25.078125 137.283854,25.9036458 135.820312,27.5546875 C134.356771,29.2057292 133.625,31.4427083 133.625,34.265625 C133.625,37.0885417 134.356771,39.3255208 135.820312,40.9765625 C137.283854,42.6276042 139.25,43.453125 141.71875,43.453125 Z M141.71875,39.734375 C140.625,39.734375 139.765625,39.2526042 139.140625,38.2890625 C138.515625,37.3255208 138.203125,35.984375 138.203125,34.265625 C138.203125,32.546875 138.515625,31.2057292 139.140625,30.2421875 C139.765625,29.2786458 140.625,28.796875 141.71875,28.796875 C142.822917,28.796875 143.6875,29.2786458 144.3125,30.2421875 C144.9375,31.2057292 145.25,32.546875 145.25,34.265625 C145.25,35.984375 144.9375,37.3255208 144.3125,38.2890625 C143.6875,39.2526042 142.822917,39.734375 141.71875,39.734375 Z M156.390625,43 L156.390625,31.765625 C156.390625,30.4635417 156.489583,29.59375 156.6875,29.15625 C156.885417,28.71875 157.244792,28.5 157.765625,28.5 C158.286458,28.5 158.651042,28.7239583 158.859375,29.171875 C159.067708,29.6197917 159.171875,30.484375 159.171875,31.765625 L159.171875,31.765625 L159.171875,43 L162.875,43 L162.875,31.765625 C162.875,30.484375 162.979167,29.6197917 163.1875,29.171875 C163.395833,28.7239583 163.760417,28.5 164.28125,28.5 C164.802083,28.5 165.161458,28.71875 165.359375,29.15625 C165.557292,29.59375 165.65625,30.4635417 165.65625,31.765625 L165.65625,31.765625 L165.65625,43 L169.40625,43 L169.40625,33.140625 C169.40625,29.8489583 169.117188,27.6822917 168.539062,26.640625 C167.960938,25.5989583 166.916667,25.078125 165.40625,25.078125 C164.635417,25.078125 163.984375,25.2552083 163.453125,25.609375 C162.921875,25.9635417 162.484375,26.5104167 162.140625,27.25 C162.015625,26.6458333 161.661458,26.1328125 161.078125,25.7109375 C160.494792,25.2890625 159.848958,25.078125 159.140625,25.078125 C158.432292,25.078125 157.791667,25.2786458 157.21875,25.6796875 C156.645833,26.0807292 156.229167,26.625 155.96875,27.3125 L155.96875,27.3125 L155.96875,25.5 L152.640625,25.5 L152.640625,43 L156.390625,43 Z M181.09375,43.453125 C182.322917,43.453125 183.489583,43.34375 184.59375,43.125 C185.697917,42.90625 186.78125,42.578125 187.84375,42.140625 L187.84375,42.140625 L187.84375,37.9375 C186.729167,38.59375 185.661458,39.0729167 184.640625,39.375 C183.619792,39.6770833 182.583333,39.828125 181.53125,39.828125 C179.9375,39.828125 178.739583,39.4895833 177.9375,38.8125 C177.135417,38.1354167 176.729167,37.109375 176.71875,35.734375 L176.71875,35.734375 L188.578125,35.734375 L188.578125,33.875 C188.578125,31.0833333 187.861979,28.9192708 186.429688,27.3828125 C184.997396,25.8463542 182.984375,25.078125 180.390625,25.078125 C177.817708,25.078125 175.786458,25.90625 174.296875,27.5625 C172.807292,29.21875 172.0625,31.4739583 172.0625,34.328125 C172.0625,37.2760417 172.835938,39.5338542 174.382812,41.1015625 C175.929688,42.6692708 178.166667,43.453125 181.09375,43.453125 Z M176.765625,32.3125 C176.880208,31.1354167 177.25,30.2265625 177.875,29.5859375 C178.5,28.9453125 179.338542,28.625 180.390625,28.625 C181.557292,28.625 182.440104,28.9348958 183.039062,29.5546875 C183.638021,30.1744792 183.947917,31.0885417 183.96875,32.296875 L183.96875,32.296875 L176.765625,32.3125 Z M206.65625,43 L206.65625,39.484375 L203.140625,39.484375 C202.255208,39.484375 201.622396,39.3151042 201.242188,38.9765625 C200.861979,38.6380208 200.671875,38.078125 200.671875,37.296875 L200.671875,37.296875 L200.671875,29.015625 L206.65625,29.015625 L206.65625,25.5 L200.671875,25.5 L200.671875,20.53125 L196.09375,20.53125 L196.09375,25.5 L191.625,25.5 L191.625,29.015625 L196.09375,29.015625 L196.09375,37.078125 C196.09375,39.3489583 196.557292,40.9036458 197.484375,41.7421875 C198.411458,42.5807292 200.1875,43 202.8125,43 L202.8125,43 L206.65625,43 Z M216.390625,43 L216.390625,32.984375 C216.390625,31.6822917 216.625,30.6640625 217.09375,29.9296875 C217.5625,29.1953125 218.213542,28.828125 219.046875,28.828125 C219.859375,28.828125 220.445312,29.0989583 220.804688,29.640625 C221.164062,30.1822917 221.34375,31.0833333 221.34375,32.34375 L221.34375,32.34375 L221.34375,43 L225.890625,43 L225.890625,31.640625 C225.890625,29.4635417 225.46875,27.8255208 224.625,26.7265625 C223.78125,25.6276042 222.53125,25.078125 220.875,25.078125 C219.770833,25.078125 218.828125,25.34375 218.046875,25.875 C217.265625,26.40625 216.713542,27.15625 216.390625,28.125 L216.390625,28.125 L216.390625,18.6875 L211.84375,18.6875 L211.84375,43 L216.390625,43 Z M240.9375,22.328125 L240.9375,16.984375 L236.359375,16.984375 L236.359375,22.328125 L240.9375,22.328125 Z M246.625,43 L246.625,39.484375 L240.9375,39.484375 L240.9375,25.5 L231.875,25.5 L231.875,29.015625 L236.359375,29.015625 L236.359375,39.484375 L230.65625,39.484375 L230.65625,43 L246.625,43 Z M254.921875,43 L254.921875,32.984375 C254.921875,31.671875 255.158854,30.6458333 255.632812,29.90625 C256.106771,29.1666667 256.755208,28.796875 257.578125,28.796875 C258.390625,28.796875 258.976562,29.0703125 259.335938,29.6171875 C259.695312,30.1640625 259.875,31.0729167 259.875,32.34375 L259.875,32.34375 L259.875,43 L264.421875,43 L264.421875,31.640625 C264.421875,29.4635417 264,27.8255208 263.15625,26.7265625 C262.3125,25.6276042 261.0625,25.078125 259.40625,25.078125 C258.302083,25.078125 257.359375,25.34375 256.578125,25.875 C255.796875,26.40625 255.244792,27.15625 254.921875,28.125 L254.921875,28.125 L254.921875,25.5 L250.375,25.5 L250.375,43 L254.921875,43 Z M276.015625,49.625 C278.859375,49.625 280.914062,49.0026042 282.179688,47.7578125 C283.445312,46.5130208 284.078125,44.4895833 284.078125,41.6875 L284.078125,41.6875 L284.078125,25.5 L279.5,25.5 L279.5,27.734375 C279.052083,26.8802083 278.4375,26.21875 277.65625,25.75 C276.875,25.28125 275.984375,25.046875 274.984375,25.046875 C273.005208,25.046875 271.427083,25.859375 270.25,27.484375 C269.072917,29.109375 268.484375,31.3072917 268.484375,34.078125 C268.484375,36.7552083 269.072917,38.875 270.25,40.4375 C271.427083,42 273.015625,42.78125 275.015625,42.78125 C276.078125,42.78125 276.979167,42.578125 277.71875,42.171875 C278.458333,41.765625 279.052083,41.1458333 279.5,40.3125 L279.5,40.3125 L279.5,42.203125 C279.5,43.4947917 279.192708,44.4453125 278.578125,45.0546875 C277.963542,45.6640625 277.010417,45.96875 275.71875,45.96875 C274.770833,45.96875 273.848958,45.8541667 272.953125,45.625 C272.057292,45.3958333 271.177083,45.0416667 270.3125,44.5625 L270.3125,44.5625 L270.3125,48.765625 C271.28125,49.0572917 272.234375,49.2734375 273.171875,49.4140625 C274.109375,49.5546875 275.057292,49.625 276.015625,49.625 Z M276.265625,39.15625 C275.307292,39.15625 274.533854,38.6875 273.945312,37.75 C273.356771,36.8125 273.0625,35.5520833 273.0625,33.96875 C273.0625,32.3958333 273.356771,31.140625 273.945312,30.203125 C274.533854,29.265625 275.307292,28.796875 276.265625,28.796875 C277.234375,28.796875 278.015625,29.2682292 278.609375,30.2109375 C279.203125,31.1536458 279.5,32.40625 279.5,33.96875 C279.5,35.5416667 279.203125,36.7994792 278.609375,37.7421875 C278.015625,38.6848958 277.234375,39.15625 276.265625,39.15625 Z M323.859375,43 L323.859375,37.265625 L319.25,37.265625 L319.25,43 L323.859375,43 Z M317.421875,43 L317.421875,37.265625 L312.8125,37.265625 L312.8125,43 L317.421875,43 Z M310.984375,43 L310.984375,37.265625 L306.375,37.265625 L306.375,43 L310.984375,43 Z" id="typesomething…" fill="#BDBDBD" fill-rule="nonzero"></path>
        </g>
        <path d="M845.242188,167.222656 C847.445312,167.222656 849.150391,166.701172 850.357422,165.658203 C851.564453,164.615234 852.167969,163.304688 852.167969,161.726562 C852.167969,160.1875 851.652344,159.011719 850.621094,158.199219 C849.957031,157.675781 848.972656,157.257812 847.667969,156.945312 L847.667969,156.945312 L844.691406,156.230469 C843.542969,155.957031 842.792969,155.71875 842.441406,155.515625 C841.894531,155.210938 841.621094,154.75 841.621094,154.132812 C841.621094,153.460938 841.898438,152.9375 842.453125,152.5625 C843.007812,152.1875 843.75,152 844.679688,152 C845.515625,152 846.214844,152.144531 846.777344,152.433594 C847.621094,152.871094 848.074219,153.609375 848.136719,154.648438 L848.136719,154.648438 L851.605469,154.648438 C851.542969,152.8125 850.869141,151.412109 849.583984,150.447266 C848.298828,149.482422 846.746094,149 844.925781,149 C842.746094,149 841.09375,149.511719 839.96875,150.535156 C838.84375,151.558594 838.28125,152.84375 838.28125,154.390625 C838.28125,156.085938 838.863281,157.332031 840.027344,158.128906 C840.714844,158.605469 841.957031,159.046875 843.753906,159.453125 L843.753906,159.453125 L845.582031,159.863281 C846.652344,160.097656 847.4375,160.367188 847.9375,160.671875 C848.4375,160.984375 848.6875,161.425781 848.6875,161.996094 C848.6875,162.972656 848.183594,163.640625 847.175781,164 C846.644531,164.1875 845.953125,164.28125 845.101562,164.28125 C843.679688,164.28125 842.675781,163.925781 842.089844,163.214844 C841.769531,162.824219 841.554688,162.234375 841.445312,161.445312 L841.445312,161.445312 L838,161.445312 C838,163.242188 838.644531,164.654297 839.933594,165.681641 C841.222656,166.708984 842.992188,167.222656 845.242188,167.222656 Z M858.545898,166.959534 L858.835938,166.953125 L860.417969,166.894531 L860.417969,164.398438 C860.308594,164.40625 860.197266,164.412109 860.083984,164.416016 C859.970703,164.419922 859.863281,164.421875 859.761719,164.421875 C859.082031,164.421875 858.675781,164.357422 858.542969,164.228516 C858.410156,164.099609 858.34375,163.773438 858.34375,163.25 L858.34375,163.25 L858.34375,156.5 L860.417969,156.5 L860.417969,154.121094 L858.34375,154.121094 L858.34375,150.558594 L855.039062,150.558594 L855.039062,154.121094 L853.257812,154.121094 L853.257812,156.5 L855.039062,156.5 L855.039062,164.363281 C855.039062,165.160156 855.226562,165.75 855.601562,166.132812 C856.179688,166.734375 857.257812,167.007812 858.835938,166.953125 L858.545898,166.959534 Z M865.691406,167.175781 C866.597656,167.175781 867.410156,166.96875 868.128906,166.554688 C868.730469,166.203125 869.261719,165.777344 869.722656,165.277344 C869.746094,165.566406 869.777344,165.824219 869.816406,166.050781 C869.855469,166.277344 869.925781,166.519531 870.027344,166.777344 L870.027344,166.777344 L873.660156,166.777344 L873.660156,166.285156 C873.441406,166.183594 873.277344,166.054688 873.167969,165.898438 C873.058594,165.742188 872.992188,165.445312 872.96875,165.007812 C872.953125,164.429688 872.945312,163.9375 872.945312,163.53125 L872.945312,163.53125 L872.945312,157.671875 C872.945312,156.132812 872.402344,155.085938 871.316406,154.53125 C870.230469,153.976562 868.988281,153.699219 867.589844,153.699219 C865.441406,153.699219 863.925781,154.261719 863.042969,155.386719 C862.488281,156.105469 862.175781,157.023438 862.105469,158.140625 L862.105469,158.140625 L865.328125,158.140625 C865.40625,157.648438 865.5625,157.257812 865.796875,156.96875 C866.125,156.578125 866.683594,156.382812 867.472656,156.382812 C868.175781,156.382812 868.708984,156.482422 869.072266,156.681641 C869.435547,156.880859 869.617188,157.242188 869.617188,157.765625 C869.617188,158.195312 869.378906,158.511719 868.902344,158.714844 C868.636719,158.832031 868.195312,158.929688 867.578125,159.007812 L867.578125,159.007812 L866.441406,159.148438 C865.152344,159.3125 864.175781,159.585938 863.511719,159.96875 C862.300781,160.671875 861.695312,161.808594 861.695312,163.378906 C861.695312,164.589844 862.072266,165.525391 862.826172,166.185547 C863.580078,166.845703 864.535156,167.175781 865.691406,167.175781 Z M866.675781,164.75 C866.222656,164.75 865.837891,164.623047 865.521484,164.369141 C865.205078,164.115234 865.046875,163.703125 865.046875,163.132812 C865.046875,162.492188 865.304688,162.019531 865.820312,161.714844 C866.125,161.535156 866.628906,161.382812 867.332031,161.257812 L867.332031,161.257812 L868.082031,161.117188 C868.457031,161.046875 868.751953,160.970703 868.966797,160.888672 C869.181641,160.806641 869.394531,160.699219 869.605469,160.566406 L869.605469,160.566406 L869.605469,161.808594 C869.582031,162.925781 869.267578,163.695312 868.662109,164.117188 C868.056641,164.539062 867.394531,164.75 866.675781,164.75 Z M879.261719,166.777344 L879.261719,159.863281 C879.261719,159.074219 879.371094,158.425781 879.589844,157.917969 C880.011719,156.957031 880.789062,156.476562 881.921875,156.476562 C882.84375,156.476562 883.46875,156.804688 883.796875,157.460938 C883.976562,157.820312 884.066406,158.335938 884.066406,159.007812 L884.066406,159.007812 L884.066406,166.777344 L887.488281,166.777344 L887.488281,158.175781 C887.488281,156.574219 887.068359,155.427734 886.228516,154.736328 C885.388672,154.044922 884.308594,153.699219 882.988281,153.699219 C881.933594,153.699219 881.0625,153.957031 880.375,154.472656 C879.992188,154.761719 879.585938,155.234375 879.15625,155.890625 L879.15625,155.890625 L879.15625,154.027344 L875.933594,154.027344 L875.933594,166.777344 L879.261719,166.777344 Z M895.046875,167.175781 C895.953125,167.175781 896.710938,167.003906 897.320312,166.660156 C897.929688,166.316406 898.472656,165.765625 898.949219,165.007812 L898.949219,165.007812 L898.949219,166.777344 L902.195312,166.777344 L902.195312,149.527344 L898.808594,149.527344 L898.808594,155.621094 C898.433594,155.019531 897.945312,154.548828 897.34375,154.208984 C896.742188,153.869141 896.054688,153.699219 895.28125,153.699219 C893.601562,153.699219 892.259766,154.324219 891.255859,155.574219 C890.251953,156.824219 889.75,158.539062 889.75,160.71875 C889.75,162.609375 890.259766,164.158203 891.279297,165.365234 C892.298828,166.572266 893.554688,167.175781 895.046875,167.175781 Z M896.007812,164.363281 C895.0625,164.363281 894.357422,164.009766 893.892578,163.302734 C893.427734,162.595703 893.195312,161.652344 893.195312,160.472656 C893.195312,159.378906 893.423828,158.462891 893.880859,157.724609 C894.337891,156.986328 895.054688,156.617188 896.03125,156.617188 C896.671875,156.617188 897.234375,156.820312 897.71875,157.226562 C898.507812,157.898438 898.902344,159.015625 898.902344,160.578125 C898.902344,161.695312 898.65625,162.605469 898.164062,163.308594 C897.671875,164.011719 896.953125,164.363281 896.007812,164.363281 Z M912.167969,167.117188 C913.847656,167.117188 915.15625,166.464844 916.09375,165.160156 C917.03125,163.855469 917.5,162.210938 917.5,160.226562 C917.5,158.3125 917.025391,156.75 916.076172,155.539062 C915.126953,154.328125 913.8125,153.722656 912.132812,153.722656 C911.203125,153.722656 910.4375,153.917969 909.835938,154.308594 C909.328125,154.621094 908.863281,155.074219 908.441406,155.667969 L908.441406,155.667969 L908.441406,149.527344 L905.113281,149.527344 L905.113281,166.777344 L908.382812,166.777344 L908.382812,165.171875 C908.828125,165.796875 909.242188,166.234375 909.625,166.484375 C910.265625,166.90625 911.113281,167.117188 912.167969,167.117188 Z M911.277344,164.363281 C910.285156,164.363281 909.546875,164.003906 909.0625,163.285156 C908.578125,162.566406 908.335938,161.660156 908.335938,160.566406 C908.335938,159.636719 908.453125,158.878906 908.6875,158.292969 C909.140625,157.191406 909.972656,156.640625 911.183594,156.640625 C912.378906,156.640625 913.199219,157.203125 913.644531,158.328125 C913.878906,158.921875 913.996094,159.671875 913.996094,160.578125 C913.996094,161.710938 913.757812,162.625 913.28125,163.320312 C912.804688,164.015625 912.136719,164.363281 911.277344,164.363281 Z M921.929688,171.945312 C923.40625,171.945312 924.390625,171.654297 924.882812,171.072266 C925.375,170.490234 926.042969,168.988281 926.886719,166.566406 L926.886719,166.566406 L931.269531,154.003906 L927.71875,154.003906 L925.082031,163.425781 L922.292969,154.003906 L918.578125,154.003906 L923.265625,167.339844 C923.296875,167.433594 923.228516,167.691406 923.060547,168.113281 C922.892578,168.535156 922.710938,168.8125 922.515625,168.945312 C922.3125,169.085938 922.0625,169.175781 921.765625,169.214844 C921.46875,169.253906 921.15625,169.265625 920.828125,169.25 L920.828125,169.25 L920.40625,169.226562 L920.40625,171.898438 C920.765625,171.921875 921.035156,171.935547 921.214844,171.939453 C921.322656,171.941797 921.451563,171.943438 921.601562,171.944375 L921.929688,171.945312 Z" id="Standby" fill="#9E9E9E" fill-rule="nonzero"></path>
        <g id="Group-Copy-3" transform="translate(32.000000, 224.000000)">
            <rect id="Rectangle" stroke="#1089FF" stroke-width="2" fill="#FFFFFF" x="0" y="0" width="742" height="64" rx="8"></rect>
            <path d="M33.265625,43 L33.265625,39.484375 L29.75,39.484375 C28.8645833,39.484375 28.2317708,39.3151042 27.8515625,38.9765625 C27.4713542,38.6380208 27.28125,38.078125 27.28125,37.296875 L27.28125,37.296875 L27.28125,29.015625 L33.265625,29.015625 L33.265625,25.5 L27.28125,25.5 L27.28125,20.53125 L22.703125,20.53125 L22.703125,25.5 L18.234375,25.5 L18.234375,29.015625 L22.703125,29.015625 L22.703125,37.078125 C22.703125,39.3489583 23.1666667,40.9036458 24.09375,41.7421875 C25.0208333,42.5807292 26.796875,43 29.421875,43 L29.421875,43 L33.265625,43 Z M41.53125,49.625 C42.7604167,49.625 43.8046875,49.2473958 44.6640625,48.4921875 C45.5234375,47.7369792 46.2604167,46.5364583 46.875,44.890625 L46.875,44.890625 L54.140625,25.5 L49.328125,25.5 L45.5,36.859375 L41.5,25.5 L36.6875,25.5 L43.34375,42.515625 L43,43.453125 C42.5520833,44.609375 42.109375,45.3463542 41.671875,45.6640625 C41.234375,45.9817708 40.546875,46.140625 39.609375,46.140625 L39.609375,46.140625 L37.75,46.140625 L37.75,49.625 L41.53125,49.625 Z M61.9375,49.65625 L61.9375,40.53125 C62.5,41.5104167 63.1536458,42.2421875 63.8984375,42.7265625 C64.6432292,43.2109375 65.484375,43.453125 66.421875,43.453125 C68.4947917,43.453125 70.0911458,42.6614583 71.2109375,41.078125 C72.3307292,39.4947917 72.890625,37.2239583 72.890625,34.265625 C72.890625,31.3489583 72.3385417,29.0885417 71.234375,27.484375 C70.1302083,25.8802083 68.578125,25.078125 66.578125,25.078125 C65.5260417,25.078125 64.609375,25.3333333 63.828125,25.84375 C63.046875,26.3541667 62.4166667,27.1145833 61.9375,28.125 L61.9375,28.125 L61.9375,25.5 L57.375,25.5 L57.375,49.65625 L61.9375,49.65625 Z M65.140625,39.640625 C64.1510417,39.640625 63.3697917,39.1614583 62.796875,38.203125 C62.2239583,37.2447917 61.9375,35.921875 61.9375,34.234375 C61.9375,32.546875 62.2239583,31.2239583 62.796875,30.265625 C63.3697917,29.3072917 64.1510417,28.828125 65.140625,28.828125 C66.1302083,28.828125 66.90625,29.3072917 67.46875,30.265625 C68.03125,31.2239583 68.3125,32.546875 68.3125,34.234375 C68.3125,35.921875 68.03125,37.2447917 67.46875,38.203125 C66.90625,39.1614583 66.1302083,39.640625 65.140625,39.640625 Z M84.765625,43.453125 C85.9947917,43.453125 87.1614583,43.34375 88.265625,43.125 C89.3697917,42.90625 90.453125,42.578125 91.515625,42.140625 L91.515625,42.140625 L91.515625,37.9375 C90.4010417,38.59375 89.3333333,39.0729167 88.3125,39.375 C87.2916667,39.6770833 86.2552083,39.828125 85.203125,39.828125 C83.609375,39.828125 82.4114583,39.4895833 81.609375,38.8125 C80.8072917,38.1354167 80.4010417,37.109375 80.390625,35.734375 L80.390625,35.734375 L92.25,35.734375 L92.25,33.875 C92.25,31.0833333 91.5338542,28.9192708 90.1015625,27.3828125 C88.6692708,25.8463542 86.65625,25.078125 84.0625,25.078125 C81.4895833,25.078125 79.4583333,25.90625 77.96875,27.5625 C76.4791667,29.21875 75.734375,31.4739583 75.734375,34.328125 C75.734375,37.2760417 76.5078125,39.5338542 78.0546875,41.1015625 C79.6015625,42.6692708 81.8385417,43.453125 84.765625,43.453125 Z M80.4375,32.3125 C80.5520833,31.1354167 80.921875,30.2265625 81.546875,29.5859375 C82.171875,28.9453125 83.0104167,28.625 84.0625,28.625 C85.2291667,28.625 86.1119792,28.9348958 86.7109375,29.5546875 C87.3098958,30.1744792 87.6197917,31.0885417 87.640625,32.296875 L87.640625,32.296875 L80.4375,32.3125 Z M122.390625,43.453125 C124.765625,43.453125 126.544271,43.0026042 127.726562,42.1015625 C128.908854,41.2005208 129.5,39.8489583 129.5,38.046875 C129.5,36.546875 129.111979,35.3567708 128.335938,34.4765625 C127.559896,33.5963542 126.338542,32.9583333 124.671875,32.5625 L124.671875,32.5625 L123.359375,32.25 L123.1875,32.203125 C120.958333,31.6822917 119.84375,31.0052083 119.84375,30.171875 C119.84375,29.5885417 120.104167,29.1484375 120.625,28.8515625 C121.145833,28.5546875 121.916667,28.40625 122.9375,28.40625 C123.854167,28.40625 124.768229,28.5442708 125.679688,28.8203125 C126.591146,29.0963542 127.46875,29.5052083 128.3125,30.046875 L128.3125,30.046875 L128.3125,26.046875 C127.385417,25.7239583 126.429688,25.4817708 125.445312,25.3203125 C124.460938,25.1588542 123.473958,25.078125 122.484375,25.078125 C120.276042,25.078125 118.5625,25.546875 117.34375,26.484375 C116.125,27.421875 115.515625,28.734375 115.515625,30.421875 C115.515625,31.8385417 115.916667,32.96875 116.71875,33.8125 C117.520833,34.65625 118.796875,35.2760417 120.546875,35.671875 L120.546875,35.671875 L121.8125,35.953125 C123.28125,36.3072917 124.210938,36.640625 124.601562,36.953125 C124.992188,37.265625 125.1875,37.7135417 125.1875,38.296875 C125.1875,38.890625 124.911458,39.34375 124.359375,39.65625 C123.807292,39.96875 122.994792,40.125 121.921875,40.125 C120.942708,40.125 119.929688,39.9739583 118.882812,39.671875 C117.835938,39.3697917 116.807292,38.9322917 115.796875,38.359375 L115.796875,38.359375 L115.796875,42.359375 C116.932292,42.7239583 118.052083,42.9973958 119.15625,43.1796875 C120.260417,43.3619792 121.338542,43.453125 122.390625,43.453125 Z M141.71875,43.453125 C144.197917,43.453125 146.169271,42.6276042 147.632812,40.9765625 C149.096354,39.3255208 149.828125,37.0885417 149.828125,34.265625 C149.828125,31.4427083 149.096354,29.2057292 147.632812,27.5546875 C146.169271,25.9036458 144.197917,25.078125 141.71875,25.078125 C139.25,25.078125 137.283854,25.9036458 135.820312,27.5546875 C134.356771,29.2057292 133.625,31.4427083 133.625,34.265625 C133.625,37.0885417 134.356771,39.3255208 135.820312,40.9765625 C137.283854,42.6276042 139.25,43.453125 141.71875,43.453125 Z M141.71875,39.734375 C140.625,39.734375 139.765625,39.2526042 139.140625,38.2890625 C138.515625,37.3255208 138.203125,35.984375 138.203125,34.265625 C138.203125,32.546875 138.515625,31.2057292 139.140625,30.2421875 C139.765625,29.2786458 140.625,28.796875 141.71875,28.796875 C142.822917,28.796875 143.6875,29.2786458 144.3125,30.2421875 C144.9375,31.2057292 145.25,32.546875 145.25,34.265625 C145.25,35.984375 144.9375,37.3255208 144.3125,38.2890625 C143.6875,39.2526042 142.822917,39.734375 141.71875,39.734375 Z M156.390625,43 L156.390625,31.765625 C156.390625,30.4635417 156.489583,29.59375 156.6875,29.15625 C156.885417,28.71875 157.244792,28.5 157.765625,28.5 C158.286458,28.5 158.651042,28.7239583 158.859375,29.171875 C159.067708,29.6197917 159.171875,30.484375 159.171875,31.765625 L159.171875,31.765625 L159.171875,43 L162.875,43 L162.875,31.765625 C162.875,30.484375 162.979167,29.6197917 163.1875,29.171875 C163.395833,28.7239583 163.760417,28.5 164.28125,28.5 C164.802083,28.5 165.161458,28.71875 165.359375,29.15625 C165.557292,29.59375 165.65625,30.4635417 165.65625,31.765625 L165.65625,31.765625 L165.65625,43 L169.40625,43 L169.40625,33.140625 C169.40625,29.8489583 169.117188,27.6822917 168.539062,26.640625 C167.960938,25.5989583 166.916667,25.078125 165.40625,25.078125 C164.635417,25.078125 163.984375,25.2552083 163.453125,25.609375 C162.921875,25.9635417 162.484375,26.5104167 162.140625,27.25 C162.015625,26.6458333 161.661458,26.1328125 161.078125,25.7109375 C160.494792,25.2890625 159.848958,25.078125 159.140625,25.078125 C158.432292,25.078125 157.791667,25.2786458 157.21875,25.6796875 C156.645833,26.0807292 156.229167,26.625 155.96875,27.3125 L155.96875,27.3125 L155.96875,25.5 L152.640625,25.5 L152.640625,43 L156.390625,43 Z M181.09375,43.453125 C182.322917,43.453125 183.489583,43.34375 184.59375,43.125 C185.697917,42.90625 186.78125,42.578125 187.84375,42.140625 L187.84375,42.140625 L187.84375,37.9375 C186.729167,38.59375 185.661458,39.0729167 184.640625,39.375 C183.619792,39.6770833 182.583333,39.828125 181.53125,39.828125 C179.9375,39.828125 178.739583,39.4895833 177.9375,38.8125 C177.135417,38.1354167 176.729167,37.109375 176.71875,35.734375 L176.71875,35.734375 L188.578125,35.734375 L188.578125,33.875 C188.578125,31.0833333 187.861979,28.9192708 186.429688,27.3828125 C184.997396,25.8463542 182.984375,25.078125 180.390625,25.078125 C177.817708,25.078125 175.786458,25.90625 174.296875,27.5625 C172.807292,29.21875 172.0625,31.4739583 172.0625,34.328125 C172.0625,37.2760417 172.835938,39.5338542 174.382812,41.1015625 C175.929688,42.6692708 178.166667,43.453125 181.09375,43.453125 Z M176.765625,32.3125 C176.880208,31.1354167 177.25,30.2265625 177.875,29.5859375 C178.5,28.9453125 179.338542,28.625 180.390625,28.625 C181.557292,28.625 182.440104,28.9348958 183.039062,29.5546875 C183.638021,30.1744792 183.947917,31.0885417 183.96875,32.296875 L183.96875,32.296875 L176.765625,32.3125 Z M206.65625,43 L206.65625,39.484375 L203.140625,39.484375 C202.255208,39.484375 201.622396,39.3151042 201.242188,38.9765625 C200.861979,38.6380208 200.671875,38.078125 200.671875,37.296875 L200.671875,37.296875 L200.671875,29.015625 L206.65625,29.015625 L206.65625,25.5 L200.671875,25.5 L200.671875,20.53125 L196.09375,20.53125 L196.09375,25.5 L191.625,25.5 L191.625,29.015625 L196.09375,29.015625 L196.09375,37.078125 C196.09375,39.3489583 196.557292,40.9036458 197.484375,41.7421875 C198.411458,42.5807292 200.1875,43 202.8125,43 L202.8125,43 L206.65625,43 Z M216.390625,43 L216.390625,32.984375 C216.390625,31.6822917 216.625,30.6640625 217.09375,29.9296875 C217.5625,29.1953125 218.213542,28.828125 219.046875,28.828125 C219.859375,28.828125 220.445312,29.0989583 220.804688,29.640625 C221.164062,30.1822917 221.34375,31.0833333 221.34375,32.34375 L221.34375,32.34375 L221.34375,43 L225.890625,43 L225.890625,31.640625 C225.890625,29.4635417 225.46875,27.8255208 224.625,26.7265625 C223.78125,25.6276042 222.53125,25.078125 220.875,25.078125 C219.770833,25.078125 218.828125,25.34375 218.046875,25.875 C217.265625,26.40625 216.713542,27.15625 216.390625,28.125 L216.390625,28.125 L216.390625,18.6875 L211.84375,18.6875 L211.84375,43 L216.390625,43 Z M240.9375,22.328125 L240.9375,16.984375 L236.359375,16.984375 L236.359375,22.328125 L240.9375,22.328125 Z M246.625,43 L246.625,39.484375 L240.9375,39.484375 L240.9375,25.5 L231.875,25.5 L231.875,29.015625 L236.359375,29.015625 L236.359375,39.484375 L230.65625,39.484375 L230.65625,43 L246.625,43 Z M254.921875,43 L254.921875,32.984375 C254.921875,31.671875 255.158854,30.6458333 255.632812,29.90625 C256.106771,29.1666667 256.755208,28.796875 257.578125,28.796875 C258.390625,28.796875 258.976562,29.0703125 259.335938,29.6171875 C259.695312,30.1640625 259.875,31.0729167 259.875,32.34375 L259.875,32.34375 L259.875,43 L264.421875,43 L264.421875,31.640625 C264.421875,29.4635417 264,27.8255208 263.15625,26.7265625 C262.3125,25.6276042 261.0625,25.078125 259.40625,25.078125 C258.302083,25.078125 257.359375,25.34375 256.578125,25.875 C255.796875,26.40625 255.244792,27.15625 254.921875,28.125 L254.921875,28.125 L254.921875,25.5 L250.375,25.5 L250.375,43 L254.921875,43 Z M276.015625,49.625 C278.859375,49.625 280.914062,49.0026042 282.179688,47.7578125 C283.445312,46.5130208 284.078125,44.4895833 284.078125,41.6875 L284.078125,41.6875 L284.078125,25.5 L279.5,25.5 L279.5,27.734375 C279.052083,26.8802083 278.4375,26.21875 277.65625,25.75 C276.875,25.28125 275.984375,25.046875 274.984375,25.046875 C273.005208,25.046875 271.427083,25.859375 270.25,27.484375 C269.072917,29.109375 268.484375,31.3072917 268.484375,34.078125 C268.484375,36.7552083 269.072917,38.875 270.25,40.4375 C271.427083,42 273.015625,42.78125 275.015625,42.78125 C276.078125,42.78125 276.979167,42.578125 277.71875,42.171875 C278.458333,41.765625 279.052083,41.1458333 279.5,40.3125 L279.5,40.3125 L279.5,42.203125 C279.5,43.4947917 279.192708,44.4453125 278.578125,45.0546875 C277.963542,45.6640625 277.010417,45.96875 275.71875,45.96875 C274.770833,45.96875 273.848958,45.8541667 272.953125,45.625 C272.057292,45.3958333 271.177083,45.0416667 270.3125,44.5625 L270.3125,44.5625 L270.3125,48.765625 C271.28125,49.0572917 272.234375,49.2734375 273.171875,49.4140625 C274.109375,49.5546875 275.057292,49.625 276.015625,49.625 Z M276.265625,39.15625 C275.307292,39.15625 274.533854,38.6875 273.945312,37.75 C273.356771,36.8125 273.0625,35.5520833 273.0625,33.96875 C273.0625,32.3958333 273.356771,31.140625 273.945312,30.203125 C274.533854,29.265625 275.307292,28.796875 276.265625,28.796875 C277.234375,28.796875 278.015625,29.2682292 278.609375,30.2109375 C279.203125,31.1536458 279.5,32.40625 279.5,33.96875 C279.5,35.5416667 279.203125,36.7994792 278.609375,37.7421875 C278.015625,38.6848958 277.234375,39.15625 276.265625,39.15625 Z M323.859375,43 L323.859375,37.265625 L319.25,37.265625 L319.25,43 L323.859375,43 Z M317.421875,43 L317.421875,37.265625 L312.8125,37.265625 L312.8125,43 L317.421875,43 Z M310.984375,43 L310.984375,37.265625 L306.375,37.265625 L306.375,43 L310.984375,43 Z" id="typesomething…" fill="#BDBDBD" fill-rule="nonzero"></path>
        </g>
        <g id="Group-Copy-4" transform="translate(32.000000, 320.000000)">
            <g id="Rectangle">
                <use fill="black" fill-opacity="1" filter="url(#filter-2)" xlink:href="#path-1"></use>
                <use stroke="#1089FF" stroke-width="2" fill="#FFFFFF" fill-rule="evenodd" xlink:href="#path-1"></use>
            </g>
            <path d="M33.265625,43 L33.265625,39.484375 L29.75,39.484375 C28.8645833,39.484375 28.2317708,39.3151042 27.8515625,38.9765625 C27.4713542,38.6380208 27.28125,38.078125 27.28125,37.296875 L27.28125,37.296875 L27.28125,29.015625 L33.265625,29.015625 L33.265625,25.5 L27.28125,25.5 L27.28125,20.53125 L22.703125,20.53125 L22.703125,25.5 L18.234375,25.5 L18.234375,29.015625 L22.703125,29.015625 L22.703125,37.078125 C22.703125,39.3489583 23.1666667,40.9036458 24.09375,41.7421875 C25.0208333,42.5807292 26.796875,43 29.421875,43 L29.421875,43 L33.265625,43 Z M41.53125,49.625 C42.7604167,49.625 43.8046875,49.2473958 44.6640625,48.4921875 C45.5234375,47.7369792 46.2604167,46.5364583 46.875,44.890625 L46.875,44.890625 L54.140625,25.5 L49.328125,25.5 L45.5,36.859375 L41.5,25.5 L36.6875,25.5 L43.34375,42.515625 L43,43.453125 C42.5520833,44.609375 42.109375,45.3463542 41.671875,45.6640625 C41.234375,45.9817708 40.546875,46.140625 39.609375,46.140625 L39.609375,46.140625 L37.75,46.140625 L37.75,49.625 L41.53125,49.625 Z M61.9375,49.65625 L61.9375,40.53125 C62.5,41.5104167 63.1536458,42.2421875 63.8984375,42.7265625 C64.6432292,43.2109375 65.484375,43.453125 66.421875,43.453125 C68.4947917,43.453125 70.0911458,42.6614583 71.2109375,41.078125 C72.3307292,39.4947917 72.890625,37.2239583 72.890625,34.265625 C72.890625,31.3489583 72.3385417,29.0885417 71.234375,27.484375 C70.1302083,25.8802083 68.578125,25.078125 66.578125,25.078125 C65.5260417,25.078125 64.609375,25.3333333 63.828125,25.84375 C63.046875,26.3541667 62.4166667,27.1145833 61.9375,28.125 L61.9375,28.125 L61.9375,25.5 L57.375,25.5 L57.375,49.65625 L61.9375,49.65625 Z M65.140625,39.640625 C64.1510417,39.640625 63.3697917,39.1614583 62.796875,38.203125 C62.2239583,37.2447917 61.9375,35.921875 61.9375,34.234375 C61.9375,32.546875 62.2239583,31.2239583 62.796875,30.265625 C63.3697917,29.3072917 64.1510417,28.828125 65.140625,28.828125 C66.1302083,28.828125 66.90625,29.3072917 67.46875,30.265625 C68.03125,31.2239583 68.3125,32.546875 68.3125,34.234375 C68.3125,35.921875 68.03125,37.2447917 67.46875,38.203125 C66.90625,39.1614583 66.1302083,39.640625 65.140625,39.640625 Z M84.765625,43.453125 C85.9947917,43.453125 87.1614583,43.34375 88.265625,43.125 C89.3697917,42.90625 90.453125,42.578125 91.515625,42.140625 L91.515625,42.140625 L91.515625,37.9375 C90.4010417,38.59375 89.3333333,39.0729167 88.3125,39.375 C87.2916667,39.6770833 86.2552083,39.828125 85.203125,39.828125 C83.609375,39.828125 82.4114583,39.4895833 81.609375,38.8125 C80.8072917,38.1354167 80.4010417,37.109375 80.390625,35.734375 L80.390625,35.734375 L92.25,35.734375 L92.25,33.875 C92.25,31.0833333 91.5338542,28.9192708 90.1015625,27.3828125 C88.6692708,25.8463542 86.65625,25.078125 84.0625,25.078125 C81.4895833,25.078125 79.4583333,25.90625 77.96875,27.5625 C76.4791667,29.21875 75.734375,31.4739583 75.734375,34.328125 C75.734375,37.2760417 76.5078125,39.5338542 78.0546875,41.1015625 C79.6015625,42.6692708 81.8385417,43.453125 84.765625,43.453125 Z M80.4375,32.3125 C80.5520833,31.1354167 80.921875,30.2265625 81.546875,29.5859375 C82.171875,28.9453125 83.0104167,28.625 84.0625,28.625 C85.2291667,28.625 86.1119792,28.9348958 86.7109375,29.5546875 C87.3098958,30.1744792 87.6197917,31.0885417 87.640625,32.296875 L87.640625,32.296875 L80.4375,32.3125 Z M122.390625,43.453125 C124.765625,43.453125 126.544271,43.0026042 127.726562,42.1015625 C128.908854,41.2005208 129.5,39.8489583 129.5,38.046875 C129.5,36.546875 129.111979,35.3567708 128.335938,34.4765625 C127.559896,33.5963542 126.338542,32.9583333 124.671875,32.5625 L124.671875,32.5625 L123.359375,32.25 L123.1875,32.203125 C120.958333,31.6822917 119.84375,31.0052083 119.84375,30.171875 C119.84375,29.5885417 120.104167,29.1484375 120.625,28.8515625 C121.145833,28.5546875 121.916667,28.40625 122.9375,28.40625 C123.854167,28.40625 124.768229,28.5442708 125.679688,28.8203125 C126.591146,29.0963542 127.46875,29.5052083 128.3125,30.046875 L128.3125,30.046875 L128.3125,26.046875 C127.385417,25.7239583 126.429688,25.4817708 125.445312,25.3203125 C124.460938,25.1588542 123.473958,25.078125 122.484375,25.078125 C120.276042,25.078125 118.5625,25.546875 117.34375,26.484375 C116.125,27.421875 115.515625,28.734375 115.515625,30.421875 C115.515625,31.8385417 115.916667,32.96875 116.71875,33.8125 C117.520833,34.65625 118.796875,35.2760417 120.546875,35.671875 L120.546875,35.671875 L121.8125,35.953125 C123.28125,36.3072917 124.210938,36.640625 124.601562,36.953125 C124.992188,37.265625 125.1875,37.7135417 125.1875,38.296875 C125.1875,38.890625 124.911458,39.34375 124.359375,39.65625 C123.807292,39.96875 122.994792,40.125 121.921875,40.125 C120.942708,40.125 119.929688,39.9739583 118.882812,39.671875 C117.835938,39.3697917 116.807292,38.9322917 115.796875,38.359375 L115.796875,38.359375 L115.796875,42.359375 C116.932292,42.7239583 118.052083,42.9973958 119.15625,43.1796875 C120.260417,43.3619792 121.338542,43.453125 122.390625,43.453125 Z M141.71875,43.453125 C144.197917,43.453125 146.169271,42.6276042 147.632812,40.9765625 C149.096354,39.3255208 149.828125,37.0885417 149.828125,34.265625 C149.828125,31.4427083 149.096354,29.2057292 147.632812,27.5546875 C146.169271,25.9036458 144.197917,25.078125 141.71875,25.078125 C139.25,25.078125 137.283854,25.9036458 135.820312,27.5546875 C134.356771,29.2057292 133.625,31.4427083 133.625,34.265625 C133.625,37.0885417 134.356771,39.3255208 135.820312,40.9765625 C137.283854,42.6276042 139.25,43.453125 141.71875,43.453125 Z M141.71875,39.734375 C140.625,39.734375 139.765625,39.2526042 139.140625,38.2890625 C138.515625,37.3255208 138.203125,35.984375 138.203125,34.265625 C138.203125,32.546875 138.515625,31.2057292 139.140625,30.2421875 C139.765625,29.2786458 140.625,28.796875 141.71875,28.796875 C142.822917,28.796875 143.6875,29.2786458 144.3125,30.2421875 C144.9375,31.2057292 145.25,32.546875 145.25,34.265625 C145.25,35.984375 144.9375,37.3255208 144.3125,38.2890625 C143.6875,39.2526042 142.822917,39.734375 141.71875,39.734375 Z M156.390625,43 L156.390625,31.765625 C156.390625,30.4635417 156.489583,29.59375 156.6875,29.15625 C156.885417,28.71875 157.244792,28.5 157.765625,28.5 C158.286458,28.5 158.651042,28.7239583 158.859375,29.171875 C159.067708,29.6197917 159.171875,30.484375 159.171875,31.765625 L159.171875,31.765625 L159.171875,43 L162.875,43 L162.875,31.765625 C162.875,30.484375 162.979167,29.6197917 163.1875,29.171875 C163.395833,28.7239583 163.760417,28.5 164.28125,28.5 C164.802083,28.5 165.161458,28.71875 165.359375,29.15625 C165.557292,29.59375 165.65625,30.4635417 165.65625,31.765625 L165.65625,31.765625 L165.65625,43 L169.40625,43 L169.40625,33.140625 C169.40625,29.8489583 169.117188,27.6822917 168.539062,26.640625 C167.960938,25.5989583 166.916667,25.078125 165.40625,25.078125 C164.635417,25.078125 163.984375,25.2552083 163.453125,25.609375 C162.921875,25.9635417 162.484375,26.5104167 162.140625,27.25 C162.015625,26.6458333 161.661458,26.1328125 161.078125,25.7109375 C160.494792,25.2890625 159.848958,25.078125 159.140625,25.078125 C158.432292,25.078125 157.791667,25.2786458 157.21875,25.6796875 C156.645833,26.0807292 156.229167,26.625 155.96875,27.3125 L155.96875,27.3125 L155.96875,25.5 L152.640625,25.5 L152.640625,43 L156.390625,43 Z M181.09375,43.453125 C182.322917,43.453125 183.489583,43.34375 184.59375,43.125 C185.697917,42.90625 186.78125,42.578125 187.84375,42.140625 L187.84375,42.140625 L187.84375,37.9375 C186.729167,38.59375 185.661458,39.0729167 184.640625,39.375 C183.619792,39.6770833 182.583333,39.828125 181.53125,39.828125 C179.9375,39.828125 178.739583,39.4895833 177.9375,38.8125 C177.135417,38.1354167 176.729167,37.109375 176.71875,35.734375 L176.71875,35.734375 L188.578125,35.734375 L188.578125,33.875 C188.578125,31.0833333 187.861979,28.9192708 186.429688,27.3828125 C184.997396,25.8463542 182.984375,25.078125 180.390625,25.078125 C177.817708,25.078125 175.786458,25.90625 174.296875,27.5625 C172.807292,29.21875 172.0625,31.4739583 172.0625,34.328125 C172.0625,37.2760417 172.835938,39.5338542 174.382812,41.1015625 C175.929688,42.6692708 178.166667,43.453125 181.09375,43.453125 Z M176.765625,32.3125 C176.880208,31.1354167 177.25,30.2265625 177.875,29.5859375 C178.5,28.9453125 179.338542,28.625 180.390625,28.625 C181.557292,28.625 182.440104,28.9348958 183.039062,29.5546875 C183.638021,30.1744792 183.947917,31.0885417 183.96875,32.296875 L183.96875,32.296875 L176.765625,32.3125 Z M206.65625,43 L206.65625,39.484375 L203.140625,39.484375 C202.255208,39.484375 201.622396,39.3151042 201.242188,38.9765625 C200.861979,38.6380208 200.671875,38.078125 200.671875,37.296875 L200.671875,37.296875 L200.671875,29.015625 L206.65625,29.015625 L206.65625,25.5 L200.671875,25.5 L200.671875,20.53125 L196.09375,20.53125 L196.09375,25.5 L191.625,25.5 L191.625,29.015625 L196.09375,29.015625 L196.09375,37.078125 C196.09375,39.3489583 196.557292,40.9036458 197.484375,41.7421875 C198.411458,42.5807292 200.1875,43 202.8125,43 L202.8125,43 L206.65625,43 Z M216.390625,43 L216.390625,32.984375 C216.390625,31.6822917 216.625,30.6640625 217.09375,29.9296875 C217.5625,29.1953125 218.213542,28.828125 219.046875,28.828125 C219.859375,28.828125 220.445312,29.0989583 220.804688,29.640625 C221.164062,30.1822917 221.34375,31.0833333 221.34375,32.34375 L221.34375,32.34375 L221.34375,43 L225.890625,43 L225.890625,31.640625 C225.890625,29.4635417 225.46875,27.8255208 224.625,26.7265625 C223.78125,25.6276042 222.53125,25.078125 220.875,25.078125 C219.770833,25.078125 218.828125,25.34375 218.046875,25.875 C217.265625,26.40625 216.713542,27.15625 216.390625,28.125 L216.390625,28.125 L216.390625,18.6875 L211.84375,18.6875 L211.84375,43 L216.390625,43 Z M240.9375,22.328125 L240.9375,16.984375 L236.359375,16.984375 L236.359375,22.328125 L240.9375,22.328125 Z M246.625,43 L246.625,39.484375 L240.9375,39.484375 L240.9375,25.5 L231.875,25.5 L231.875,29.015625 L236.359375,29.015625 L236.359375,39.484375 L230.65625,39.484375 L230.65625,43 L246.625,43 Z M254.921875,43 L254.921875,32.984375 C254.921875,31.671875 255.158854,30.6458333 255.632812,29.90625 C256.106771,29.1666667 256.755208,28.796875 257.578125,28.796875 C258.390625,28.796875 258.976562,29.0703125 259.335938,29.6171875 C259.695312,30.1640625 259.875,31.0729167 259.875,32.34375 L259.875,32.34375 L259.875,43 L264.421875,43 L264.421875,31.640625 C264.421875,29.4635417 264,27.8255208 263.15625,26.7265625 C262.3125,25.6276042 261.0625,25.078125 259.40625,25.078125 C258.302083,25.078125 257.359375,25.34375 256.578125,25.875 C255.796875,26.40625 255.244792,27.15625 254.921875,28.125 L254.921875,28.125 L254.921875,25.5 L250.375,25.5 L250.375,43 L254.921875,43 Z M276.015625,49.625 C278.859375,49.625 280.914062,49.0026042 282.179688,47.7578125 C283.445312,46.5130208 284.078125,44.4895833 284.078125,41.6875 L284.078125,41.6875 L284.078125,25.5 L279.5,25.5 L279.5,27.734375 C279.052083,26.8802083 278.4375,26.21875 277.65625,25.75 C276.875,25.28125 275.984375,25.046875 274.984375,25.046875 C273.005208,25.046875 271.427083,25.859375 270.25,27.484375 C269.072917,29.109375 268.484375,31.3072917 268.484375,34.078125 C268.484375,36.7552083 269.072917,38.875 270.25,40.4375 C271.427083,42 273.015625,42.78125 275.015625,42.78125 C276.078125,42.78125 276.979167,42.578125 277.71875,42.171875 C278.458333,41.765625 279.052083,41.1458333 279.5,40.3125 L279.5,40.3125 L279.5,42.203125 C279.5,43.4947917 279.192708,44.4453125 278.578125,45.0546875 C277.963542,45.6640625 277.010417,45.96875 275.71875,45.96875 C274.770833,45.96875 273.848958,45.8541667 272.953125,45.625 C272.057292,45.3958333 271.177083,45.0416667 270.3125,44.5625 L270.3125,44.5625 L270.3125,48.765625 C271.28125,49.0572917 272.234375,49.2734375 273.171875,49.4140625 C274.109375,49.5546875 275.057292,49.625 276.015625,49.625 Z M276.265625,39.15625 C275.307292,39.15625 274.533854,38.6875 273.945312,37.75 C273.356771,36.8125 273.0625,35.5520833 273.0625,33.96875 C273.0625,32.3958333 273.356771,31.140625 273.945312,30.203125 C274.533854,29.265625 275.307292,28.796875 276.265625,28.796875 C277.234375,28.796875 278.015625,29.2682292 278.609375,30.2109375 C279.203125,31.1536458 279.5,32.40625 279.5,33.96875 C279.5,35.5416667 279.203125,36.7994792 278.609375,37.7421875 C278.015625,38.6848958 277.234375,39.15625 276.265625,39.15625 Z M323.859375,43 L323.859375,37.265625 L319.25,37.265625 L319.25,43 L323.859375,43 Z M317.421875,43 L317.421875,37.265625 L312.8125,37.265625 L312.8125,43 L317.421875,43 Z M310.984375,43 L310.984375,37.265625 L306.375,37.265625 L306.375,43 L310.984375,43 Z" id="typesomething…" fill="#BDBDBD" fill-rule="nonzero"></path>
        </g>
        <path d="M845.441406,72.3789062 C848.050781,72.3789062 849.980469,71.3046875 851.230469,69.15625 C852.152344,67.5625 852.613281,65.6171875 852.613281,63.3203125 C852.613281,62.4140625 852.503906,61.4609375 852.285156,60.4609375 C852.066406,59.4609375 851.65625,58.53125 851.054688,57.671875 C850.304688,56.609375 849.324219,55.8789062 848.113281,55.4804688 C847.402344,55.2460938 846.511719,55.1210938 845.441406,55.1054688 L845.441406,55.1054688 L838,55.1054688 L838,72.3789062 L845.441406,72.3789062 Z M844.832031,69.3789062 L841.503906,69.3789062 L841.503906,58.1054688 L844.832031,58.1054688 C846.472656,58.1054688 847.568359,58.5761719 848.119141,59.5175781 C848.669922,60.4589844 848.945312,61.8085938 848.945312,63.5664062 C848.945312,64.8398438 848.761719,65.9375 848.394531,66.859375 C847.722656,68.5390625 846.535156,69.3789062 844.832031,69.3789062 L844.832031,69.3789062 Z M858.496094,58.0820312 L858.496094,55 L855.109375,55 L855.109375,58.0820312 L858.496094,58.0820312 Z M858.496094,72.3789062 L858.496094,59.6054688 L855.109375,59.6054688 L855.109375,72.3789062 L858.496094,72.3789062 Z M866.828125,72.8125 C868.796875,72.8125 870.251953,72.4121094 871.193359,71.6113281 C872.134766,70.8105469 872.605469,69.7773438 872.605469,68.5117188 C872.605469,67.5507812 872.277344,66.75 871.621094,66.109375 C870.957031,65.4765625 869.960938,65.0039062 868.632812,64.6914062 C866.640625,64.2539062 865.480469,63.9453125 865.152344,63.765625 C864.824219,63.59375 864.660156,63.3164062 864.660156,62.9335938 C864.660156,62.6289062 864.814453,62.3632812 865.123047,62.1367188 C865.431641,61.9101562 865.949219,61.796875 866.675781,61.796875 C867.558594,61.796875 868.183594,62.0234375 868.550781,62.4765625 C868.746094,62.7265625 868.867188,63.0664062 868.914062,63.4960938 L868.914062,63.4960938 L872.253906,63.4960938 C872.105469,61.9335938 871.529297,60.8339844 870.525391,60.1972656 C869.521484,59.5605469 868.222656,59.2421875 866.628906,59.2421875 C864.949219,59.2421875 863.646484,59.6660156 862.720703,60.5136719 C861.794922,61.3613281 861.332031,62.375 861.332031,63.5546875 C861.332031,64.5546875 861.628906,65.3203125 862.222656,65.8515625 C862.816406,66.390625 863.835938,66.8398438 865.28125,67.1992188 C867.289062,67.6757812 868.449219,68.0117188 868.761719,68.2070312 C869.074219,68.4023438 869.230469,68.6875 869.230469,69.0625 C869.230469,69.453125 869.037109,69.7460938 868.650391,69.9414062 C868.263672,70.1367188 867.742188,70.234375 867.085938,70.234375 C865.96875,70.234375 865.203125,70.0117188 864.789062,69.5664062 C864.554688,69.3164062 864.402344,68.8945312 864.332031,68.3007812 L864.332031,68.3007812 L860.945312,68.3007812 C860.945312,69.6132812 861.423828,70.6933594 862.380859,71.5410156 C863.337891,72.3886719 864.820312,72.8125 866.828125,72.8125 Z M878.207031,72.7773438 C879.113281,72.7773438 879.925781,72.5703125 880.644531,72.15625 C881.246094,71.8046875 881.777344,71.3789062 882.238281,70.8789062 C882.261719,71.1679688 882.292969,71.4257812 882.332031,71.6523438 C882.371094,71.8789062 882.441406,72.1210938 882.542969,72.3789062 L882.542969,72.3789062 L886.175781,72.3789062 L886.175781,71.8867188 C885.957031,71.7851562 885.792969,71.65625 885.683594,71.5 C885.574219,71.34375 885.507812,71.046875 885.484375,70.609375 C885.46875,70.03125 885.460938,69.5390625 885.460938,69.1328125 L885.460938,69.1328125 L885.460938,63.2734375 C885.460938,61.734375 884.917969,60.6875 883.832031,60.1328125 C882.746094,59.578125 881.503906,59.3007812 880.105469,59.3007812 C877.957031,59.3007812 876.441406,59.8632812 875.558594,60.9882812 C875.003906,61.7070312 874.691406,62.625 874.621094,63.7421875 L874.621094,63.7421875 L877.84375,63.7421875 C877.921875,63.25 878.078125,62.859375 878.3125,62.5703125 C878.640625,62.1796875 879.199219,61.984375 879.988281,61.984375 C880.691406,61.984375 881.224609,62.0839844 881.587891,62.2832031 C881.951172,62.4824219 882.132812,62.84375 882.132812,63.3671875 C882.132812,63.796875 881.894531,64.1132812 881.417969,64.3164062 C881.152344,64.4335938 880.710938,64.53125 880.09375,64.609375 L880.09375,64.609375 L878.957031,64.75 C877.667969,64.9140625 876.691406,65.1875 876.027344,65.5703125 C874.816406,66.2734375 874.210938,67.4101562 874.210938,68.9804688 C874.210938,70.1914062 874.587891,71.1269531 875.341797,71.7871094 C876.095703,72.4472656 877.050781,72.7773438 878.207031,72.7773438 Z M879.191406,70.3515625 C878.738281,70.3515625 878.353516,70.2246094 878.037109,69.9707031 C877.720703,69.7167969 877.5625,69.3046875 877.5625,68.734375 C877.5625,68.09375 877.820312,67.6210938 878.335938,67.3164062 C878.640625,67.1367188 879.144531,66.984375 879.847656,66.859375 L879.847656,66.859375 L880.597656,66.71875 C880.972656,66.6484375 881.267578,66.5722656 881.482422,66.4902344 C881.697266,66.4082031 881.910156,66.3007812 882.121094,66.1679688 L882.121094,66.1679688 L882.121094,67.4101562 C882.097656,68.5273438 881.783203,69.296875 881.177734,69.71875 C880.572266,70.140625 879.910156,70.3515625 879.191406,70.3515625 Z M895.363281,72.71875 C897.042969,72.71875 898.351562,72.0664062 899.289062,70.7617188 C900.226562,69.4570312 900.695312,67.8125 900.695312,65.828125 C900.695312,63.9140625 900.220703,62.3515625 899.271484,61.140625 C898.322266,59.9296875 897.007812,59.3242188 895.328125,59.3242188 C894.398438,59.3242188 893.632812,59.5195312 893.03125,59.9101562 C892.523438,60.2226562 892.058594,60.6757812 891.636719,61.2695312 L891.636719,61.2695312 L891.636719,55.1289062 L888.308594,55.1289062 L888.308594,72.3789062 L891.578125,72.3789062 L891.578125,70.7734375 C892.023438,71.3984375 892.4375,71.8359375 892.820312,72.0859375 C893.460938,72.5078125 894.308594,72.71875 895.363281,72.71875 Z M894.472656,69.9648438 C893.480469,69.9648438 892.742188,69.6054688 892.257812,68.8867188 C891.773438,68.1679688 891.53125,67.2617188 891.53125,66.1679688 C891.53125,65.2382812 891.648438,64.4804688 891.882812,63.8945312 C892.335938,62.7929688 893.167969,62.2421875 894.378906,62.2421875 C895.574219,62.2421875 896.394531,62.8046875 896.839844,63.9296875 C897.074219,64.5234375 897.191406,65.2734375 897.191406,66.1796875 C897.191406,67.3125 896.953125,68.2265625 896.476562,68.921875 C896,69.6171875 895.332031,69.9648438 894.472656,69.9648438 Z M906.496094,72.3789062 L906.496094,55.1054688 L903.15625,55.1054688 L903.15625,72.3789062 L906.496094,72.3789062 Z M914.910156,72.8007812 C916.878906,72.8007812 918.410156,72.1796875 919.503906,70.9375 C920.207031,70.15625 920.601562,69.3867188 920.6875,68.6289062 L920.6875,68.6289062 L917.277344,68.6289062 C917.097656,69.0039062 916.890625,69.296875 916.65625,69.5078125 C916.226562,69.8984375 915.667969,70.09375 914.980469,70.09375 C914.332031,70.09375 913.777344,69.9335938 913.316406,69.6132812 C912.558594,69.0976562 912.15625,68.1992188 912.109375,66.9179688 L912.109375,66.9179688 L920.851562,66.9179688 C920.867188,65.8164062 920.832031,64.9726562 920.746094,64.3867188 C920.597656,63.3867188 920.273438,62.5078125 919.773438,61.75 C919.21875,60.890625 918.515625,60.2617188 917.664062,59.8632812 C916.8125,59.4648438 915.855469,59.265625 914.792969,59.265625 C913.003906,59.265625 911.548828,59.8554688 910.427734,61.0351562 C909.306641,62.2148438 908.746094,63.9101562 908.746094,66.1210938 C908.746094,68.4804688 909.367188,70.1835938 910.609375,71.2304688 C911.851562,72.2773438 913.285156,72.8007812 914.910156,72.8007812 Z M917.382812,64.7148438 L912.191406,64.7148438 C912.300781,63.8867188 912.568359,63.2304688 912.994141,62.7460938 C913.419922,62.2617188 914.019531,62.0195312 914.792969,62.0195312 C915.503906,62.0195312 916.099609,62.2480469 916.580078,62.7050781 C917.060547,63.1621094 917.328125,63.8320312 917.382812,64.7148438 L917.382812,64.7148438 Z M927.578125,72.7773438 C928.484375,72.7773438 929.242188,72.6054688 929.851562,72.2617188 C930.460938,71.9179688 931.003906,71.3671875 931.480469,70.609375 L931.480469,70.609375 L931.480469,72.3789062 L934.726562,72.3789062 L934.726562,55.1289062 L931.339844,55.1289062 L931.339844,61.2226562 C930.964844,60.6210938 930.476562,60.1503906 929.875,59.8105469 C929.273438,59.4707031 928.585938,59.3007812 927.8125,59.3007812 C926.132812,59.3007812 924.791016,59.9257812 923.787109,61.1757812 C922.783203,62.4257812 922.28125,64.140625 922.28125,66.3203125 C922.28125,68.2109375 922.791016,69.7597656 923.810547,70.9667969 C924.830078,72.1738281 926.085938,72.7773438 927.578125,72.7773438 Z M928.539062,69.9648438 C927.59375,69.9648438 926.888672,69.6113281 926.423828,68.9042969 C925.958984,68.1972656 925.726562,67.2539062 925.726562,66.0742188 C925.726562,64.9804688 925.955078,64.0644531 926.412109,63.3261719 C926.869141,62.5878906 927.585938,62.21875 928.5625,62.21875 C929.203125,62.21875 929.765625,62.421875 930.25,62.828125 C931.039062,63.5 931.433594,64.6171875 931.433594,66.1796875 C931.433594,67.296875 931.1875,68.2070312 930.695312,68.9101562 C930.203125,69.6132812 929.484375,69.9648438 928.539062,69.9648438 Z" id="Disabled" fill="#9E9E9E" fill-rule="nonzero"></path>
        <path d="M841.585937,255.378906 L841.585937,238.105469 L838,238.105469 L838,255.378906 L841.585937,255.378906 Z M848.03125,255.378906 L848.03125,248.464844 C848.03125,247.675781 848.140625,247.027344 848.359375,246.519531 C848.78125,245.558594 849.558594,245.078125 850.691406,245.078125 C851.613281,245.078125 852.238281,245.40625 852.566406,246.0625 C852.746094,246.421875 852.835937,246.9375 852.835937,247.609375 L852.835937,247.609375 L852.835937,255.378906 L856.257812,255.378906 L856.257812,246.777344 C856.257812,245.175781 855.837891,244.029297 854.998047,243.337891 C854.158203,242.646484 853.078125,242.300781 851.757812,242.300781 C850.703125,242.300781 849.832031,242.558594 849.144531,243.074219 C848.761719,243.363281 848.355469,243.835938 847.925781,244.492188 L847.925781,244.492188 L847.925781,242.628906 L844.703125,242.628906 L844.703125,255.378906 L848.03125,255.378906 Z M863.31543,255.561096 L863.605469,255.554688 L865.1875,255.496094 L865.1875,253 C865.078125,253.007812 864.966797,253.013672 864.853516,253.017578 C864.740234,253.021484 864.632812,253.023438 864.53125,253.023438 C863.851562,253.023438 863.445312,252.958984 863.3125,252.830078 C863.179687,252.701172 863.113281,252.375 863.113281,251.851562 L863.113281,251.851562 L863.113281,245.101562 L865.1875,245.101562 L865.1875,242.722656 L863.113281,242.722656 L863.113281,239.160156 L859.808594,239.160156 L859.808594,242.722656 L858.027344,242.722656 L858.027344,245.101562 L859.808594,245.101562 L859.808594,252.964844 C859.808594,253.761719 859.996094,254.351562 860.371094,254.734375 C860.949219,255.335938 862.027344,255.609375 863.605469,255.554688 L863.31543,255.561096 Z M872.488281,255.800781 C874.457031,255.800781 875.988281,255.179688 877.082031,253.9375 C877.785156,253.15625 878.179687,252.386719 878.265625,251.628906 L878.265625,251.628906 L874.855469,251.628906 C874.675781,252.003906 874.46875,252.296875 874.234375,252.507812 C873.804687,252.898438 873.246094,253.09375 872.558594,253.09375 C871.910156,253.09375 871.355469,252.933594 870.894531,252.613281 C870.136719,252.097656 869.734375,251.199219 869.6875,249.917969 L869.6875,249.917969 L878.429687,249.917969 C878.445312,248.816406 878.410156,247.972656 878.324219,247.386719 C878.175781,246.386719 877.851562,245.507812 877.351562,244.75 C876.796875,243.890625 876.09375,243.261719 875.242187,242.863281 C874.390625,242.464844 873.433594,242.265625 872.371094,242.265625 C870.582031,242.265625 869.126953,242.855469 868.005859,244.035156 C866.884766,245.214844 866.324219,246.910156 866.324219,249.121094 C866.324219,251.480469 866.945312,253.183594 868.1875,254.230469 C869.429687,255.277344 870.863281,255.800781 872.488281,255.800781 Z M874.960937,247.714844 L869.769531,247.714844 C869.878906,246.886719 870.146484,246.230469 870.572266,245.746094 C870.998047,245.261719 871.597656,245.019531 872.371094,245.019531 C873.082031,245.019531 873.677734,245.248047 874.158203,245.705078 C874.638672,246.162109 874.90625,246.832031 874.960937,247.714844 L874.960937,247.714844 Z M884.007812,255.378906 L884.007812,249.273438 C884.007812,248.25 884.136719,247.492188 884.394531,247 C884.855469,246.125 885.757812,245.6875 887.101562,245.6875 C887.203125,245.6875 887.335937,245.691406 887.5,245.699219 C887.664062,245.707031 887.851562,245.722656 888.0625,245.746094 L888.0625,245.746094 L888.0625,242.324219 C887.914062,242.316406 887.818359,242.310547 887.775391,242.306641 C887.732422,242.302734 887.679687,242.300781 887.617187,242.300781 C886.617187,242.300781 885.804687,242.5625 885.179687,243.085938 C884.796875,243.398438 884.347656,243.980469 883.832031,244.832031 L883.832031,244.832031 L883.832031,242.605469 L880.644531,242.605469 L880.644531,255.378906 L884.007812,255.378906 Z M893.148437,255.777344 C894.054687,255.777344 894.867187,255.570312 895.585937,255.15625 C896.1875,254.804688 896.71875,254.378906 897.179687,253.878906 C897.203125,254.167969 897.234375,254.425781 897.273437,254.652344 C897.3125,254.878906 897.382812,255.121094 897.484375,255.378906 L897.484375,255.378906 L901.117187,255.378906 L901.117187,254.886719 C900.898437,254.785156 900.734375,254.65625 900.625,254.5 C900.515625,254.34375 900.449219,254.046875 900.425781,253.609375 C900.410156,253.03125 900.402344,252.539062 900.402344,252.132812 L900.402344,252.132812 L900.402344,246.273438 C900.402344,244.734375 899.859375,243.6875 898.773437,243.132812 C897.6875,242.578125 896.445312,242.300781 895.046875,242.300781 C892.898437,242.300781 891.382812,242.863281 890.5,243.988281 C889.945312,244.707031 889.632812,245.625 889.5625,246.742188 L889.5625,246.742188 L892.785156,246.742188 C892.863281,246.25 893.019531,245.859375 893.253906,245.570312 C893.582031,245.179688 894.140625,244.984375 894.929687,244.984375 C895.632812,244.984375 896.166016,245.083984 896.529297,245.283203 C896.892578,245.482422 897.074219,245.84375 897.074219,246.367188 C897.074219,246.796875 896.835937,247.113281 896.359375,247.316406 C896.09375,247.433594 895.652344,247.53125 895.035156,247.609375 L895.035156,247.609375 L893.898437,247.75 C892.609375,247.914062 891.632812,248.1875 890.96875,248.570312 C889.757812,249.273438 889.152344,250.410156 889.152344,251.980469 C889.152344,253.191406 889.529297,254.126953 890.283203,254.787109 C891.037109,255.447266 891.992187,255.777344 893.148437,255.777344 Z M894.132812,253.351562 C893.679687,253.351562 893.294922,253.224609 892.978516,252.970703 C892.662109,252.716797 892.503906,252.304688 892.503906,251.734375 C892.503906,251.09375 892.761719,250.621094 893.277344,250.316406 C893.582031,250.136719 894.085937,249.984375 894.789062,249.859375 L894.789062,249.859375 L895.539062,249.71875 C895.914062,249.648438 896.208984,249.572266 896.423828,249.490234 C896.638672,249.408203 896.851562,249.300781 897.0625,249.167969 L897.0625,249.167969 L897.0625,250.410156 C897.039062,251.527344 896.724609,252.296875 896.119141,252.71875 C895.513672,253.140625 894.851562,253.351562 894.132812,253.351562 Z M908.628906,255.824219 C910.683594,255.824219 912.234375,255.09375 913.28125,253.632812 C913.9375,252.726562 914.304687,251.765625 914.382812,250.75 L914.382812,250.75 L910.972656,250.75 C910.902344,251.421875 910.703125,251.96875 910.375,252.390625 C910.046875,252.8125 909.492187,253.023438 908.710937,253.023438 C907.609375,253.023438 906.859375,252.492188 906.460937,251.429688 C906.242187,250.859375 906.132812,250.105469 906.132812,249.167969 C906.132812,248.183594 906.242187,247.394531 906.460937,246.800781 C906.875,245.683594 907.644531,245.125 908.769531,245.125 C909.558594,245.125 910.140625,245.382812 910.515625,245.898438 C910.773437,246.28125 910.933594,246.710938 910.996094,247.1875 L910.996094,247.1875 L914.417969,247.1875 C914.230469,245.367188 913.626953,244.097656 912.607422,243.378906 C911.587891,242.660156 910.277344,242.300781 908.675781,242.300781 C906.792969,242.300781 905.316406,242.910156 904.246094,244.128906 C903.175781,245.347656 902.640625,247.054688 902.640625,249.25 C902.640625,251.195312 903.125,252.777344 904.09375,253.996094 C905.0625,255.214844 906.574219,255.824219 908.628906,255.824219 Z M920.69043,255.561096 L920.980469,255.554688 L922.5625,255.496094 L922.5625,253 C922.453125,253.007812 922.341797,253.013672 922.228516,253.017578 C922.115234,253.021484 922.007812,253.023438 921.90625,253.023438 C921.226562,253.023438 920.820312,252.958984 920.6875,252.830078 C920.554687,252.701172 920.488281,252.375 920.488281,251.851562 L920.488281,251.851562 L920.488281,245.101562 L922.5625,245.101562 L922.5625,242.722656 L920.488281,242.722656 L920.488281,239.160156 L917.183594,239.160156 L917.183594,242.722656 L915.402344,242.722656 L915.402344,245.101562 L917.183594,245.101562 L917.183594,252.964844 C917.183594,253.761719 917.371094,254.351562 917.746094,254.734375 C918.324219,255.335938 919.402344,255.609375 920.980469,255.554688 L920.69043,255.561096 Z M928.140625,241.082031 L928.140625,238 L924.753906,238 L924.753906,241.082031 L928.140625,241.082031 Z M928.140625,255.378906 L928.140625,242.605469 L924.753906,242.605469 L924.753906,255.378906 L928.140625,255.378906 Z M938.230469,255.378906 L942.835937,242.605469 L939.25,242.605469 L936.53125,252.027344 L933.871094,242.605469 L930.121094,242.605469 L934.703125,255.378906 L938.230469,255.378906 Z M949.878906,255.800781 C951.847656,255.800781 953.378906,255.179688 954.472656,253.9375 C955.175781,253.15625 955.570312,252.386719 955.65625,251.628906 L955.65625,251.628906 L952.246094,251.628906 C952.066406,252.003906 951.859375,252.296875 951.625,252.507812 C951.195312,252.898438 950.636719,253.09375 949.949219,253.09375 C949.300781,253.09375 948.746094,252.933594 948.285156,252.613281 C947.527344,252.097656 947.125,251.199219 947.078125,249.917969 L947.078125,249.917969 L955.820312,249.917969 C955.835937,248.816406 955.800781,247.972656 955.714844,247.386719 C955.566406,246.386719 955.242187,245.507812 954.742187,244.75 C954.1875,243.890625 953.484375,243.261719 952.632812,242.863281 C951.78125,242.464844 950.824219,242.265625 949.761719,242.265625 C947.972656,242.265625 946.517578,242.855469 945.396484,244.035156 C944.275391,245.214844 943.714844,246.910156 943.714844,249.121094 C943.714844,251.480469 944.335937,253.183594 945.578125,254.230469 C946.820312,255.277344 948.253906,255.800781 949.878906,255.800781 Z M952.351562,247.714844 L947.160156,247.714844 C947.269531,246.886719 947.537109,246.230469 947.962891,245.746094 C948.388672,245.261719 948.988281,245.019531 949.761719,245.019531 C950.472656,245.019531 951.068359,245.248047 951.548828,245.705078 C952.029297,246.162109 952.296875,246.832031 952.351562,247.714844 L952.351562,247.714844 Z" id="Interactive" fill="#9E9E9E" fill-rule="nonzero"></path>
        <path d="M841.527344,357.800781 L841.527344,351.027344 L845.253906,351.027344 C846.316406,351.027344 847.041016,351.210938 847.427734,351.578125 C847.814453,351.945312 848.015625,352.679688 848.03125,353.78125 L848.03125,353.78125 L848.054688,355.386719 C848.0625,355.894531 848.113281,356.390625 848.207031,356.875 C848.253906,357.109375 848.332031,357.417969 848.441406,357.800781 L848.441406,357.800781 L852.414062,357.800781 L852.414062,357.367188 C852.070312,357.15625 851.851562,356.828125 851.757812,356.382812 C851.695312,356.101562 851.664062,355.566406 851.664062,354.777344 L851.664062,354.777344 L851.664062,353.617188 C851.664062,352.40625 851.498047,351.505859 851.166016,350.916016 C850.833984,350.326172 850.269531,349.871094 849.472656,349.550781 C850.425781,349.222656 851.109375,348.662109 851.523438,347.869141 C851.9375,347.076172 852.144531,346.269531 852.144531,345.449219 C852.144531,344.769531 852.035156,344.164062 851.816406,343.632812 C851.597656,343.101562 851.300781,342.617188 850.925781,342.179688 C850.472656,341.648438 849.919922,341.246094 849.267578,340.972656 C848.615234,340.699219 847.683594,340.550781 846.472656,340.527344 L846.472656,340.527344 L838,340.527344 L838,357.800781 L841.527344,357.800781 Z M845.617188,348.167969 L841.527344,348.167969 L841.527344,343.527344 L845.722656,343.527344 C846.503906,343.527344 847.089844,343.628906 847.480469,343.832031 C848.175781,344.191406 848.523438,344.894531 848.523438,345.941406 C848.523438,346.910156 848.164062,347.558594 847.445312,347.886719 C847.039062,348.074219 846.429688,348.167969 845.617188,348.167969 L845.617188,348.167969 Z M860.136719,358.222656 C862.105469,358.222656 863.636719,357.601562 864.730469,356.359375 C865.433594,355.578125 865.828125,354.808594 865.914062,354.050781 L865.914062,354.050781 L862.503906,354.050781 C862.324219,354.425781 862.117188,354.71875 861.882812,354.929688 C861.453125,355.320312 860.894531,355.515625 860.207031,355.515625 C859.558594,355.515625 859.003906,355.355469 858.542969,355.035156 C857.785156,354.519531 857.382812,353.621094 857.335938,352.339844 L857.335938,352.339844 L866.078125,352.339844 C866.09375,351.238281 866.058594,350.394531 865.972656,349.808594 C865.824219,348.808594 865.5,347.929688 865,347.171875 C864.445312,346.3125 863.742188,345.683594 862.890625,345.285156 C862.039062,344.886719 861.082031,344.6875 860.019531,344.6875 C858.230469,344.6875 856.775391,345.277344 855.654297,346.457031 C854.533203,347.636719 853.972656,349.332031 853.972656,351.542969 C853.972656,353.902344 854.59375,355.605469 855.835938,356.652344 C857.078125,357.699219 858.511719,358.222656 860.136719,358.222656 Z M862.609375,350.136719 L857.417969,350.136719 C857.527344,349.308594 857.794922,348.652344 858.220703,348.167969 C858.646484,347.683594 859.246094,347.441406 860.019531,347.441406 C860.730469,347.441406 861.326172,347.669922 861.806641,348.126953 C862.287109,348.583984 862.554688,349.253906 862.609375,350.136719 L862.609375,350.136719 Z M871.457031,358.199219 C872.363281,358.199219 873.175781,357.992188 873.894531,357.578125 C874.496094,357.226562 875.027344,356.800781 875.488281,356.300781 C875.511719,356.589844 875.542969,356.847656 875.582031,357.074219 C875.621094,357.300781 875.691406,357.542969 875.792969,357.800781 L875.792969,357.800781 L879.425781,357.800781 L879.425781,357.308594 C879.207031,357.207031 879.042969,357.078125 878.933594,356.921875 C878.824219,356.765625 878.757812,356.46875 878.734375,356.03125 C878.71875,355.453125 878.710938,354.960938 878.710938,354.554688 L878.710938,354.554688 L878.710938,348.695312 C878.710938,347.15625 878.167969,346.109375 877.082031,345.554688 C875.996094,345 874.753906,344.722656 873.355469,344.722656 C871.207031,344.722656 869.691406,345.285156 868.808594,346.410156 C868.253906,347.128906 867.941406,348.046875 867.871094,349.164062 L867.871094,349.164062 L871.09375,349.164062 C871.171875,348.671875 871.328125,348.28125 871.5625,347.992188 C871.890625,347.601562 872.449219,347.40625 873.238281,347.40625 C873.941406,347.40625 874.474609,347.505859 874.837891,347.705078 C875.201172,347.904297 875.382812,348.265625 875.382812,348.789062 C875.382812,349.21875 875.144531,349.535156 874.667969,349.738281 C874.402344,349.855469 873.960938,349.953125 873.34375,350.03125 L873.34375,350.03125 L872.207031,350.171875 C870.917969,350.335938 869.941406,350.609375 869.277344,350.992188 C868.066406,351.695312 867.460938,352.832031 867.460938,354.402344 C867.460938,355.613281 867.837891,356.548828 868.591797,357.208984 C869.345703,357.869141 870.300781,358.199219 871.457031,358.199219 Z M872.441406,355.773438 C871.988281,355.773438 871.603516,355.646484 871.287109,355.392578 C870.970703,355.138672 870.8125,354.726562 870.8125,354.15625 C870.8125,353.515625 871.070312,353.042969 871.585938,352.738281 C871.890625,352.558594 872.394531,352.40625 873.097656,352.28125 L873.097656,352.28125 L873.847656,352.140625 C874.222656,352.070312 874.517578,351.994141 874.732422,351.912109 C874.947266,351.830078 875.160156,351.722656 875.371094,351.589844 L875.371094,351.589844 L875.371094,352.832031 C875.347656,353.949219 875.033203,354.71875 874.427734,355.140625 C873.822266,355.5625 873.160156,355.773438 872.441406,355.773438 Z M886.9375,358.246094 C888.992188,358.246094 890.542969,357.515625 891.589844,356.054688 C892.246094,355.148438 892.613281,354.1875 892.691406,353.171875 L892.691406,353.171875 L889.28125,353.171875 C889.210938,353.84375 889.011719,354.390625 888.683594,354.8125 C888.355469,355.234375 887.800781,355.445312 887.019531,355.445312 C885.917969,355.445312 885.167969,354.914062 884.769531,353.851562 C884.550781,353.28125 884.441406,352.527344 884.441406,351.589844 C884.441406,350.605469 884.550781,349.816406 884.769531,349.222656 C885.183594,348.105469 885.953125,347.546875 887.078125,347.546875 C887.867188,347.546875 888.449219,347.804688 888.824219,348.320312 C889.082031,348.703125 889.242188,349.132812 889.304688,349.609375 L889.304688,349.609375 L892.726562,349.609375 C892.539062,347.789062 891.935547,346.519531 890.916016,345.800781 C889.896484,345.082031 888.585938,344.722656 886.984375,344.722656 C885.101562,344.722656 883.625,345.332031 882.554688,346.550781 C881.484375,347.769531 880.949219,349.476562 880.949219,351.671875 C880.949219,353.617188 881.433594,355.199219 882.402344,356.417969 C883.371094,357.636719 884.882812,358.246094 886.9375,358.246094 Z M898.375,357.800781 L898.375,350.886719 C898.375,349.792969 898.603516,348.951172 899.060547,348.361328 C899.517578,347.771484 900.1875,347.476562 901.070312,347.476562 C901.921875,347.476562 902.5,347.773438 902.804688,348.367188 C903.039062,348.789062 903.15625,349.34375 903.15625,350.03125 L903.15625,350.03125 L903.15625,357.800781 L906.566406,357.800781 L906.566406,350.300781 C906.566406,349.160156 906.527344,348.337891 906.449219,347.833984 C906.371094,347.330078 906.15625,346.839844 905.804688,346.363281 C905.390625,345.800781 904.861328,345.382812 904.216797,345.109375 C903.572266,344.835938 902.855469,344.699219 902.066406,344.699219 C901.363281,344.699219 900.693359,344.845703 900.056641,345.138672 C899.419922,345.431641 898.859375,345.949219 898.375,346.691406 L898.375,346.691406 L898.375,340.585938 L895.046875,340.585938 L895.046875,357.800781 L898.375,357.800781 Z M913.117188,343.503906 L913.117188,340.421875 L909.730469,340.421875 L909.730469,343.503906 L913.117188,343.503906 Z M913.117188,357.800781 L913.117188,345.027344 L909.730469,345.027344 L909.730469,357.800781 L913.117188,357.800781 Z M919.703125,357.800781 L919.703125,350.886719 C919.703125,350.097656 919.8125,349.449219 920.03125,348.941406 C920.453125,347.980469 921.230469,347.5 922.363281,347.5 C923.285156,347.5 923.910156,347.828125 924.238281,348.484375 C924.417969,348.84375 924.507812,349.359375 924.507812,350.03125 L924.507812,350.03125 L924.507812,357.800781 L927.929688,357.800781 L927.929688,349.199219 C927.929688,347.597656 927.509766,346.451172 926.669922,345.759766 C925.830078,345.068359 924.75,344.722656 923.429688,344.722656 C922.375,344.722656 921.503906,344.980469 920.816406,345.496094 C920.433594,345.785156 920.027344,346.257812 919.597656,346.914062 L919.597656,346.914062 L919.597656,345.050781 L916.375,345.050781 L916.375,357.800781 L919.703125,357.800781 Z M936.238281,363.027344 C938.941406,363.027344 940.769531,362.308594 941.722656,360.871094 C942.277344,360.035156 942.554688,358.792969 942.554688,357.144531 L942.554688,357.144531 L942.554688,345.027344 L939.308594,345.027344 L939.308594,346.867188 C938.808594,345.96875 938.152344,345.351562 937.339844,345.015625 C936.863281,344.820312 936.304688,344.722656 935.664062,344.722656 C933.929688,344.722656 932.589844,345.369141 931.644531,346.662109 C930.699219,347.955078 930.226562,349.550781 930.226562,351.449219 C930.226562,353.417969 930.716797,354.978516 931.697266,356.130859 C932.677734,357.283203 933.988281,357.859375 935.628906,357.859375 C936.691406,357.859375 937.554688,357.605469 938.21875,357.097656 C938.585938,356.824219 938.929688,356.414062 939.25,355.867188 L939.25,355.867188 L939.25,356.6875 C939.25,357.90625 939.117188,358.773438 938.851562,359.289062 C938.445312,360.09375 937.640625,360.496094 936.4375,360.496094 C935.585938,360.496094 934.980469,360.34375 934.621094,360.039062 C934.410156,359.867188 934.257812,359.585938 934.164062,359.195312 L934.164062,359.195312 L930.53125,359.195312 C930.640625,360.46875 931.210938,361.425781 932.242188,362.066406 C933.273438,362.707031 934.605469,363.027344 936.238281,363.027344 Z M936.496094,355.058594 C935.324219,355.058594 934.511719,354.519531 934.058594,353.441406 C933.808594,352.863281 933.683594,352.203125 933.683594,351.460938 C933.683594,350.601562 933.800781,349.878906 934.035156,349.292969 C934.480469,348.191406 935.289062,347.640625 936.460938,347.640625 C937.320312,347.640625 938.005859,347.957031 938.517578,348.589844 C939.029297,349.222656 939.285156,350.144531 939.285156,351.355469 C939.285156,352.644531 939.015625,353.583984 938.476562,354.173828 C937.9375,354.763672 937.277344,355.058594 936.496094,355.058594 Z M960.25,358.28125 C962.71875,358.28125 964.605469,357.609375 965.910156,356.265625 C967.652344,354.617188 968.523438,352.242188 968.523438,349.140625 C968.523438,345.976562 967.652344,343.601562 965.910156,342.015625 C964.605469,340.671875 962.71875,340 960.25,340 C957.78125,340 955.894531,340.671875 954.589844,342.015625 C952.839844,343.601562 951.964844,345.976562 951.964844,349.140625 C951.964844,352.242188 952.839844,354.617188 954.589844,356.265625 C955.894531,357.609375 957.78125,358.28125 960.25,358.28125 Z M960.25,355.222656 C958.820312,355.222656 957.679688,354.695312 956.828125,353.640625 C955.976562,352.585938 955.550781,351.085938 955.550781,349.140625 C955.550781,347.195312 955.976562,345.695312 956.828125,344.640625 C957.679688,343.585938 958.820312,343.058594 960.25,343.058594 C961.679688,343.058594 962.814453,343.587891 963.654297,344.646484 C964.494141,345.705078 964.914062,347.203125 964.914062,349.140625 C964.914062,351.085938 964.494141,352.585938 963.654297,353.640625 C962.814453,354.695312 961.679688,355.222656 960.25,355.222656 Z M975.285156,358.082031 C975.941406,358.082031 976.513672,357.996094 977.001953,357.824219 C977.490234,357.652344 977.996094,357.332031 978.519531,356.863281 C978.691406,356.714844 978.839844,356.542969 978.964844,356.347656 C979.089844,356.152344 979.167969,356.035156 979.199219,355.996094 L979.199219,355.996094 L979.199219,357.800781 L982.445312,357.800781 L982.445312,345.027344 L979.058594,345.027344 L979.058594,351.976562 C979.058594,352.796875 978.949219,353.457031 978.730469,353.957031 C978.308594,354.878906 977.527344,355.339844 976.386719,355.339844 C975.496094,355.339844 974.898438,355.015625 974.59375,354.367188 C974.421875,354 974.335938,353.453125 974.335938,352.726562 L974.335938,352.726562 L974.335938,345.027344 L970.914062,345.027344 L970.914062,352.726562 C970.914062,354.1875 971.097656,355.292969 971.464844,356.042969 C972.121094,357.402344 973.394531,358.082031 975.285156,358.082031 Z M989.643555,357.982971 L989.933594,357.976562 L991.515625,357.917969 L991.515625,355.421875 C991.40625,355.429688 991.294922,355.435547 991.181641,355.439453 C991.068359,355.443359 990.960938,355.445312 990.859375,355.445312 C990.179688,355.445312 989.773438,355.380859 989.640625,355.251953 C989.507812,355.123047 989.441406,354.796875 989.441406,354.273438 L989.441406,354.273438 L989.441406,347.523438 L991.515625,347.523438 L991.515625,345.144531 L989.441406,345.144531 L989.441406,341.582031 L986.136719,341.582031 L986.136719,345.144531 L984.355469,345.144531 L984.355469,347.523438 L986.136719,347.523438 L986.136719,355.386719 C986.136719,356.183594 986.324219,356.773438 986.699219,357.15625 C987.277344,357.757812 988.355469,358.03125 989.933594,357.976562 L989.643555,357.982971 Z" id="ReachingOut" fill="#9E9E9E" fill-rule="nonzero"></path>
    </g>
</svg>