<?xml version="1.0" encoding="UTF-8"?>
<svg width="992px" height="416px" viewBox="0 0 992 416" version="1.1" xmlns="http://www.w3.org/2000/svg" xmlns:xlink="http://www.w3.org/1999/xlink">
    <title>inputs-example</title>
    <defs>
        <rect id="path-1" x="0" y="0" width="742" height="64" rx="8"></rect>
        <filter x="-3.4%" y="-39.1%" width="106.7%" height="178.1%" filterUnits="objectBoundingBox" id="filter-2">
            <feMorphology radius="1" operator="dilate" in="SourceAlpha" result="shadowSpreadOuter1"></feMorphology>
            <feOffset dx="0" dy="0" in="shadowSpreadOuter1" result="shadowOffsetOuter1"></feOffset>
            <feGaussianBlur stdDeviation="8" in="shadowOffsetOuter1" result="shadowBlurOuter1"></feGaussianBlur>
            <feComposite in="shadowBlurOuter1" in2="SourceAlpha" operator="out" result="shadowBlurOuter1"></feComposite>
            <feColorMatrix values="0 0 0 0 0.062745098   0 0 0 0 0.537254902   0 0 0 0 1  0 0 0 1 0" type="matrix" in="shadowBlurOuter1"></feColorMatrix>
        </filter>
    </defs>
    <g id="inputs-example" stroke="none" stroke-width="1" fill="none" fill-rule="evenodd">
        <g id="Group-Copy" transform="translate(32.000000, 32.000000)" fill="#BDBDBD">
            <rect id="Rectangle" stroke-opacity="0.5" stroke="#BDBDBD" stroke-width="2" fill-opacity="0.15" x="0" y="0" width="742" height="64" rx="8"></rect>
            <path d="M33.265625,43 L33.265625,39.484375 L29.75,39.484375 C28.8645833,39.484375 28.2317708,39.3151042 27.8515625,38.9765625 C27.4713542,38.6380208 27.28125,38.078125 27.28125,37.296875 L27.28125,37.296875 L27.28125,29.015625 L33.265625,29.015625 L33.265625,25.5 L27.28125,25.5 L27.28125,20.53125 L22.703125,20.53125 L22.703125,25.5 L18.234375,25.5 L18.234375,29.015625 L22.703125,29.015625 L22.703125,37.078125 C22.703125,39.3489583 23.1666667,40.9036458 24.09375,41.7421875 C25.0208333,42.5807292 26.796875,43 29.421875,43 L29.421875,43 L33.265625,43 Z M41.53125,49.625 C42.7604167,49.625 43.8046875,49.2473958 44.6640625,48.4921875 C45.5234375,47.7369792 46.2604167,46.5364583 46.875,44.890625 L46.875,44.890625 L54.140625,25.5 L49.328125,25.5 L45.5,36.859375 L41.5,25.5 L36.6875,25.5 L43.34375,42.515625 L43,43.453125 C42.5520833,44.609375 42.109375,45.3463542 41.671875,45.6640625 C41.234375,45.9817708 40.546875,46.140625 39.609375,46.140625 L39.609375,46.140625 L37.75,46.140625 L37.75,49.625 L41.53125,49.625 Z M61.9375,49.65625 L61.9375,40.53125 C62.5,41.5104167 63.1536458,42.2421875 63.8984375,42.7265625 C64.6432292,43.2109375 65.484375,43.453125 66.421875,43.453125 C68.4947917,43.453125 70.0911458,42.6614583 71.2109375,41.078125 C72.3307292,39.4947917 72.890625,37.2239583 72.890625,34.265625 C72.890625,31.3489583 72.3385417,29.0885417 71.234375,27.484375 C70.1302083,25.8802083 68.578125,25.078125 66.578125,25.078125 C65.5260417,25.078125 64.609375,25.3333333 63.828125,25.84375 C63.046875,26.3541667 62.4166667,27.1145833 61.9375,28.125 L61.9375,28.125 L61.9375,25.5 L57.375,25.5 L57.375,49.65625 L61.9375,49.65625 Z M65.140625,39.640625 C64.1510417,39.640625 63.3697917,39.1614583 62.796875,38.203125 C62.2239583,37.2447917 61.9375,35.921875 61.9375,34.234375 C61.9375,32.546875 62.2239583,31.2239583 62.796875,30.265625 C63.3697917,29.3072917 64.1510417,28.828125 65.140625,28.828125 C66.1302083,28.828125 66.90625,29.3072917 67.46875,30.265625 C68.03125,31.2239583 68.3125,32.546875 68.3125,34.234375 C68.3125,35.921875 68.03125,37.2447917 67.46875,38.203125 C66.90625,39.1614583 66.1302083,39.640625 65.140625,39.640625 Z M84.765625,43.453125 C85.9947917,43.453125 87.1614583,43.34375 88.265625,43.125 C89.3697917,42.90625 90.453125,42.578125 91.515625,42.140625 L91.515625,42.140625 L91.515625,37.9375 C90.4010417,38.59375 89.3333333,39.0729167 88.3125,39.375 C87.2916667,39.6770833 86.2552083,39.828125 85.203125,39.828125 C83.609375,39.828125 82.4114583,39.4895833 81.609375,38.8125 C80.8072917,38.1354167 80.4010417,37.109375 80.390625,35.734375 L80.390625,35.734375 L92.25,35.734375 L92.25,33.875 C92.25,31.0833333 91.5338542,28.9192708 90.1015625,27.3828125 C88.6692708,25.8463542 86.65625,25.078125 84.0625,25.078125 C81.4895833,25.078125 79.4583333,25.90625 77.96875,27.5625 C76.4791667,29.21875 75.734375,31.4739583 75.734375,34.328125 C75.734375,37.2760417 76.5078125,39.5338542 78.0546875,41.1015625 C79.6015625,42.6692708 81.8385417,43.453125 84.765625,43.453125 Z M80.4375,32.3125 C80.5520833,31.1354167 80.921875,30.2265625 81.546875,29.5859375 C82.171875,28.9453125 83.0104167,28.625 84.0625,28.625 C85.2291667,28.625 86.1119792,28.9348958 86.7109375,29.5546875 C87.3098958,30.1744792 87.6197917,31.0885417 87.640625,32.296875 L87.640625,32.296875 L80.4375,32.3125 Z M122.390625,43.453125 C124.765625,43.453125 126.544271,43.0026042 127.726562,42.1015625 C128.908854,41.2005208 129.5,39.8489583 129.5,38.046875 C129.5,36.546875 129.111979,35.3567708 128.335938,34.4765625 C127.559896,33.5963542 126.338542,32.9583333 124.671875,32.5625 L124.671875,32.5625 L123.359375,32.25 L123.1875,32.203125 C120.958333,31.6822917 119.84375,31.0052083 119.84375,30.171875 C119.84375,29.5885417 120.104167,29.1484375 120.625,28.8515625 C121.145833,28.5546875 121.916667,28.40625 122.9375,28.40625 C123.854167,28.40625 124.768229,28.5442708 125.679688,28.8203125 C126.591146,29.0963542 127.46875,29.5052083 128.3125,30.046875 L128.3125,30.046875 L128.3125,26.046875 C127.385417,25.7239583 126.429688,25.4817708 125.445312,25.3203125 C124.460938,25.1588542 123.473958,25.078125 122.484375,25.078125 C120.276042,25.078125 118.5625,25.546875 117.34375,26.484375 C116.125,27.421875 115.515625,28.734375 115.515625,30.421875 C115.515625,31.8385417 115.916667,32.96875 116.71875,33.8125 C117.520833,34.65625 118.796875,35.2760417 120.546875,35.671875 L120.546875,35.671875 L121.8125,35.953125 C123.28125,36.3072917 124.210938,36.640625 124.601562,36.953125 C124.992188,37.265625 125.1875,37.7135417 125.1875,38.296875 C125.1875,38.890625 124.911458,39.34375 124.359375,39.65625 C123.807292,39.96875 122.994792,40.125 121.921875,40.125 C120.942708,40.125 119.929688,39.9739583 118.882812,39.671875 C117.835938,39.3697917 116.807292,38.9322917 115.796875,38.359375 L115.796875,38.359375 L115.796875,42.359375 C116.932292,42.7239583 118.052083,42.9973958 119.15625,43.1796875 C120.260417,43.3619792 121.338542,43.453125 122.390625,43.453125 Z M141.71875,43.453125 C144.197917,43.453125 146.169271,42.6276042 147.632812,40.9765625 C149.096354,39.3255208 149.828125,37.0885417 149.828125,34.265625 C149.828125,31.4427083 149.096354,29.2057292 147.632812,27.5546875 C146.169271,25.9036458 144.197917,25.078125 141.71875,25.078125 C139.25,25.078125 137.283854,25.9036458 135.820312,27.5546875 C134.356771,29.2057292 133.625,31.4427083 133.625,34.265625 C133.625,37.0885417 134.356771,39.3255208 135.820312,40.9765625 C137.283854,42.6276042 139.25,43.453125 141.71875,43.453125 Z M141.71875,39.734375 C140.625,39.734375 139.765625,39.2526042 139.140625,38.2890625 C138.515625,37.3255208 138.203125,35.984375 138.203125,34.265625 C138.203125,32.546875 138.515625,31.2057292 139.140625,30.2421875 C139.765625,29.2786458 140.625,28.796875 141.71875,28.796875 C142.822917,28.796875 143.6875,29.2786458 144.3125,30.2421875 C144.9375,31.2057292 145.25,32.546875 145.25,34.265625 C145.25,35.984375 144.9375,37.3255208 144.3125,38.2890625 C143.6875,39.2526042 142.822917,39.734375 141.71875,39.734375 Z M156.390625,43 L156.390625,31.765625 C156.390625,30.4635417 156.489583,29.59375 156.6875,29.15625 C156.885417,28.71875 157.244792,28.5 157.765625,28.5 C158.286458,28.5 158.651042,28.7239583 158.859375,29.171875 C159.067708,29.6197917 159.171875,30.484375 159.171875,31.765625 L159.171875,31.765625 L159.171875,43 L162.875,43 L162.875,31.765625 C162.875,30.484375 162.979167,29.6197917 163.1875,29.171875 C163.395833,28.7239583 163.760417,28.5 164.28125,28.5 C164.802083,28.5 165.161458,28.71875 165.359375,29.15625 C165.557292,29.59375 165.65625,30.4635417 165.65625,31.765625 L165.65625,31.765625 L165.65625,43 L169.40625,43 L169.40625,33.140625 C169.40625,29.8489583 169.117188,27.6822917 168.539062,26.640625 C167.960938,25.5989583 166.916667,25.078125 165.40625,25.078125 C164.635417,25.078125 163.984375,25.2552083 163.453125,25.609375 C162.921875,25.9635417 162.484375,26.5104167 162.140625,27.25 C162.015625,26.6458333 161.661458,26.1328125 161.078125,25.7109375 C160.494792,25.2890625 159.848958,25.078125 159.140625,25.078125 C158.432292,25.078125 157.791667,25.2786458 157.21875,25.6796875 C156.645833,26.0807292 156.229167,26.625 155.96875,27.3125 L155.96875,27.3125 L155.96875,25.5 L152.640625,25.5 L152.640625,43 L156.390625,43 Z M181.09375,43.453125 C182.322917,43.453125 183.489583,43.34375 184.59375,43.125 C185.697917,42.90625 186.78125,42.578125 187.84375,42.140625 L187.84375,42.140625 L187.84375,37.9375 C186.729167,38.59375 185.661458,39.0729167 184.640625,39.375 C183.619792,39.6770833 182.583333,39.828125 181.53125,39.828125 C179.9375,39.828125 178.739583,39.4895833 177.9375,38.8125 C177.135417,38.1354167 176.729167,37.109375 176.71875,35.734375 L176.71875,35.734375 L188.578125,35.734375 L188.578125,33.875 C188.578125,31.0833333 187.861979,28.9192708 186.429688,27.3828125 C184.997396,25.8463542 182.984375,25.078125 180.390625,25.078125 C177.817708,25.078125 175.786458,25.90625 174.296875,27.5625 C172.807292,29.21875 172.0625,31.4739583 172.0625,34.328125 C172.0625,37.2760417 172.835938,39.5338542 174.382812,41.1015625 C175.929688,42.6692708 178.166667,43.453125 181.09375,43.453125 Z M176.765625,32.3125 C176.880208,31.1354167 177.25,30.2265625 177.875,29.5859375 C178.5,28.9453125 179.338542,28.625 180.390625,28.625 C181.557292,28.625 182.440104,28.9348958 183.039062,29.5546875 C183.638021,30.1744792 183.947917,31.0885417 183.96875,32.296875 L183.96875,32.296875 L176.765625,32.3125 Z M206.65625,43 L206.65625,39.484375 L203.140625,39.484375 C202.255208,39.484375 201.622396,39.3151042 201.242188,38.9765625 C200.861979,38.6380208 200.671875,38.078125 200.671875,37.296875 L200.671875,37.296875 L200.671875,29.015625 L206.65625,29.015625 L206.65625,25.5 L200.671875,25.5 L200.671875,20.53125 L196.09375,20.53125 L196.09375,25.5 L191.625,25.5 L191.625,29.015625 L196.09375,29.015625 L196.09375,37.078125 C196.09375,39.3489583 196.557292,40.9036458 197.484375,41.7421875 C198.411458,42.5807292 200.1875,43 202.8125,43 L202.8125,43 L206.65625,43 Z M216.390625,43 L216.390625,32.984375 C216.390625,31.6822917 216.625,30.6640625 217.09375,29.9296875 C217.5625,29.1953125 218.213542,28.828125 219.046875,28.828125 C219.859375,28.828125 220.445312,29.0989583 220.804688,29.640625 C221.164062,30.1822917 221.34375,31.0833333 221.34375,32.34375 L221.34375,32.34375 L221.34375,43 L225.890625,43 L225.890625,31.640625 C225.890625,29.4635417 225.46875,27.8255208 224.625,26.7265625 C223.78125,25.6276042 222.53125,25.078125 220.875,25.078125 C219.770833,25.078125 218.828125,25.34375 218.046875,25.875 C217.265625,26.40625 216.713542,27.15625 216.390625,28.125 L216.390625,28.125 L216.390625,18.6875 L211.84375,18.6875 L211.84375,43 L216.390625,43 Z M240.9375,22.328125 L240.9375,16.984375 L236.359375,16.984375 L236.359375,22.328125 L240.9375,22.328125 Z M246.625,43 L246.625,39.484375 L240.9375,39.484375 L240.9375,25.5 L231.875,25.5 L231.875,29.015625 L236.359375,29.015625 L236.359375,39.484375 L230.65625,39.484375 L230.65625,43 L246.625,43 Z M254.921875,43 L254.921875,32.984375 C254.921875,31.671875 255.158854,30.6458333 255.632812,29.90625 C256.106771,29.1666667 256.755208,28.796875 257.578125,28.796875 C258.390625,28.796875 258.976562,29.0703125 259.335938,29.6171875 C259.695312,30.1640625 259.875,31.0729167 259.875,32.34375 L259.875,32.34375 L259.875,43 L264.421875,43 L264.421875,31.640625 C264.421875,29.4635417 264,27.8255208 263.15625,26.7265625 C262.3125,25.6276042 261.0625,25.078125 259.40625,25.078125 C258.302083,25.078125 257.359375,25.34375 256.578125,25.875 C255.796875,26.40625 255.244792,27.15625 254.921875,28.125 L254.921875,28.125 L254.921875,25.5 L250.375,25.5 L250.375,43 L254.921875,43 Z M276.015625,49.625 C278.859375,49.625 280.914062,49.0026042 282.179688,47.7578125 C283.445312,46.5130208 284.078125,44.4895833 284.078125,41.6875 L284.078125,41.6875 L284.078125,25.5 L279.5,25.5 L279.5,27.734375 C279.052083,26.8802083 278.4375,26.21875 277.65625,25.75 C276.875,25.28125 275.984375,25.046875 274.984375,25.046875 C273.005208,25.046875 271.427083,25.859375 270.25,27.484375 C269.072917,29.109375 268.484375,31.3072917 268.484375,34.078125 C268.484375,36.7552083 269.072917,38.875 270.25,40.4375 C271.427083,42 273.015625,42.78125 275.015625,42.78125 C276.078125,42.78125 276.979167,42.578125 277.71875,42.171875 C278.458333,41.765625 279.052083,41.1458333 279.5,40.3125 L279.5,40.3125 L279.5,42.203125 C279.5,43.4947917 279.192708,44.4453125 278.578125,45.0546875 C277.963542,45.6640625 277.010417,45.96875 275.71875,45.96875 C274.770833,45.96875 273.848958,45.8541667 272.953125,45.625 C272.057292,45.3958333 271.177083,45.0416667 270.3125,44.5625 L270.3125,44.5625 L270.3125,48.765625 C271.28125,49.0572917 272.234375,49.2734375 273.171875,49.4140625 C274.109375,49.5546875 275.057292,49.625 276.015625,49.625 Z M276.265625,39.15625 C275.307292,39.15625 274.533854,38.6875 273.945312,37.75 C273.356771,36.8125 273.0625,35.5520833 273.0625,33.96875 C273.0625,32.3958333 273.356771,31.140625 273.945312,30.203125 C274.533854,29.265625 275.307292,28.796875 276.265625,28.796875 C277.234375,28.796875 278.015625,29.2682292 278.609375,30.2109375 C279.203125,31.1536458 279.5,32.40625 279.5,33.96875 C279.5,35.5416667 279.203125,36.7994792 278.609375,37.7421875 C278.015625,38.6848958 277.234375,39.15625 276.265625,39.15625 Z M323.859375,43 L323.859375,37.265625 L319.25,37.265625 L319.25,43 L323.859375,43 Z M317.421875,43 L317.421875,37.265625 L312.8125,37.265625 L312.8125,43 L317.421875,43 Z M310.984375,43 L310.984375,37.265625 L306.375,37.265625 L306.375,43 L310.984375,43 Z" id="typesomething…" fill-opacity="0.5" fill-rule="nonzero"></path>
        </g>
        <g id="Group-Copy-2" transform="translate(32.000000, 128.000000)" fill="#BDBDBD">
            <rect id="Rectangle" stroke="#BDBDBD" stroke-width="2" fill-opacity="0.15" x="0" y="0" width="742" height="64" rx="8"></rect>
            <path d="M33.265625,43 L33.265625,39.484375 L29.75,39.484375 C28.8645833,39.484375 28.2317708,39.3151042 27.8515625,38.9765625 C27.4713542,38.6380208 27.28125,38.078125 27.28125,37.296875 L27.28125,37.296875 L27.28125,29.015625 L33.265625,29.015625 L33.265625,25.5 L27.28125,25.5 L27.28125,20.53125 L22.703125,20.53125 L22.703125,25.5 L18.234375,25.5 L18.234375,29.015625 L22.703125,29.015625 L22.703125,37.078125 C22.703125,39.3489583 23.1666667,40.9036458 24.09375,41.7421875 C25.0208333,42.5807292 26.796875,43 29.421875,43 L29.421875,43 L33.265625,43 Z M41.53125,49.625 C42.7604167,49.625 43.8046875,49.2473958 44.6640625,48.4921875 C45.5234375,47.7369792 46.2604167,46.5364583 46.875,44.890625 L46.875,44.890625 L54.140625,25.5 L49.328125,25.5 L45.5,36.859375 L41.5,25.5 L36.6875,25.5 L43.34375,42.515625 L43,43.453125 C42.5520833,44.609375 42.109375,45.3463542 41.671875,45.6640625 C41.234375,45.9817708 40.546875,46.140625 39.609375,46.140625 L39.609375,46.140625 L37.75,46.140625 L37.75,49.625 L41.53125,49.625 Z M61.9375,49.65625 L61.9375,40.53125 C62.5,41.5104167 63.1536458,42.2421875 63.8984375,42.7265625 C64.6432292,43.2109375 65.484375,43.453125 66.421875,43.453125 C68.4947917,43.453125 70.0911458,42.6614583 71.2109375,41.078125 C72.3307292,39.4947917 72.890625,37.2239583 72.890625,34.265625 C72.890625,31.3489583 72.3385417,29.0885417 71.234375,27.484375 C70.1302083,25.8802083 68.578125,25.078125 66.578125,25.078125 C65.5260417,25.078125 64.609375,25.3333333 63.828125,25.84375 C63.046875,26.3541667 62.4166667,27.1145833 61.9375,28.125 L61.9375,28.125 L61.9375,25.5 L57.375,25.5 L57.375,49.65625 L61.9375,49.65625 Z M65.140625,39.640625 C64.1510417,39.640625 63.3697917,39.1614583 62.796875,38.203125 C62.2239583,37.2447917 61.9375,35.921875 61.9375,34.234375 C61.9375,32.546875 62.2239583,31.2239583 62.796875,30.265625 C63.3697917,29.3072917 64.1510417,28.828125 65.140625,28.828125 C66.1302083,28.828125 66.90625,29.3072917 67.46875,30.265625 C68.03125,31.2239583 68.3125,32.546875 68.3125,34.234375 C68.3125,35.921875 68.03125,37.2447917 67.46875,38.203125 C66.90625,39.1614583 66.1302083,39.640625 65.140625,39.640625 Z M84.765625,43.453125 C85.9947917,43.453125 87.1614583,43.34375 88.265625,43.125 C89.3697917,42.90625 90.453125,42.578125 91.515625,42.140625 L91.515625,42.140625 L91.515625,37.9375 C90.4010417,38.59375 89.3333333,39.0729167 88.3125,39.375 C87.2916667,39.6770833 86.2552083,39.828125 85.203125,39.828125 C83.609375,39.828125 82.4114583,39.4895833 81.609375,38.8125 C80.8072917,38.1354167 80.4010417,37.109375 80.390625,35.734375 L80.390625,35.734375 L92.25,35.734375 L92.25,33.875 C92.25,31.0833333 91.5338542,28.9192708 90.1015625,27.3828125 C88.6692708,25.8463542 86.65625,25.078125 84.0625,25.078125 C81.4895833,25.078125 79.4583333,25.90625 77.96875,27.5625 C76.4791667,29.21875 75.734375,31.4739583 75.734375,34.328125 C75.734375,37.2760417 76.5078125,39.5338542 78.0546875,41.1015625 C79.6015625,42.6692708 81.8385417,43.453125 84.765625,43.453125 Z M80.4375,32.3125 C80.5520833,31.1354167 80.921875,30.2265625 81.546875,29.5859375 C82.171875,28.9453125 83.0104167,28.625 84.0625,28.625 C85.2291667,28.625 86.1119792,28.9348958 86.7109375,29.5546875 C87.3098958,30.1744792 87.6197917,31.0885417 87.640625,32.296875 L87.640625,32.296875 L80.4375,32.3125 Z M122.390625,43.453125 C124.765625,43.453125 126.544271,43.0026042 127.726562,42.1015625 C128.908854,41.2005208 129.5,39.8489583 129.5,38.046875 C129.5,36.546875 129.111979,35.3567708 128.335938,34.4765625 C127.559896,33.5963542 126.338542,32.9583333 124.671875,32.5625 L124.671875,32.5625 L123.359375,32.25 L123.1875,32.203125 C120.958333,31.6822917 119.84375,31.0052083 119.84375,30.171875 C119.84375,29.5885417 120.104167,29.1484375 120.625,28.8515625 C121.145833,28.5546875 121.916667,28.40625 122.9375,28.40625 C123.854167,28.40625 124.768229,28.5442708 125.679688,28.8203125 C126.591146,29.0963542 127.46875,29.5052083 128.3125,30.046875 L128.3125,30.046875 L128.3125,26.046875 C127.385417,25.7239583 126.429688,25.4817708 125.445312,25.3203125 C124.460938,25.1588542 123.473958,25.078125 122.484375,25.078125 C120.276042,25.078125 118.5625,25.546875 117.34375,26.484375 C116.125,27.421875 115.515625,28.734375 115.515625,30.421875 C115.515625,31.8385417 115.916667,32.96875 116.71875,33.8125 C117.520833,34.65625 118.796875,35.2760417 120.546875,35.671875 L120.546875,35.671875 L121.8125,35.953125 C123.28125,36.3072917 124.210938,36.640625 124.601562,36.953125 C124.992188,37.265625 125.1875,37.7135417 125.1875,38.296875 C125.1875,38.890625 124.911458,39.34375 124.359375,39.65625 C123.807292,39.96875 122.994792,40.125 121.921875,40.125 C120.942708,40.125 119.929688,39.9739583 118.882812,39.671875 C117.835938,39.3697917 116.807292,38.9322917 115.796875,38.359375 L115.796875,38.359375 L115.796875,42.359375 C116.932292,42.7239583 118.052083,42.9973958 119.15625,43.1796875 C120.260417,43.3619792 121.338542,43.453125 122.390625,43.453125 Z M141.71875,43.453125 C144.197917,43.453125 146.169271,42.6276042 147.632812,40.9765625 C149.096354,39.3255208 149.828125,37.0885417 149.828125,34.265625 C149.828125,31.4427083 149.096354,29.2057292 147.632812,27.5546875 C146.169271,25.9036458 144.197917,25.078125 141.71875,25.078125 C139.25,25.078125 137.283854,25.9036458 135.820312,27.5546875 C134.356771,29.2057292 133.625,31.4427083 133.625,34.265625 C133.625,37.0885417 134.356771,39.3255208 135.820312,40.9765625 C137.283854,42.6276042 139.25,43.453125 141.71875,43.453125 Z M141.71875,39.734375 C140.625,39.734375 139.765625,39.2526042 139.140625,38.2890625 C138.515625,37.3255208 138.203125,35.984375 138.203125,34.265625 C138.203125,32.546875 138.515625,31.2057292 139.140625,30.2421875 C139.765625,29.2786458 140.625,28.796875 141.71875,28.796875 C142.822917,28.796875 143.6875,29.2786458 144.3125,30.2421875 C144.9375,31.2057292 145.25,32.546875 145.25,34.265625 C145.25,35.984375 144.9375,37.3255208 144.3125,38.2890625 C143.6875,39.2526042 142.822917,39.734375 141.71875,39.734375 Z M156.390625,43 L156.390625,31.765625 C156.390625,30.4635417 156.489583,29.59375 156.6875,29.15625 C156.885417,28.71875 157.244792,28.5 157.765625,28.5 C158.286458,28.5 158.651042,28.7239583 158.859375,29.171875 C159.067708,29.6197917 159.171875,30.484375 159.171875,31.765625 L159.171875,31.765625 L159.171875,43 L162.875,43 L162.875,31.765625 C162.875,30.484375 162.979167,29.6197917 163.1875,29.171875 C163.395833,28.7239583 163.760417,28.5 164.28125,28.5 C164.802083,28.5 165.161458,28.71875 165.359375,29.15625 C165.557292,29.59375 165.65625,30.4635417 165.65625,31.765625 L165.65625,31.765625 L165.65625,43 L169.40625,43 L169.40625,33.140625 C169.40625,29.8489583 169.117188,27.6822917 168.539062,26.640625 C167.960938,25.5989583 166.916667,25.078125 165.40625,25.078125 C164.635417,25.078125 163.984375,25.2552083 163.453125,25.609375 C162.921875,25.9635417 162.484375,26.5104167 162.140625,27.25 C162.015625,26.6458333 161.661458,26.1328125 161.078125,25.7109375 C160.494792,25.2890625 159.848958,25.078125 159.140625,25.078125 C158.432292,25.078125 157.791667,25.2786458 157.21875,25.6796875 C156.645833,26.0807292 156.229167,26.625 155.96875,27.3125 L155.96875,27.3125 L155.96875,25.5 L152.640625,25.5 L152.640625,43 L156.390625,43 Z M181.09375,43.453125 C182.322917,43.453125 183.489583,43.34375 184.59375,43.125 C185.697917,42.90625 186.78125,42.578125 187.84375,42.140625 L187.84375,42.140625 L187.84375,37.9375 C186.729167,38.59375 185.661458,39.0729167 184.640625,39.375 C183.619792,39.6770833 182.583333,39.828125 181.53125,39.828125 C179.9375,39.828125 178.739583,39.4895833 177.9375,38.8125 C177.135417,38.1354167 176.729167,37.109375 176.71875,35.734375 L176.71875,35.734375 L188.578125,35.734375 L188.578125,33.875 C188.578125,31.0833333 187.861979,28.9192708 186.429688,27.3828125 C184.997396,25.8463542 182.984375,25.078125 180.390625,25.078125 C177.817708,25.078125 175.786458,25.90625 174.296875,27.5625 C172.807292,29.21875 172.0625,31.4739583 172.0625,34.328125 C172.0625,37.2760417 172.835938,39.5338542 174.382812,41.1015625 C175.929688,42.6692708 178.166667,43.453125 181.09375,43.453125 Z M176.765625,32.3125 C176.880208,31.1354167 177.25,30.2265625 177.875,29.5859375 C178.5,28.9453125 179.338542,28.625 180.390625,28.625 C181.557292,28.625 182.440104,28.9348958 183.039062,29.5546875 C183.638021,30.1744792 183.947917,31.0885417 183.96875,32.296875 L183.96875,32.296875 L176.765625,32.3125 Z M206.65625,43 L206.65625,39.484375 L203.140625,39.484375 C202.255208,39.484375 201.622396,39.3151042 201.242188,38.9765625 C200.861979,38.6380208 200.671875,38.078125 200.671875,37.296875 L200.671875,37.296875 L200.671875,29.015625 L206.65625,29.015625 L206.65625,25.5 L200.671875,25.5 L200.671875,20.53125 L196.09375,20.53125 L196.09375,25.5 L191.625,25.5 L191.625,29.015625 L196.09375,29.015625 L196.09375,37.078125 C196.09375,39.3489583 196.557292,40.9036458 197.484375,41.7421875 C198.411458,42.5807292 200.1875,43 202.8125,43 L202.8125,43 L206.65625,43 Z M216.390625,43 L216.390625,32.984375 C216.390625,31.6822917 216.625,30.6640625 217.09375,29.9296875 C217.5625,29.1953125 218.213542,28.828125 219.046875,28.828125 C219.859375,28.828125 220.445312,29.0989583 220.804688,29.640625 C221.164062,30.1822917 221.34375,31.0833333 221.34375,32.34375 L221.34375,32.34375 L221.34375,43 L225.890625,43 L225.890625,31.640625 C225.890625,29.4635417 225.46875,27.8255208 224.625,26.7265625 C223.78125,25.6276042 222.53125,25.078125 220.875,25.078125 C219.770833,25.078125 218.828125,25.34375 218.046875,25.875 C217.265625,26.40625 216.713542,27.15625 216.390625,28.125 L216.390625,28.125 L216.390625,18.6875 L211.84375,18.6875 L211.84375,43 L216.390625,43 Z M240.9375,22.328125 L240.9375,16.984375 L236.359375,16.984375 L236.359375,22.328125 L240.9375,22.328125 Z M246.625,43 L246.625,39.484375 L240.9375,39.484375 L240.9375,25.5 L231.875,25.5 L231.875,29.015625 L236.359375,29.015625 L236.359375,39.484375 L230.65625,39.484375 L230.65625,43 L246.625,43 Z M254.921875,43 L254.921875,32.984375 C254.921875,31.671875 255.158854,30.6458333 255.632812,29.90625 C256.106771,29.1666667 256.755208,28.796875 257.578125,28.796875 C258.390625,28.796875 258.976562,29.0703125 259.335938,29.6171875 C259.695312,30.1640625 259.875,31.0729167 259.875,32.34375 L259.875,32.34375 L259.875,43 L264.421875,43 L264.421875,31.640625 C264.421875,29.4635417 264,27.8255208 263.15625,26.7265625 C262.3125,25.6276042 261.0625,25.078125 259.40625,25.078125 C258.302083,25.078125 257.359375,25.34375 256.578125,25.875 C255.796875,26.40625 255.244792,27.15625 254.921875,28.125 L254.921875,28.125 L254.921875,25.5 L250.375,25.5 L250.375,43 L254.921875,43 Z M276.015625,49.625 C278.859375,49.625 280.914062,49.0026042 282.179688,47.7578125 C283.445312,46.5130208 284.078125,44.4895833 284.078125,41.6875 L284.078125,41.6875 L284.078125,25.5 L279.5,25.5 L279.5,27.734375 C279.052083,26.8802083 278.4375,26.21875 277.65625,25.75 C276.875,25.28125 275.984375,25.046875 274.984375,25.046875 C273.005208,25.046875 271.427083,25.859375 270.25,27.484375 C269.072917,29.109375 268.484375,31.3072917 268.484375,34.078125 C268.484375,36.7552083 269.072917,38.875 270.25,40.4375 C271.427083,42 273.015625,42.78125 275.015625,42.78125 C276.078125,42.78125 276.979167,42.578125 277.71875,42.171875 C278.458333,41.765625 279.052083,41.1458333 279.5,40.3125 L279.5,40.3125 L279.5,42.203125 C279.5,43.4947917 279.192708,44.4453125 278.578125,45.0546875 C277.963542,45.6640625 277.010417,45.96875 275.71875,45.96875 C274.770833,45.96875 273.848958,45.8541667 272.953125,45.625 C272.057292,45.3958333 271.177083,45.0416667 270.3125,44.5625 L270.3125,44.5625 L270.3125,48.765625 C271.28125,49.0572917 272.234375,49.2734375 273.171875,49.4140625 C274.109375,49.5546875 275.057292,49.625 276.015625,49.625 Z M276.265625,39.15625 C275.307292,39.15625 274.533854,38.6875 273.945312,37.75 C273.356771,36.8125 273.0625,35.5520833 273.0625,33.96875 C273.0625,32.3958333 273.356771,31.140625 273.945312,30.203125 C274.533854,29.265625 275.307292,28.796875 276.265625,28.796875 C277.234375,28.796875 278.015625,29.2682292 278.609375,30.2109375 C279.203125,31.1536458 279.5,32.40625 279.5,33.96875 C279.5,35.5416667 279.203125,36.7994792 278.609375,37.7421875 C278.015625,38.6848958 277.234375,39.15625 276.265625,39.15625 Z M323.859375,43 L323.859375,37.265625 L319.25,37.265625 L319.25,43 L323.859375,43 Z M317.421875,43 L317.421875,37.265625 L312.8125,37.265625 L312.8125,43 L317.421875,43 Z M310.984375,43 L310.984375,37.265625 L306.375,37.265625 L306.375,43 L310.984375,43 Z" id="typesomething…" fill-opacity="0.5" fill-rule="nonzero"></path>
        </g>
        <path d="M813.242188,167.222656 C815.445312,167.222656 817.150391,166.701172 818.357422,165.658203 C819.564453,164.615234 820.167969,163.304688 820.167969,161.726562 C820.167969,160.1875 819.652344,159.011719 818.621094,158.199219 C817.957031,157.675781 816.972656,157.257812 815.667969,156.945312 L815.667969,156.945312 L812.691406,156.230469 C811.542969,155.957031 810.792969,155.71875 810.441406,155.515625 C809.894531,155.210938 809.621094,154.75 809.621094,154.132812 C809.621094,153.460938 809.898438,152.9375 810.453125,152.5625 C811.007812,152.1875 811.75,152 812.679688,152 C813.515625,152 814.214844,152.144531 814.777344,152.433594 C815.621094,152.871094 816.074219,153.609375 816.136719,154.648438 L816.136719,154.648438 L819.605469,154.648438 C819.542969,152.8125 818.869141,151.412109 817.583984,150.447266 C816.298828,149.482422 814.746094,149 812.925781,149 C810.746094,149 809.09375,149.511719 807.96875,150.535156 C806.84375,151.558594 806.28125,152.84375 806.28125,154.390625 C806.28125,156.085938 806.863281,157.332031 808.027344,158.128906 C808.714844,158.605469 809.957031,159.046875 811.753906,159.453125 L811.753906,159.453125 L813.582031,159.863281 C814.652344,160.097656 815.4375,160.367188 815.9375,160.671875 C816.4375,160.984375 816.6875,161.425781 816.6875,161.996094 C816.6875,162.972656 816.183594,163.640625 815.175781,164 C814.644531,164.1875 813.953125,164.28125 813.101562,164.28125 C811.679688,164.28125 810.675781,163.925781 810.089844,163.214844 C809.769531,162.824219 809.554688,162.234375 809.445312,161.445312 L809.445312,161.445312 L806,161.445312 C806,163.242188 806.644531,164.654297 807.933594,165.681641 C809.222656,166.708984 810.992188,167.222656 813.242188,167.222656 Z M826.545898,166.959534 L826.835938,166.953125 L828.417969,166.894531 L828.417969,164.398438 C828.308594,164.40625 828.197266,164.412109 828.083984,164.416016 C827.970703,164.419922 827.863281,164.421875 827.761719,164.421875 C827.082031,164.421875 826.675781,164.357422 826.542969,164.228516 C826.410156,164.099609 826.34375,163.773438 826.34375,163.25 L826.34375,163.25 L826.34375,156.5 L828.417969,156.5 L828.417969,154.121094 L826.34375,154.121094 L826.34375,150.558594 L823.039062,150.558594 L823.039062,154.121094 L821.257812,154.121094 L821.257812,156.5 L823.039062,156.5 L823.039062,164.363281 C823.039062,165.160156 823.226562,165.75 823.601562,166.132812 C824.179688,166.734375 825.257812,167.007812 826.835938,166.953125 L826.545898,166.959534 Z M833.691406,167.175781 C834.597656,167.175781 835.410156,166.96875 836.128906,166.554688 C836.730469,166.203125 837.261719,165.777344 837.722656,165.277344 C837.746094,165.566406 837.777344,165.824219 837.816406,166.050781 C837.855469,166.277344 837.925781,166.519531 838.027344,166.777344 L838.027344,166.777344 L841.660156,166.777344 L841.660156,166.285156 C841.441406,166.183594 841.277344,166.054688 841.167969,165.898438 C841.058594,165.742188 840.992188,165.445312 840.96875,165.007812 C840.953125,164.429688 840.945312,163.9375 840.945312,163.53125 L840.945312,163.53125 L840.945312,157.671875 C840.945312,156.132812 840.402344,155.085938 839.316406,154.53125 C838.230469,153.976562 836.988281,153.699219 835.589844,153.699219 C833.441406,153.699219 831.925781,154.261719 831.042969,155.386719 C830.488281,156.105469 830.175781,157.023438 830.105469,158.140625 L830.105469,158.140625 L833.328125,158.140625 C833.40625,157.648438 833.5625,157.257812 833.796875,156.96875 C834.125,156.578125 834.683594,156.382812 835.472656,156.382812 C836.175781,156.382812 836.708984,156.482422 837.072266,156.681641 C837.435547,156.880859 837.617188,157.242188 837.617188,157.765625 C837.617188,158.195312 837.378906,158.511719 836.902344,158.714844 C836.636719,158.832031 836.195312,158.929688 835.578125,159.007812 L835.578125,159.007812 L834.441406,159.148438 C833.152344,159.3125 832.175781,159.585938 831.511719,159.96875 C830.300781,160.671875 829.695312,161.808594 829.695312,163.378906 C829.695312,164.589844 830.072266,165.525391 830.826172,166.185547 C831.580078,166.845703 832.535156,167.175781 833.691406,167.175781 Z M834.675781,164.75 C834.222656,164.75 833.837891,164.623047 833.521484,164.369141 C833.205078,164.115234 833.046875,163.703125 833.046875,163.132812 C833.046875,162.492188 833.304688,162.019531 833.820312,161.714844 C834.125,161.535156 834.628906,161.382812 835.332031,161.257812 L835.332031,161.257812 L836.082031,161.117188 C836.457031,161.046875 836.751953,160.970703 836.966797,160.888672 C837.181641,160.806641 837.394531,160.699219 837.605469,160.566406 L837.605469,160.566406 L837.605469,161.808594 C837.582031,162.925781 837.267578,163.695312 836.662109,164.117188 C836.056641,164.539062 835.394531,164.75 834.675781,164.75 Z M847.261719,166.777344 L847.261719,159.863281 C847.261719,159.074219 847.371094,158.425781 847.589844,157.917969 C848.011719,156.957031 848.789062,156.476562 849.921875,156.476562 C850.84375,156.476562 851.46875,156.804688 851.796875,157.460938 C851.976562,157.820312 852.066406,158.335938 852.066406,159.007812 L852.066406,159.007812 L852.066406,166.777344 L855.488281,166.777344 L855.488281,158.175781 C855.488281,156.574219 855.068359,155.427734 854.228516,154.736328 C853.388672,154.044922 852.308594,153.699219 850.988281,153.699219 C849.933594,153.699219 849.0625,153.957031 848.375,154.472656 C847.992188,154.761719 847.585938,155.234375 847.15625,155.890625 L847.15625,155.890625 L847.15625,154.027344 L843.933594,154.027344 L843.933594,166.777344 L847.261719,166.777344 Z M863.046875,167.175781 C863.953125,167.175781 864.710938,167.003906 865.320312,166.660156 C865.929688,166.316406 866.472656,165.765625 866.949219,165.007812 L866.949219,165.007812 L866.949219,166.777344 L870.195312,166.777344 L870.195312,149.527344 L866.808594,149.527344 L866.808594,155.621094 C866.433594,155.019531 865.945312,154.548828 865.34375,154.208984 C864.742188,153.869141 864.054688,153.699219 863.28125,153.699219 C861.601562,153.699219 860.259766,154.324219 859.255859,155.574219 C858.251953,156.824219 857.75,158.539062 857.75,160.71875 C857.75,162.609375 858.259766,164.158203 859.279297,165.365234 C860.298828,166.572266 861.554688,167.175781 863.046875,167.175781 Z M864.007812,164.363281 C863.0625,164.363281 862.357422,164.009766 861.892578,163.302734 C861.427734,162.595703 861.195312,161.652344 861.195312,160.472656 C861.195312,159.378906 861.423828,158.462891 861.880859,157.724609 C862.337891,156.986328 863.054688,156.617188 864.03125,156.617188 C864.671875,156.617188 865.234375,156.820312 865.71875,157.226562 C866.507812,157.898438 866.902344,159.015625 866.902344,160.578125 C866.902344,161.695312 866.65625,162.605469 866.164062,163.308594 C865.671875,164.011719 864.953125,164.363281 864.007812,164.363281 Z M880.167969,167.117188 C881.847656,167.117188 883.15625,166.464844 884.09375,165.160156 C885.03125,163.855469 885.5,162.210938 885.5,160.226562 C885.5,158.3125 885.025391,156.75 884.076172,155.539062 C883.126953,154.328125 881.8125,153.722656 880.132812,153.722656 C879.203125,153.722656 878.4375,153.917969 877.835938,154.308594 C877.328125,154.621094 876.863281,155.074219 876.441406,155.667969 L876.441406,155.667969 L876.441406,149.527344 L873.113281,149.527344 L873.113281,166.777344 L876.382812,166.777344 L876.382812,165.171875 C876.828125,165.796875 877.242188,166.234375 877.625,166.484375 C878.265625,166.90625 879.113281,167.117188 880.167969,167.117188 Z M879.277344,164.363281 C878.285156,164.363281 877.546875,164.003906 877.0625,163.285156 C876.578125,162.566406 876.335938,161.660156 876.335938,160.566406 C876.335938,159.636719 876.453125,158.878906 876.6875,158.292969 C877.140625,157.191406 877.972656,156.640625 879.183594,156.640625 C880.378906,156.640625 881.199219,157.203125 881.644531,158.328125 C881.878906,158.921875 881.996094,159.671875 881.996094,160.578125 C881.996094,161.710938 881.757812,162.625 881.28125,163.320312 C880.804688,164.015625 880.136719,164.363281 879.277344,164.363281 Z M889.929688,171.945312 C891.40625,171.945312 892.390625,171.654297 892.882812,171.072266 C893.375,170.490234 894.042969,168.988281 894.886719,166.566406 L894.886719,166.566406 L899.269531,154.003906 L895.71875,154.003906 L893.082031,163.425781 L890.292969,154.003906 L886.578125,154.003906 L891.265625,167.339844 C891.296875,167.433594 891.228516,167.691406 891.060547,168.113281 C890.892578,168.535156 890.710938,168.8125 890.515625,168.945312 C890.3125,169.085938 890.0625,169.175781 889.765625,169.214844 C889.46875,169.253906 889.15625,169.265625 888.828125,169.25 L888.828125,169.25 L888.40625,169.226562 L888.40625,171.898438 C888.765625,171.921875 889.035156,171.935547 889.214844,171.939453 C889.322656,171.941797 889.451563,171.943438 889.601562,171.944375 L889.929688,171.945312 Z" id="Standby" fill="#9E9E9E" fill-rule="nonzero"></path>
        <g id="Group-Copy-3" transform="translate(32.000000, 224.000000)" fill="#BDBDBD">
            <rect id="Rectangle" stroke="#1089FF" stroke-width="2" fill-opacity="0.15" x="0" y="0" width="742" height="64" rx="8"></rect>
            <path d="M33.265625,43 L33.265625,39.484375 L29.75,39.484375 C28.8645833,39.484375 28.2317708,39.3151042 27.8515625,38.9765625 C27.4713542,38.6380208 27.28125,38.078125 27.28125,37.296875 L27.28125,37.296875 L27.28125,29.015625 L33.265625,29.015625 L33.265625,25.5 L27.28125,25.5 L27.28125,20.53125 L22.703125,20.53125 L22.703125,25.5 L18.234375,25.5 L18.234375,29.015625 L22.703125,29.015625 L22.703125,37.078125 C22.703125,39.3489583 23.1666667,40.9036458 24.09375,41.7421875 C25.0208333,42.5807292 26.796875,43 29.421875,43 L29.421875,43 L33.265625,43 Z M41.53125,49.625 C42.7604167,49.625 43.8046875,49.2473958 44.6640625,48.4921875 C45.5234375,47.7369792 46.2604167,46.5364583 46.875,44.890625 L46.875,44.890625 L54.140625,25.5 L49.328125,25.5 L45.5,36.859375 L41.5,25.5 L36.6875,25.5 L43.34375,42.515625 L43,43.453125 C42.5520833,44.609375 42.109375,45.3463542 41.671875,45.6640625 C41.234375,45.9817708 40.546875,46.140625 39.609375,46.140625 L39.609375,46.140625 L37.75,46.140625 L37.75,49.625 L41.53125,49.625 Z M61.9375,49.65625 L61.9375,40.53125 C62.5,41.5104167 63.1536458,42.2421875 63.8984375,42.7265625 C64.6432292,43.2109375 65.484375,43.453125 66.421875,43.453125 C68.4947917,43.453125 70.0911458,42.6614583 71.2109375,41.078125 C72.3307292,39.4947917 72.890625,37.2239583 72.890625,34.265625 C72.890625,31.3489583 72.3385417,29.0885417 71.234375,27.484375 C70.1302083,25.8802083 68.578125,25.078125 66.578125,25.078125 C65.5260417,25.078125 64.609375,25.3333333 63.828125,25.84375 C63.046875,26.3541667 62.4166667,27.1145833 61.9375,28.125 L61.9375,28.125 L61.9375,25.5 L57.375,25.5 L57.375,49.65625 L61.9375,49.65625 Z M65.140625,39.640625 C64.1510417,39.640625 63.3697917,39.1614583 62.796875,38.203125 C62.2239583,37.2447917 61.9375,35.921875 61.9375,34.234375 C61.9375,32.546875 62.2239583,31.2239583 62.796875,30.265625 C63.3697917,29.3072917 64.1510417,28.828125 65.140625,28.828125 C66.1302083,28.828125 66.90625,29.3072917 67.46875,30.265625 C68.03125,31.2239583 68.3125,32.546875 68.3125,34.234375 C68.3125,35.921875 68.03125,37.2447917 67.46875,38.203125 C66.90625,39.1614583 66.1302083,39.640625 65.140625,39.640625 Z M84.765625,43.453125 C85.9947917,43.453125 87.1614583,43.34375 88.265625,43.125 C89.3697917,42.90625 90.453125,42.578125 91.515625,42.140625 L91.515625,42.140625 L91.515625,37.9375 C90.4010417,38.59375 89.3333333,39.0729167 88.3125,39.375 C87.2916667,39.6770833 86.2552083,39.828125 85.203125,39.828125 C83.609375,39.828125 82.4114583,39.4895833 81.609375,38.8125 C80.8072917,38.1354167 80.4010417,37.109375 80.390625,35.734375 L80.390625,35.734375 L92.25,35.734375 L92.25,33.875 C92.25,31.0833333 91.5338542,28.9192708 90.1015625,27.3828125 C88.6692708,25.8463542 86.65625,25.078125 84.0625,25.078125 C81.4895833,25.078125 79.4583333,25.90625 77.96875,27.5625 C76.4791667,29.21875 75.734375,31.4739583 75.734375,34.328125 C75.734375,37.2760417 76.5078125,39.5338542 78.0546875,41.1015625 C79.6015625,42.6692708 81.8385417,43.453125 84.765625,43.453125 Z M80.4375,32.3125 C80.5520833,31.1354167 80.921875,30.2265625 81.546875,29.5859375 C82.171875,28.9453125 83.0104167,28.625 84.0625,28.625 C85.2291667,28.625 86.1119792,28.9348958 86.7109375,29.5546875 C87.3098958,30.1744792 87.6197917,31.0885417 87.640625,32.296875 L87.640625,32.296875 L80.4375,32.3125 Z M122.390625,43.453125 C124.765625,43.453125 126.544271,43.0026042 127.726562,42.1015625 C128.908854,41.2005208 129.5,39.8489583 129.5,38.046875 C129.5,36.546875 129.111979,35.3567708 128.335938,34.4765625 C127.559896,33.5963542 126.338542,32.9583333 124.671875,32.5625 L124.671875,32.5625 L123.359375,32.25 L123.1875,32.203125 C120.958333,31.6822917 119.84375,31.0052083 119.84375,30.171875 C119.84375,29.5885417 120.104167,29.1484375 120.625,28.8515625 C121.145833,28.5546875 121.916667,28.40625 122.9375,28.40625 C123.854167,28.40625 124.768229,28.5442708 125.679688,28.8203125 C126.591146,29.0963542 127.46875,29.5052083 128.3125,30.046875 L128.3125,30.046875 L128.3125,26.046875 C127.385417,25.7239583 126.429688,25.4817708 125.445312,25.3203125 C124.460938,25.1588542 123.473958,25.078125 122.484375,25.078125 C120.276042,25.078125 118.5625,25.546875 117.34375,26.484375 C116.125,27.421875 115.515625,28.734375 115.515625,30.421875 C115.515625,31.8385417 115.916667,32.96875 116.71875,33.8125 C117.520833,34.65625 118.796875,35.2760417 120.546875,35.671875 L120.546875,35.671875 L121.8125,35.953125 C123.28125,36.3072917 124.210938,36.640625 124.601562,36.953125 C124.992188,37.265625 125.1875,37.7135417 125.1875,38.296875 C125.1875,38.890625 124.911458,39.34375 124.359375,39.65625 C123.807292,39.96875 122.994792,40.125 121.921875,40.125 C120.942708,40.125 119.929688,39.9739583 118.882812,39.671875 C117.835938,39.3697917 116.807292,38.9322917 115.796875,38.359375 L115.796875,38.359375 L115.796875,42.359375 C116.932292,42.7239583 118.052083,42.9973958 119.15625,43.1796875 C120.260417,43.3619792 121.338542,43.453125 122.390625,43.453125 Z M141.71875,43.453125 C144.197917,43.453125 146.169271,42.6276042 147.632812,40.9765625 C149.096354,39.3255208 149.828125,37.0885417 149.828125,34.265625 C149.828125,31.4427083 149.096354,29.2057292 147.632812,27.5546875 C146.169271,25.9036458 144.197917,25.078125 141.71875,25.078125 C139.25,25.078125 137.283854,25.9036458 135.820312,27.5546875 C134.356771,29.2057292 133.625,31.4427083 133.625,34.265625 C133.625,37.0885417 134.356771,39.3255208 135.820312,40.9765625 C137.283854,42.6276042 139.25,43.453125 141.71875,43.453125 Z M141.71875,39.734375 C140.625,39.734375 139.765625,39.2526042 139.140625,38.2890625 C138.515625,37.3255208 138.203125,35.984375 138.203125,34.265625 C138.203125,32.546875 138.515625,31.2057292 139.140625,30.2421875 C139.765625,29.2786458 140.625,28.796875 141.71875,28.796875 C142.822917,28.796875 143.6875,29.2786458 144.3125,30.2421875 C144.9375,31.2057292 145.25,32.546875 145.25,34.265625 C145.25,35.984375 144.9375,37.3255208 144.3125,38.2890625 C143.6875,39.2526042 142.822917,39.734375 141.71875,39.734375 Z M156.390625,43 L156.390625,31.765625 C156.390625,30.4635417 156.489583,29.59375 156.6875,29.15625 C156.885417,28.71875 157.244792,28.5 157.765625,28.5 C158.286458,28.5 158.651042,28.7239583 158.859375,29.171875 C159.067708,29.6197917 159.171875,30.484375 159.171875,31.765625 L159.171875,31.765625 L159.171875,43 L162.875,43 L162.875,31.765625 C162.875,30.484375 162.979167,29.6197917 163.1875,29.171875 C163.395833,28.7239583 163.760417,28.5 164.28125,28.5 C164.802083,28.5 165.161458,28.71875 165.359375,29.15625 C165.557292,29.59375 165.65625,30.4635417 165.65625,31.765625 L165.65625,31.765625 L165.65625,43 L169.40625,43 L169.40625,33.140625 C169.40625,29.8489583 169.117188,27.6822917 168.539062,26.640625 C167.960938,25.5989583 166.916667,25.078125 165.40625,25.078125 C164.635417,25.078125 163.984375,25.2552083 163.453125,25.609375 C162.921875,25.9635417 162.484375,26.5104167 162.140625,27.25 C162.015625,26.6458333 161.661458,26.1328125 161.078125,25.7109375 C160.494792,25.2890625 159.848958,25.078125 159.140625,25.078125 C158.432292,25.078125 157.791667,25.2786458 157.21875,25.6796875 C156.645833,26.0807292 156.229167,26.625 155.96875,27.3125 L155.96875,27.3125 L155.96875,25.5 L152.640625,25.5 L152.640625,43 L156.390625,43 Z M181.09375,43.453125 C182.322917,43.453125 183.489583,43.34375 184.59375,43.125 C185.697917,42.90625 186.78125,42.578125 187.84375,42.140625 L187.84375,42.140625 L187.84375,37.9375 C186.729167,38.59375 185.661458,39.0729167 184.640625,39.375 C183.619792,39.6770833 182.583333,39.828125 181.53125,39.828125 C179.9375,39.828125 178.739583,39.4895833 177.9375,38.8125 C177.135417,38.1354167 176.729167,37.109375 176.71875,35.734375 L176.71875,35.734375 L188.578125,35.734375 L188.578125,33.875 C188.578125,31.0833333 187.861979,28.9192708 186.429688,27.3828125 C184.997396,25.8463542 182.984375,25.078125 180.390625,25.078125 C177.817708,25.078125 175.786458,25.90625 174.296875,27.5625 C172.807292,29.21875 172.0625,31.4739583 172.0625,34.328125 C172.0625,37.2760417 172.835938,39.5338542 174.382812,41.1015625 C175.929688,42.6692708 178.166667,43.453125 181.09375,43.453125 Z M176.765625,32.3125 C176.880208,31.1354167 177.25,30.2265625 177.875,29.5859375 C178.5,28.9453125 179.338542,28.625 180.390625,28.625 C181.557292,28.625 182.440104,28.9348958 183.039062,29.5546875 C183.638021,30.1744792 183.947917,31.0885417 183.96875,32.296875 L183.96875,32.296875 L176.765625,32.3125 Z M206.65625,43 L206.65625,39.484375 L203.140625,39.484375 C202.255208,39.484375 201.622396,39.3151042 201.242188,38.9765625 C200.861979,38.6380208 200.671875,38.078125 200.671875,37.296875 L200.671875,37.296875 L200.671875,29.015625 L206.65625,29.015625 L206.65625,25.5 L200.671875,25.5 L200.671875,20.53125 L196.09375,20.53125 L196.09375,25.5 L191.625,25.5 L191.625,29.015625 L196.09375,29.015625 L196.09375,37.078125 C196.09375,39.3489583 196.557292,40.9036458 197.484375,41.7421875 C198.411458,42.5807292 200.1875,43 202.8125,43 L202.8125,43 L206.65625,43 Z M216.390625,43 L216.390625,32.984375 C216.390625,31.6822917 216.625,30.6640625 217.09375,29.9296875 C217.5625,29.1953125 218.213542,28.828125 219.046875,28.828125 C219.859375,28.828125 220.445312,29.0989583 220.804688,29.640625 C221.164062,30.1822917 221.34375,31.0833333 221.34375,32.34375 L221.34375,32.34375 L221.34375,43 L225.890625,43 L225.890625,31.640625 C225.890625,29.4635417 225.46875,27.8255208 224.625,26.7265625 C223.78125,25.6276042 222.53125,25.078125 220.875,25.078125 C219.770833,25.078125 218.828125,25.34375 218.046875,25.875 C217.265625,26.40625 216.713542,27.15625 216.390625,28.125 L216.390625,28.125 L216.390625,18.6875 L211.84375,18.6875 L211.84375,43 L216.390625,43 Z M240.9375,22.328125 L240.9375,16.984375 L236.359375,16.984375 L236.359375,22.328125 L240.9375,22.328125 Z M246.625,43 L246.625,39.484375 L240.9375,39.484375 L240.9375,25.5 L231.875,25.5 L231.875,29.015625 L236.359375,29.015625 L236.359375,39.484375 L230.65625,39.484375 L230.65625,43 L246.625,43 Z M254.921875,43 L254.921875,32.984375 C254.921875,31.671875 255.158854,30.6458333 255.632812,29.90625 C256.106771,29.1666667 256.755208,28.796875 257.578125,28.796875 C258.390625,28.796875 258.976562,29.0703125 259.335938,29.6171875 C259.695312,30.1640625 259.875,31.0729167 259.875,32.34375 L259.875,32.34375 L259.875,43 L264.421875,43 L264.421875,31.640625 C264.421875,29.4635417 264,27.8255208 263.15625,26.7265625 C262.3125,25.6276042 261.0625,25.078125 259.40625,25.078125 C258.302083,25.078125 257.359375,25.34375 256.578125,25.875 C255.796875,26.40625 255.244792,27.15625 254.921875,28.125 L254.921875,28.125 L254.921875,25.5 L250.375,25.5 L250.375,43 L254.921875,43 Z M276.015625,49.625 C278.859375,49.625 280.914062,49.0026042 282.179688,47.7578125 C283.445312,46.5130208 284.078125,44.4895833 284.078125,41.6875 L284.078125,41.6875 L284.078125,25.5 L279.5,25.5 L279.5,27.734375 C279.052083,26.8802083 278.4375,26.21875 277.65625,25.75 C276.875,25.28125 275.984375,25.046875 274.984375,25.046875 C273.005208,25.046875 271.427083,25.859375 270.25,27.484375 C269.072917,29.109375 268.484375,31.3072917 268.484375,34.078125 C268.484375,36.7552083 269.072917,38.875 270.25,40.4375 C271.427083,42 273.015625,42.78125 275.015625,42.78125 C276.078125,42.78125 276.979167,42.578125 277.71875,42.171875 C278.458333,41.765625 279.052083,41.1458333 279.5,40.3125 L279.5,40.3125 L279.5,42.203125 C279.5,43.4947917 279.192708,44.4453125 278.578125,45.0546875 C277.963542,45.6640625 277.010417,45.96875 275.71875,45.96875 C274.770833,45.96875 273.848958,45.8541667 272.953125,45.625 C272.057292,45.3958333 271.177083,45.0416667 270.3125,44.5625 L270.3125,44.5625 L270.3125,48.765625 C271.28125,49.0572917 272.234375,49.2734375 273.171875,49.4140625 C274.109375,49.5546875 275.057292,49.625 276.015625,49.625 Z M276.265625,39.15625 C275.307292,39.15625 274.533854,38.6875 273.945312,37.75 C273.356771,36.8125 273.0625,35.5520833 273.0625,33.96875 C273.0625,32.3958333 273.356771,31.140625 273.945312,30.203125 C274.533854,29.265625 275.307292,28.796875 276.265625,28.796875 C277.234375,28.796875 278.015625,29.2682292 278.609375,30.2109375 C279.203125,31.1536458 279.5,32.40625 279.5,33.96875 C279.5,35.5416667 279.203125,36.7994792 278.609375,37.7421875 C278.015625,38.6848958 277.234375,39.15625 276.265625,39.15625 Z M323.859375,43 L323.859375,37.265625 L319.25,37.265625 L319.25,43 L323.859375,43 Z M317.421875,43 L317.421875,37.265625 L312.8125,37.265625 L312.8125,43 L317.421875,43 Z M310.984375,43 L310.984375,37.265625 L306.375,37.265625 L306.375,43 L310.984375,43 Z" id="typesomething…" fill-opacity="0.5" fill-rule="nonzero"></path>
        </g>
        <g id="Group-Copy-4" transform="translate(32.000000, 320.000000)">
            <g id="Rectangle">
                <use fill="black" fill-opacity="1" filter="url(#filter-2)" xlink:href="#path-1"></use>
                <use stroke="#1089FF" stroke-width="2" fill-opacity="0.15" fill="#BDBDBD" fill-rule="evenodd" xlink:href="#path-1"></use>
            </g>
            <path d="M33.265625,43 L33.265625,39.484375 L29.75,39.484375 C28.8645833,39.484375 28.2317708,39.3151042 27.8515625,38.9765625 C27.4713542,38.6380208 27.28125,38.078125 27.28125,37.296875 L27.28125,37.296875 L27.28125,29.015625 L33.265625,29.015625 L33.265625,25.5 L27.28125,25.5 L27.28125,20.53125 L22.703125,20.53125 L22.703125,25.5 L18.234375,25.5 L18.234375,29.015625 L22.703125,29.015625 L22.703125,37.078125 C22.703125,39.3489583 23.1666667,40.9036458 24.09375,41.7421875 C25.0208333,42.5807292 26.796875,43 29.421875,43 L29.421875,43 L33.265625,43 Z M41.53125,49.625 C42.7604167,49.625 43.8046875,49.2473958 44.6640625,48.4921875 C45.5234375,47.7369792 46.2604167,46.5364583 46.875,44.890625 L46.875,44.890625 L54.140625,25.5 L49.328125,25.5 L45.5,36.859375 L41.5,25.5 L36.6875,25.5 L43.34375,42.515625 L43,43.453125 C42.5520833,44.609375 42.109375,45.3463542 41.671875,45.6640625 C41.234375,45.9817708 40.546875,46.140625 39.609375,46.140625 L39.609375,46.140625 L37.75,46.140625 L37.75,49.625 L41.53125,49.625 Z M61.9375,49.65625 L61.9375,40.53125 C62.5,41.5104167 63.1536458,42.2421875 63.8984375,42.7265625 C64.6432292,43.2109375 65.484375,43.453125 66.421875,43.453125 C68.4947917,43.453125 70.0911458,42.6614583 71.2109375,41.078125 C72.3307292,39.4947917 72.890625,37.2239583 72.890625,34.265625 C72.890625,31.3489583 72.3385417,29.0885417 71.234375,27.484375 C70.1302083,25.8802083 68.578125,25.078125 66.578125,25.078125 C65.5260417,25.078125 64.609375,25.3333333 63.828125,25.84375 C63.046875,26.3541667 62.4166667,27.1145833 61.9375,28.125 L61.9375,28.125 L61.9375,25.5 L57.375,25.5 L57.375,49.65625 L61.9375,49.65625 Z M65.140625,39.640625 C64.1510417,39.640625 63.3697917,39.1614583 62.796875,38.203125 C62.2239583,37.2447917 61.9375,35.921875 61.9375,34.234375 C61.9375,32.546875 62.2239583,31.2239583 62.796875,30.265625 C63.3697917,29.3072917 64.1510417,28.828125 65.140625,28.828125 C66.1302083,28.828125 66.90625,29.3072917 67.46875,30.265625 C68.03125,31.2239583 68.3125,32.546875 68.3125,34.234375 C68.3125,35.921875 68.03125,37.2447917 67.46875,38.203125 C66.90625,39.1614583 66.1302083,39.640625 65.140625,39.640625 Z M84.765625,43.453125 C85.9947917,43.453125 87.1614583,43.34375 88.265625,43.125 C89.3697917,42.90625 90.453125,42.578125 91.515625,42.140625 L91.515625,42.140625 L91.515625,37.9375 C90.4010417,38.59375 89.3333333,39.0729167 88.3125,39.375 C87.2916667,39.6770833 86.2552083,39.828125 85.203125,39.828125 C83.609375,39.828125 82.4114583,39.4895833 81.609375,38.8125 C80.8072917,38.1354167 80.4010417,37.109375 80.390625,35.734375 L80.390625,35.734375 L92.25,35.734375 L92.25,33.875 C92.25,31.0833333 91.5338542,28.9192708 90.1015625,27.3828125 C88.6692708,25.8463542 86.65625,25.078125 84.0625,25.078125 C81.4895833,25.078125 79.4583333,25.90625 77.96875,27.5625 C76.4791667,29.21875 75.734375,31.4739583 75.734375,34.328125 C75.734375,37.2760417 76.5078125,39.5338542 78.0546875,41.1015625 C79.6015625,42.6692708 81.8385417,43.453125 84.765625,43.453125 Z M80.4375,32.3125 C80.5520833,31.1354167 80.921875,30.2265625 81.546875,29.5859375 C82.171875,28.9453125 83.0104167,28.625 84.0625,28.625 C85.2291667,28.625 86.1119792,28.9348958 86.7109375,29.5546875 C87.3098958,30.1744792 87.6197917,31.0885417 87.640625,32.296875 L87.640625,32.296875 L80.4375,32.3125 Z M122.390625,43.453125 C124.765625,43.453125 126.544271,43.0026042 127.726562,42.1015625 C128.908854,41.2005208 129.5,39.8489583 129.5,38.046875 C129.5,36.546875 129.111979,35.3567708 128.335938,34.4765625 C127.559896,33.5963542 126.338542,32.9583333 124.671875,32.5625 L124.671875,32.5625 L123.359375,32.25 L123.1875,32.203125 C120.958333,31.6822917 119.84375,31.0052083 119.84375,30.171875 C119.84375,29.5885417 120.104167,29.1484375 120.625,28.8515625 C121.145833,28.5546875 121.916667,28.40625 122.9375,28.40625 C123.854167,28.40625 124.768229,28.5442708 125.679688,28.8203125 C126.591146,29.0963542 127.46875,29.5052083 128.3125,30.046875 L128.3125,30.046875 L128.3125,26.046875 C127.385417,25.7239583 126.429688,25.4817708 125.445312,25.3203125 C124.460938,25.1588542 123.473958,25.078125 122.484375,25.078125 C120.276042,25.078125 118.5625,25.546875 117.34375,26.484375 C116.125,27.421875 115.515625,28.734375 115.515625,30.421875 C115.515625,31.8385417 115.916667,32.96875 116.71875,33.8125 C117.520833,34.65625 118.796875,35.2760417 120.546875,35.671875 L120.546875,35.671875 L121.8125,35.953125 C123.28125,36.3072917 124.210938,36.640625 124.601562,36.953125 C124.992188,37.265625 125.1875,37.7135417 125.1875,38.296875 C125.1875,38.890625 124.911458,39.34375 124.359375,39.65625 C123.807292,39.96875 122.994792,40.125 121.921875,40.125 C120.942708,40.125 119.929688,39.9739583 118.882812,39.671875 C117.835938,39.3697917 116.807292,38.9322917 115.796875,38.359375 L115.796875,38.359375 L115.796875,42.359375 C116.932292,42.7239583 118.052083,42.9973958 119.15625,43.1796875 C120.260417,43.3619792 121.338542,43.453125 122.390625,43.453125 Z M141.71875,43.453125 C144.197917,43.453125 146.169271,42.6276042 147.632812,40.9765625 C149.096354,39.3255208 149.828125,37.0885417 149.828125,34.265625 C149.828125,31.4427083 149.096354,29.2057292 147.632812,27.5546875 C146.169271,25.9036458 144.197917,25.078125 141.71875,25.078125 C139.25,25.078125 137.283854,25.9036458 135.820312,27.5546875 C134.356771,29.2057292 133.625,31.4427083 133.625,34.265625 C133.625,37.0885417 134.356771,39.3255208 135.820312,40.9765625 C137.283854,42.6276042 139.25,43.453125 141.71875,43.453125 Z M141.71875,39.734375 C140.625,39.734375 139.765625,39.2526042 139.140625,38.2890625 C138.515625,37.3255208 138.203125,35.984375 138.203125,34.265625 C138.203125,32.546875 138.515625,31.2057292 139.140625,30.2421875 C139.765625,29.2786458 140.625,28.796875 141.71875,28.796875 C142.822917,28.796875 143.6875,29.2786458 144.3125,30.2421875 C144.9375,31.2057292 145.25,32.546875 145.25,34.265625 C145.25,35.984375 144.9375,37.3255208 144.3125,38.2890625 C143.6875,39.2526042 142.822917,39.734375 141.71875,39.734375 Z M156.390625,43 L156.390625,31.765625 C156.390625,30.4635417 156.489583,29.59375 156.6875,29.15625 C156.885417,28.71875 157.244792,28.5 157.765625,28.5 C158.286458,28.5 158.651042,28.7239583 158.859375,29.171875 C159.067708,29.6197917 159.171875,30.484375 159.171875,31.765625 L159.171875,31.765625 L159.171875,43 L162.875,43 L162.875,31.765625 C162.875,30.484375 162.979167,29.6197917 163.1875,29.171875 C163.395833,28.7239583 163.760417,28.5 164.28125,28.5 C164.802083,28.5 165.161458,28.71875 165.359375,29.15625 C165.557292,29.59375 165.65625,30.4635417 165.65625,31.765625 L165.65625,31.765625 L165.65625,43 L169.40625,43 L169.40625,33.140625 C169.40625,29.8489583 169.117188,27.6822917 168.539062,26.640625 C167.960938,25.5989583 166.916667,25.078125 165.40625,25.078125 C164.635417,25.078125 163.984375,25.2552083 163.453125,25.609375 C162.921875,25.9635417 162.484375,26.5104167 162.140625,27.25 C162.015625,26.6458333 161.661458,26.1328125 161.078125,25.7109375 C160.494792,25.2890625 159.848958,25.078125 159.140625,25.078125 C158.432292,25.078125 157.791667,25.2786458 157.21875,25.6796875 C156.645833,26.0807292 156.229167,26.625 155.96875,27.3125 L155.96875,27.3125 L155.96875,25.5 L152.640625,25.5 L152.640625,43 L156.390625,43 Z M181.09375,43.453125 C182.322917,43.453125 183.489583,43.34375 184.59375,43.125 C185.697917,42.90625 186.78125,42.578125 187.84375,42.140625 L187.84375,42.140625 L187.84375,37.9375 C186.729167,38.59375 185.661458,39.0729167 184.640625,39.375 C183.619792,39.6770833 182.583333,39.828125 181.53125,39.828125 C179.9375,39.828125 178.739583,39.4895833 177.9375,38.8125 C177.135417,38.1354167 176.729167,37.109375 176.71875,35.734375 L176.71875,35.734375 L188.578125,35.734375 L188.578125,33.875 C188.578125,31.0833333 187.861979,28.9192708 186.429688,27.3828125 C184.997396,25.8463542 182.984375,25.078125 180.390625,25.078125 C177.817708,25.078125 175.786458,25.90625 174.296875,27.5625 C172.807292,29.21875 172.0625,31.4739583 172.0625,34.328125 C172.0625,37.2760417 172.835938,39.5338542 174.382812,41.1015625 C175.929688,42.6692708 178.166667,43.453125 181.09375,43.453125 Z M176.765625,32.3125 C176.880208,31.1354167 177.25,30.2265625 177.875,29.5859375 C178.5,28.9453125 179.338542,28.625 180.390625,28.625 C181.557292,28.625 182.440104,28.9348958 183.039062,29.5546875 C183.638021,30.1744792 183.947917,31.0885417 183.96875,32.296875 L183.96875,32.296875 L176.765625,32.3125 Z M206.65625,43 L206.65625,39.484375 L203.140625,39.484375 C202.255208,39.484375 201.622396,39.3151042 201.242188,38.9765625 C200.861979,38.6380208 200.671875,38.078125 200.671875,37.296875 L200.671875,37.296875 L200.671875,29.015625 L206.65625,29.015625 L206.65625,25.5 L200.671875,25.5 L200.671875,20.53125 L196.09375,20.53125 L196.09375,25.5 L191.625,25.5 L191.625,29.015625 L196.09375,29.015625 L196.09375,37.078125 C196.09375,39.3489583 196.557292,40.9036458 197.484375,41.7421875 C198.411458,42.5807292 200.1875,43 202.8125,43 L202.8125,43 L206.65625,43 Z M216.390625,43 L216.390625,32.984375 C216.390625,31.6822917 216.625,30.6640625 217.09375,29.9296875 C217.5625,29.1953125 218.213542,28.828125 219.046875,28.828125 C219.859375,28.828125 220.445312,29.0989583 220.804688,29.640625 C221.164062,30.1822917 221.34375,31.0833333 221.34375,32.34375 L221.34375,32.34375 L221.34375,43 L225.890625,43 L225.890625,31.640625 C225.890625,29.4635417 225.46875,27.8255208 224.625,26.7265625 C223.78125,25.6276042 222.53125,25.078125 220.875,25.078125 C219.770833,25.078125 218.828125,25.34375 218.046875,25.875 C217.265625,26.40625 216.713542,27.15625 216.390625,28.125 L216.390625,28.125 L216.390625,18.6875 L211.84375,18.6875 L211.84375,43 L216.390625,43 Z M240.9375,22.328125 L240.9375,16.984375 L236.359375,16.984375 L236.359375,22.328125 L240.9375,22.328125 Z M246.625,43 L246.625,39.484375 L240.9375,39.484375 L240.9375,25.5 L231.875,25.5 L231.875,29.015625 L236.359375,29.015625 L236.359375,39.484375 L230.65625,39.484375 L230.65625,43 L246.625,43 Z M254.921875,43 L254.921875,32.984375 C254.921875,31.671875 255.158854,30.6458333 255.632812,29.90625 C256.106771,29.1666667 256.755208,28.796875 257.578125,28.796875 C258.390625,28.796875 258.976562,29.0703125 259.335938,29.6171875 C259.695312,30.1640625 259.875,31.0729167 259.875,32.34375 L259.875,32.34375 L259.875,43 L264.421875,43 L264.421875,31.640625 C264.421875,29.4635417 264,27.8255208 263.15625,26.7265625 C262.3125,25.6276042 261.0625,25.078125 259.40625,25.078125 C258.302083,25.078125 257.359375,25.34375 256.578125,25.875 C255.796875,26.40625 255.244792,27.15625 254.921875,28.125 L254.921875,28.125 L254.921875,25.5 L250.375,25.5 L250.375,43 L254.921875,43 Z M276.015625,49.625 C278.859375,49.625 280.914062,49.0026042 282.179688,47.7578125 C283.445312,46.5130208 284.078125,44.4895833 284.078125,41.6875 L284.078125,41.6875 L284.078125,25.5 L279.5,25.5 L279.5,27.734375 C279.052083,26.8802083 278.4375,26.21875 277.65625,25.75 C276.875,25.28125 275.984375,25.046875 274.984375,25.046875 C273.005208,25.046875 271.427083,25.859375 270.25,27.484375 C269.072917,29.109375 268.484375,31.3072917 268.484375,34.078125 C268.484375,36.7552083 269.072917,38.875 270.25,40.4375 C271.427083,42 273.015625,42.78125 275.015625,42.78125 C276.078125,42.78125 276.979167,42.578125 277.71875,42.171875 C278.458333,41.765625 279.052083,41.1458333 279.5,40.3125 L279.5,40.3125 L279.5,42.203125 C279.5,43.4947917 279.192708,44.4453125 278.578125,45.0546875 C277.963542,45.6640625 277.010417,45.96875 275.71875,45.96875 C274.770833,45.96875 273.848958,45.8541667 272.953125,45.625 C272.057292,45.3958333 271.177083,45.0416667 270.3125,44.5625 L270.3125,44.5625 L270.3125,48.765625 C271.28125,49.0572917 272.234375,49.2734375 273.171875,49.4140625 C274.109375,49.5546875 275.057292,49.625 276.015625,49.625 Z M276.265625,39.15625 C275.307292,39.15625 274.533854,38.6875 273.945312,37.75 C273.356771,36.8125 273.0625,35.5520833 273.0625,33.96875 C273.0625,32.3958333 273.356771,31.140625 273.945312,30.203125 C274.533854,29.265625 275.307292,28.796875 276.265625,28.796875 C277.234375,28.796875 278.015625,29.2682292 278.609375,30.2109375 C279.203125,31.1536458 279.5,32.40625 279.5,33.96875 C279.5,35.5416667 279.203125,36.7994792 278.609375,37.7421875 C278.015625,38.6848958 277.234375,39.15625 276.265625,39.15625 Z M323.859375,43 L323.859375,37.265625 L319.25,37.265625 L319.25,43 L323.859375,43 Z M317.421875,43 L317.421875,37.265625 L312.8125,37.265625 L312.8125,43 L317.421875,43 Z M310.984375,43 L310.984375,37.265625 L306.375,37.265625 L306.375,43 L310.984375,43 Z" id="typesomething…" fill-opacity="0.5" fill="#BDBDBD" fill-rule="nonzero"></path>
        </g>
        <path d="M813.441406,72.3789062 C816.050781,72.3789062 817.980469,71.3046875 819.230469,69.15625 C820.152344,67.5625 820.613281,65.6171875 820.613281,63.3203125 C820.613281,62.4140625 820.503906,61.4609375 820.285156,60.4609375 C820.066406,59.4609375 819.65625,58.53125 819.054688,57.671875 C818.304688,56.609375 817.324219,55.8789062 816.113281,55.4804688 C815.402344,55.2460938 814.511719,55.1210938 813.441406,55.1054688 L813.441406,55.1054688 L806,55.1054688 L806,72.3789062 L813.441406,72.3789062 Z M812.832031,69.3789062 L809.503906,69.3789062 L809.503906,58.1054688 L812.832031,58.1054688 C814.472656,58.1054688 815.568359,58.5761719 816.119141,59.5175781 C816.669922,60.4589844 816.945312,61.8085938 816.945312,63.5664062 C816.945312,64.8398438 816.761719,65.9375 816.394531,66.859375 C815.722656,68.5390625 814.535156,69.3789062 812.832031,69.3789062 L812.832031,69.3789062 Z M826.496094,58.0820312 L826.496094,55 L823.109375,55 L823.109375,58.0820312 L826.496094,58.0820312 Z M826.496094,72.3789062 L826.496094,59.6054688 L823.109375,59.6054688 L823.109375,72.3789062 L826.496094,72.3789062 Z M834.828125,72.8125 C836.796875,72.8125 838.251953,72.4121094 839.193359,71.6113281 C840.134766,70.8105469 840.605469,69.7773438 840.605469,68.5117188 C840.605469,67.5507812 840.277344,66.75 839.621094,66.109375 C838.957031,65.4765625 837.960938,65.0039062 836.632812,64.6914062 C834.640625,64.2539062 833.480469,63.9453125 833.152344,63.765625 C832.824219,63.59375 832.660156,63.3164062 832.660156,62.9335938 C832.660156,62.6289062 832.814453,62.3632812 833.123047,62.1367188 C833.431641,61.9101562 833.949219,61.796875 834.675781,61.796875 C835.558594,61.796875 836.183594,62.0234375 836.550781,62.4765625 C836.746094,62.7265625 836.867188,63.0664062 836.914062,63.4960938 L836.914062,63.4960938 L840.253906,63.4960938 C840.105469,61.9335938 839.529297,60.8339844 838.525391,60.1972656 C837.521484,59.5605469 836.222656,59.2421875 834.628906,59.2421875 C832.949219,59.2421875 831.646484,59.6660156 830.720703,60.5136719 C829.794922,61.3613281 829.332031,62.375 829.332031,63.5546875 C829.332031,64.5546875 829.628906,65.3203125 830.222656,65.8515625 C830.816406,66.390625 831.835938,66.8398438 833.28125,67.1992188 C835.289062,67.6757812 836.449219,68.0117188 836.761719,68.2070312 C837.074219,68.4023438 837.230469,68.6875 837.230469,69.0625 C837.230469,69.453125 837.037109,69.7460938 836.650391,69.9414062 C836.263672,70.1367188 835.742188,70.234375 835.085938,70.234375 C833.96875,70.234375 833.203125,70.0117188 832.789062,69.5664062 C832.554688,69.3164062 832.402344,68.8945312 832.332031,68.3007812 L832.332031,68.3007812 L828.945312,68.3007812 C828.945312,69.6132812 829.423828,70.6933594 830.380859,71.5410156 C831.337891,72.3886719 832.820312,72.8125 834.828125,72.8125 Z M846.207031,72.7773438 C847.113281,72.7773438 847.925781,72.5703125 848.644531,72.15625 C849.246094,71.8046875 849.777344,71.3789062 850.238281,70.8789062 C850.261719,71.1679688 850.292969,71.4257812 850.332031,71.6523438 C850.371094,71.8789062 850.441406,72.1210938 850.542969,72.3789062 L850.542969,72.3789062 L854.175781,72.3789062 L854.175781,71.8867188 C853.957031,71.7851562 853.792969,71.65625 853.683594,71.5 C853.574219,71.34375 853.507812,71.046875 853.484375,70.609375 C853.46875,70.03125 853.460938,69.5390625 853.460938,69.1328125 L853.460938,69.1328125 L853.460938,63.2734375 C853.460938,61.734375 852.917969,60.6875 851.832031,60.1328125 C850.746094,59.578125 849.503906,59.3007812 848.105469,59.3007812 C845.957031,59.3007812 844.441406,59.8632812 843.558594,60.9882812 C843.003906,61.7070312 842.691406,62.625 842.621094,63.7421875 L842.621094,63.7421875 L845.84375,63.7421875 C845.921875,63.25 846.078125,62.859375 846.3125,62.5703125 C846.640625,62.1796875 847.199219,61.984375 847.988281,61.984375 C848.691406,61.984375 849.224609,62.0839844 849.587891,62.2832031 C849.951172,62.4824219 850.132812,62.84375 850.132812,63.3671875 C850.132812,63.796875 849.894531,64.1132812 849.417969,64.3164062 C849.152344,64.4335938 848.710938,64.53125 848.09375,64.609375 L848.09375,64.609375 L846.957031,64.75 C845.667969,64.9140625 844.691406,65.1875 844.027344,65.5703125 C842.816406,66.2734375 842.210938,67.4101562 842.210938,68.9804688 C842.210938,70.1914062 842.587891,71.1269531 843.341797,71.7871094 C844.095703,72.4472656 845.050781,72.7773438 846.207031,72.7773438 Z M847.191406,70.3515625 C846.738281,70.3515625 846.353516,70.2246094 846.037109,69.9707031 C845.720703,69.7167969 845.5625,69.3046875 845.5625,68.734375 C845.5625,68.09375 845.820312,67.6210938 846.335938,67.3164062 C846.640625,67.1367188 847.144531,66.984375 847.847656,66.859375 L847.847656,66.859375 L848.597656,66.71875 C848.972656,66.6484375 849.267578,66.5722656 849.482422,66.4902344 C849.697266,66.4082031 849.910156,66.3007812 850.121094,66.1679688 L850.121094,66.1679688 L850.121094,67.4101562 C850.097656,68.5273438 849.783203,69.296875 849.177734,69.71875 C848.572266,70.140625 847.910156,70.3515625 847.191406,70.3515625 Z M863.363281,72.71875 C865.042969,72.71875 866.351562,72.0664062 867.289062,70.7617188 C868.226562,69.4570312 868.695312,67.8125 868.695312,65.828125 C868.695312,63.9140625 868.220703,62.3515625 867.271484,61.140625 C866.322266,59.9296875 865.007812,59.3242188 863.328125,59.3242188 C862.398438,59.3242188 861.632812,59.5195312 861.03125,59.9101562 C860.523438,60.2226562 860.058594,60.6757812 859.636719,61.2695312 L859.636719,61.2695312 L859.636719,55.1289062 L856.308594,55.1289062 L856.308594,72.3789062 L859.578125,72.3789062 L859.578125,70.7734375 C860.023438,71.3984375 860.4375,71.8359375 860.820312,72.0859375 C861.460938,72.5078125 862.308594,72.71875 863.363281,72.71875 Z M862.472656,69.9648438 C861.480469,69.9648438 860.742188,69.6054688 860.257812,68.8867188 C859.773438,68.1679688 859.53125,67.2617188 859.53125,66.1679688 C859.53125,65.2382812 859.648438,64.4804688 859.882812,63.8945312 C860.335938,62.7929688 861.167969,62.2421875 862.378906,62.2421875 C863.574219,62.2421875 864.394531,62.8046875 864.839844,63.9296875 C865.074219,64.5234375 865.191406,65.2734375 865.191406,66.1796875 C865.191406,67.3125 864.953125,68.2265625 864.476562,68.921875 C864,69.6171875 863.332031,69.9648438 862.472656,69.9648438 Z M874.496094,72.3789062 L874.496094,55.1054688 L871.15625,55.1054688 L871.15625,72.3789062 L874.496094,72.3789062 Z M882.910156,72.8007812 C884.878906,72.8007812 886.410156,72.1796875 887.503906,70.9375 C888.207031,70.15625 888.601562,69.3867188 888.6875,68.6289062 L888.6875,68.6289062 L885.277344,68.6289062 C885.097656,69.0039062 884.890625,69.296875 884.65625,69.5078125 C884.226562,69.8984375 883.667969,70.09375 882.980469,70.09375 C882.332031,70.09375 881.777344,69.9335938 881.316406,69.6132812 C880.558594,69.0976562 880.15625,68.1992188 880.109375,66.9179688 L880.109375,66.9179688 L888.851562,66.9179688 C888.867188,65.8164062 888.832031,64.9726562 888.746094,64.3867188 C888.597656,63.3867188 888.273438,62.5078125 887.773438,61.75 C887.21875,60.890625 886.515625,60.2617188 885.664062,59.8632812 C884.8125,59.4648438 883.855469,59.265625 882.792969,59.265625 C881.003906,59.265625 879.548828,59.8554688 878.427734,61.0351562 C877.306641,62.2148438 876.746094,63.9101562 876.746094,66.1210938 C876.746094,68.4804688 877.367188,70.1835938 878.609375,71.2304688 C879.851562,72.2773438 881.285156,72.8007812 882.910156,72.8007812 Z M885.382812,64.7148438 L880.191406,64.7148438 C880.300781,63.8867188 880.568359,63.2304688 880.994141,62.7460938 C881.419922,62.2617188 882.019531,62.0195312 882.792969,62.0195312 C883.503906,62.0195312 884.099609,62.2480469 884.580078,62.7050781 C885.060547,63.1621094 885.328125,63.8320312 885.382812,64.7148438 L885.382812,64.7148438 Z M895.578125,72.7773438 C896.484375,72.7773438 897.242188,72.6054688 897.851562,72.2617188 C898.460938,71.9179688 899.003906,71.3671875 899.480469,70.609375 L899.480469,70.609375 L899.480469,72.3789062 L902.726562,72.3789062 L902.726562,55.1289062 L899.339844,55.1289062 L899.339844,61.2226562 C898.964844,60.6210938 898.476562,60.1503906 897.875,59.8105469 C897.273438,59.4707031 896.585938,59.3007812 895.8125,59.3007812 C894.132812,59.3007812 892.791016,59.9257812 891.787109,61.1757812 C890.783203,62.4257812 890.28125,64.140625 890.28125,66.3203125 C890.28125,68.2109375 890.791016,69.7597656 891.810547,70.9667969 C892.830078,72.1738281 894.085938,72.7773438 895.578125,72.7773438 Z M896.539062,69.9648438 C895.59375,69.9648438 894.888672,69.6113281 894.423828,68.9042969 C893.958984,68.1972656 893.726562,67.2539062 893.726562,66.0742188 C893.726562,64.9804688 893.955078,64.0644531 894.412109,63.3261719 C894.869141,62.5878906 895.585938,62.21875 896.5625,62.21875 C897.203125,62.21875 897.765625,62.421875 898.25,62.828125 C899.039062,63.5 899.433594,64.6171875 899.433594,66.1796875 C899.433594,67.296875 899.1875,68.2070312 898.695312,68.9101562 C898.203125,69.6132812 897.484375,69.9648438 896.539062,69.9648438 Z" id="Disabled" fill="#9E9E9E" fill-rule="nonzero"></path>
        <path d="M809.585937,255.378906 L809.585937,238.105469 L806,238.105469 L806,255.378906 L809.585937,255.378906 Z M816.03125,255.378906 L816.03125,248.464844 C816.03125,247.675781 816.140625,247.027344 816.359375,246.519531 C816.78125,245.558594 817.558594,245.078125 818.691406,245.078125 C819.613281,245.078125 820.238281,245.40625 820.566406,246.0625 C820.746094,246.421875 820.835937,246.9375 820.835937,247.609375 L820.835937,247.609375 L820.835937,255.378906 L824.257812,255.378906 L824.257812,246.777344 C824.257812,245.175781 823.837891,244.029297 822.998047,243.337891 C822.158203,242.646484 821.078125,242.300781 819.757812,242.300781 C818.703125,242.300781 817.832031,242.558594 817.144531,243.074219 C816.761719,243.363281 816.355469,243.835938 815.925781,244.492188 L815.925781,244.492188 L815.925781,242.628906 L812.703125,242.628906 L812.703125,255.378906 L816.03125,255.378906 Z M831.31543,255.561096 L831.605469,255.554688 L833.1875,255.496094 L833.1875,253 C833.078125,253.007812 832.966797,253.013672 832.853516,253.017578 C832.740234,253.021484 832.632812,253.023438 832.53125,253.023438 C831.851562,253.023438 831.445312,252.958984 831.3125,252.830078 C831.179687,252.701172 831.113281,252.375 831.113281,251.851562 L831.113281,251.851562 L831.113281,245.101562 L833.1875,245.101562 L833.1875,242.722656 L831.113281,242.722656 L831.113281,239.160156 L827.808594,239.160156 L827.808594,242.722656 L826.027344,242.722656 L826.027344,245.101562 L827.808594,245.101562 L827.808594,252.964844 C827.808594,253.761719 827.996094,254.351562 828.371094,254.734375 C828.949219,255.335938 830.027344,255.609375 831.605469,255.554688 L831.31543,255.561096 Z M840.488281,255.800781 C842.457031,255.800781 843.988281,255.179688 845.082031,253.9375 C845.785156,253.15625 846.179687,252.386719 846.265625,251.628906 L846.265625,251.628906 L842.855469,251.628906 C842.675781,252.003906 842.46875,252.296875 842.234375,252.507812 C841.804687,252.898438 841.246094,253.09375 840.558594,253.09375 C839.910156,253.09375 839.355469,252.933594 838.894531,252.613281 C838.136719,252.097656 837.734375,251.199219 837.6875,249.917969 L837.6875,249.917969 L846.429687,249.917969 C846.445312,248.816406 846.410156,247.972656 846.324219,247.386719 C846.175781,246.386719 845.851562,245.507812 845.351562,244.75 C844.796875,243.890625 844.09375,243.261719 843.242187,242.863281 C842.390625,242.464844 841.433594,242.265625 840.371094,242.265625 C838.582031,242.265625 837.126953,242.855469 836.005859,244.035156 C834.884766,245.214844 834.324219,246.910156 834.324219,249.121094 C834.324219,251.480469 834.945312,253.183594 836.1875,254.230469 C837.429687,255.277344 838.863281,255.800781 840.488281,255.800781 Z M842.960937,247.714844 L837.769531,247.714844 C837.878906,246.886719 838.146484,246.230469 838.572266,245.746094 C838.998047,245.261719 839.597656,245.019531 840.371094,245.019531 C841.082031,245.019531 841.677734,245.248047 842.158203,245.705078 C842.638672,246.162109 842.90625,246.832031 842.960937,247.714844 L842.960937,247.714844 Z M852.007812,255.378906 L852.007812,249.273438 C852.007812,248.25 852.136719,247.492188 852.394531,247 C852.855469,246.125 853.757812,245.6875 855.101562,245.6875 C855.203125,245.6875 855.335937,245.691406 855.5,245.699219 C855.664062,245.707031 855.851562,245.722656 856.0625,245.746094 L856.0625,245.746094 L856.0625,242.324219 C855.914062,242.316406 855.818359,242.310547 855.775391,242.306641 C855.732422,242.302734 855.679687,242.300781 855.617187,242.300781 C854.617187,242.300781 853.804687,242.5625 853.179687,243.085938 C852.796875,243.398438 852.347656,243.980469 851.832031,244.832031 L851.832031,244.832031 L851.832031,242.605469 L848.644531,242.605469 L848.644531,255.378906 L852.007812,255.378906 Z M861.148437,255.777344 C862.054687,255.777344 862.867187,255.570312 863.585937,255.15625 C864.1875,254.804688 864.71875,254.378906 865.179687,253.878906 C865.203125,254.167969 865.234375,254.425781 865.273437,254.652344 C865.3125,254.878906 865.382812,255.121094 865.484375,255.378906 L865.484375,255.378906 L869.117187,255.378906 L869.117187,254.886719 C868.898437,254.785156 868.734375,254.65625 868.625,254.5 C868.515625,254.34375 868.449219,254.046875 868.425781,253.609375 C868.410156,253.03125 868.402344,252.539062 868.402344,252.132812 L868.402344,252.132812 L868.402344,246.273438 C868.402344,244.734375 867.859375,243.6875 866.773437,243.132812 C865.6875,242.578125 864.445312,242.300781 863.046875,242.300781 C860.898437,242.300781 859.382812,242.863281 858.5,243.988281 C857.945312,244.707031 857.632812,245.625 857.5625,246.742188 L857.5625,246.742188 L860.785156,246.742188 C860.863281,246.25 861.019531,245.859375 861.253906,245.570312 C861.582031,245.179688 862.140625,244.984375 862.929687,244.984375 C863.632812,244.984375 864.166016,245.083984 864.529297,245.283203 C864.892578,245.482422 865.074219,245.84375 865.074219,246.367188 C865.074219,246.796875 864.835937,247.113281 864.359375,247.316406 C864.09375,247.433594 863.652344,247.53125 863.035156,247.609375 L863.035156,247.609375 L861.898437,247.75 C860.609375,247.914062 859.632812,248.1875 858.96875,248.570312 C857.757812,249.273438 857.152344,250.410156 857.152344,251.980469 C857.152344,253.191406 857.529297,254.126953 858.283203,254.787109 C859.037109,255.447266 859.992187,255.777344 861.148437,255.777344 Z M862.132812,253.351562 C861.679687,253.351562 861.294922,253.224609 860.978516,252.970703 C860.662109,252.716797 860.503906,252.304688 860.503906,251.734375 C860.503906,251.09375 860.761719,250.621094 861.277344,250.316406 C861.582031,250.136719 862.085937,249.984375 862.789062,249.859375 L862.789062,249.859375 L863.539062,249.71875 C863.914062,249.648438 864.208984,249.572266 864.423828,249.490234 C864.638672,249.408203 864.851562,249.300781 865.0625,249.167969 L865.0625,249.167969 L865.0625,250.410156 C865.039062,251.527344 864.724609,252.296875 864.119141,252.71875 C863.513672,253.140625 862.851562,253.351562 862.132812,253.351562 Z M876.628906,255.824219 C878.683594,255.824219 880.234375,255.09375 881.28125,253.632812 C881.9375,252.726562 882.304687,251.765625 882.382812,250.75 L882.382812,250.75 L878.972656,250.75 C878.902344,251.421875 878.703125,251.96875 878.375,252.390625 C878.046875,252.8125 877.492187,253.023438 876.710937,253.023438 C875.609375,253.023438 874.859375,252.492188 874.460937,251.429688 C874.242187,250.859375 874.132812,250.105469 874.132812,249.167969 C874.132812,248.183594 874.242187,247.394531 874.460937,246.800781 C874.875,245.683594 875.644531,245.125 876.769531,245.125 C877.558594,245.125 878.140625,245.382812 878.515625,245.898438 C878.773437,246.28125 878.933594,246.710938 878.996094,247.1875 L878.996094,247.1875 L882.417969,247.1875 C882.230469,245.367188 881.626953,244.097656 880.607422,243.378906 C879.587891,242.660156 878.277344,242.300781 876.675781,242.300781 C874.792969,242.300781 873.316406,242.910156 872.246094,244.128906 C871.175781,245.347656 870.640625,247.054688 870.640625,249.25 C870.640625,251.195312 871.125,252.777344 872.09375,253.996094 C873.0625,255.214844 874.574219,255.824219 876.628906,255.824219 Z M888.69043,255.561096 L888.980469,255.554688 L890.5625,255.496094 L890.5625,253 C890.453125,253.007812 890.341797,253.013672 890.228516,253.017578 C890.115234,253.021484 890.007812,253.023438 889.90625,253.023438 C889.226562,253.023438 888.820312,252.958984 888.6875,252.830078 C888.554687,252.701172 888.488281,252.375 888.488281,251.851562 L888.488281,251.851562 L888.488281,245.101562 L890.5625,245.101562 L890.5625,242.722656 L888.488281,242.722656 L888.488281,239.160156 L885.183594,239.160156 L885.183594,242.722656 L883.402344,242.722656 L883.402344,245.101562 L885.183594,245.101562 L885.183594,252.964844 C885.183594,253.761719 885.371094,254.351562 885.746094,254.734375 C886.324219,255.335938 887.402344,255.609375 888.980469,255.554688 L888.69043,255.561096 Z M896.140625,241.082031 L896.140625,238 L892.753906,238 L892.753906,241.082031 L896.140625,241.082031 Z M896.140625,255.378906 L896.140625,242.605469 L892.753906,242.605469 L892.753906,255.378906 L896.140625,255.378906 Z M906.230469,255.378906 L910.835937,242.605469 L907.25,242.605469 L904.53125,252.027344 L901.871094,242.605469 L898.121094,242.605469 L902.703125,255.378906 L906.230469,255.378906 Z M917.878906,255.800781 C919.847656,255.800781 921.378906,255.179688 922.472656,253.9375 C923.175781,253.15625 923.570312,252.386719 923.65625,251.628906 L923.65625,251.628906 L920.246094,251.628906 C920.066406,252.003906 919.859375,252.296875 919.625,252.507812 C919.195312,252.898438 918.636719,253.09375 917.949219,253.09375 C917.300781,253.09375 916.746094,252.933594 916.285156,252.613281 C915.527344,252.097656 915.125,251.199219 915.078125,249.917969 L915.078125,249.917969 L923.820312,249.917969 C923.835937,248.816406 923.800781,247.972656 923.714844,247.386719 C923.566406,246.386719 923.242187,245.507812 922.742187,244.75 C922.1875,243.890625 921.484375,243.261719 920.632812,242.863281 C919.78125,242.464844 918.824219,242.265625 917.761719,242.265625 C915.972656,242.265625 914.517578,242.855469 913.396484,244.035156 C912.275391,245.214844 911.714844,246.910156 911.714844,249.121094 C911.714844,251.480469 912.335937,253.183594 913.578125,254.230469 C914.820312,255.277344 916.253906,255.800781 917.878906,255.800781 Z M920.351562,247.714844 L915.160156,247.714844 C915.269531,246.886719 915.537109,246.230469 915.962891,245.746094 C916.388672,245.261719 916.988281,245.019531 917.761719,245.019531 C918.472656,245.019531 919.068359,245.248047 919.548828,245.705078 C920.029297,246.162109 920.296875,246.832031 920.351562,247.714844 L920.351562,247.714844 Z" id="Interactive" fill="#9E9E9E" fill-rule="nonzero"></path>
        <path d="M809.527344,357.800781 L809.527344,351.027344 L813.253906,351.027344 C814.316406,351.027344 815.041016,351.210938 815.427734,351.578125 C815.814453,351.945312 816.015625,352.679688 816.03125,353.78125 L816.03125,353.78125 L816.054688,355.386719 C816.0625,355.894531 816.113281,356.390625 816.207031,356.875 C816.253906,357.109375 816.332031,357.417969 816.441406,357.800781 L816.441406,357.800781 L820.414062,357.800781 L820.414062,357.367188 C820.070312,357.15625 819.851562,356.828125 819.757812,356.382812 C819.695312,356.101562 819.664062,355.566406 819.664062,354.777344 L819.664062,354.777344 L819.664062,353.617188 C819.664062,352.40625 819.498047,351.505859 819.166016,350.916016 C818.833984,350.326172 818.269531,349.871094 817.472656,349.550781 C818.425781,349.222656 819.109375,348.662109 819.523438,347.869141 C819.9375,347.076172 820.144531,346.269531 820.144531,345.449219 C820.144531,344.769531 820.035156,344.164062 819.816406,343.632812 C819.597656,343.101562 819.300781,342.617188 818.925781,342.179688 C818.472656,341.648438 817.919922,341.246094 817.267578,340.972656 C816.615234,340.699219 815.683594,340.550781 814.472656,340.527344 L814.472656,340.527344 L806,340.527344 L806,357.800781 L809.527344,357.800781 Z M813.617188,348.167969 L809.527344,348.167969 L809.527344,343.527344 L813.722656,343.527344 C814.503906,343.527344 815.089844,343.628906 815.480469,343.832031 C816.175781,344.191406 816.523438,344.894531 816.523438,345.941406 C816.523438,346.910156 816.164062,347.558594 815.445312,347.886719 C815.039062,348.074219 814.429688,348.167969 813.617188,348.167969 L813.617188,348.167969 Z M828.136719,358.222656 C830.105469,358.222656 831.636719,357.601562 832.730469,356.359375 C833.433594,355.578125 833.828125,354.808594 833.914062,354.050781 L833.914062,354.050781 L830.503906,354.050781 C830.324219,354.425781 830.117188,354.71875 829.882812,354.929688 C829.453125,355.320312 828.894531,355.515625 828.207031,355.515625 C827.558594,355.515625 827.003906,355.355469 826.542969,355.035156 C825.785156,354.519531 825.382812,353.621094 825.335938,352.339844 L825.335938,352.339844 L834.078125,352.339844 C834.09375,351.238281 834.058594,350.394531 833.972656,349.808594 C833.824219,348.808594 833.5,347.929688 833,347.171875 C832.445312,346.3125 831.742188,345.683594 830.890625,345.285156 C830.039062,344.886719 829.082031,344.6875 828.019531,344.6875 C826.230469,344.6875 824.775391,345.277344 823.654297,346.457031 C822.533203,347.636719 821.972656,349.332031 821.972656,351.542969 C821.972656,353.902344 822.59375,355.605469 823.835938,356.652344 C825.078125,357.699219 826.511719,358.222656 828.136719,358.222656 Z M830.609375,350.136719 L825.417969,350.136719 C825.527344,349.308594 825.794922,348.652344 826.220703,348.167969 C826.646484,347.683594 827.246094,347.441406 828.019531,347.441406 C828.730469,347.441406 829.326172,347.669922 829.806641,348.126953 C830.287109,348.583984 830.554688,349.253906 830.609375,350.136719 L830.609375,350.136719 Z M839.457031,358.199219 C840.363281,358.199219 841.175781,357.992188 841.894531,357.578125 C842.496094,357.226562 843.027344,356.800781 843.488281,356.300781 C843.511719,356.589844 843.542969,356.847656 843.582031,357.074219 C843.621094,357.300781 843.691406,357.542969 843.792969,357.800781 L843.792969,357.800781 L847.425781,357.800781 L847.425781,357.308594 C847.207031,357.207031 847.042969,357.078125 846.933594,356.921875 C846.824219,356.765625 846.757812,356.46875 846.734375,356.03125 C846.71875,355.453125 846.710938,354.960938 846.710938,354.554688 L846.710938,354.554688 L846.710938,348.695312 C846.710938,347.15625 846.167969,346.109375 845.082031,345.554688 C843.996094,345 842.753906,344.722656 841.355469,344.722656 C839.207031,344.722656 837.691406,345.285156 836.808594,346.410156 C836.253906,347.128906 835.941406,348.046875 835.871094,349.164062 L835.871094,349.164062 L839.09375,349.164062 C839.171875,348.671875 839.328125,348.28125 839.5625,347.992188 C839.890625,347.601562 840.449219,347.40625 841.238281,347.40625 C841.941406,347.40625 842.474609,347.505859 842.837891,347.705078 C843.201172,347.904297 843.382812,348.265625 843.382812,348.789062 C843.382812,349.21875 843.144531,349.535156 842.667969,349.738281 C842.402344,349.855469 841.960938,349.953125 841.34375,350.03125 L841.34375,350.03125 L840.207031,350.171875 C838.917969,350.335938 837.941406,350.609375 837.277344,350.992188 C836.066406,351.695312 835.460938,352.832031 835.460938,354.402344 C835.460938,355.613281 835.837891,356.548828 836.591797,357.208984 C837.345703,357.869141 838.300781,358.199219 839.457031,358.199219 Z M840.441406,355.773438 C839.988281,355.773438 839.603516,355.646484 839.287109,355.392578 C838.970703,355.138672 838.8125,354.726562 838.8125,354.15625 C838.8125,353.515625 839.070312,353.042969 839.585938,352.738281 C839.890625,352.558594 840.394531,352.40625 841.097656,352.28125 L841.097656,352.28125 L841.847656,352.140625 C842.222656,352.070312 842.517578,351.994141 842.732422,351.912109 C842.947266,351.830078 843.160156,351.722656 843.371094,351.589844 L843.371094,351.589844 L843.371094,352.832031 C843.347656,353.949219 843.033203,354.71875 842.427734,355.140625 C841.822266,355.5625 841.160156,355.773438 840.441406,355.773438 Z M854.9375,358.246094 C856.992188,358.246094 858.542969,357.515625 859.589844,356.054688 C860.246094,355.148438 860.613281,354.1875 860.691406,353.171875 L860.691406,353.171875 L857.28125,353.171875 C857.210938,353.84375 857.011719,354.390625 856.683594,354.8125 C856.355469,355.234375 855.800781,355.445312 855.019531,355.445312 C853.917969,355.445312 853.167969,354.914062 852.769531,353.851562 C852.550781,353.28125 852.441406,352.527344 852.441406,351.589844 C852.441406,350.605469 852.550781,349.816406 852.769531,349.222656 C853.183594,348.105469 853.953125,347.546875 855.078125,347.546875 C855.867188,347.546875 856.449219,347.804688 856.824219,348.320312 C857.082031,348.703125 857.242188,349.132812 857.304688,349.609375 L857.304688,349.609375 L860.726562,349.609375 C860.539062,347.789062 859.935547,346.519531 858.916016,345.800781 C857.896484,345.082031 856.585938,344.722656 854.984375,344.722656 C853.101562,344.722656 851.625,345.332031 850.554688,346.550781 C849.484375,347.769531 848.949219,349.476562 848.949219,351.671875 C848.949219,353.617188 849.433594,355.199219 850.402344,356.417969 C851.371094,357.636719 852.882812,358.246094 854.9375,358.246094 Z M866.375,357.800781 L866.375,350.886719 C866.375,349.792969 866.603516,348.951172 867.060547,348.361328 C867.517578,347.771484 868.1875,347.476562 869.070312,347.476562 C869.921875,347.476562 870.5,347.773438 870.804688,348.367188 C871.039062,348.789062 871.15625,349.34375 871.15625,350.03125 L871.15625,350.03125 L871.15625,357.800781 L874.566406,357.800781 L874.566406,350.300781 C874.566406,349.160156 874.527344,348.337891 874.449219,347.833984 C874.371094,347.330078 874.15625,346.839844 873.804688,346.363281 C873.390625,345.800781 872.861328,345.382812 872.216797,345.109375 C871.572266,344.835938 870.855469,344.699219 870.066406,344.699219 C869.363281,344.699219 868.693359,344.845703 868.056641,345.138672 C867.419922,345.431641 866.859375,345.949219 866.375,346.691406 L866.375,346.691406 L866.375,340.585938 L863.046875,340.585938 L863.046875,357.800781 L866.375,357.800781 Z M881.117188,343.503906 L881.117188,340.421875 L877.730469,340.421875 L877.730469,343.503906 L881.117188,343.503906 Z M881.117188,357.800781 L881.117188,345.027344 L877.730469,345.027344 L877.730469,357.800781 L881.117188,357.800781 Z M887.703125,357.800781 L887.703125,350.886719 C887.703125,350.097656 887.8125,349.449219 888.03125,348.941406 C888.453125,347.980469 889.230469,347.5 890.363281,347.5 C891.285156,347.5 891.910156,347.828125 892.238281,348.484375 C892.417969,348.84375 892.507812,349.359375 892.507812,350.03125 L892.507812,350.03125 L892.507812,357.800781 L895.929688,357.800781 L895.929688,349.199219 C895.929688,347.597656 895.509766,346.451172 894.669922,345.759766 C893.830078,345.068359 892.75,344.722656 891.429688,344.722656 C890.375,344.722656 889.503906,344.980469 888.816406,345.496094 C888.433594,345.785156 888.027344,346.257812 887.597656,346.914062 L887.597656,346.914062 L887.597656,345.050781 L884.375,345.050781 L884.375,357.800781 L887.703125,357.800781 Z M904.238281,363.027344 C906.941406,363.027344 908.769531,362.308594 909.722656,360.871094 C910.277344,360.035156 910.554688,358.792969 910.554688,357.144531 L910.554688,357.144531 L910.554688,345.027344 L907.308594,345.027344 L907.308594,346.867188 C906.808594,345.96875 906.152344,345.351562 905.339844,345.015625 C904.863281,344.820312 904.304688,344.722656 903.664062,344.722656 C901.929688,344.722656 900.589844,345.369141 899.644531,346.662109 C898.699219,347.955078 898.226562,349.550781 898.226562,351.449219 C898.226562,353.417969 898.716797,354.978516 899.697266,356.130859 C900.677734,357.283203 901.988281,357.859375 903.628906,357.859375 C904.691406,357.859375 905.554688,357.605469 906.21875,357.097656 C906.585938,356.824219 906.929688,356.414062 907.25,355.867188 L907.25,355.867188 L907.25,356.6875 C907.25,357.90625 907.117188,358.773438 906.851562,359.289062 C906.445312,360.09375 905.640625,360.496094 904.4375,360.496094 C903.585938,360.496094 902.980469,360.34375 902.621094,360.039062 C902.410156,359.867188 902.257812,359.585938 902.164062,359.195312 L902.164062,359.195312 L898.53125,359.195312 C898.640625,360.46875 899.210938,361.425781 900.242188,362.066406 C901.273438,362.707031 902.605469,363.027344 904.238281,363.027344 Z M904.496094,355.058594 C903.324219,355.058594 902.511719,354.519531 902.058594,353.441406 C901.808594,352.863281 901.683594,352.203125 901.683594,351.460938 C901.683594,350.601562 901.800781,349.878906 902.035156,349.292969 C902.480469,348.191406 903.289062,347.640625 904.460938,347.640625 C905.320312,347.640625 906.005859,347.957031 906.517578,348.589844 C907.029297,349.222656 907.285156,350.144531 907.285156,351.355469 C907.285156,352.644531 907.015625,353.583984 906.476562,354.173828 C905.9375,354.763672 905.277344,355.058594 904.496094,355.058594 Z M928.25,358.28125 C930.71875,358.28125 932.605469,357.609375 933.910156,356.265625 C935.652344,354.617188 936.523438,352.242188 936.523438,349.140625 C936.523438,345.976562 935.652344,343.601562 933.910156,342.015625 C932.605469,340.671875 930.71875,340 928.25,340 C925.78125,340 923.894531,340.671875 922.589844,342.015625 C920.839844,343.601562 919.964844,345.976562 919.964844,349.140625 C919.964844,352.242188 920.839844,354.617188 922.589844,356.265625 C923.894531,357.609375 925.78125,358.28125 928.25,358.28125 Z M928.25,355.222656 C926.820312,355.222656 925.679688,354.695312 924.828125,353.640625 C923.976562,352.585938 923.550781,351.085938 923.550781,349.140625 C923.550781,347.195312 923.976562,345.695312 924.828125,344.640625 C925.679688,343.585938 926.820312,343.058594 928.25,343.058594 C929.679688,343.058594 930.814453,343.587891 931.654297,344.646484 C932.494141,345.705078 932.914062,347.203125 932.914062,349.140625 C932.914062,351.085938 932.494141,352.585938 931.654297,353.640625 C930.814453,354.695312 929.679688,355.222656 928.25,355.222656 Z M943.285156,358.082031 C943.941406,358.082031 944.513672,357.996094 945.001953,357.824219 C945.490234,357.652344 945.996094,357.332031 946.519531,356.863281 C946.691406,356.714844 946.839844,356.542969 946.964844,356.347656 C947.089844,356.152344 947.167969,356.035156 947.199219,355.996094 L947.199219,355.996094 L947.199219,357.800781 L950.445312,357.800781 L950.445312,345.027344 L947.058594,345.027344 L947.058594,351.976562 C947.058594,352.796875 946.949219,353.457031 946.730469,353.957031 C946.308594,354.878906 945.527344,355.339844 944.386719,355.339844 C943.496094,355.339844 942.898438,355.015625 942.59375,354.367188 C942.421875,354 942.335938,353.453125 942.335938,352.726562 L942.335938,352.726562 L942.335938,345.027344 L938.914062,345.027344 L938.914062,352.726562 C938.914062,354.1875 939.097656,355.292969 939.464844,356.042969 C940.121094,357.402344 941.394531,358.082031 943.285156,358.082031 Z M957.643555,357.982971 L957.933594,357.976562 L959.515625,357.917969 L959.515625,355.421875 C959.40625,355.429688 959.294922,355.435547 959.181641,355.439453 C959.068359,355.443359 958.960938,355.445312 958.859375,355.445312 C958.179688,355.445312 957.773438,355.380859 957.640625,355.251953 C957.507812,355.123047 957.441406,354.796875 957.441406,354.273438 L957.441406,354.273438 L957.441406,347.523438 L959.515625,347.523438 L959.515625,345.144531 L957.441406,345.144531 L957.441406,341.582031 L954.136719,341.582031 L954.136719,345.144531 L952.355469,345.144531 L952.355469,347.523438 L954.136719,347.523438 L954.136719,355.386719 C954.136719,356.183594 954.324219,356.773438 954.699219,357.15625 C955.277344,357.757812 956.355469,358.03125 957.933594,357.976562 L957.643555,357.982971 Z" id="ReachingOut" fill="#9E9E9E" fill-rule="nonzero"></path>
    </g>
</svg>