<?xml version="1.0" encoding="UTF-8"?>
<svg width="762px" height="416px" viewBox="0 0 762 416" version="1.1" xmlns="http://www.w3.org/2000/svg" xmlns:xlink="http://www.w3.org/1999/xlink">
    <title>inputs-example</title>
    <defs>
        <rect id="path-1" x="0" y="0" width="512" height="64" rx="8"></rect>
        <filter x="-4.9%" y="-39.1%" width="109.8%" height="178.1%" filterUnits="objectBoundingBox" id="filter-2">
            <feMorphology radius="1" operator="dilate" in="SourceAlpha" result="shadowSpreadOuter1"></feMorphology>
            <feOffset dx="0" dy="0" in="shadowSpreadOuter1" result="shadowOffsetOuter1"></feOffset>
            <feGaussianBlur stdDeviation="8" in="shadowOffsetOuter1" result="shadowBlurOuter1"></feGaussianBlur>
            <feComposite in="shadowBlurOuter1" in2="SourceAlpha" operator="out" result="shadowBlurOuter1"></feComposite>
            <feColorMatrix values="0 0 0 0 0.458823529   0 0 0 0 0.474509804   0 0 0 0 0.905882353  0 0 0 1 0" type="matrix" in="shadowBlurOuter1"></feColorMatrix>
        </filter>
    </defs>
    <g id="inputs-example" stroke="none" stroke-width="1" fill="none" fill-rule="evenodd">
        <g id="Group-Copy" transform="translate(32.000000, 32.000000)" fill="#9E9E9E">
            <rect id="Rectangle" stroke-opacity="0.35" stroke="#9E9E9E" stroke-width="2" fill-opacity="0.15" x="0" y="0" width="512" height="64" rx="8"></rect>
            <text id="type-something-…" font-family="Menlo-Bold, Menlo" font-size="32" font-weight="bold" fill-opacity="0.35">
                <tspan x="16.5" y="43">type something …</tspan>
            </text>
        </g>
        <g id="Group-Copy-2" transform="translate(32.000000, 128.000000)" fill="#9E9E9E">
            <rect id="Rectangle" stroke="#9E9E9E" stroke-width="2" fill-opacity="0.15" x="0" y="0" width="512" height="64" rx="8"></rect>
            <text id="type-something-…" font-family="Menlo-Bold, Menlo" font-size="32" font-weight="bold" fill-opacity="0.35">
                <tspan x="16.5" y="43">type something …</tspan>
            </text>
        </g>
        <path d="M583.242188,167.222656 C585.445312,167.222656 587.150391,166.701172 588.357422,165.658203 C589.564453,164.615234 590.167969,163.304688 590.167969,161.726562 C590.167969,160.1875 589.652344,159.011719 588.621094,158.199219 C587.957031,157.675781 586.972656,157.257812 585.667969,156.945312 L585.667969,156.945312 L582.691406,156.230469 C581.542969,155.957031 580.792969,155.71875 580.441406,155.515625 C579.894531,155.210938 579.621094,154.75 579.621094,154.132812 C579.621094,153.460938 579.898438,152.9375 580.453125,152.5625 C581.007812,152.1875 581.75,152 582.679688,152 C583.515625,152 584.214844,152.144531 584.777344,152.433594 C585.621094,152.871094 586.074219,153.609375 586.136719,154.648438 L586.136719,154.648438 L589.605469,154.648438 C589.542969,152.8125 588.869141,151.412109 587.583984,150.447266 C586.298828,149.482422 584.746094,149 582.925781,149 C580.746094,149 579.09375,149.511719 577.96875,150.535156 C576.84375,151.558594 576.28125,152.84375 576.28125,154.390625 C576.28125,156.085938 576.863281,157.332031 578.027344,158.128906 C578.714844,158.605469 579.957031,159.046875 581.753906,159.453125 L581.753906,159.453125 L583.582031,159.863281 C584.652344,160.097656 585.4375,160.367188 585.9375,160.671875 C586.4375,160.984375 586.6875,161.425781 586.6875,161.996094 C586.6875,162.972656 586.183594,163.640625 585.175781,164 C584.644531,164.1875 583.953125,164.28125 583.101562,164.28125 C581.679688,164.28125 580.675781,163.925781 580.089844,163.214844 C579.769531,162.824219 579.554688,162.234375 579.445312,161.445312 L579.445312,161.445312 L576,161.445312 C576,163.242188 576.644531,164.654297 577.933594,165.681641 C579.222656,166.708984 580.992188,167.222656 583.242188,167.222656 Z M596.545898,166.959534 L596.835938,166.953125 L598.417969,166.894531 L598.417969,164.398438 C598.308594,164.40625 598.197266,164.412109 598.083984,164.416016 C597.970703,164.419922 597.863281,164.421875 597.761719,164.421875 C597.082031,164.421875 596.675781,164.357422 596.542969,164.228516 C596.410156,164.099609 596.34375,163.773438 596.34375,163.25 L596.34375,163.25 L596.34375,156.5 L598.417969,156.5 L598.417969,154.121094 L596.34375,154.121094 L596.34375,150.558594 L593.039062,150.558594 L593.039062,154.121094 L591.257812,154.121094 L591.257812,156.5 L593.039062,156.5 L593.039062,164.363281 C593.039062,165.160156 593.226562,165.75 593.601562,166.132812 C594.179688,166.734375 595.257812,167.007812 596.835938,166.953125 L596.545898,166.959534 Z M603.691406,167.175781 C604.597656,167.175781 605.410156,166.96875 606.128906,166.554688 C606.730469,166.203125 607.261719,165.777344 607.722656,165.277344 C607.746094,165.566406 607.777344,165.824219 607.816406,166.050781 C607.855469,166.277344 607.925781,166.519531 608.027344,166.777344 L608.027344,166.777344 L611.660156,166.777344 L611.660156,166.285156 C611.441406,166.183594 611.277344,166.054688 611.167969,165.898438 C611.058594,165.742188 610.992188,165.445312 610.96875,165.007812 C610.953125,164.429688 610.945312,163.9375 610.945312,163.53125 L610.945312,163.53125 L610.945312,157.671875 C610.945312,156.132812 610.402344,155.085938 609.316406,154.53125 C608.230469,153.976562 606.988281,153.699219 605.589844,153.699219 C603.441406,153.699219 601.925781,154.261719 601.042969,155.386719 C600.488281,156.105469 600.175781,157.023438 600.105469,158.140625 L600.105469,158.140625 L603.328125,158.140625 C603.40625,157.648438 603.5625,157.257812 603.796875,156.96875 C604.125,156.578125 604.683594,156.382812 605.472656,156.382812 C606.175781,156.382812 606.708984,156.482422 607.072266,156.681641 C607.435547,156.880859 607.617188,157.242188 607.617188,157.765625 C607.617188,158.195312 607.378906,158.511719 606.902344,158.714844 C606.636719,158.832031 606.195312,158.929688 605.578125,159.007812 L605.578125,159.007812 L604.441406,159.148438 C603.152344,159.3125 602.175781,159.585938 601.511719,159.96875 C600.300781,160.671875 599.695312,161.808594 599.695312,163.378906 C599.695312,164.589844 600.072266,165.525391 600.826172,166.185547 C601.580078,166.845703 602.535156,167.175781 603.691406,167.175781 Z M604.675781,164.75 C604.222656,164.75 603.837891,164.623047 603.521484,164.369141 C603.205078,164.115234 603.046875,163.703125 603.046875,163.132812 C603.046875,162.492188 603.304688,162.019531 603.820312,161.714844 C604.125,161.535156 604.628906,161.382812 605.332031,161.257812 L605.332031,161.257812 L606.082031,161.117188 C606.457031,161.046875 606.751953,160.970703 606.966797,160.888672 C607.181641,160.806641 607.394531,160.699219 607.605469,160.566406 L607.605469,160.566406 L607.605469,161.808594 C607.582031,162.925781 607.267578,163.695312 606.662109,164.117188 C606.056641,164.539062 605.394531,164.75 604.675781,164.75 Z M617.261719,166.777344 L617.261719,159.863281 C617.261719,159.074219 617.371094,158.425781 617.589844,157.917969 C618.011719,156.957031 618.789062,156.476562 619.921875,156.476562 C620.84375,156.476562 621.46875,156.804688 621.796875,157.460938 C621.976562,157.820312 622.066406,158.335938 622.066406,159.007812 L622.066406,159.007812 L622.066406,166.777344 L625.488281,166.777344 L625.488281,158.175781 C625.488281,156.574219 625.068359,155.427734 624.228516,154.736328 C623.388672,154.044922 622.308594,153.699219 620.988281,153.699219 C619.933594,153.699219 619.0625,153.957031 618.375,154.472656 C617.992188,154.761719 617.585938,155.234375 617.15625,155.890625 L617.15625,155.890625 L617.15625,154.027344 L613.933594,154.027344 L613.933594,166.777344 L617.261719,166.777344 Z M633.046875,167.175781 C633.953125,167.175781 634.710938,167.003906 635.320312,166.660156 C635.929688,166.316406 636.472656,165.765625 636.949219,165.007812 L636.949219,165.007812 L636.949219,166.777344 L640.195312,166.777344 L640.195312,149.527344 L636.808594,149.527344 L636.808594,155.621094 C636.433594,155.019531 635.945312,154.548828 635.34375,154.208984 C634.742188,153.869141 634.054688,153.699219 633.28125,153.699219 C631.601562,153.699219 630.259766,154.324219 629.255859,155.574219 C628.251953,156.824219 627.75,158.539062 627.75,160.71875 C627.75,162.609375 628.259766,164.158203 629.279297,165.365234 C630.298828,166.572266 631.554688,167.175781 633.046875,167.175781 Z M634.007812,164.363281 C633.0625,164.363281 632.357422,164.009766 631.892578,163.302734 C631.427734,162.595703 631.195312,161.652344 631.195312,160.472656 C631.195312,159.378906 631.423828,158.462891 631.880859,157.724609 C632.337891,156.986328 633.054688,156.617188 634.03125,156.617188 C634.671875,156.617188 635.234375,156.820312 635.71875,157.226562 C636.507812,157.898438 636.902344,159.015625 636.902344,160.578125 C636.902344,161.695312 636.65625,162.605469 636.164062,163.308594 C635.671875,164.011719 634.953125,164.363281 634.007812,164.363281 Z M650.167969,167.117188 C651.847656,167.117188 653.15625,166.464844 654.09375,165.160156 C655.03125,163.855469 655.5,162.210938 655.5,160.226562 C655.5,158.3125 655.025391,156.75 654.076172,155.539062 C653.126953,154.328125 651.8125,153.722656 650.132812,153.722656 C649.203125,153.722656 648.4375,153.917969 647.835938,154.308594 C647.328125,154.621094 646.863281,155.074219 646.441406,155.667969 L646.441406,155.667969 L646.441406,149.527344 L643.113281,149.527344 L643.113281,166.777344 L646.382812,166.777344 L646.382812,165.171875 C646.828125,165.796875 647.242188,166.234375 647.625,166.484375 C648.265625,166.90625 649.113281,167.117188 650.167969,167.117188 Z M649.277344,164.363281 C648.285156,164.363281 647.546875,164.003906 647.0625,163.285156 C646.578125,162.566406 646.335938,161.660156 646.335938,160.566406 C646.335938,159.636719 646.453125,158.878906 646.6875,158.292969 C647.140625,157.191406 647.972656,156.640625 649.183594,156.640625 C650.378906,156.640625 651.199219,157.203125 651.644531,158.328125 C651.878906,158.921875 651.996094,159.671875 651.996094,160.578125 C651.996094,161.710938 651.757812,162.625 651.28125,163.320312 C650.804688,164.015625 650.136719,164.363281 649.277344,164.363281 Z M659.929688,171.945312 C661.40625,171.945312 662.390625,171.654297 662.882812,171.072266 C663.375,170.490234 664.042969,168.988281 664.886719,166.566406 L664.886719,166.566406 L669.269531,154.003906 L665.71875,154.003906 L663.082031,163.425781 L660.292969,154.003906 L656.578125,154.003906 L661.265625,167.339844 C661.296875,167.433594 661.228516,167.691406 661.060547,168.113281 C660.892578,168.535156 660.710938,168.8125 660.515625,168.945312 C660.3125,169.085938 660.0625,169.175781 659.765625,169.214844 C659.46875,169.253906 659.15625,169.265625 658.828125,169.25 L658.828125,169.25 L658.40625,169.226562 L658.40625,171.898438 C658.765625,171.921875 659.035156,171.935547 659.214844,171.939453 C659.322656,171.941797 659.451563,171.943438 659.601562,171.944375 L659.929688,171.945312 Z" id="Standby" fill="#9E9E9E" fill-rule="nonzero"></path>
        <g id="Group-Copy-3" transform="translate(32.000000, 224.000000)" fill="#9E9E9E">
            <rect id="Rectangle" stroke="#7579E7" stroke-width="2" fill-opacity="0.15" x="0" y="0" width="512" height="64" rx="8"></rect>
            <text id="type-something-…" font-family="Menlo-Bold, Menlo" font-size="32" font-weight="bold" fill-opacity="0.35">
                <tspan x="16.5" y="43">type something …</tspan>
            </text>
        </g>
        <g id="Group-Copy-4" transform="translate(32.000000, 320.000000)">
            <g id="Rectangle">
                <use fill="black" fill-opacity="1" filter="url(#filter-2)" xlink:href="#path-1"></use>
                <use stroke="#7579E7" stroke-width="2" fill-opacity="0.15" fill="#9E9E9E" fill-rule="evenodd" xlink:href="#path-1"></use>
            </g>
            <text id="type-something-…" font-family="Menlo-Bold, Menlo" font-size="32" font-weight="bold" fill="#9E9E9E" fill-opacity="0.35">
                <tspan x="16.5" y="43">type something …</tspan>
            </text>
        </g>
        <path d="M583.441406,72.3789062 C586.050781,72.3789062 587.980469,71.3046875 589.230469,69.15625 C590.152344,67.5625 590.613281,65.6171875 590.613281,63.3203125 C590.613281,62.4140625 590.503906,61.4609375 590.285156,60.4609375 C590.066406,59.4609375 589.65625,58.53125 589.054688,57.671875 C588.304688,56.609375 587.324219,55.8789062 586.113281,55.4804688 C585.402344,55.2460938 584.511719,55.1210938 583.441406,55.1054688 L583.441406,55.1054688 L576,55.1054688 L576,72.3789062 L583.441406,72.3789062 Z M582.832031,69.3789062 L579.503906,69.3789062 L579.503906,58.1054688 L582.832031,58.1054688 C584.472656,58.1054688 585.568359,58.5761719 586.119141,59.5175781 C586.669922,60.4589844 586.945312,61.8085938 586.945312,63.5664062 C586.945312,64.8398438 586.761719,65.9375 586.394531,66.859375 C585.722656,68.5390625 584.535156,69.3789062 582.832031,69.3789062 L582.832031,69.3789062 Z M596.496094,58.0820312 L596.496094,55 L593.109375,55 L593.109375,58.0820312 L596.496094,58.0820312 Z M596.496094,72.3789062 L596.496094,59.6054688 L593.109375,59.6054688 L593.109375,72.3789062 L596.496094,72.3789062 Z M604.828125,72.8125 C606.796875,72.8125 608.251953,72.4121094 609.193359,71.6113281 C610.134766,70.8105469 610.605469,69.7773438 610.605469,68.5117188 C610.605469,67.5507812 610.277344,66.75 609.621094,66.109375 C608.957031,65.4765625 607.960938,65.0039062 606.632812,64.6914062 C604.640625,64.2539062 603.480469,63.9453125 603.152344,63.765625 C602.824219,63.59375 602.660156,63.3164062 602.660156,62.9335938 C602.660156,62.6289062 602.814453,62.3632812 603.123047,62.1367188 C603.431641,61.9101562 603.949219,61.796875 604.675781,61.796875 C605.558594,61.796875 606.183594,62.0234375 606.550781,62.4765625 C606.746094,62.7265625 606.867188,63.0664062 606.914062,63.4960938 L606.914062,63.4960938 L610.253906,63.4960938 C610.105469,61.9335938 609.529297,60.8339844 608.525391,60.1972656 C607.521484,59.5605469 606.222656,59.2421875 604.628906,59.2421875 C602.949219,59.2421875 601.646484,59.6660156 600.720703,60.5136719 C599.794922,61.3613281 599.332031,62.375 599.332031,63.5546875 C599.332031,64.5546875 599.628906,65.3203125 600.222656,65.8515625 C600.816406,66.390625 601.835938,66.8398438 603.28125,67.1992188 C605.289062,67.6757812 606.449219,68.0117188 606.761719,68.2070312 C607.074219,68.4023438 607.230469,68.6875 607.230469,69.0625 C607.230469,69.453125 607.037109,69.7460938 606.650391,69.9414062 C606.263672,70.1367188 605.742188,70.234375 605.085938,70.234375 C603.96875,70.234375 603.203125,70.0117188 602.789062,69.5664062 C602.554688,69.3164062 602.402344,68.8945312 602.332031,68.3007812 L602.332031,68.3007812 L598.945312,68.3007812 C598.945312,69.6132812 599.423828,70.6933594 600.380859,71.5410156 C601.337891,72.3886719 602.820312,72.8125 604.828125,72.8125 Z M616.207031,72.7773438 C617.113281,72.7773438 617.925781,72.5703125 618.644531,72.15625 C619.246094,71.8046875 619.777344,71.3789062 620.238281,70.8789062 C620.261719,71.1679688 620.292969,71.4257812 620.332031,71.6523438 C620.371094,71.8789062 620.441406,72.1210938 620.542969,72.3789062 L620.542969,72.3789062 L624.175781,72.3789062 L624.175781,71.8867188 C623.957031,71.7851562 623.792969,71.65625 623.683594,71.5 C623.574219,71.34375 623.507812,71.046875 623.484375,70.609375 C623.46875,70.03125 623.460938,69.5390625 623.460938,69.1328125 L623.460938,69.1328125 L623.460938,63.2734375 C623.460938,61.734375 622.917969,60.6875 621.832031,60.1328125 C620.746094,59.578125 619.503906,59.3007812 618.105469,59.3007812 C615.957031,59.3007812 614.441406,59.8632812 613.558594,60.9882812 C613.003906,61.7070312 612.691406,62.625 612.621094,63.7421875 L612.621094,63.7421875 L615.84375,63.7421875 C615.921875,63.25 616.078125,62.859375 616.3125,62.5703125 C616.640625,62.1796875 617.199219,61.984375 617.988281,61.984375 C618.691406,61.984375 619.224609,62.0839844 619.587891,62.2832031 C619.951172,62.4824219 620.132812,62.84375 620.132812,63.3671875 C620.132812,63.796875 619.894531,64.1132812 619.417969,64.3164062 C619.152344,64.4335938 618.710938,64.53125 618.09375,64.609375 L618.09375,64.609375 L616.957031,64.75 C615.667969,64.9140625 614.691406,65.1875 614.027344,65.5703125 C612.816406,66.2734375 612.210938,67.4101562 612.210938,68.9804688 C612.210938,70.1914062 612.587891,71.1269531 613.341797,71.7871094 C614.095703,72.4472656 615.050781,72.7773438 616.207031,72.7773438 Z M617.191406,70.3515625 C616.738281,70.3515625 616.353516,70.2246094 616.037109,69.9707031 C615.720703,69.7167969 615.5625,69.3046875 615.5625,68.734375 C615.5625,68.09375 615.820312,67.6210938 616.335938,67.3164062 C616.640625,67.1367188 617.144531,66.984375 617.847656,66.859375 L617.847656,66.859375 L618.597656,66.71875 C618.972656,66.6484375 619.267578,66.5722656 619.482422,66.4902344 C619.697266,66.4082031 619.910156,66.3007812 620.121094,66.1679688 L620.121094,66.1679688 L620.121094,67.4101562 C620.097656,68.5273438 619.783203,69.296875 619.177734,69.71875 C618.572266,70.140625 617.910156,70.3515625 617.191406,70.3515625 Z M633.363281,72.71875 C635.042969,72.71875 636.351562,72.0664062 637.289062,70.7617188 C638.226562,69.4570312 638.695312,67.8125 638.695312,65.828125 C638.695312,63.9140625 638.220703,62.3515625 637.271484,61.140625 C636.322266,59.9296875 635.007812,59.3242188 633.328125,59.3242188 C632.398438,59.3242188 631.632812,59.5195312 631.03125,59.9101562 C630.523438,60.2226562 630.058594,60.6757812 629.636719,61.2695312 L629.636719,61.2695312 L629.636719,55.1289062 L626.308594,55.1289062 L626.308594,72.3789062 L629.578125,72.3789062 L629.578125,70.7734375 C630.023438,71.3984375 630.4375,71.8359375 630.820312,72.0859375 C631.460938,72.5078125 632.308594,72.71875 633.363281,72.71875 Z M632.472656,69.9648438 C631.480469,69.9648438 630.742188,69.6054688 630.257812,68.8867188 C629.773438,68.1679688 629.53125,67.2617188 629.53125,66.1679688 C629.53125,65.2382812 629.648438,64.4804688 629.882812,63.8945312 C630.335938,62.7929688 631.167969,62.2421875 632.378906,62.2421875 C633.574219,62.2421875 634.394531,62.8046875 634.839844,63.9296875 C635.074219,64.5234375 635.191406,65.2734375 635.191406,66.1796875 C635.191406,67.3125 634.953125,68.2265625 634.476562,68.921875 C634,69.6171875 633.332031,69.9648438 632.472656,69.9648438 Z M644.496094,72.3789062 L644.496094,55.1054688 L641.15625,55.1054688 L641.15625,72.3789062 L644.496094,72.3789062 Z M652.910156,72.8007812 C654.878906,72.8007812 656.410156,72.1796875 657.503906,70.9375 C658.207031,70.15625 658.601562,69.3867188 658.6875,68.6289062 L658.6875,68.6289062 L655.277344,68.6289062 C655.097656,69.0039062 654.890625,69.296875 654.65625,69.5078125 C654.226562,69.8984375 653.667969,70.09375 652.980469,70.09375 C652.332031,70.09375 651.777344,69.9335938 651.316406,69.6132812 C650.558594,69.0976562 650.15625,68.1992188 650.109375,66.9179688 L650.109375,66.9179688 L658.851562,66.9179688 C658.867188,65.8164062 658.832031,64.9726562 658.746094,64.3867188 C658.597656,63.3867188 658.273438,62.5078125 657.773438,61.75 C657.21875,60.890625 656.515625,60.2617188 655.664062,59.8632812 C654.8125,59.4648438 653.855469,59.265625 652.792969,59.265625 C651.003906,59.265625 649.548828,59.8554688 648.427734,61.0351562 C647.306641,62.2148438 646.746094,63.9101562 646.746094,66.1210938 C646.746094,68.4804688 647.367188,70.1835938 648.609375,71.2304688 C649.851562,72.2773438 651.285156,72.8007812 652.910156,72.8007812 Z M655.382812,64.7148438 L650.191406,64.7148438 C650.300781,63.8867188 650.568359,63.2304688 650.994141,62.7460938 C651.419922,62.2617188 652.019531,62.0195312 652.792969,62.0195312 C653.503906,62.0195312 654.099609,62.2480469 654.580078,62.7050781 C655.060547,63.1621094 655.328125,63.8320312 655.382812,64.7148438 L655.382812,64.7148438 Z M665.578125,72.7773438 C666.484375,72.7773438 667.242188,72.6054688 667.851562,72.2617188 C668.460938,71.9179688 669.003906,71.3671875 669.480469,70.609375 L669.480469,70.609375 L669.480469,72.3789062 L672.726562,72.3789062 L672.726562,55.1289062 L669.339844,55.1289062 L669.339844,61.2226562 C668.964844,60.6210938 668.476562,60.1503906 667.875,59.8105469 C667.273438,59.4707031 666.585938,59.3007812 665.8125,59.3007812 C664.132812,59.3007812 662.791016,59.9257812 661.787109,61.1757812 C660.783203,62.4257812 660.28125,64.140625 660.28125,66.3203125 C660.28125,68.2109375 660.791016,69.7597656 661.810547,70.9667969 C662.830078,72.1738281 664.085938,72.7773438 665.578125,72.7773438 Z M666.539062,69.9648438 C665.59375,69.9648438 664.888672,69.6113281 664.423828,68.9042969 C663.958984,68.1972656 663.726562,67.2539062 663.726562,66.0742188 C663.726562,64.9804688 663.955078,64.0644531 664.412109,63.3261719 C664.869141,62.5878906 665.585938,62.21875 666.5625,62.21875 C667.203125,62.21875 667.765625,62.421875 668.25,62.828125 C669.039062,63.5 669.433594,64.6171875 669.433594,66.1796875 C669.433594,67.296875 669.1875,68.2070312 668.695312,68.9101562 C668.203125,69.6132812 667.484375,69.9648438 666.539062,69.9648438 Z" id="Disabled" fill="#9E9E9E" fill-rule="nonzero"></path>
        <path d="M579.585938,255.378906 L579.585938,238.105469 L576,238.105469 L576,255.378906 L579.585938,255.378906 Z M586.03125,255.378906 L586.03125,248.464844 C586.03125,247.675781 586.140625,247.027344 586.359375,246.519531 C586.78125,245.558594 587.558594,245.078125 588.691406,245.078125 C589.613281,245.078125 590.238281,245.40625 590.566406,246.0625 C590.746094,246.421875 590.835938,246.9375 590.835938,247.609375 L590.835938,247.609375 L590.835938,255.378906 L594.257812,255.378906 L594.257812,246.777344 C594.257812,245.175781 593.837891,244.029297 592.998047,243.337891 C592.158203,242.646484 591.078125,242.300781 589.757812,242.300781 C588.703125,242.300781 587.832031,242.558594 587.144531,243.074219 C586.761719,243.363281 586.355469,243.835938 585.925781,244.492188 L585.925781,244.492188 L585.925781,242.628906 L582.703125,242.628906 L582.703125,255.378906 L586.03125,255.378906 Z M601.31543,255.561096 L601.605469,255.554688 L603.1875,255.496094 L603.1875,253 C603.078125,253.007812 602.966797,253.013672 602.853516,253.017578 C602.740234,253.021484 602.632812,253.023438 602.53125,253.023438 C601.851562,253.023438 601.445312,252.958984 601.3125,252.830078 C601.179688,252.701172 601.113281,252.375 601.113281,251.851562 L601.113281,251.851562 L601.113281,245.101562 L603.1875,245.101562 L603.1875,242.722656 L601.113281,242.722656 L601.113281,239.160156 L597.808594,239.160156 L597.808594,242.722656 L596.027344,242.722656 L596.027344,245.101562 L597.808594,245.101562 L597.808594,252.964844 C597.808594,253.761719 597.996094,254.351562 598.371094,254.734375 C598.949219,255.335938 600.027344,255.609375 601.605469,255.554688 L601.31543,255.561096 Z M610.488281,255.800781 C612.457031,255.800781 613.988281,255.179688 615.082031,253.9375 C615.785156,253.15625 616.179688,252.386719 616.265625,251.628906 L616.265625,251.628906 L612.855469,251.628906 C612.675781,252.003906 612.46875,252.296875 612.234375,252.507812 C611.804688,252.898438 611.246094,253.09375 610.558594,253.09375 C609.910156,253.09375 609.355469,252.933594 608.894531,252.613281 C608.136719,252.097656 607.734375,251.199219 607.6875,249.917969 L607.6875,249.917969 L616.429688,249.917969 C616.445312,248.816406 616.410156,247.972656 616.324219,247.386719 C616.175781,246.386719 615.851562,245.507812 615.351562,244.75 C614.796875,243.890625 614.09375,243.261719 613.242188,242.863281 C612.390625,242.464844 611.433594,242.265625 610.371094,242.265625 C608.582031,242.265625 607.126953,242.855469 606.005859,244.035156 C604.884766,245.214844 604.324219,246.910156 604.324219,249.121094 C604.324219,251.480469 604.945312,253.183594 606.1875,254.230469 C607.429688,255.277344 608.863281,255.800781 610.488281,255.800781 Z M612.960938,247.714844 L607.769531,247.714844 C607.878906,246.886719 608.146484,246.230469 608.572266,245.746094 C608.998047,245.261719 609.597656,245.019531 610.371094,245.019531 C611.082031,245.019531 611.677734,245.248047 612.158203,245.705078 C612.638672,246.162109 612.90625,246.832031 612.960938,247.714844 L612.960938,247.714844 Z M622.007812,255.378906 L622.007812,249.273438 C622.007812,248.25 622.136719,247.492188 622.394531,247 C622.855469,246.125 623.757812,245.6875 625.101562,245.6875 C625.203125,245.6875 625.335938,245.691406 625.5,245.699219 C625.664062,245.707031 625.851562,245.722656 626.0625,245.746094 L626.0625,245.746094 L626.0625,242.324219 C625.914062,242.316406 625.818359,242.310547 625.775391,242.306641 C625.732422,242.302734 625.679688,242.300781 625.617188,242.300781 C624.617188,242.300781 623.804688,242.5625 623.179688,243.085938 C622.796875,243.398438 622.347656,243.980469 621.832031,244.832031 L621.832031,244.832031 L621.832031,242.605469 L618.644531,242.605469 L618.644531,255.378906 L622.007812,255.378906 Z M631.148438,255.777344 C632.054688,255.777344 632.867188,255.570312 633.585938,255.15625 C634.1875,254.804688 634.71875,254.378906 635.179688,253.878906 C635.203125,254.167969 635.234375,254.425781 635.273438,254.652344 C635.3125,254.878906 635.382812,255.121094 635.484375,255.378906 L635.484375,255.378906 L639.117188,255.378906 L639.117188,254.886719 C638.898438,254.785156 638.734375,254.65625 638.625,254.5 C638.515625,254.34375 638.449219,254.046875 638.425781,253.609375 C638.410156,253.03125 638.402344,252.539062 638.402344,252.132812 L638.402344,252.132812 L638.402344,246.273438 C638.402344,244.734375 637.859375,243.6875 636.773438,243.132812 C635.6875,242.578125 634.445312,242.300781 633.046875,242.300781 C630.898438,242.300781 629.382812,242.863281 628.5,243.988281 C627.945312,244.707031 627.632812,245.625 627.5625,246.742188 L627.5625,246.742188 L630.785156,246.742188 C630.863281,246.25 631.019531,245.859375 631.253906,245.570312 C631.582031,245.179688 632.140625,244.984375 632.929688,244.984375 C633.632812,244.984375 634.166016,245.083984 634.529297,245.283203 C634.892578,245.482422 635.074219,245.84375 635.074219,246.367188 C635.074219,246.796875 634.835938,247.113281 634.359375,247.316406 C634.09375,247.433594 633.652344,247.53125 633.035156,247.609375 L633.035156,247.609375 L631.898438,247.75 C630.609375,247.914062 629.632812,248.1875 628.96875,248.570312 C627.757812,249.273438 627.152344,250.410156 627.152344,251.980469 C627.152344,253.191406 627.529297,254.126953 628.283203,254.787109 C629.037109,255.447266 629.992188,255.777344 631.148438,255.777344 Z M632.132812,253.351562 C631.679688,253.351562 631.294922,253.224609 630.978516,252.970703 C630.662109,252.716797 630.503906,252.304688 630.503906,251.734375 C630.503906,251.09375 630.761719,250.621094 631.277344,250.316406 C631.582031,250.136719 632.085938,249.984375 632.789062,249.859375 L632.789062,249.859375 L633.539062,249.71875 C633.914062,249.648438 634.208984,249.572266 634.423828,249.490234 C634.638672,249.408203 634.851562,249.300781 635.0625,249.167969 L635.0625,249.167969 L635.0625,250.410156 C635.039062,251.527344 634.724609,252.296875 634.119141,252.71875 C633.513672,253.140625 632.851562,253.351562 632.132812,253.351562 Z M646.628906,255.824219 C648.683594,255.824219 650.234375,255.09375 651.28125,253.632812 C651.9375,252.726562 652.304688,251.765625 652.382812,250.75 L652.382812,250.75 L648.972656,250.75 C648.902344,251.421875 648.703125,251.96875 648.375,252.390625 C648.046875,252.8125 647.492188,253.023438 646.710938,253.023438 C645.609375,253.023438 644.859375,252.492188 644.460938,251.429688 C644.242188,250.859375 644.132812,250.105469 644.132812,249.167969 C644.132812,248.183594 644.242188,247.394531 644.460938,246.800781 C644.875,245.683594 645.644531,245.125 646.769531,245.125 C647.558594,245.125 648.140625,245.382812 648.515625,245.898438 C648.773438,246.28125 648.933594,246.710938 648.996094,247.1875 L648.996094,247.1875 L652.417969,247.1875 C652.230469,245.367188 651.626953,244.097656 650.607422,243.378906 C649.587891,242.660156 648.277344,242.300781 646.675781,242.300781 C644.792969,242.300781 643.316406,242.910156 642.246094,244.128906 C641.175781,245.347656 640.640625,247.054688 640.640625,249.25 C640.640625,251.195312 641.125,252.777344 642.09375,253.996094 C643.0625,255.214844 644.574219,255.824219 646.628906,255.824219 Z M658.69043,255.561096 L658.980469,255.554688 L660.5625,255.496094 L660.5625,253 C660.453125,253.007812 660.341797,253.013672 660.228516,253.017578 C660.115234,253.021484 660.007812,253.023438 659.90625,253.023438 C659.226562,253.023438 658.820312,252.958984 658.6875,252.830078 C658.554688,252.701172 658.488281,252.375 658.488281,251.851562 L658.488281,251.851562 L658.488281,245.101562 L660.5625,245.101562 L660.5625,242.722656 L658.488281,242.722656 L658.488281,239.160156 L655.183594,239.160156 L655.183594,242.722656 L653.402344,242.722656 L653.402344,245.101562 L655.183594,245.101562 L655.183594,252.964844 C655.183594,253.761719 655.371094,254.351562 655.746094,254.734375 C656.324219,255.335938 657.402344,255.609375 658.980469,255.554688 L658.69043,255.561096 Z M666.140625,241.082031 L666.140625,238 L662.753906,238 L662.753906,241.082031 L666.140625,241.082031 Z M666.140625,255.378906 L666.140625,242.605469 L662.753906,242.605469 L662.753906,255.378906 L666.140625,255.378906 Z M676.230469,255.378906 L680.835938,242.605469 L677.25,242.605469 L674.53125,252.027344 L671.871094,242.605469 L668.121094,242.605469 L672.703125,255.378906 L676.230469,255.378906 Z M687.878906,255.800781 C689.847656,255.800781 691.378906,255.179688 692.472656,253.9375 C693.175781,253.15625 693.570312,252.386719 693.65625,251.628906 L693.65625,251.628906 L690.246094,251.628906 C690.066406,252.003906 689.859375,252.296875 689.625,252.507812 C689.195312,252.898438 688.636719,253.09375 687.949219,253.09375 C687.300781,253.09375 686.746094,252.933594 686.285156,252.613281 C685.527344,252.097656 685.125,251.199219 685.078125,249.917969 L685.078125,249.917969 L693.820312,249.917969 C693.835938,248.816406 693.800781,247.972656 693.714844,247.386719 C693.566406,246.386719 693.242188,245.507812 692.742188,244.75 C692.1875,243.890625 691.484375,243.261719 690.632812,242.863281 C689.78125,242.464844 688.824219,242.265625 687.761719,242.265625 C685.972656,242.265625 684.517578,242.855469 683.396484,244.035156 C682.275391,245.214844 681.714844,246.910156 681.714844,249.121094 C681.714844,251.480469 682.335938,253.183594 683.578125,254.230469 C684.820312,255.277344 686.253906,255.800781 687.878906,255.800781 Z M690.351562,247.714844 L685.160156,247.714844 C685.269531,246.886719 685.537109,246.230469 685.962891,245.746094 C686.388672,245.261719 686.988281,245.019531 687.761719,245.019531 C688.472656,245.019531 689.068359,245.248047 689.548828,245.705078 C690.029297,246.162109 690.296875,246.832031 690.351562,247.714844 L690.351562,247.714844 Z" id="Interactive" fill="#9E9E9E" fill-rule="nonzero"></path>
        <path d="M579.527344,357.800781 L579.527344,351.027344 L583.253906,351.027344 C584.316406,351.027344 585.041016,351.210938 585.427734,351.578125 C585.814453,351.945312 586.015625,352.679688 586.03125,353.78125 L586.03125,353.78125 L586.054688,355.386719 C586.0625,355.894531 586.113281,356.390625 586.207031,356.875 C586.253906,357.109375 586.332031,357.417969 586.441406,357.800781 L586.441406,357.800781 L590.414062,357.800781 L590.414062,357.367188 C590.070312,357.15625 589.851562,356.828125 589.757812,356.382812 C589.695312,356.101562 589.664062,355.566406 589.664062,354.777344 L589.664062,354.777344 L589.664062,353.617188 C589.664062,352.40625 589.498047,351.505859 589.166016,350.916016 C588.833984,350.326172 588.269531,349.871094 587.472656,349.550781 C588.425781,349.222656 589.109375,348.662109 589.523438,347.869141 C589.9375,347.076172 590.144531,346.269531 590.144531,345.449219 C590.144531,344.769531 590.035156,344.164062 589.816406,343.632812 C589.597656,343.101562 589.300781,342.617188 588.925781,342.179688 C588.472656,341.648438 587.919922,341.246094 587.267578,340.972656 C586.615234,340.699219 585.683594,340.550781 584.472656,340.527344 L584.472656,340.527344 L576,340.527344 L576,357.800781 L579.527344,357.800781 Z M583.617188,348.167969 L579.527344,348.167969 L579.527344,343.527344 L583.722656,343.527344 C584.503906,343.527344 585.089844,343.628906 585.480469,343.832031 C586.175781,344.191406 586.523438,344.894531 586.523438,345.941406 C586.523438,346.910156 586.164062,347.558594 585.445312,347.886719 C585.039062,348.074219 584.429688,348.167969 583.617188,348.167969 L583.617188,348.167969 Z M598.136719,358.222656 C600.105469,358.222656 601.636719,357.601562 602.730469,356.359375 C603.433594,355.578125 603.828125,354.808594 603.914062,354.050781 L603.914062,354.050781 L600.503906,354.050781 C600.324219,354.425781 600.117188,354.71875 599.882812,354.929688 C599.453125,355.320312 598.894531,355.515625 598.207031,355.515625 C597.558594,355.515625 597.003906,355.355469 596.542969,355.035156 C595.785156,354.519531 595.382812,353.621094 595.335938,352.339844 L595.335938,352.339844 L604.078125,352.339844 C604.09375,351.238281 604.058594,350.394531 603.972656,349.808594 C603.824219,348.808594 603.5,347.929688 603,347.171875 C602.445312,346.3125 601.742188,345.683594 600.890625,345.285156 C600.039062,344.886719 599.082031,344.6875 598.019531,344.6875 C596.230469,344.6875 594.775391,345.277344 593.654297,346.457031 C592.533203,347.636719 591.972656,349.332031 591.972656,351.542969 C591.972656,353.902344 592.59375,355.605469 593.835938,356.652344 C595.078125,357.699219 596.511719,358.222656 598.136719,358.222656 Z M600.609375,350.136719 L595.417969,350.136719 C595.527344,349.308594 595.794922,348.652344 596.220703,348.167969 C596.646484,347.683594 597.246094,347.441406 598.019531,347.441406 C598.730469,347.441406 599.326172,347.669922 599.806641,348.126953 C600.287109,348.583984 600.554688,349.253906 600.609375,350.136719 L600.609375,350.136719 Z M609.457031,358.199219 C610.363281,358.199219 611.175781,357.992188 611.894531,357.578125 C612.496094,357.226562 613.027344,356.800781 613.488281,356.300781 C613.511719,356.589844 613.542969,356.847656 613.582031,357.074219 C613.621094,357.300781 613.691406,357.542969 613.792969,357.800781 L613.792969,357.800781 L617.425781,357.800781 L617.425781,357.308594 C617.207031,357.207031 617.042969,357.078125 616.933594,356.921875 C616.824219,356.765625 616.757812,356.46875 616.734375,356.03125 C616.71875,355.453125 616.710938,354.960938 616.710938,354.554688 L616.710938,354.554688 L616.710938,348.695312 C616.710938,347.15625 616.167969,346.109375 615.082031,345.554688 C613.996094,345 612.753906,344.722656 611.355469,344.722656 C609.207031,344.722656 607.691406,345.285156 606.808594,346.410156 C606.253906,347.128906 605.941406,348.046875 605.871094,349.164062 L605.871094,349.164062 L609.09375,349.164062 C609.171875,348.671875 609.328125,348.28125 609.5625,347.992188 C609.890625,347.601562 610.449219,347.40625 611.238281,347.40625 C611.941406,347.40625 612.474609,347.505859 612.837891,347.705078 C613.201172,347.904297 613.382812,348.265625 613.382812,348.789062 C613.382812,349.21875 613.144531,349.535156 612.667969,349.738281 C612.402344,349.855469 611.960938,349.953125 611.34375,350.03125 L611.34375,350.03125 L610.207031,350.171875 C608.917969,350.335938 607.941406,350.609375 607.277344,350.992188 C606.066406,351.695312 605.460938,352.832031 605.460938,354.402344 C605.460938,355.613281 605.837891,356.548828 606.591797,357.208984 C607.345703,357.869141 608.300781,358.199219 609.457031,358.199219 Z M610.441406,355.773438 C609.988281,355.773438 609.603516,355.646484 609.287109,355.392578 C608.970703,355.138672 608.8125,354.726562 608.8125,354.15625 C608.8125,353.515625 609.070312,353.042969 609.585938,352.738281 C609.890625,352.558594 610.394531,352.40625 611.097656,352.28125 L611.097656,352.28125 L611.847656,352.140625 C612.222656,352.070312 612.517578,351.994141 612.732422,351.912109 C612.947266,351.830078 613.160156,351.722656 613.371094,351.589844 L613.371094,351.589844 L613.371094,352.832031 C613.347656,353.949219 613.033203,354.71875 612.427734,355.140625 C611.822266,355.5625 611.160156,355.773438 610.441406,355.773438 Z M624.9375,358.246094 C626.992188,358.246094 628.542969,357.515625 629.589844,356.054688 C630.246094,355.148438 630.613281,354.1875 630.691406,353.171875 L630.691406,353.171875 L627.28125,353.171875 C627.210938,353.84375 627.011719,354.390625 626.683594,354.8125 C626.355469,355.234375 625.800781,355.445312 625.019531,355.445312 C623.917969,355.445312 623.167969,354.914062 622.769531,353.851562 C622.550781,353.28125 622.441406,352.527344 622.441406,351.589844 C622.441406,350.605469 622.550781,349.816406 622.769531,349.222656 C623.183594,348.105469 623.953125,347.546875 625.078125,347.546875 C625.867188,347.546875 626.449219,347.804688 626.824219,348.320312 C627.082031,348.703125 627.242188,349.132812 627.304688,349.609375 L627.304688,349.609375 L630.726562,349.609375 C630.539062,347.789062 629.935547,346.519531 628.916016,345.800781 C627.896484,345.082031 626.585938,344.722656 624.984375,344.722656 C623.101562,344.722656 621.625,345.332031 620.554688,346.550781 C619.484375,347.769531 618.949219,349.476562 618.949219,351.671875 C618.949219,353.617188 619.433594,355.199219 620.402344,356.417969 C621.371094,357.636719 622.882812,358.246094 624.9375,358.246094 Z M636.375,357.800781 L636.375,350.886719 C636.375,349.792969 636.603516,348.951172 637.060547,348.361328 C637.517578,347.771484 638.1875,347.476562 639.070312,347.476562 C639.921875,347.476562 640.5,347.773438 640.804688,348.367188 C641.039062,348.789062 641.15625,349.34375 641.15625,350.03125 L641.15625,350.03125 L641.15625,357.800781 L644.566406,357.800781 L644.566406,350.300781 C644.566406,349.160156 644.527344,348.337891 644.449219,347.833984 C644.371094,347.330078 644.15625,346.839844 643.804688,346.363281 C643.390625,345.800781 642.861328,345.382812 642.216797,345.109375 C641.572266,344.835938 640.855469,344.699219 640.066406,344.699219 C639.363281,344.699219 638.693359,344.845703 638.056641,345.138672 C637.419922,345.431641 636.859375,345.949219 636.375,346.691406 L636.375,346.691406 L636.375,340.585938 L633.046875,340.585938 L633.046875,357.800781 L636.375,357.800781 Z M651.117188,343.503906 L651.117188,340.421875 L647.730469,340.421875 L647.730469,343.503906 L651.117188,343.503906 Z M651.117188,357.800781 L651.117188,345.027344 L647.730469,345.027344 L647.730469,357.800781 L651.117188,357.800781 Z M657.703125,357.800781 L657.703125,350.886719 C657.703125,350.097656 657.8125,349.449219 658.03125,348.941406 C658.453125,347.980469 659.230469,347.5 660.363281,347.5 C661.285156,347.5 661.910156,347.828125 662.238281,348.484375 C662.417969,348.84375 662.507812,349.359375 662.507812,350.03125 L662.507812,350.03125 L662.507812,357.800781 L665.929688,357.800781 L665.929688,349.199219 C665.929688,347.597656 665.509766,346.451172 664.669922,345.759766 C663.830078,345.068359 662.75,344.722656 661.429688,344.722656 C660.375,344.722656 659.503906,344.980469 658.816406,345.496094 C658.433594,345.785156 658.027344,346.257812 657.597656,346.914062 L657.597656,346.914062 L657.597656,345.050781 L654.375,345.050781 L654.375,357.800781 L657.703125,357.800781 Z M674.238281,363.027344 C676.941406,363.027344 678.769531,362.308594 679.722656,360.871094 C680.277344,360.035156 680.554688,358.792969 680.554688,357.144531 L680.554688,357.144531 L680.554688,345.027344 L677.308594,345.027344 L677.308594,346.867188 C676.808594,345.96875 676.152344,345.351562 675.339844,345.015625 C674.863281,344.820312 674.304688,344.722656 673.664062,344.722656 C671.929688,344.722656 670.589844,345.369141 669.644531,346.662109 C668.699219,347.955078 668.226562,349.550781 668.226562,351.449219 C668.226562,353.417969 668.716797,354.978516 669.697266,356.130859 C670.677734,357.283203 671.988281,357.859375 673.628906,357.859375 C674.691406,357.859375 675.554688,357.605469 676.21875,357.097656 C676.585938,356.824219 676.929688,356.414062 677.25,355.867188 L677.25,355.867188 L677.25,356.6875 C677.25,357.90625 677.117188,358.773438 676.851562,359.289062 C676.445312,360.09375 675.640625,360.496094 674.4375,360.496094 C673.585938,360.496094 672.980469,360.34375 672.621094,360.039062 C672.410156,359.867188 672.257812,359.585938 672.164062,359.195312 L672.164062,359.195312 L668.53125,359.195312 C668.640625,360.46875 669.210938,361.425781 670.242188,362.066406 C671.273438,362.707031 672.605469,363.027344 674.238281,363.027344 Z M674.496094,355.058594 C673.324219,355.058594 672.511719,354.519531 672.058594,353.441406 C671.808594,352.863281 671.683594,352.203125 671.683594,351.460938 C671.683594,350.601562 671.800781,349.878906 672.035156,349.292969 C672.480469,348.191406 673.289062,347.640625 674.460938,347.640625 C675.320312,347.640625 676.005859,347.957031 676.517578,348.589844 C677.029297,349.222656 677.285156,350.144531 677.285156,351.355469 C677.285156,352.644531 677.015625,353.583984 676.476562,354.173828 C675.9375,354.763672 675.277344,355.058594 674.496094,355.058594 Z M698.25,358.28125 C700.71875,358.28125 702.605469,357.609375 703.910156,356.265625 C705.652344,354.617188 706.523438,352.242188 706.523438,349.140625 C706.523438,345.976562 705.652344,343.601562 703.910156,342.015625 C702.605469,340.671875 700.71875,340 698.25,340 C695.78125,340 693.894531,340.671875 692.589844,342.015625 C690.839844,343.601562 689.964844,345.976562 689.964844,349.140625 C689.964844,352.242188 690.839844,354.617188 692.589844,356.265625 C693.894531,357.609375 695.78125,358.28125 698.25,358.28125 Z M698.25,355.222656 C696.820312,355.222656 695.679688,354.695312 694.828125,353.640625 C693.976562,352.585938 693.550781,351.085938 693.550781,349.140625 C693.550781,347.195312 693.976562,345.695312 694.828125,344.640625 C695.679688,343.585938 696.820312,343.058594 698.25,343.058594 C699.679688,343.058594 700.814453,343.587891 701.654297,344.646484 C702.494141,345.705078 702.914062,347.203125 702.914062,349.140625 C702.914062,351.085938 702.494141,352.585938 701.654297,353.640625 C700.814453,354.695312 699.679688,355.222656 698.25,355.222656 Z M713.285156,358.082031 C713.941406,358.082031 714.513672,357.996094 715.001953,357.824219 C715.490234,357.652344 715.996094,357.332031 716.519531,356.863281 C716.691406,356.714844 716.839844,356.542969 716.964844,356.347656 C717.089844,356.152344 717.167969,356.035156 717.199219,355.996094 L717.199219,355.996094 L717.199219,357.800781 L720.445312,357.800781 L720.445312,345.027344 L717.058594,345.027344 L717.058594,351.976562 C717.058594,352.796875 716.949219,353.457031 716.730469,353.957031 C716.308594,354.878906 715.527344,355.339844 714.386719,355.339844 C713.496094,355.339844 712.898438,355.015625 712.59375,354.367188 C712.421875,354 712.335938,353.453125 712.335938,352.726562 L712.335938,352.726562 L712.335938,345.027344 L708.914062,345.027344 L708.914062,352.726562 C708.914062,354.1875 709.097656,355.292969 709.464844,356.042969 C710.121094,357.402344 711.394531,358.082031 713.285156,358.082031 Z M727.643555,357.982971 L727.933594,357.976562 L729.515625,357.917969 L729.515625,355.421875 C729.40625,355.429688 729.294922,355.435547 729.181641,355.439453 C729.068359,355.443359 728.960938,355.445312 728.859375,355.445312 C728.179688,355.445312 727.773438,355.380859 727.640625,355.251953 C727.507812,355.123047 727.441406,354.796875 727.441406,354.273438 L727.441406,354.273438 L727.441406,347.523438 L729.515625,347.523438 L729.515625,345.144531 L727.441406,345.144531 L727.441406,341.582031 L724.136719,341.582031 L724.136719,345.144531 L722.355469,345.144531 L722.355469,347.523438 L724.136719,347.523438 L724.136719,355.386719 C724.136719,356.183594 724.324219,356.773438 724.699219,357.15625 C725.277344,357.757812 726.355469,358.03125 727.933594,357.976562 L727.643555,357.982971 Z" id="ReachingOut" fill="#9E9E9E" fill-rule="nonzero"></path>
    </g>
</svg>