<?xml version="1.0" encoding="UTF-8"?>
<svg width="384px" height="136px" viewBox="0 0 384 136" version="1.1" xmlns="http://www.w3.org/2000/svg" xmlns:xlink="http://www.w3.org/1999/xlink">
    <title>toggle-button-example</title>
    <defs>
        <filter x="-9.4%" y="-9.4%" width="118.8%" height="118.8%" filterUnits="objectBoundingBox" id="filter-1">
            <feGaussianBlur stdDeviation="2" in="SourceGraphic"></feGaussianBlur>
        </filter>
        <filter x="-9.4%" y="-9.4%" width="118.8%" height="118.8%" filterUnits="objectBoundingBox" id="filter-2">
            <feGaussianBlur stdDeviation="2" in="SourceGraphic"></feGaussianBlur>
        </filter>
        <filter x="-9.4%" y="-9.4%" width="118.8%" height="118.8%" filterUnits="objectBoundingBox" id="filter-3">
            <feGaussianBlur stdDeviation="2" in="SourceGraphic"></feGaussianBlur>
        </filter>
        <filter x="-9.4%" y="-9.4%" width="118.8%" height="118.8%" filterUnits="objectBoundingBox" id="filter-4">
            <feGaussianBlur stdDeviation="2" in="SourceGraphic"></feGaussianBlur>
        </filter>
    </defs>
    <g id="toggle-button-example" stroke="none" stroke-width="1" fill="none" fill-rule="evenodd">
        <rect id="Rectangle" fill="#EEEEEE" x="0" y="0" width="384" height="136" rx="8"></rect>
        <g id="Group-Copy-2" transform="translate(34.000000, 32.000000)">
            <rect id="shade" fill-opacity="0.5" fill="#000000" opacity="0.35" filter="url(#filter-1)" x="0" y="8" width="64" height="64" rx="8"></rect>
            <rect id="Rectangle" fill="#FFFFFF" x="0" y="0" width="64" height="64" rx="8"></rect>
            <path d="M26.9921875,43 L28.3984375,37.234375 L34.5703125,37.234375 L36.0078125,43 L40.6171875,43 L34.3203125,19.671875 L28.6796875,19.671875 L22.3828125,43 L26.9921875,43 Z M33.6796875,33.4375 L29.3203125,33.4375 L31.4921875,23.890625 L33.6796875,33.4375 Z" id="A" fill="#000000" fill-rule="nonzero"></path>
        </g>
        <g id="Group-Copy-3" transform="translate(118.000000, 36.000000)">
            <rect id="shade" fill-opacity="0.5" fill="#000000" opacity="0.25" filter="url(#filter-2)" x="0" y="4" width="64" height="64" rx="8"></rect>
            <rect id="Rectangle" fill="#FFFFFF" x="0" y="0" width="64" height="64" rx="8"></rect>
            <path d="M31.3359375,43 C34.3880208,43 36.5911458,42.4947917 37.9453125,41.484375 C39.2994792,40.4739583 39.9765625,38.84375 39.9765625,36.59375 C39.9765625,34.7604167 39.5260417,33.3333333 38.625,32.3125 C37.7239583,31.2916667 36.3828125,30.6927083 34.6015625,30.515625 C36.0911458,30.3802083 37.2213542,29.890625 37.9921875,29.046875 C38.7630208,28.203125 39.1484375,27.03125 39.1484375,25.53125 C39.1484375,23.5729167 38.4947917,22.1015625 37.1875,21.1171875 C35.8802083,20.1328125 33.9296875,19.640625 31.3359375,19.640625 L31.3359375,19.640625 L23.8203125,19.640625 L23.8203125,43 L31.3359375,43 Z M31.3359375,28.734375 L28.2734375,28.734375 L28.2734375,23.3125 L31.3359375,23.3125 C32.4817708,23.3125 33.3072917,23.5286458 33.8125,23.9609375 C34.3177083,24.3932292 34.5703125,25.0885417 34.5703125,26.046875 C34.5703125,27.0052083 34.3229167,27.6927083 33.828125,28.109375 C33.3333333,28.5260417 32.5026042,28.734375 31.3359375,28.734375 L31.3359375,28.734375 Z M31.3359375,39.3125 L28.2734375,39.3125 L28.2734375,32.40625 L31.3359375,32.40625 C32.7526042,32.40625 33.7682292,32.6822917 34.3828125,33.234375 C34.9973958,33.7864583 35.3046875,34.6927083 35.3046875,35.953125 C35.3046875,37.1927083 35.0104167,38.0625 34.421875,38.5625 C33.8333333,39.0625 32.8046875,39.3125 31.3359375,39.3125 L31.3359375,39.3125 Z" id="B" fill="#1089FF" fill-rule="nonzero"></path>
        </g>
        <g id="Group-Copy-4" transform="translate(202.000000, 32.000000)">
            <rect id="shade" fill-opacity="0.5" fill="#000000" opacity="0.35" filter="url(#filter-3)" x="0" y="8" width="64" height="64" rx="8"></rect>
            <rect id="Rectangle" fill="#FFFFFF" x="0" y="0" width="64" height="64" rx="8"></rect>
            <path d="M33.9296875,43.453125 C34.8151042,43.453125 35.6588542,43.359375 36.4609375,43.171875 C37.2630208,42.984375 38.0286458,42.703125 38.7578125,42.328125 L38.7578125,42.328125 L38.7578125,37.203125 C37.9661458,37.9322917 37.1979167,38.4661458 36.453125,38.8046875 C35.7083333,39.1432292 34.9401042,39.3125 34.1484375,39.3125 C32.4609375,39.3125 31.1875,38.6432292 30.328125,37.3046875 C29.46875,35.9661458 29.0390625,33.984375 29.0390625,31.359375 C29.0390625,28.7239583 29.46875,26.7369792 30.328125,25.3984375 C31.1875,24.0598958 32.4609375,23.390625 34.1484375,23.390625 C34.9401042,23.390625 35.7083333,23.5598958 36.453125,23.8984375 C37.1979167,24.2369792 37.9661458,24.7708333 38.7578125,25.5 L38.7578125,25.5 L38.7578125,20.375 C38.0494792,20 37.2890625,19.71875 36.4765625,19.53125 C35.6640625,19.34375 34.8151042,19.25 33.9296875,19.25 C30.7838542,19.25 28.3828125,20.2864583 26.7265625,22.359375 C25.0703125,24.4322917 24.2421875,27.4322917 24.2421875,31.359375 C24.2421875,35.2760417 25.0703125,38.2708333 26.7265625,40.34375 C28.3828125,42.4166667 30.7838542,43.453125 33.9296875,43.453125 Z" id="C" fill="#000000" fill-rule="nonzero"></path>
        </g>
        <g id="Group-Copy-5" transform="translate(286.000000, 32.000000)">
            <rect id="shade" fill-opacity="0.5" fill="#000000" opacity="0.35" filter="url(#filter-4)" x="0" y="8" width="64" height="64" rx="8"></rect>
            <rect id="Rectangle" fill="#FFFFFF" x="0" y="0" width="64" height="64" rx="8"></rect>
            <path d="M28.9453125,43 C32.7578125,43 35.5026042,42.0859375 37.1796875,40.2578125 C38.8567708,38.4296875 39.6953125,35.4479167 39.6953125,31.3125 C39.6953125,27.1875 38.8567708,24.2161458 37.1796875,22.3984375 C35.5026042,20.5807292 32.7578125,19.671875 28.9453125,19.671875 L28.9453125,19.671875 L24.0078125,19.671875 L24.0078125,43 L28.9453125,43 Z M29.8671875,38.84375 L28.6171875,38.84375 L28.6171875,23.828125 L29.8671875,23.828125 C31.6796875,23.828125 32.9713542,24.3958333 33.7421875,25.53125 C34.5130208,26.6666667 34.8984375,28.59375 34.8984375,31.3125 C34.8984375,34.0520833 34.5130208,35.9921875 33.7421875,37.1328125 C32.9713542,38.2734375 31.6796875,38.84375 29.8671875,38.84375 L29.8671875,38.84375 Z" id="D" fill="#000000" fill-rule="nonzero"></path>
        </g>
    </g>
</svg>